<svg xmlns="http://www.w3.org/2000/svg" xmlns:xlink="http://www.w3.org/1999/xlink" viewBox="0 0 136.02 29.99"><defs><style>.cls-1,.cls-2,.cls-3{fill:none;stroke-miterlimit:10;}.cls-1{stroke:url(#linear-gradient);}.cls-2{stroke:url(#linear-gradient-2);}.cls-3{stroke:url(#linear-gradient-3);}</style><linearGradient id="linear-gradient" y1="4.5" x2="135.02" y2="4.5" gradientUnits="userSpaceOnUse"><stop offset="0" stop-color="#120e73"/><stop offset="0.51" stop-color="#ff8294"/><stop offset="1" stop-color="#01dedd"/></linearGradient><linearGradient id="linear-gradient-2" y1="14.5" x2="135.02" y2="14.5" xlink:href="#linear-gradient"/><linearGradient id="linear-gradient-3" x1="1" y1="25.5" x2="136.02" y2="25.5" xlink:href="#linear-gradient"/></defs><title>Asset 1</title><g id="Layer_2" data-name="Layer 2"><g id="Layer_1-2" data-name="Layer 1"><path class="cls-1" d="M135,8.49h0c-2.32-.11-3.84-.83-7-4-1.5-1.5-3.5-4-8-4s-6.5,2.5-8,4c-3.16,3.16-4.68,3.88-7,4h0c-2.32-.11-3.84-.83-7-4-1.5-1.5-3.5-4-8-4s-6.5,2.5-8,4c-3.16,3.16-4.68,3.88-7,4h0c-2.32-.11-3.84-.83-7-4-1.5-1.5-3.5-4-8-4s-6.5,2.5-8,4c-3.16,3.16-4.68,3.88-7,4h0c-2.32-.11-3.84-.83-7-4-1.5-1.5-3.5-4-8-4s-6.5,2.5-8,4c-3.16,3.16-4.68,3.88-7,4h0c-2.32-.11-3.84-.83-7-4C6.5,3,4.5.5,0,.5"/><path class="cls-2" d="M135,18.49h0c-2.32-.11-3.84-.83-7-4-1.5-1.5-3.5-4-8-4s-6.5,2.5-8,4c-3.16,3.16-4.68,3.88-7,4h0c-2.32-.11-3.84-.83-7-4-1.5-1.5-3.5-4-8-4s-6.5,2.5-8,4c-3.16,3.16-4.68,3.88-7,4h0c-2.32-.11-3.84-.83-7-4-1.5-1.5-3.5-4-8-4s-6.5,2.5-8,4c-3.16,3.16-4.68,3.88-7,4h0c-2.32-.11-3.84-.83-7-4-1.5-1.5-3.5-4-8-4s-6.5,2.5-8,4c-3.16,3.16-4.68,3.88-7,4h0c-2.32-.11-3.84-.83-7-4-1.5-1.5-3.5-4-8-4"/><path class="cls-3" d="M136,29.49h0c-2.32-.11-3.84-.83-7-4-1.5-1.5-3.5-4-8-4s-6.5,2.5-8,4c-3.16,3.16-4.68,3.88-7,4h0c-2.32-.11-3.84-.83-7-4-1.5-1.5-3.5-4-8-4s-6.5,2.5-8,4c-3.16,3.16-4.68,3.88-7,4h0c-2.32-.11-3.84-.83-7-4-1.5-1.5-3.5-4-8-4s-6.5,2.5-8,4c-3.16,3.16-4.68,3.88-7,4h0c-2.32-.11-3.84-.83-7-4-1.5-1.5-3.5-4-8-4s-6.5,2.5-8,4c-3.16,3.16-4.68,3.88-7,4h0c-2.32-.11-3.84-.83-7-4-1.5-1.5-3.5-4-8-4"/></g></g></svg>