<svg xmlns="http://www.w3.org/2000/svg" width="27" height="27" viewBox="0 0 27 27">
    <g fill="#000" fill-rule="evenodd">
        <path d="M24.662 3.025c0-.653-.529-1.182-1.182-1.182H2.862c-.653 0-1.182.529-1.182 1.182V23.24c0 .653.53 1.182 1.182 1.182H23.48c.653 0 1.182-.53 1.182-1.182V3.025zm1.613 20.215a2.795 2.795 0 0 1-2.795 2.795H2.862A2.795 2.795 0 0 1 .067 23.24V3.025A2.795 2.795 0 0 1 2.862.23H23.48a2.795 2.795 0 0 1 2.795 2.795V23.24z"/>
        <path d="M25.315 6.278H.72a.403.403 0 1 1 0-.807h24.595a.403.403 0 0 1 0 .807M3.542 4.262H3.14a.403.403 0 1 1 0-.807h.403a.403.403 0 0 1 0 .807M6.365 4.262H5.96a.403.403 0 1 1 0-.807h.404a.403.403 0 0 1 0 .807M9.187 4.262h-.403a.403.403 0 1 1 0-.807h.403a.403.403 0 0 1 0 .807M8.851 20.584a.403.403 0 0 1-.313-.149l-3.696-4.561a.404.404 0 0 1 0-.508l2.276-2.81a.403.403 0 0 1 .627.508L5.674 15.62l3.49 4.307a.404.404 0 0 1-.313.657M8.482 11.916a.403.403 0 0 1-.313-.657l.369-.454a.403.403 0 0 1 .626.508l-.368.454a.404.404 0 0 1-.314.15M17.587 20.584a.403.403 0 0 1-.313-.657l3.49-4.307-3.49-4.307a.404.404 0 0 1 .626-.508l3.696 4.56c.12.149.12.36 0 .509L17.9 20.435a.405.405 0 0 1-.313.15M11.539 18.442a.404.404 0 0 1-.313-.657l3.696-4.561a.404.404 0 0 1 .626.508l-3.696 4.56a.404.404 0 0 1-.313.15"/>
    </g>
</svg>
