<svg xmlns="http://www.w3.org/2000/svg" width="26" height="27" viewBox="0 0 26 27">
    <g fill="#000" fill-rule="evenodd">
        <path d="M24.259 6.25c0-.652-.53-1.182-1.182-1.182H2.862c-.653 0-1.182.53-1.182 1.182v17.796c0 .653.53 1.182 1.182 1.182h20.215c.653 0 1.182-.529 1.182-1.182V6.25zm1.613 17.796a2.795 2.795 0 0 1-2.795 2.795H2.862a2.795 2.795 0 0 1-2.795-2.795V6.25a2.795 2.795 0 0 1 2.795-2.795h20.215a2.795 2.795 0 0 1 2.795 2.795v17.796z"/>
        <path d="M21.479 24.019h-2.544a.403.403 0 1 1 0-.807h2.544c.399 0 .681-.068.681-.95 0-.223.222-.404.445-.404s.444.18.444.403v.145c0 .024-.043.047-.047.07-.06 1.024-.599 1.543-1.523 1.543M22.596 20.959a.418.418 0 0 1-.287-.117.416.416 0 0 1-.116-.286.42.42 0 0 1 .116-.287c.15-.15.42-.15.573 0a.422.422 0 0 1 .117.287c0 .104-.044.209-.117.286a.426.426 0 0 1-.286.117M6.032 14.745H5.63a.403.403 0 1 1 0-.806h.403a.403.403 0 1 1 0 .806M8.855 14.745H8.45a.403.403 0 1 1 0-.806h.404a.403.403 0 1 1 0 .806M11.677 14.745h-.403a.403.403 0 1 1 0-.806h.403a.403.403 0 1 1 0 .806M14.096 14.745h-.403a.403.403 0 1 1 0-.806h.403a.403.403 0 1 1 0 .806M16.919 14.745h-.404a.403.403 0 1 1 0-.806h.404a.403.403 0 1 1 0 .806M19.741 14.745h-.403a.403.403 0 1 1 0-.806h.403a.403.403 0 1 1 0 .806M6.032 17.164H5.63a.403.403 0 1 1 0-.806h.403a.403.403 0 1 1 0 .806M8.855 17.164H8.45a.403.403 0 1 1 0-.806h.404a.403.403 0 1 1 0 .806M11.677 17.164h-.403a.403.403 0 1 1 0-.806h.403a.403.403 0 1 1 0 .806M14.096 17.164h-.403a.403.403 0 1 1 0-.806h.403a.403.403 0 1 1 0 .806M16.919 17.164h-.404a.403.403 0 1 1 0-.806h.404a.403.403 0 1 1 0 .806M19.741 17.164h-.403a.403.403 0 1 1 0-.806h.403a.403.403 0 1 1 0 .806M6.032 22.003H5.63a.403.403 0 1 1 0-.807h.403a.403.403 0 1 1 0 .807M8.855 22.003H8.45a.403.403 0 1 1 0-.807h.404a.403.403 0 1 1 0 .807M11.677 22.003h-.403a.403.403 0 1 1 0-.807h.403a.403.403 0 1 1 0 .807M14.096 22.003h-.403a.403.403 0 1 1 0-.807h.403a.403.403 0 1 1 0 .807M6.032 19.583H5.63a.403.403 0 1 1 0-.806h.403a.403.403 0 1 1 0 .806M8.855 19.583H8.45a.403.403 0 1 1 0-.806h.404a.403.403 0 1 1 0 .806M11.677 19.583h-.403a.403.403 0 1 1 0-.806h.403a.403.403 0 1 1 0 .806M14.096 19.583h-.403a.403.403 0 1 1 0-.806h.403a.403.403 0 1 1 0 .806M16.919 19.583h-.404a.403.403 0 1 1 0-.806h.404a.403.403 0 1 1 0 .806M19.741 19.583h-.403a.403.403 0 1 1 0-.806h.403a.403.403 0 1 1 0 .806M5.712 7.89a.806.806 0 0 1-.807-.806V1.036a.807.807 0 0 1 1.613 0v6.048c0 .446-.36.807-.806.807M19.824 7.89a.806.806 0 0 1-.807-.806V1.036a.807.807 0 0 1 1.613 0v6.048c0 .446-.36.807-.806.807M24.983 11.116H.79a.403.403 0 1 1 0-.806h24.192a.403.403 0 1 1 0 .806"/>
    </g>
</svg>
