<?xml version="1.0" encoding="UTF-8"?>
<svg width="27px" height="27px" viewBox="0 0 27 27" version="1.1" xmlns="http://www.w3.org/2000/svg" xmlns:xlink="http://www.w3.org/1999/xlink">
    <g stroke="none" stroke-width="1" fill="none" fill-rule="evenodd">
        <g transform="translate(-2.000000, -2.000000)" fill="#000000">
            <g transform="translate(2.000000, 2.000000)">
                <path d="M1.34910707,15.7131057 C1.15879669,15.7131057 1.0450943,15.6461745 0.891475114,15.5102961 C0.301593571,14.987749 0.0669311935,14.302309 0.0669311935,13.5273587 L0.0669311935,2.98892131 C0.0669311935,1.46764786 1.16726389,0.229823978 2.70829414,0.229823978 L18.891531,0.229823978 C20.4325612,0.229823978 21.8397291,1.46764786 21.8397291,2.98892131 L21.8397291,3.45542367 C21.8397291,3.90095962 21.4788651,4.26182359 21.0333292,4.26182359 C20.5881964,4.26182359 20.2269292,3.90095962 20.2269292,3.45542367 L20.2269292,2.98892131 C20.2269292,2.34622057 19.5539885,1.84262382 18.891531,1.84262382 L2.70829414,1.84262382 C2.0454334,1.84262382 1.67973104,2.34622057 1.67973104,2.98892131 L1.67973104,13.5273587 C1.67973104,13.8362099 1.72005103,14.0894194 1.96076141,14.3031154 C2.29420778,14.5982578 2.28695018,15.1083057 1.99140461,15.4413489 C1.83173742,15.6211761 1.57167345,15.7131057 1.34910707,15.7131057"></path>
                <path d="M12.4125108,11.5194229 L9.18691111,11.5194229 C8.96394153,11.5194229 8.78371115,11.3391925 8.78371115,11.1162229 C8.78371115,10.8936565 8.96394153,10.713023 9.18691111,10.713023 L12.4125108,10.713023 C12.6354804,10.713023 12.8157108,10.8936565 12.8157108,11.1162229 C12.8157108,11.3391925 12.6354804,11.5194229 12.4125108,11.5194229"></path>
                <path d="M18.0573103,11.5194229 L14.0253106,11.5194229 C13.8023411,11.5194229 13.6221107,11.3391925 13.6221107,11.1162229 C13.6221107,10.8936565 13.8023411,10.713023 14.0253106,10.713023 L18.0573103,10.713023 C18.2802798,10.713023 18.4605102,10.8936565 18.4605102,11.1162229 C18.4605102,11.3391925 18.2802798,11.5194229 18.0573103,11.5194229"></path>
                <path d="M21.2829099,11.5194229 L19.6701101,11.5194229 C19.4471405,11.5194229 19.2669101,11.3391925 19.2669101,11.1162229 C19.2669101,10.8936565 19.4471405,10.713023 19.6701101,10.713023 L21.2829099,10.713023 C21.5058795,10.713023 21.6861099,10.8936565 21.6861099,11.1162229 C21.6861099,11.3391925 21.5058795,11.5194229 21.2829099,11.5194229"></path>
                <path d="M10.799711,13.5354227 L9.18691111,13.5354227 C8.96394153,13.5354227 8.78371115,13.3551923 8.78371115,13.1322227 C8.78371115,12.9096564 8.96394153,12.7290228 9.18691111,12.7290228 L10.799711,12.7290228 C11.0226805,12.7290228 11.2029109,12.9096564 11.2029109,13.1322227 C11.2029109,13.3551923 11.0226805,13.5354227 10.799711,13.5354227"></path>
                <path d="M15.6381105,13.5354227 L12.4125108,13.5354227 C12.1895412,13.5354227 12.0093108,13.3551923 12.0093108,13.1322227 C12.0093108,12.9096564 12.1895412,12.7290228 12.4125108,12.7290228 L15.6381105,12.7290228 C15.8610801,12.7290228 16.0413105,12.9096564 16.0413105,13.1322227 C16.0413105,13.3551923 15.8610801,13.5354227 15.6381105,13.5354227"></path>
                <path d="M21.2829099,13.5354227 L17.2509103,13.5354227 C17.0279408,13.5354227 16.8477104,13.3551923 16.8477104,13.1322227 C16.8477104,12.9096564 17.0279408,12.7290228 17.2509103,12.7290228 L21.2829099,12.7290228 C21.5058795,12.7290228 21.6861099,12.9096564 21.6861099,13.1322227 C21.6861099,13.3551923 21.5058795,13.5354227 21.2829099,13.5354227"></path>
                <path d="M13.2189107,15.9546225 L9.18691111,15.9546225 C8.96394153,15.9546225 8.78371115,15.7743921 8.78371115,15.5514225 C8.78371115,15.3288561 8.96394153,15.1482225 9.18691111,15.1482225 L13.2189107,15.1482225 C13.4418803,15.1482225 13.6221107,15.3288561 13.6221107,15.5514225 C13.6221107,15.7743921 13.4418803,15.9546225 13.2189107,15.9546225"></path>
                <path d="M18.8637102,15.9546225 L14.8317106,15.9546225 C14.608741,15.9546225 14.4285106,15.7743921 14.4285106,15.5514225 C14.4285106,15.3288561 14.608741,15.1482225 14.8317106,15.1482225 L18.8637102,15.1482225 C19.0866798,15.1482225 19.2669101,15.3288561 19.2669101,15.5514225 C19.2669101,15.7743921 19.0866798,15.9546225 18.8637102,15.9546225"></path>
                <path d="M21.2829099,15.9546225 L20.47651,15.9546225 C20.2535404,15.9546225 20.0733101,15.7743921 20.0733101,15.5514225 C20.0733101,15.3288561 20.2535404,15.1482225 20.47651,15.1482225 L21.2829099,15.1482225 C21.5058795,15.1482225 21.6861099,15.3288561 21.6861099,15.5514225 C21.6861099,15.7743921 21.5058795,15.9546225 21.2829099,15.9546225"></path>
                <path d="M10.799711,17.9706223 L9.18691111,17.9706223 C8.96394153,17.9706223 8.78371115,17.7903919 8.78371115,17.5674223 C8.78371115,17.3448559 8.96394153,17.1642223 9.18691111,17.1642223 L10.799711,17.1642223 C11.0226805,17.1642223 11.2029109,17.3448559 11.2029109,17.5674223 C11.2029109,17.7903919 11.0226805,17.9706223 10.799711,17.9706223"></path>
                <path d="M15.2349105,17.9706223 L12.4125108,17.9706223 C12.1895412,17.9706223 12.0093108,17.7903919 12.0093108,17.5674223 C12.0093108,17.3448559 12.1895412,17.1642223 12.4125108,17.1642223 L15.2349105,17.1642223 C15.4578801,17.1642223 15.6381105,17.3448559 15.6381105,17.5674223 C15.6381105,17.7903919 15.4578801,17.9706223 15.2349105,17.9706223"></path>
                <path d="M9.89251105,26.2362215 C9.76308386,26.2362215 9.63365667,26.2051751 9.51511588,26.1422759 C9.24456871,25.9991399 9.07845032,25.7144807 9.08651432,25.4088551 L9.16513832,22.4058218 L7.14349371,22.4058218 C5.60246346,22.4058218 4.50213077,21.1361452 4.50213077,19.5753581 L4.50213077,9.03692073 C4.50213077,7.51564727 5.60246346,6.27782339 7.14349371,6.27782339 L23.3267305,6.27782339 C24.8677608,6.27782339 26.2749287,7.51564727 26.2749287,9.03692073 L26.2749287,19.5753581 C26.2749287,21.1361452 24.8677608,22.4058218 23.3267305,22.4058218 L15.4941681,22.4058218 L10.362239,26.0850215 C10.2227318,26.1854183 10.057823,26.2362215 9.89251105,26.2362215 Z M7.14349371,7.89062324 C6.48063297,7.89062324 6.11493061,8.39421999 6.11493061,9.03692073 L6.11493061,19.5753581 C6.11493061,20.2357996 6.50280897,20.793022 7.14349371,20.793022 L9.99331104,20.793022 C10.211039,20.793022 10.4194934,20.8809196 10.5710966,21.036958 C10.723103,21.1929964 10.8053558,21.4034667 10.7993078,21.6207915 L10.7416502,23.8291177 L14.7651826,20.944222 C14.9022706,20.8458412 15.0663729,20.793022 15.2349105,20.793022 L23.3267305,20.793022 C23.9670121,20.793022 24.6621288,20.2357996 24.6621288,19.5753581 L24.6621288,9.03692073 C24.6621288,8.39421999 23.9891881,7.89062324 23.3267305,7.89062324 L7.14349371,7.89062324 Z"></path>
            </g>
        </g>
    </g>
</svg>
