<svg xmlns="http://www.w3.org/2000/svg" width="27" height="26" viewBox="0 0 27 26">
    <g fill="#000" fill-rule="evenodd">
        <path d="M24.662 3.025c0-.653-.529-1.182-1.182-1.182H2.862c-.653 0-1.182.529-1.182 1.182v19.812c0 .653.53 1.182 1.182 1.182H23.48c.653 0 1.182-.53 1.182-1.182V3.025zm1.613 19.812a2.795 2.795 0 0 1-2.795 2.794H2.862a2.795 2.795 0 0 1-2.795-2.794V3.025A2.795 2.795 0 0 1 2.862.23H23.48a2.795 2.795 0 0 1 2.795 2.795v19.812z"/>
        <path d="M.724 20.036a.403.403 0 0 1-.33-.634l6.334-9.06c.314-.452.77-.724 1.282-.77.512-.044 1.008.145 1.397.534l5.21 5.21a.403.403 0 1 1-.57.57l-5.21-5.21c-.217-.217-.484-.327-.756-.3-.27.023-.516.175-.692.427l-6.335 9.061a.402.402 0 0 1-.33.172M23.487 19.92a.402.402 0 0 1-.277-.11l-.482-.455a.403.403 0 1 1 .554-.586l.482.456a.403.403 0 0 1-.277.695"/>
        <path d="M7.351 25.505a.403.403 0 0 1-.323-.644l8.134-10.928a1.826 1.826 0 0 1 1.314-.75 1.822 1.822 0 0 1 1.423.51l4.41 4.16a.404.404 0 0 1-.553.587l-4.41-4.16a1.027 1.027 0 0 0-.8-.294 1.03 1.03 0 0 0-.737.428L7.675 25.342a.403.403 0 0 1-.324.163M16.707 4.21a2.68 2.68 0 0 0-2.677 2.678 2.68 2.68 0 0 0 2.677 2.678 2.681 2.681 0 0 0 2.678-2.678 2.68 2.68 0 0 0-2.678-2.677zm0 6.163a3.488 3.488 0 0 1-3.484-3.485 3.488 3.488 0 0 1 3.484-3.484 3.488 3.488 0 0 1 3.484 3.484 3.488 3.488 0 0 1-3.484 3.485z"/>
    </g>
</svg>
