<svg xmlns="http://www.w3.org/2000/svg" width="27" height="27" viewBox="0 0 27 27">
    <g fill="#000" fill-rule="evenodd">
        <path d="M2.116 22.6c-.36.636-.444 1.23-.23 1.6.223.387.794.625 1.566.625H23.39c.77 0 1.341-.238 1.564-.625.216-.375.132-.96-.23-1.6l-8.05-11.968c-.096-.133-.076-.298-.076-.463V1.843h-5.645v8.326c0 .165-.181.33-.277.463L2.116 22.6zm21.274 3.838H3.452c-1.384 0-2.436-.516-2.963-1.432-.52-.899-.376-1.951.305-3.132l.112-.17 8.435-11.79v-8.91c0-.444.101-.774.546-.774h7.703c.446 0 .62.33.62.774v9.173l7.985 11.52c.014.02.002 0 .014.02.681 1.18.697 2.386.175 3.29-.527.91-1.612 1.43-2.994 1.43z"/>
        <path d="M18.531 17.446c-1.108 0-2.526-.37-4.482-1.54-3.317-1.98-8.247.742-8.296.77a.401.401 0 0 1-.55-.157.403.403 0 0 1 .155-.548c.219-.121 5.392-2.972 9.104-.754 3.46 2.068 4.952 1.423 6.27.859l.29-.125a.404.404 0 0 1 .31.746l-.282.12c-.692.295-1.466.63-2.519.63M7.81 20.176c-.773 0-1.4.63-1.4 1.4 0 .77.627 1.398 1.4 1.398.77 0 1.399-.629 1.399-1.399s-.628-1.399-1.4-1.399zm0 3.605a2.207 2.207 0 0 1-2.207-2.206 2.207 2.207 0 0 1 4.412 0c0 1.218-.99 2.206-2.206 2.206zM19.401 20.78a1.098 1.098 0 1 0 1.097 1.097c0-.604-.492-1.096-1.097-1.096zm0 3a1.906 1.906 0 0 1-1.903-1.902c0-1.049.854-1.903 1.903-1.903 1.05 0 1.904.854 1.904 1.903A1.906 1.906 0 0 1 19.4 23.78z"/>
        <path d="M13.071 17.959a.817.817 0 0 0-.815.814c0 .448.366.814.815.814.45 0 .815-.366.815-.814a.816.816 0 0 0-.815-.814zm0 2.435a1.622 1.622 0 0 1-1.621-1.621 1.622 1.622 0 0 1 3.242 0c0 .895-.727 1.62-1.62 1.62zM15.389 7.858a.404.404 0 0 1-.404-.403V3.02a.404.404 0 0 1 .807 0v4.435c0 .222-.18.403-.403.403M15.389 9.874a.404.404 0 0 1-.404-.403v-.403a.404.404 0 0 1 .807 0v.403c0 .222-.18.403-.403.403"/>
    </g>
</svg>
