<svg xmlns="http://www.w3.org/2000/svg" width="27" height="27" viewBox="0 0 27 27">
    <g fill="#000" fill-rule="evenodd">
        <path d="M10.046 1.893c-4.558 0-8.265 3.709-8.265 8.266 0 4.558 3.707 8.266 8.265 8.266 4.558 0 8.266-3.708 8.266-8.266 0-4.557-3.708-8.266-8.266-8.266zm0 18.144c-5.447 0-9.878-4.43-9.878-9.878 0-5.447 4.431-9.878 9.878-9.878s9.879 4.431 9.879 9.878-4.432 9.878-9.879 9.878z"/>
        <path d="M4.207 7.101a.401.401 0 0 1-.347-.609 7.228 7.228 0 0 1 6.186-3.523.403.403 0 1 1 0 .806 6.418 6.418 0 0 0-5.492 3.129.403.403 0 0 1-.347.197M3.26 10.326a.403.403 0 0 1-.404-.403c0-.572.068-.892.189-1.406a.404.404 0 0 1 .785.183c-.113.483-.168.737-.168 1.223 0 .223-.18.403-.403.403M16.692 17.663c.002 0 .024.037.08.094l6.508 6.508a.827.827 0 0 0 1.141 0 .802.802 0 0 0 .236-.57.801.801 0 0 0-.236-.57l-6.508-6.509a.363.363 0 0 0-.106-.081c-.006.003-.171.024-.631.484-.46.46-.483.627-.484.644zm7.159 8.451a2.404 2.404 0 0 1-1.71-.708l-6.509-6.509c-.505-.505-.67-1.129-.468-1.757.165-.51.552-.942.871-1.26.472-.473 1.054-.956 1.783-.956.311 0 .778.095 1.235.552l6.508 6.508c.457.457.709 1.065.709 1.711 0 .646-.252 1.254-.709 1.71a2.403 2.403 0 0 1-1.71.71z"/>
    </g>
</svg>
