<svg xmlns="http://www.w3.org/2000/svg" width="28" height="27" viewBox="0 0 28 27">
    <g fill="#000" fill-rule="evenodd">
        <path d="M14.03 21.58c.132 0 .263.032.382.096l5.84 3.143c.35.189.802.164 1.13-.06a.978.978 0 0 0 .423-.973l-1.139-6.797a.806.806 0 0 1 .226-.704l4.908-4.9a.968.968 0 0 0 .239-1.006 1.036 1.036 0 0 0-.837-.678l-6.697-.996a.806.806 0 0 1-.608-.447l-2.911-6.044a1.058 1.058 0 0 0-.956-.584c-.41 0-.785.23-.957.585l-2.91 6.042a.805.805 0 0 1-.608.448L2.858 9.7a1.05 1.05 0 0 0-.837.68.966.966 0 0 0 .239 1.003l4.907 4.901a.807.807 0 0 1 .226.704l-1.138 6.797a.979.979 0 0 0 .424.974c.325.223.776.249 1.133.058l5.836-3.142a.808.808 0 0 1 .382-.096zm6.736 4.982c-.444 0-.885-.111-1.278-.321l-5.458-2.938-5.456 2.937a2.747 2.747 0 0 1-2.808-.15 2.61 2.61 0 0 1-1.101-2.572l1.069-6.385-4.613-4.607a2.567 2.567 0 0 1-.625-2.67 2.644 2.644 0 0 1 2.125-1.75l6.275-.933 2.725-5.659A2.683 2.683 0 0 1 14.03.017a2.68 2.68 0 0 1 2.408 1.497l2.725 5.659 6.274.933a2.645 2.645 0 0 1 2.126 1.749 2.57 2.57 0 0 1-.625 2.672l-4.613 4.606 1.07 6.386a2.61 2.61 0 0 1-1.1 2.57c-.454.31-.982.473-1.53.473z"/>
        <path d="M6.675 11.484a.403.403 0 0 1-.077-.8l4.364-.841 1.646-3.775a.403.403 0 0 1 .74.322l-1.731 3.97a.405.405 0 0 1-.294.234l-4.572.883a.417.417 0 0 1-.076.007zm-1.481.24a.403.403 0 0 1-.064-.8l.268-.044a.403.403 0 0 1 .129.796l-.268.043a.395.395 0 0 1-.065.005z"/>
    </g>
</svg>
