<svg xmlns="http://www.w3.org/2000/svg" width="27" height="27" viewBox="0 0 27 27">
    <g fill="#000" fill-rule="evenodd">
        <path d="M25.315 26.035H1.123a.808.808 0 0 1-.806-.807c0-.443.36-.806.806-.806h24.192a.807.807 0 0 1 0 1.613M6.518 11.894c0-.653-.529-1.181-1.182-1.181h-2.07c-.654 0-1.183.528-1.183 1.181v8.12c0 .654.53 1.182 1.182 1.182h2.07c.654 0 1.183-.528 1.183-1.181v-8.12zm1.613 8.12a2.794 2.794 0 0 1-2.795 2.795h-2.07A2.794 2.794 0 0 1 .47 20.015v-8.12A2.794 2.794 0 0 1 3.265 9.1h2.07a2.794 2.794 0 0 1 2.796 2.794v8.12zM15.792 7.46c0-.654-.53-1.182-1.182-1.182h-2.071c-.653 0-1.182.528-1.182 1.181v12.556c0 .653.529 1.181 1.182 1.181h2.07c.653 0 1.183-.528 1.183-1.181V7.459zm1.613 12.555a2.794 2.794 0 0 1-2.795 2.794h-2.071a2.794 2.794 0 0 1-2.795-2.794V7.459a2.794 2.794 0 0 1 2.795-2.794h2.07a2.794 2.794 0 0 1 2.796 2.794v12.556zM21.36 6.278c-.223 0-.327-.182-.327-.403V3.439c0-.79.65-.79.914-.79h.949a.404.404 0 0 1 0 .806h-.949c-.135 0-.215.008-.26.017l.037 2.403c0 .221-.142.403-.364.403M21.283 7.157a.423.423 0 0 1-.286-.117.424.424 0 0 1-.117-.286c0-.105.044-.21.117-.287a.418.418 0 0 1 .572 0 .416.416 0 0 1 .117.287c0 .104-.044.21-.117.286a.424.424 0 0 1-.286.117"/>
        <path d="M24.662 3.024c0-.653-.529-1.181-1.182-1.181h-2.07c-.654 0-1.183.528-1.183 1.181v16.99c0 .654.53 1.182 1.182 1.182h2.07c.654 0 1.183-.528 1.183-1.181V3.024zm1.613 16.99a2.794 2.794 0 0 1-2.795 2.795h-2.07a2.794 2.794 0 0 1-2.796-2.794V3.024A2.794 2.794 0 0 1 21.41.23h2.07a2.794 2.794 0 0 1 2.796 2.794v16.99z"/>
    </g>
</svg>
