<svg xmlns="http://www.w3.org/2000/svg" width="20" height="28" viewBox="0 0 20 28">
    <g fill="#000" fill-rule="evenodd">
        <path d="M9.96 1.864a5.017 5.017 0 0 0-5.01 5.01c0 3.13 2.575 8.952 5.01 8.952 2.435 0 5.011-5.821 5.011-8.952a5.016 5.016 0 0 0-5.01-5.01zm0 15.574c-3.826 0-6.624-6.948-6.624-10.564A6.631 6.631 0 0 1 9.96.251a6.631 6.631 0 0 1 6.624 6.623c0 3.616-2.797 10.564-6.624 10.564z"/>
        <path d="M6.576 7.468a.403.403 0 0 1-.403-.403 4.025 4.025 0 0 1 4.02-4.021.403.403 0 0 1 0 .806A3.218 3.218 0 0 0 6.98 7.065a.404.404 0 0 1-.403.403M6.717 9.016a.4.4 0 0 1-.403-.404c0-.104.04-.21.117-.286.149-.15.419-.15.568 0A.401.401 0 0 1 7 8.9a.389.389 0 0 1-.282.117M7.116 16.312c-3.136 1.183-5.287 4.284-5.287 7.707 0 .444 2.49 1.612 8.098 1.612 5.607 0 8.097-1.168 8.097-1.612 0-3.422-2.13-6.531-5.236-7.73-.863.807-1.832 1.23-2.828 1.23-1.019 0-1.993-.415-2.844-1.207zm2.81 10.932c-2.277 0-9.71-.232-9.71-3.225 0-4.288 2.83-8.155 6.882-9.405l.493-.152.346.385c1.234 1.379 2.71 1.443 4.035-.027l.348-.386.494.157c4.017 1.267 6.823 5.144 6.823 9.428 0 2.993-7.432 3.225-9.71 3.225z"/>
    </g>
</svg>
