<svg id="Layer_1" data-name="Layer 1" fill="white" xmlns="http://www.w3.org/2000/svg" viewBox="0 0 529 120.63"><defs></defs><title>Artboard 1</title><path class="cls-1" d="M99.07,78a18.27,18.27,0,0,1-12.58-4.8q-5.38-4.81-5.38-13.47t5.38-13.53a18.44,18.44,0,0,1,12.83-4.87,22.71,22.71,0,0,1,9.42,2.15,22.42,22.42,0,0,1,8,6.07l9.87-12.9a37.73,37.73,0,0,0-13.22-9,39.55,39.55,0,0,0-14.86-3,36.25,36.25,0,0,0-25.35,9.8q-10.68,9.8-10.69,25.42T73.08,85.17q10.56,9.66,25.86,9.67T127.4,81.18L116.14,68.54Q108.55,78,99.07,78Z"/><path class="cls-1" d="M182.4,30.85q-7.85-6.2-20.23-6.19a50.72,50.72,0,0,0-30.6,9.73L140,46.66a34,34,0,0,1,9.29-4.87,31.31,31.31,0,0,1,10.43-2q11.51,0,11.51,10.88v.38H157.11q-13.16,0-20.74,5.18t-7.59,15.62q0,10.42,7.34,16.69t18.14,6.26q10.81,0,18.15-9.23v8.22h17.83V50.45Q190.24,37.06,182.4,30.85ZM171.15,67.9a10.1,10.1,0,0,1-3.86,8.29,13.87,13.87,0,0,1-8.92,3.1c-3.37,0-6-.66-7.77-2a6.51,6.51,0,0,1-2.72-5.63q0-7.08,11.38-7.08h11.89Z"/><path class="cls-1" d="M247.27,33.38q-7.85-8.72-20.23-8.72t-21.63,9.67q-9.22,9.68-9.23,24.85t9.49,25.42q9.48,10.23,21.56,10.24t20-10v9h19V0h-19Zm-4.36,40a14.4,14.4,0,0,1-11.19,5.24,15.35,15.35,0,0,1-11.51-5.24q-4.94-5.25-4.93-13.47a20.39,20.39,0,0,1,4.8-13.79,14.74,14.74,0,0,1,11.51-5.56,14.24,14.24,0,0,1,11.32,5.5,20.75,20.75,0,0,1,4.61,13.79Q247.52,68.16,242.91,73.41Z"/><path class="cls-1" d="M331.29,33.13q-9.8-8.48-23.83-8.47a34.76,34.76,0,0,0-24.34,9.48q-10.32,9.48-10.31,25.55t10.12,25.6q10.11,9.55,25.6,9.55a38,38,0,0,0,27-10.88l-10.62-11.5a21.82,21.82,0,0,1-16.44,6.7,18.63,18.63,0,0,1-11.13-3.54,13.48,13.48,0,0,1-5.81-9.11h49.56V56.4Q341.09,41.6,331.29,33.13ZM292,53a13.09,13.09,0,0,1,5.44-9.23,17.12,17.12,0,0,1,10.3-3.41,14.32,14.32,0,0,1,9.55,3.29A13.46,13.46,0,0,1,321.87,53Z"/><path class="cls-1" d="M427.59,24.66a29,29,0,0,0-13.34,3.41,26.69,26.69,0,0,0-10.56,9.61,24.72,24.72,0,0,0-7.91-9.23,19.47,19.47,0,0,0-11.69-3.79q-10.12,0-18,8.85V25.8h-19v68h19V57.16q0-8,4.24-12.08A13.57,13.57,0,0,1,380.1,41q5.5,0,8,3.79t2.47,11.89V93.83h19.09V57.16q0-8,4.17-12.08A13.61,13.61,0,0,1,423.67,41q11.5,0,11.5,15.68V93.83h19.1V52.48q0-13.53-7.34-20.68T427.59,24.66Z"/><path class="cls-1" d="M508.77,25.8,492.2,68.16,475.64,25.8H455.41q26.29,66.38,26.3,69.29a9.19,9.19,0,0,1-1.9,5.5,5.52,5.52,0,0,1-4.55,2.59q-5.06,0-9.87-4.67l-8.59,14q8.85,8.1,18.84,8.09a23.4,23.4,0,0,0,13.09-3.85A22.68,22.68,0,0,0,497.39,106L529,25.8Z"/><polygon class="cls-1" points="18.35 31.79 29.37 57.51 7.02 57.51 0 74.91 37.05 74.91 45.27 94 66.26 94 28.07 8.75 18.35 31.79"/></svg>
