<?xml version="1.0" encoding="UTF-8"?>
<svg width="876px" height="210px" viewBox="0 0 876 210" version="1.1" xmlns="http://www.w3.org/2000/svg" xmlns:xlink="http://www.w3.org/1999/xlink">
    <!-- Generator: Sketch 53.2 (72643) - https://sketchapp.com -->
    <title>Asset / Process / Agile Sprint Timeline</title>
    <desc>Created with Sketch.</desc>
    <g stroke="none" stroke-width="1" fill="none" fill-rule="evenodd">
        <g transform="translate(-100.000000, -4651.000000)">
            <g transform="translate(100.000000, 4651.000000)">
                <g>
                    <g>
                        <path d="M2.6877971,1.06678078 C1.38892142,1.06678078 0.335974638,2.11972757 0.335974638,3.41860325 L0.335974638,207.053567 C0.335974638,208.352443 1.38892142,209.405389 2.6877971,209.405389 L872.19016,209.405389 C873.489036,209.405389 874.541982,208.352443 874.541982,207.053567 L874.541982,3.41860325 C874.541982,2.11972757 873.489036,1.06678078 872.19016,1.06678078 L2.6877971,1.06678078 Z" stroke="#E7E7E7" stroke-width="0.671949276" fill="#FFFFFF"></path>
                        <g transform="translate(11.694275, 11.692898)" fill="#000000" font-family="Montserrat-Medium, Montserrat" font-size="8.06339131" font-weight="400">
                            <text>
                                <tspan x="0" y="8.43289907">AGILE DEVELOPMENT SPRINT</tspan>
                            </text>
                        </g>
                        <path d="M633.390107,0.769557495 L633.390107,208.940532 L754.134466,208.940532 L754.134466,0.769557495 L633.390107,0.769557495 Z M754.134466,208.940532 L754.384466,208.940532 L754.134466,209.190532 L754.134466,208.940532 Z" stroke="#E7E7E7" stroke-width="0.5" fill="#FFFFFF"></path>
                        <path d="M754.157683,0.769557495 L754.157683,208.940532 L874.902042,208.940532 L874.902042,0.769557495 L754.157683,0.769557495 Z M874.902042,208.940532 L875.152042,208.940532 L874.902042,209.190532 L874.902042,208.940532 Z" stroke="#E7E7E7" stroke-width="0.5" fill="#FFFFFF"></path>
                        <path d="M512.348326,0.769557495 L512.348326,208.940532 L633.092684,208.940532 L633.092684,0.769557495 L512.348326,0.769557495 Z M633.092684,208.940532 L633.342684,208.940532 L633.092684,209.190532 L633.092684,208.940532 Z" stroke="#E7E7E7" stroke-width="0.5" fill="#FFFFFF"></path>
                        <path d="M390.800093,0.769557495 L390.800093,208.940532 L511.544452,208.940532 L511.544452,0.769557495 L390.800093,0.769557495 Z" stroke="#E7E7E7" stroke-width="0.5" fill="#FFFFFF"></path>
                        <path d="M269.758312,0.769557495 L269.758312,208.940532 L390.50267,208.940532 L390.50267,0.769557495 L269.758312,0.769557495 Z" stroke="#E7E7E7" stroke-width="0.5" fill="#FFFFFF"></path>
                        <path d="M148.71653,0.769557495 L148.71653,208.940532 L269.460889,208.940532 L269.460889,0.769557495 L148.71653,0.769557495 Z M269.460889,208.940532 L269.710889,208.940532 L269.460889,209.190532 L269.460889,208.940532 Z" stroke="#E7E7E7" stroke-width="0.5" fill="#FFFFFF"></path>
                        <rect stroke="#E7E7E7" stroke-width="0.671949276" x="0.335974638" y="1.06678078" width="874.206008" height="208.338609" rx="2.6877971"></rect>
                        <path d="M0.335974638,32.550302 L874.541982,32.550302 L874.541982,3.41860325 C874.541982,2.11972757 873.489036,1.06678078 872.19016,1.06678078 L2.6877971,1.06678078 C1.38892142,1.06678078 0.335974638,2.11972757 0.335974638,3.41860325 L0.335974638,32.550302 Z M874.541982,32.550302 L874.877957,32.550302 L874.541982,32.8862766 L874.541982,32.550302 Z" stroke="#E7E7E7" stroke-width="0.671949276"></path>
                        <g transform="translate(160.796283, 11.692898)" fill="#848484" font-family="Montserrat-Medium, Montserrat" font-size="8.06339131" font-weight="400">
                            <text>
                                <tspan x="0" y="8.43289907">WEEK 12</tspan>
                            </text>
                            <text>
                                <tspan x="121.328104" y="8.43289907">WEEK 13</tspan>
                            </text>
                            <text>
                                <tspan x="241.925316" y="8.43289907">WEEK 14</tspan>
                            </text>
                            <text>
                                <tspan x="362.522529" y="8.43289907">WEEK 15</tspan>
                            </text>
                            <text>
                                <tspan x="484.581525" y="8.43289907">WEEK 16</tspan>
                            </text>
                            <text>
                                <tspan x="604.447845" y="8.43289907">WEEK 17</tspan>
                            </text>
                        </g>
                    </g>
                    <g transform="translate(12.002642, 46.598493)">
                        <path d="M139.187493,0.335974638 C137.888617,0.335974638 136.835671,1.38892142 136.835671,2.6877971 L136.835671,16.8504203 C136.835671,18.149296 137.888617,19.2022428 139.187493,19.2022428 L254.982752,19.2022428 C256.281627,19.2022428 257.334574,18.149296 257.334574,16.8504203 L257.334574,2.6877971 C257.334574,1.38892142 256.281627,0.335974638 254.982752,0.335974638 L139.187493,0.335974638 Z" stroke="#E7E7E7" stroke-width="0.671949276" fill="#F23252"></path>
                        <text font-family="Montserrat-Regular, Montserrat" font-size="6.71949276" font-weight="normal" fill="#000000">
                            <tspan x="0" y="12.3641721">PLANNING</tspan>
                        </text>
                    </g>
                    <text font-family="Montserrat-Regular, Montserrat" font-size="6.71949276" font-weight="normal" fill="#000000">
                        <tspan x="12.7532402" y="182.628671">LAUNCH</tspan>
                    </text>
                    <path d="M756.778547,172.00132 C755.479671,172.00132 754.426724,173.054267 754.426724,174.353142 L754.426724,187.90412 C754.426724,189.202995 755.479671,190.255942 756.778547,190.255942 L872.765898,190.255942 C874.064774,190.255942 875.11772,189.202995 875.11772,187.90412 L875.11772,174.353142 C875.11772,173.054267 874.064774,172.00132 872.765898,172.00132 L756.778547,172.00132 Z" stroke="#E7E7E7" stroke-width="0.671949276" fill="#F23252"></path>
                    <g transform="translate(12.708680, 151.798120)">
                        <path d="M663.579821,0.335974638 C662.280945,0.335974638 661.227998,1.38892142 661.227998,2.6877971 L661.227998,16.1805386 C661.227998,17.4794142 662.280945,18.532361 663.579821,18.532361 L739.353579,18.532361 C740.652454,18.532361 741.705401,17.4794142 741.705401,16.1805386 L741.705401,2.6877971 C741.705401,1.38892142 740.652454,0.335974638 739.353579,0.335974638 L663.579821,0.335974638 Z" stroke="#E7E7E7" stroke-width="0.671949276" fill="#F23252"></path>
                        <text font-family="Montserrat-Regular, Montserrat" font-size="6.71949276" font-weight="normal" fill="#000000">
                            <tspan x="0" y="11.6648879">REVIEW / APPROVE</tspan>
                        </text>
                    </g>
                    <g transform="translate(12.002642, 69.191701)">
                        <g>
                            <path d="M259.161148,0.335974638 C257.862272,0.335974638 256.809326,1.38892142 256.809326,2.6877971 L256.809326,16.8504203 C256.809326,18.149296 257.862272,19.2022428 259.161148,19.2022428 L497.837119,19.2022428 C499.135994,19.2022428 500.188941,18.149296 500.188941,16.8504203 L500.188941,2.6877971 C500.188941,1.38892142 499.135994,0.335974638 497.837119,0.335974638 L259.161148,0.335974638 Z" stroke="#E7E7E7" stroke-width="0.671949276" fill="#F23252"></path>
                            <text font-family="Montserrat-Regular, Montserrat" font-size="6.71949276" font-weight="normal" fill="#000000">
                                <tspan x="0" y="12.3641721">BUILDING</tspan>
                            </text>
                        </g>
                    </g>
                    <g transform="translate(12.002642, 91.078872)">
                        <g>
                            <path d="M502.651241,0.335974638 C501.352365,0.335974638 500.299418,1.38892142 500.299418,2.6877971 L500.299418,16.1805386 C500.299418,17.4794142 501.352365,18.532361 502.651241,18.532361 L556.481844,18.532361 C557.78072,18.532361 558.833666,17.4794142 558.833666,16.1805386 L558.833666,2.6877971 C558.833666,1.38892142 557.78072,0.335974638 556.481844,0.335974638 L502.651241,0.335974638 Z" stroke="#E7E7E7" stroke-width="0.671949276" fill="#F23252"></path>
                            <text font-family="Montserrat-Regular, Montserrat" font-size="6.71949276" font-weight="normal" fill="#000000">
                                <tspan x="0" y="12.3905931">QA / VQA</tspan>
                            </text>
                        </g>
                    </g>
                    <g transform="translate(12.002642, 110.141892)">
                        <g>
                            <rect stroke="#E7E7E7" stroke-width="0.671949276" fill="#F23252" x="558.962773" y="0.335974638" width="24.1884056" height="17.5266769" rx="2.6877971"></rect>
                            <text font-family="Montserrat-Regular, Montserrat" font-size="6.71949276" font-weight="normal" fill="#000000">
                                <tspan x="0" y="11.6912709">REVIEW  / APPROVAL</tspan>
                            </text>
                        </g>
                    </g>
                    <g transform="translate(12.002642, 130.616987)">
                        <g>
                            <path d="M585.393956,0.335974638 C584.09508,0.335974638 583.042133,1.38892142 583.042133,2.6877971 L583.042133,16.1805386 C583.042133,17.4794142 584.09508,18.532361 585.393956,18.532361 L659.710923,18.532361 C661.009798,18.532361 662.062745,17.4794142 662.062745,16.1805386 L662.062745,2.6877971 C662.062745,1.38892142 661.009798,0.335974638 659.710923,0.335974638 L585.393956,0.335974638 Z" stroke="#E7E7E7" stroke-width="0.671949276" fill="#F23252"></path>
                            <text font-family="Montserrat-Regular, Montserrat" font-size="6.71949276" font-weight="normal" fill="#000000">
                                <tspan x="0" y="11.6648879">TEST</tspan>
                            </text>
                        </g>
                    </g>
                </g>
            </g>
        </g>
    </g>
</svg>