<svg xmlns="http://www.w3.org/2000/svg" xmlns:xlink="http://www.w3.org/1999/xlink" width="1198" height="287" viewBox="0 0 1198 287">
    <defs>
        <rect id="a" width="1197" height="286" y="1" rx="4"/>
        <path id="b" d="M866.256.711h165.885v285.535H866.256z"/>
        <path id="c" d="M1031.49.711h165.885v285.535H1031.49z"/>
        <path id="d" d="M700.648.711h165.885v285.535H700.648z"/>
        <path id="e" d="M534.347.711h165.885v285.535H534.347z"/>
        <path id="f" d="M368.739.711h165.885v285.535H368.739z"/>
        <path id="g" d="M203.131.711h165.885v285.535H203.131z"/>
        <linearGradient id="h" x1="0%" y1="0%" y2="100%">
            <stop offset="0%" stop-color="#F13858"/>
            <stop offset="100%" stop-color="#EC7567"/>
        </linearGradient>
        <rect id="i" width="166" height="27" x="187" rx="4"/>
        <rect id="j" width="111" height="26" x="904" rx="4"/>
        <linearGradient id="k" x1="0%" y1="0%" y2="100%">
            <stop offset="0%" stop-color="#63FF75"/>
            <stop offset="100%" stop-color="#8EFCC5"/>
        </linearGradient>
        <rect id="l" width="166" height="26" x="1014" rx="4"/>
        <rect id="m" width="334" height="27" x="351" rx="4"/>
        <rect id="n" width="81" height="26" x="684" rx="4"/>
        <rect id="o" width="34" height="25" x="764" rx="4"/>
        <rect id="p" width="109" height="26" x="797" rx="4"/>
    </defs>
    <g fill="none" fill-rule="evenodd">
        <g>
            <use fill="#FFF" xlink:href="#a"/>
            <rect width="1196" height="285" x=".5" y="1.5" stroke="#E7E7E7" rx="4"/>
            <text fill="#000" font-family="Montserrat-Medium, Montserrat" font-size="12" font-weight="400" transform="translate(16 16)">
                <tspan x="0" y="12">AGILE SPRINT TIMELINE</tspan>
            </text>
            <use fill="#FFF" xlink:href="#b"/>
            <path stroke="#E7E7E7" stroke-width=".5" d="M866.506.961h165.385v285.035H866.506z"/>
            <use fill="#FFF" xlink:href="#c"/>
            <path stroke="#E7E7E7" stroke-width=".5" d="M1031.74.961h165.385v285.035H1031.74z"/>
            <use fill="#FFF" xlink:href="#d"/>
            <path stroke="#E7E7E7" stroke-width=".5" d="M700.898.961h165.385v285.035H700.898z"/>
            <use fill="#FFF" xlink:href="#e"/>
            <path stroke="#E7E7E7" stroke-width=".5" d="M534.597.961h165.385v285.035H534.597z"/>
            <g>
                <use fill="#FFF" xlink:href="#f"/>
                <path stroke="#E7E7E7" stroke-width=".5" d="M368.989.961h165.385v285.035H368.989z"/>
            </g>
            <g>
                <use fill="#FFF" xlink:href="#g"/>
                <path stroke="#E7E7E7" stroke-width=".5" d="M203.381.961h165.385v285.035H203.381z"/>
            </g>
            <rect width="1196" height="285" x=".5" y="1.5" stroke="#E7E7E7" rx="4"/>
            <path stroke="#E7E7E7" d="M.5 44.5h1196V5a3.5 3.5 0 0 0-3.5-3.5H4A3.5 3.5 0 0 0 .5 5v39.5z"/>
            <g fill="#848484" font-family="Montserrat-Medium, Montserrat" font-size="12" font-weight="400">
                <text transform="translate(220 16)">
                    <tspan x="0" y="12">WEEK 7</tspan>
                </text>
                <text transform="translate(220 16)">
                    <tspan x="166" y="12">WEEK 8</tspan>
                </text>
                <text transform="translate(220 16)">
                    <tspan x="331" y="12">WEEK 9</tspan>
                </text>
                <text transform="translate(220 16)">
                    <tspan x="496" y="12">WEEK 10</tspan>
                </text>
                <text transform="translate(220 16)">
                    <tspan x="663" y="12">WEEK 11</tspan>
                </text>
                <text transform="translate(220 16)">
                    <tspan x="827" y="12">WEEK 12</tspan>
                </text>
            </g>
        </g>
        <g transform="translate(16 64)">
            <use fill="url(#h)" xlink:href="#i"/>
            <rect width="165" height="26" x="187.5" y=".5" stroke="#E7E7E7" rx="4"/>
        </g>
        <text fill="#000" font-family="Montserrat-Regular, Montserrat" font-size="10" transform="translate(16 64)">
            <tspan x="0" y="17">PLANNING</tspan>
        </text>
        <g opacity=".75" transform="translate(17 208)">
            <use fill="url(#h)" xlink:href="#j"/>
            <rect width="110" height="25" x="904.5" y=".5" stroke="#E7E7E7" rx="4"/>
        </g>
        <text fill="#000" font-family="Montserrat-Regular, Montserrat" font-size="10" transform="translate(17 208)">
            <tspan x="0" y="16">REVIEW / APPROVE</tspan>
        </text>
        <text fill="#000" font-family="Montserrat-Regular, Montserrat" font-size="10" transform="translate(17 235)">
            <tspan x="0" y="15">LAUNCH</tspan>
        </text>
        <g transform="translate(17 235)">
            <use fill="url(#k)" xlink:href="#l"/>
            <rect width="165" height="25" x="1014.5" y=".5" stroke="#E7E7E7" rx="4"/>
        </g>
        <g>
            <g opacity=".95" transform="translate(16 95)">
                <use fill="url(#h)" xlink:href="#m"/>
                <rect width="333" height="26" x="351.5" y=".5" stroke="#E7E7E7" rx="4"/>
            </g>
            <text fill="#000" font-family="Montserrat-Regular, Montserrat" font-size="10" transform="translate(16 95)">
                <tspan x="0" y="17">BUILDING</tspan>
            </text>
        </g>
        <g>
            <g opacity=".9" transform="translate(16 125)">
                <use fill="url(#h)" xlink:href="#n"/>
                <rect width="80" height="25" x="684.5" y=".5" stroke="#E7E7E7" rx="4"/>
            </g>
            <text fill="#000" font-family="Montserrat-Regular, Montserrat" font-size="10" transform="translate(16 125)">
                <tspan x="0" y="17">QA</tspan>
            </text>
        </g>
        <g>
            <g opacity=".85" transform="translate(16 151)">
                <use fill="url(#h)" xlink:href="#o"/>
                <rect width="33" height="24" x="764.5" y=".5" stroke="#E7E7E7" rx="4"/>
            </g>
            <text fill="#000" font-family="Montserrat-Regular, Montserrat" font-size="10" transform="translate(16 151)">
                <tspan x="0" y="16">REVIEW / APPROVAL</tspan>
            </text>
        </g>
        <g>
            <g opacity=".8" transform="translate(16 179)">
                <use fill="url(#h)" xlink:href="#p"/>
                <rect width="108" height="25" x="797.5" y=".5" stroke="#E7E7E7" rx="4"/>
            </g>
            <text fill="#000" font-family="Montserrat-Regular, Montserrat" font-size="10" transform="translate(16 179)">
                <tspan x="0" y="16">TEST</tspan>
            </text>
        </g>
    </g>
</svg>
