<?xml version="1.0" encoding="UTF-8"?>
<svg width="124px" height="124px" viewBox="0 0 124 124" version="1.1" xmlns="http://www.w3.org/2000/svg" xmlns:xlink="http://www.w3.org/1999/xlink">
    <!-- Generator: Sketch 53.2 (72643) - https://sketchapp.com -->
    <title>Airbnb-2</title>
    <desc>Created with Sketch.</desc>
    <defs>
        <rect id="path-1" x="0" y="0" width="124" height="124"></rect>
    </defs>
    <g stroke="none" stroke-width="1" fill="none" fill-rule="evenodd">
        <g>
            <g>
                <use fill-opacity="0.01" fill="#D8D8D8" fill-rule="evenodd" style="mix-blend-mode: screen;" xlink:href="#path-1"></use>
                <rect stroke-opacity="0" stroke="#979797" stroke-width="1" stroke-linejoin="square" x="0.5" y="0.5" width="123" height="123"></rect>
            </g>
            <g transform="translate(22.000000, 48.000000)" fill="#848484" fill-rule="nonzero">
                <path d="M41.9103364,6.13584062 C41.9103364,7.01591264 41.2023794,7.72456109 40.3237715,7.72456109 C39.4451637,7.72456109 38.7376943,7.01591264 38.7376943,6.13584062 C38.7376943,5.2557686 39.4210288,4.54712016 40.3237715,4.54712016 C41.2272456,4.57153947 41.9103364,5.28043211 41.9103364,6.13584062 L41.9103364,6.13584062 Z M35.3700226,9.33818925 L35.3700226,9.72938663 C35.3700226,9.72938663 34.6137958,8.75114898 33.0030961,8.75114898 C30.3433815,8.75114898 28.2687553,10.7801496 28.2687553,13.5910567 C28.2687553,16.3777886 30.3190028,18.4309644 33.0030961,18.4309644 C34.6381745,18.4309644 35.3700226,17.4287958 35.3700226,17.4287958 L35.3700226,17.8441683 C35.3700226,18.039767 35.5167823,18.1860387 35.7118118,18.1860387 L37.6881918,18.1860387 L37.6881918,8.99485372 L35.7118118,8.99485372 C35.5167823,8.9955863 35.3700226,9.16700987 35.3700226,9.33818925 L35.3700226,9.33818925 Z M35.3700226,15.22886 C35.0043424,15.7668174 34.2720066,16.2312727 33.3936426,16.2312727 C31.831944,16.2312727 30.6359257,15.2535235 30.6359257,13.5910567 C30.6359257,11.9288341 31.831944,10.9510848 33.3936426,10.9510848 C34.2478717,10.9510848 35.028721,11.4399595 35.3700226,11.9532534 L35.3700226,15.22886 Z M39.1526195,8.9955863 L41.4951674,8.9955863 L41.4951674,18.1867713 L39.1526195,18.1867713 L39.1526195,8.9955863 L39.1526195,8.9955863 Z M74.1470037,8.75090479 C72.5363039,8.75090479 71.7795895,9.72914244 71.7795895,9.72914244 L71.7795895,4.57153947 L69.4370416,4.57153947 L69.4370416,18.1867713 L71.4139092,18.1867713 C71.6091825,18.1867713 71.7552108,18.0155919 71.7552108,17.8444125 L71.7552108,17.42904 C71.7552108,17.42904 72.5119252,18.4312086 74.1221374,18.4312086 C76.7823396,18.4312086 78.8564782,16.3785212 78.8564782,13.5917893 C78.8564782,10.8050573 76.7823396,8.75090479 74.1470037,8.75090479 L74.1470037,8.75090479 Z M73.7564571,16.2066092 C72.8532268,16.2066092 72.1457574,15.7426423 71.7795895,15.2044407 L71.7795895,11.9288341 C72.1457574,11.4399595 72.9266067,10.9266655 73.7564571,10.9266655 C75.3181557,10.9266655 76.5139303,11.9044148 76.5139303,13.5666374 C76.5139303,15.22886 75.3183995,16.2066092 73.7564571,16.2066092 Z M68.2171322,12.7358924 L68.2171322,18.2111906 L65.8740967,18.2111906 L65.8740967,13.0045048 C65.8740967,11.4892865 65.3860354,10.8778269 64.0690989,10.8778269 C63.3616294,10.8778269 62.6292937,11.244605 62.1648797,11.7825624 L62.1648797,18.1870155 L59.8228194,18.1870155 L59.8228194,8.99583049 L61.6768184,8.99583049 C61.8720917,8.99583049 62.0186076,9.16700987 62.0186076,9.33818925 L62.0186076,9.72938663 C62.7019422,9.0202498 63.6046849,8.75114898 64.5074276,8.75114898 C65.5325513,8.75114898 66.3867805,9.04491331 67.070115,9.63146519 C67.8994779,10.3159385 68.2171322,11.1957663 68.2171322,12.7358924 L68.2171322,12.7358924 Z M54.1360034,8.75090479 C52.5257912,8.75090479 51.7690768,9.72914244 51.7690768,9.72914244 L51.7690768,4.57153947 L49.4265289,4.57153947 L49.4265289,18.1867713 L51.402909,18.1867713 C51.5981823,18.1867713 51.7446982,18.0155919 51.7446982,17.8444125 L51.7446982,17.42904 C51.7446982,17.42904 52.5014126,18.4312086 54.1116247,18.4312086 C56.7718269,18.4312086 58.8459655,16.3785212 58.8459655,13.5917893 C58.8703442,10.8048131 56.7962056,8.75090479 54.1360034,8.75090479 L54.1360034,8.75090479 Z M53.7454569,16.2066092 C52.8427142,16.2066092 52.1352447,15.7426423 51.7690768,15.2044407 L51.7690768,11.9288341 C52.1352447,11.4399595 52.916094,10.9266655 53.7454569,10.9266655 C55.307643,10.9266655 56.5031738,11.9044148 56.5031738,13.5666374 C56.5031738,15.22886 55.307643,16.2066092 53.7454569,16.2066092 Z M47.400904,8.75090479 C48.1083734,8.75090479 48.4745413,8.87348973 48.4745413,8.87348973 L48.4745413,11.0487621 C48.4745413,11.0487621 46.5222961,10.3887081 45.3023867,11.7823182 L45.3023867,18.2109464 L42.9593512,18.2109464 L42.9593512,8.9955863 L44.9362189,8.9955863 C45.1314921,8.9955863 45.2775204,9.16676568 45.2775204,9.33794505 L45.2775204,9.72914244 C45.7173119,9.2156043 46.6690558,8.75090479 47.400904,8.75090479 L47.400904,8.75090479 Z M23.0712196,17.3555379 C22.9493261,17.0622619 22.8271889,16.7445667 22.7052955,16.4754659 C22.5097784,16.0356741 22.3145052,15.6198132 22.1440981,15.22886 L22.1197195,15.2044407 C20.4356399,11.5376367 18.6301544,7.82248253 16.7264229,4.15616697 L16.6532868,4.00916271 C16.4530575,3.62882459 16.2579292,3.24581394 16.0679546,2.86023406 C15.8236801,2.41995386 15.5798933,1.95598692 15.1893467,1.51570672 C14.4084974,0.537957452 13.285859,0 12.0903282,0 C10.8699312,0 9.77191523,0.537957452 8.96693103,1.4666239 C8.60076317,1.90641572 8.33211006,2.37087104 8.0883232,2.81115124 C7.89786748,3.19648908 7.70274232,3.57949359 7.50299096,3.96007989 L7.42961112,4.10708415 C5.55050203,7.77339971 3.72039411,11.4887981 2.0365583,15.1553578 L2.01193582,15.2039523 C1.84128503,15.595638 1.64576797,16.0110105 1.4504947,16.4505582 C1.32860127,16.719659 1.20670784,17.0129349 1.08481441,17.3306302 C0.767403927,18.2348773 0.669645398,19.09053 0.7920264,19.9708462 C1.06043573,21.8042482 2.28034515,23.3436417 3.96442475,24.0286034 C4.59900194,24.2977042 5.25795781,24.4198008 5.94104858,24.4198008 C6.13632185,24.4198008 6.3801087,24.3953815 6.57562576,24.370718 C7.38109753,24.2730407 8.2107042,24.0044283 9.01617597,23.5399729 C10.0166772,22.9775962 10.9684211,22.1712705 12.0420584,20.9979225 C13.1156957,22.1712705 14.0918183,22.9775962 15.0679409,23.5399729 C15.8736564,24.0044283 16.7030193,24.2730407 17.5082473,24.370718 C17.7035206,24.3956256 17.947795,24.4198008 18.1430683,24.4198008 C18.8264028,24.4198008 19.5094936,24.2977042 20.1194483,24.0286034 C21.8279066,23.3436417 23.0234373,21.7798289 23.2920905,19.9708462 C23.485901,19.1154377 23.3883863,18.2602734 23.0712196,17.3555379 L23.0712196,17.3555379 Z M12.0657057,18.6265631 C10.747794,16.9643405 9.89356487,15.4000394 9.60102064,14.0804197 C9.47912721,13.5180429 9.45450474,13.0291683 9.52788458,12.5891323 C9.57639817,12.1979349 9.72315785,11.8555762 9.91843113,11.5623002 C10.3821137,10.9027346 11.162963,10.4868737 12.0659495,10.4868737 C12.9691798,10.4868737 13.7744078,10.8780711 14.2137117,11.5623002 C14.408985,11.8555762 14.5552571,12.1981791 14.6045021,12.5891323 C14.6773943,13.0294125 14.6530156,13.5424623 14.5311222,14.0804197 C14.2373591,15.37562 13.3831299,16.9401654 12.0657057,18.6265631 Z M21.8020652,19.7754917 C21.6314144,21.046517 20.7771852,22.1468512 19.5816545,22.6357258 C18.9960785,22.8799189 18.3612575,22.9534211 17.7271679,22.8799189 C17.1172132,22.8064168 16.5067709,22.6108181 15.8726813,22.2445284 C14.9940735,21.7551654 14.1157094,20.9979225 13.0905857,19.873169 C14.7010417,17.8934953 15.6771642,16.0842685 16.0433321,14.4713729 C16.2142267,13.7133974 16.2388491,13.0291683 16.1652255,12.3932894 C16.0679546,11.7823182 15.8480588,11.2199415 15.5065134,10.7310668 C14.7495552,9.63073261 13.4804009,8.9955863 12.065462,8.9955863 C10.6505231,8.9955863 9.38136868,9.65564031 8.62489807,10.7310668 C8.28335269,11.2199415 8.06345694,11.7823182 7.9659422,12.3932894 C7.86842746,13.0291683 7.89256236,13.7378168 8.08783563,14.4713729 C8.4537597,16.0842685 9.45426095,17.9176705 11.0403382,19.8975883 C10.039837,21.0220976 9.13685047,21.7800731 8.25824264,22.2689477 C7.62366545,22.6357258 7.01395453,22.8313245 6.40399982,22.9043382 C5.74528773,22.9778404 5.11046676,22.8799189 4.54926942,22.6601451 C3.35373868,22.1712705 2.49950954,21.0709363 2.32885874,19.7999111 C2.25572268,19.1889399 2.30423626,18.5779687 2.54851069,17.8934953 C2.62140296,17.6488138 2.74378397,17.4046207 2.86567739,17.1113448 C3.03657198,16.7201474 3.23135768,16.3042865 3.42687473,15.888914 L3.45149721,15.8403196 C5.13508923,12.1979349 6.94081847,8.48253654 8.81992755,4.86505961 L8.89306361,4.71805535 C9.08858067,4.35176566 9.28385394,3.96056828 9.47888343,3.5937902 C9.6741567,3.20259282 9.89356487,2.83581475 10.162218,2.5178753 C10.674658,1.9318118 11.3577487,1.61362816 12.1144631,1.61362816 C12.8711775,1.61362816 13.5542683,1.9318118 14.0667083,2.5178753 C14.3353614,2.83654733 14.5547695,3.2033254 14.7500428,3.5937902 C14.9455599,3.96056828 15.1408331,4.35176566 15.3356188,4.71805535 L15.4089987,4.86505961 C17.2594536,8.49756702 19.0412036,12.1647816 20.7532941,15.8647389 L20.7532941,15.8891582 C20.9488112,16.280844 21.119462,16.7203916 21.3147353,17.1120773 C21.4366287,17.4048649 21.5587659,17.649058 21.631902,17.8937395 C21.8266877,18.5286417 21.8998237,19.1401012 21.8020652,19.7754917 L21.8020652,19.7754917 Z"></path>
            </g>
        </g>
    </g>
</svg>