<svg xmlns="http://www.w3.org/2000/svg" width="175" height="105" viewBox="0 0 175 105">
    <defs>
        <filter id="a" width="131%" height="166.8%" x="-15.5%" y="-21.9%" filterUnits="objectBoundingBox">
            <feOffset dy="25" in="SourceAlpha" result="shadowOffsetOuter1"/>
            <feGaussianBlur in="shadowOffsetOuter1" result="shadowBlurOuter1" stdDeviation="20"/>
            <feColorMatrix in="shadowBlurOuter1" result="shadowMatrixOuter1" values="0 0 0 0 0.776470588 0 0 0 0 0.776470588 0 0 0 0 0.776470588 0 0 0 0.15 0"/>
            <feMerge>
                <feMergeNode in="shadowMatrixOuter1"/>
                <feMergeNode in="SourceGraphic"/>
            </feMerge>
        </filter>
    </defs>
    <path fill="#848484" fill-rule="nonzero" d="M54.298 7.963a2.054 2.054 0 1 1-4.11 0c0-1.142.884-2.062 2.054-2.062 1.17.032 2.056.952 2.056 2.062zm-8.474 4.155v.508s-.98-1.27-3.066-1.27c-3.446 0-6.134 2.634-6.134 6.282 0 3.616 2.656 6.28 6.134 6.28 2.118 0 3.066-1.3 3.066-1.3v.539c0 .254.19.444.443.444h2.56V11.673h-2.56a.455.455 0 0 0-.443.445zm0 7.645c-.474.698-1.422 1.3-2.56 1.3-2.024 0-3.573-1.268-3.573-3.425 0-2.158 1.55-3.426 3.573-3.426 1.106 0 2.118.634 2.56 1.3v4.251zm4.9-8.09h3.036v11.929h-3.035V11.674zm45.338-.317c-2.087 0-3.067 1.27-3.067 1.27V5.933H89.96v17.669h2.561a.453.453 0 0 0 .442-.445v-.539s.98 1.3 3.067 1.3c3.446 0 6.134-2.663 6.134-6.28 0-3.616-2.688-6.282-6.102-6.282zm-.506 9.676c-1.17 0-2.087-.602-2.56-1.3V15.48c.473-.634 1.485-1.3 2.56-1.3 2.023 0 3.573 1.269 3.573 3.426s-1.55 3.426-3.573 3.426zm-7.176-4.504v7.105h-3.036v-6.757c0-1.966-.632-2.76-2.338-2.76-.917 0-1.866.476-2.467 1.175v8.31h-3.035V11.675h2.402c.253 0 .443.222.443.444v.508c.885-.92 2.055-1.27 3.225-1.27 1.328 0 2.434.382 3.32 1.143 1.074.888 1.486 2.03 1.486 4.029zm-18.243-5.172c-2.086 0-3.067 1.27-3.067 1.27V5.933h-3.035v17.669h2.56a.453.453 0 0 0 .444-.445v-.539s.98 1.3 3.066 1.3c3.447 0 6.134-2.663 6.134-6.28.031-3.616-2.656-6.282-6.102-6.282zm-.506 9.676c-1.17 0-2.086-.602-2.56-1.3V15.48c.474-.634 1.485-1.3 2.56-1.3 2.024 0 3.572 1.269 3.572 3.426s-1.548 3.426-3.572 3.426zm-8.22-9.676c.916 0 1.39.16 1.39.16v2.822s-2.528-.856-4.109.952v8.343h-3.035v-11.96h2.56c.254 0 .443.223.443.445v.508c.57-.667 1.803-1.27 2.75-1.27zM29.89 22.523c-.159-.38-.317-.793-.475-1.142-.253-.571-.506-1.11-.727-1.618l-.031-.032A331.161 331.161 0 0 0 21.67 5.394l-.095-.191c-.259-.494-.512-.99-.758-1.491-.316-.572-.632-1.174-1.138-1.745C18.667.698 17.213 0 15.664 0c-1.581 0-3.004.698-4.047 1.903-.474.571-.822 1.174-1.138 1.745-.247.5-.5.997-.758 1.491l-.095.19C7.19 10.089 4.82 14.91 2.638 19.669l-.031.063c-.221.508-.475 1.047-.728 1.617-.158.35-.316.73-.474 1.142-.41 1.174-.537 2.284-.379 3.427a6.738 6.738 0 0 0 4.11 5.266 6.47 6.47 0 0 0 2.561.507 8.332 8.332 0 0 0 3.984-1.142c1.296-.73 2.53-1.776 3.92-3.298 1.391 1.522 2.656 2.569 3.92 3.299a8.334 8.334 0 0 0 3.985 1.141c.885 0 1.77-.158 2.56-.507 2.213-.89 3.762-2.919 4.11-5.266.251-1.11.125-2.22-.286-3.394zm-14.26 1.65c-1.707-2.158-2.813-4.188-3.192-5.9-.158-.73-.19-1.365-.095-1.936.063-.507.253-.952.506-1.332.6-.856 1.612-1.396 2.782-1.396s2.214.508 2.783 1.396c.253.38.442.825.506 1.332.095.572.063 1.237-.095 1.936-.38 1.68-1.487 3.71-3.194 5.9zm12.615 1.49a4.712 4.712 0 0 1-2.877 3.712c-.758.317-1.58.412-2.402.317-.79-.095-1.581-.35-2.403-.825-1.138-.635-2.276-1.617-3.604-3.077 2.086-2.57 3.35-4.917 3.825-7.01a7.963 7.963 0 0 0 .158-2.697 5.153 5.153 0 0 0-.853-2.157c-.981-1.428-2.625-2.252-4.458-2.252-1.834 0-3.478.856-4.458 2.252a5.158 5.158 0 0 0-.854 2.157 6.61 6.61 0 0 0 .158 2.697c.474 2.093 1.77 4.472 3.825 7.042-1.296 1.459-2.466 2.443-3.604 3.077-.822.476-1.612.73-2.402.825a5.043 5.043 0 0 1-2.403-.317 4.712 4.712 0 0 1-2.877-3.712 5.264 5.264 0 0 1 .285-2.474c.094-.318.253-.634.41-1.015.222-.508.474-1.047.728-1.586l.032-.064a346.381 346.381 0 0 1 6.955-14.242l.095-.191c.253-.476.506-.983.759-1.46.252-.507.537-.983.885-1.395.664-.761 1.549-1.174 2.53-1.174.98 0 1.864.413 2.528 1.174.348.413.633.89.886 1.396.253.476.506.983.758 1.459l.095.19a420.622 420.622 0 0 1 6.924 14.275v.032c.254.508.475 1.079.728 1.587.158.38.316.697.41 1.014.253.824.348 1.618.221 2.442z" filter="url(#a)" transform="translate(36 10)"/>
</svg>
