<svg width="83" height="83" viewBox="0 0 83 83" fill="none" xmlns="http://www.w3.org/2000/svg">
<path fill-rule="evenodd" clip-rule="evenodd" d="M24.8947 46.3727C24.9351 46.4726 24.9756 46.5726 25.016 46.6699C25.3332 47.5746 25.4307 48.4298 25.2369 49.2852C24.9682 51.0942 23.7727 52.658 22.0642 53.3429C21.4543 53.612 20.7712 53.7341 20.0879 53.7341C19.8926 53.7341 19.6483 53.71 19.453 53.685C18.6478 53.5874 17.8185 53.3188 17.0127 52.8543C16.0366 52.2919 15.0605 51.4856 13.9869 50.3123C12.9132 51.4856 11.9615 52.2919 10.961 52.8543C10.1555 53.3188 9.3259 53.5874 8.52043 53.685C8.32491 53.7097 8.08112 53.7341 7.88585 53.7341C7.20276 53.7341 6.5438 53.612 5.90923 53.3429C4.22515 52.658 3.00524 51.1186 2.73683 49.2852C2.61445 48.4049 2.7122 47.5492 3.02962 46.645C3.15151 46.3273 3.2734 46.034 3.3953 45.7649C3.48205 45.5696 3.56884 45.3791 3.65349 45.1934L3.65357 45.1932L3.65361 45.1931L3.65365 45.193L3.65366 45.193C3.75949 44.9607 3.86195 44.7358 3.95674 44.5183L3.98136 44.4697C5.6652 40.8031 7.4953 37.0877 9.37441 33.4214L9.44779 33.2744C9.64754 32.8938 9.84267 32.5108 10.0331 32.1255C10.2769 31.6852 10.5456 31.2207 10.9117 30.781C11.7167 29.8523 12.8147 29.3143 14.0351 29.3143C15.2307 29.3143 16.3533 29.8523 17.1341 30.83C17.4941 31.2359 17.7294 31.6618 17.9553 32.0708L18.0128 32.1746C18.2027 32.5601 18.3979 32.9432 18.5981 33.3235L18.6712 33.4705C20.575 37.1368 22.3804 40.852 24.0645 44.5188L24.0889 44.5432C24.1842 44.7618 24.2872 44.9882 24.3938 45.2222L24.3938 45.2223L24.394 45.2226L24.3941 45.223L24.3948 45.2245C24.4785 45.4083 24.5643 45.5967 24.6501 45.7898C24.7316 45.9696 24.8131 46.1712 24.8947 46.3727ZM43.8551 35.4502C43.8551 36.3302 43.1472 37.0389 42.2686 37.0389C41.39 37.0389 40.6825 36.3302 40.6825 35.4502C40.6825 34.5701 41.3658 33.8615 42.2686 33.8615C43.172 33.8859 43.8551 34.5948 43.8551 35.4502ZM37.3148 38.6525V39.0437C37.3148 39.0437 36.5586 38.0655 34.9479 38.0655C32.2882 38.0655 30.2136 40.0945 30.2136 42.9054C30.2136 45.6921 32.2638 47.7453 34.9479 47.7453C36.583 47.7453 37.3148 46.7431 37.3148 46.7431V47.1585C37.3148 47.3541 37.4616 47.5004 37.6566 47.5004H39.633V38.3092H37.6566C37.4616 38.3099 37.3148 38.4813 37.3148 38.6525ZM35.3384 45.5456C36.2168 45.5456 36.9491 45.0811 37.3148 44.5432V41.2676C36.9735 40.7543 36.1927 40.2654 35.3384 40.2654C33.7767 40.2654 32.5807 41.2432 32.5807 42.9054C32.5807 44.5679 33.7767 45.5456 35.3384 45.5456ZM41.0974 38.3099H43.44V47.5011H41.0974V38.3099ZM73.7244 39.0435C73.7244 39.0435 74.4811 38.0652 76.0918 38.0652C78.7271 38.0652 80.8013 40.1194 80.8013 42.9061C80.8013 45.6929 78.7271 47.7455 76.0669 47.7455C74.4567 47.7455 73.7 46.7434 73.7 46.7434V47.1587C73.7 47.3299 73.554 47.5011 73.3587 47.5011H71.3818V33.8859H73.7244V39.0435ZM75.7013 45.5209C74.798 45.5209 74.0906 45.057 73.7244 44.5188V41.2432C74.0906 40.7543 74.8714 40.241 75.7013 40.241C77.263 40.241 78.4587 41.2187 78.4587 42.881C78.4587 44.5432 77.2632 45.5209 75.7013 45.5209ZM70.1619 47.5255V42.0502C70.1619 40.5101 69.8443 39.6303 69.0149 38.9458C68.3316 38.3592 67.4773 38.0655 66.4522 38.0655C65.5495 38.0655 64.6467 38.3346 63.9634 39.0437V38.6525C63.9634 38.4813 63.8169 38.3102 63.6216 38.3102H61.7676V47.5013H64.1097V41.0969C64.5741 40.5589 65.3064 40.1922 66.0139 40.1922C67.3308 40.1922 67.8189 40.8036 67.8189 42.3188V47.5255H70.1619ZM56.0808 38.0652C54.4706 38.0652 53.7139 39.0435 53.7139 39.0435V33.8859H51.3713V47.5011H53.3477C53.543 47.5011 53.6895 47.3299 53.6895 47.1587V46.7434C53.6895 46.7434 54.4462 47.7455 56.0564 47.7455C58.7166 47.7455 60.7908 45.6929 60.7908 42.9061C60.8151 40.1191 58.741 38.0652 56.0808 38.0652ZM53.7139 44.5188C54.08 45.057 54.7875 45.5209 55.6903 45.5209C57.2524 45.5209 58.448 44.5432 58.448 42.881C58.448 41.2187 57.2524 40.241 55.6903 40.241C54.8609 40.241 54.08 40.7543 53.7139 41.2432V44.5188ZM49.3457 38.0652C50.0532 38.0652 50.4193 38.1878 50.4193 38.1878V40.3631C50.4193 40.3631 48.4671 39.703 47.2472 41.0966V47.5253H44.9042V38.3099H46.881C47.0763 38.3099 47.2223 38.4811 47.2223 38.6523V39.0435C47.6621 38.5299 48.6139 38.0652 49.3457 38.0652ZM14.0105 47.9409C12.6926 46.2787 11.8384 44.7144 11.5458 43.3948C11.4239 42.8324 11.3993 42.3435 11.4727 41.9035C11.5212 41.5123 11.668 41.1699 11.8632 40.8766C12.3269 40.2171 13.1078 39.8012 14.0108 39.8012C14.914 39.8012 15.7192 40.1924 16.1585 40.8766C16.3538 41.1699 16.5001 41.5125 16.5493 41.9035C16.6222 42.3437 16.5978 42.8568 16.4759 43.3948C16.1822 44.69 15.3279 46.2545 14.0105 47.9409ZM21.5265 51.9501C22.722 51.4612 23.5762 50.3608 23.7469 49.0898C23.8446 48.4544 23.7715 47.843 23.5767 47.2081C23.5258 47.0379 23.4513 46.868 23.3696 46.6819C23.3338 46.6003 23.2967 46.5156 23.2595 46.4264C23.1622 46.2311 23.0709 46.0239 22.9796 45.8166C22.8879 45.6083 22.7961 45.3999 22.6981 45.2035V45.1791C20.986 41.4791 19.2043 37.8119 17.3538 34.1794L17.2804 34.0324C17.1849 33.8527 17.0892 33.6671 16.9935 33.4812C16.894 33.2882 16.7945 33.095 16.6948 32.9081C16.4996 32.5177 16.2802 32.1509 16.0115 31.8322C15.4991 31.2461 14.816 30.928 14.0593 30.928C13.3025 30.928 12.6195 31.2461 12.107 31.8322C11.8384 32.1501 11.619 32.5169 11.4237 32.9081C11.329 33.0862 11.2343 33.27 11.1395 33.4539C11.039 33.6489 10.9385 33.8439 10.8379 34.0324L10.7647 34.1794C8.88562 37.7969 7.07989 41.5123 5.3963 45.1547L5.37168 45.2032C5.17616 45.6186 4.98137 46.0345 4.81048 46.4257C4.77306 46.5157 4.73559 46.6011 4.69952 46.6833C4.61811 46.8689 4.54383 47.0383 4.49331 47.2078C4.24904 47.8923 4.20052 48.5033 4.27366 49.1142C4.44431 50.3853 5.29854 51.4856 6.49407 51.9745C7.05527 52.1943 7.69009 52.2922 8.3488 52.2187C8.95876 52.1457 9.56847 51.9501 10.203 51.5833C11.0817 51.0944 11.9846 50.3364 12.9851 49.2119C11.3991 47.232 10.3986 45.3986 10.0326 43.7857C9.83736 43.0521 9.81323 42.3435 9.91074 41.7076C10.0083 41.0966 10.2282 40.5343 10.5697 40.0454C11.3262 38.97 12.5953 38.3099 14.0103 38.3099C15.4252 38.3099 16.6944 38.9451 17.4513 40.0454C17.7929 40.5343 18.0128 41.0966 18.11 41.7076C18.1837 42.3435 18.159 43.0277 17.9881 43.7857C17.622 45.3986 16.6458 47.2078 15.0354 49.1875C16.0605 50.3123 16.9389 51.0695 17.8175 51.5589C18.4516 51.9251 19.062 52.1207 19.672 52.1943C20.3061 52.2678 20.9409 52.1943 21.5265 51.9501Z" fill="#848484"/>
</svg>
