<svg width="83" height="83" viewBox="0 0 83 83" fill="none" xmlns="http://www.w3.org/2000/svg">
<path d="M53.9736 51.3028C53.9101 51.3106 53.8209 51.3552 53.7073 51.4354C53.3139 51.7107 52.8503 51.8477 52.3177 51.8477C51.9677 51.8477 51.5142 51.6137 50.9548 51.1468L50.3764 50.6565L50.2327 50.5339L49.3467 49.7694C49.0916 49.5689 48.6447 49.2557 48.0039 48.83C48.4419 48.7175 48.8508 48.5737 49.232 48.3988L39.3408 48.3999C39.4868 48.5682 39.654 48.6529 39.8456 48.6529C39.947 48.6529 40.093 48.6439 40.2825 48.6272C40.453 48.6105 40.7293 48.6016 41.1093 48.6016C41.457 48.6016 41.7011 48.6083 41.8459 48.6228L41.8192 48.6774C41.5216 49.297 41.3601 49.9266 41.3344 50.564C41.3333 50.5963 41.3322 50.6286 41.3344 50.6565H41.5562H41.3344C41.3433 50.8593 41.4213 50.9596 41.5696 50.9596C41.6654 50.9596 41.7356 50.8604 41.7791 50.6565H41.7802C41.788 50.613 41.7958 50.5662 41.8036 50.5127C41.8738 49.9333 42.0699 49.4396 42.3931 49.034C42.7162 48.6283 43.0728 48.4244 43.4584 48.4244C43.903 48.4244 44.6018 48.7509 45.5523 49.4039L47.1514 50.5072C47.1938 50.5373 47.2618 50.5863 47.3554 50.6565C47.6239 50.8548 48.1009 51.2137 48.7884 51.7352C49.8215 52.5208 50.7196 52.9131 51.4819 52.9131C52.0469 52.9131 52.6341 52.7504 53.247 52.4228C53.8577 52.0963 54.1586 51.7831 54.1452 51.4845C54.1385 51.3552 54.0828 51.2939 53.9736 51.3028Z" fill="#848484"/>
<path d="M64.4492 48.0947C63.8464 47.9542 63.4474 47.7626 63.2502 47.5185C63.0541 47.2756 62.8056 46.6538 62.5091 45.6553L62.2985 44.9856L60.9457 40.498L58.1932 31.3591C58.123 31.1206 58.0394 31.0002 57.938 31.0002C57.8377 31.0002 57.7463 31.1239 57.665 31.3724L54.5002 40.498H55.2947C55.3047 40.4144 55.3449 40.274 55.4173 40.0779L57.2749 34.7356C57.3318 34.5707 57.383 34.4927 57.4276 34.5016C57.5168 34.5094 57.6003 34.6453 57.6761 34.9072L57.7519 35.1669L59.2485 40.0523L59.2964 40.274C59.3187 40.3665 59.3332 40.4423 59.3399 40.498H60.0698L59.3399 40.4991C59.3432 40.5214 59.3443 40.5415 59.3443 40.5582C59.3443 40.7643 59.185 40.8669 58.8674 40.8669H55.9878L55.7315 40.8546C55.4385 40.8546 55.2925 40.7465 55.2925 40.5337C55.2925 40.5225 55.2925 40.5103 55.2947 40.498H54.5002L52.7673 45.4959L52.491 46.3128C52.3505 46.6928 52.1722 47.0583 51.9572 47.4093C51.741 47.7592 51.5694 47.9598 51.4423 48.0088L51.0902 48.1459C50.9877 48.186 50.9331 48.2707 50.9286 48.3978C50.9275 48.4044 50.9275 48.4111 50.9275 48.4189C50.9275 48.5749 51.0133 48.653 51.1849 48.653C51.2161 48.653 51.3933 48.6262 51.7153 48.5716C51.8168 48.5582 51.9594 48.5515 52.1433 48.5515C52.5411 48.5515 52.8932 48.5593 53.1963 48.5772L54.109 48.6396C54.255 48.6485 54.3609 48.653 54.4311 48.653C54.6149 48.653 54.703 48.5827 54.6974 48.4423C54.6963 48.4279 54.6941 48.4123 54.6918 48.3978H54.2216H54.6918C54.6707 48.2741 54.5726 48.1894 54.3999 48.1459C53.9608 48.0222 53.6655 47.874 53.5151 47.7002C53.3657 47.5274 53.2911 47.2477 53.2911 46.8622C53.2911 46.4576 53.4326 45.8414 53.7179 45.009L54.3497 43.1948C54.5392 42.6354 54.6918 42.3055 54.8066 42.2074C54.9214 42.1083 55.2134 42.0581 55.6836 42.0581H59.1337C59.4903 42.0581 59.7054 42.0938 59.7823 42.164C59.8592 42.2342 59.9639 42.4961 60.0976 42.9496L60.5757 44.5822C60.9657 45.886 61.1607 46.7552 61.1607 47.192C61.1607 47.6701 61.0014 47.9509 60.6816 48.0334L60.3851 48.1192C60.2258 48.1626 60.1456 48.2518 60.1456 48.3866V48.3978C60.15 48.5683 60.2325 48.653 60.3929 48.653C60.4565 48.653 60.5545 48.6351 60.6883 48.6017C60.91 48.5515 61.4627 48.5259 62.3442 48.5259C63.1889 48.5259 63.7762 48.5437 64.106 48.5805C64.2899 48.5939 64.4114 48.6017 64.4682 48.6017C64.6387 48.6017 64.7267 48.5348 64.7345 48.3989V48.3966C64.7412 48.244 64.6465 48.1437 64.4492 48.0947Z" fill="#848484"/>
<path d="M47.4398 48.1958C46.0747 48.1958 44.8422 47.5484 43.739 46.2523C42.5032 44.7903 41.7855 42.8725 41.5872 40.4977C41.5493 40.0442 41.5303 39.5728 41.5303 39.0847C41.5303 36.9875 41.9638 35.2858 42.8297 33.9776C43.6978 32.6693 44.8255 32.0152 46.2151 32.0152C47.8599 32.0152 49.2574 32.9122 50.4085 34.7075C51.4449 36.3255 52.0143 38.2545 52.1168 40.4977C52.128 40.7451 52.1347 40.9959 52.1347 41.2511C52.1347 43.3227 51.7023 44.9976 50.8386 46.2769C49.9739 47.5562 48.8417 48.1958 47.4398 48.1958ZM52.6339 44.6187C53.1599 43.365 53.4463 41.9921 53.4942 40.4989C53.4998 40.3495 53.5009 40.1991 53.5009 40.0487C53.5009 37.4555 52.8768 35.346 51.6287 33.7202C50.3806 32.0932 48.7648 31.2797 46.7823 31.2797C44.5458 31.2797 42.813 32.2536 41.5794 34.2027C40.5441 35.8475 40.027 37.8422 40.027 40.1868C40.027 40.2916 40.0282 40.3952 40.0304 40.4977C40.0939 43.2982 41.0344 45.6116 42.8497 47.4347C42.5912 47.5718 42.3538 47.8013 42.1354 48.1211L41.81 48.0331C41.1882 47.8682 40.6132 47.4258 40.085 46.7059L35.5194 40.4977H31.9423V45.2695C31.9423 46.3081 31.8632 47.0469 31.7072 47.486C31.6726 47.5818 31.6325 47.6676 31.5868 47.7456C31.4765 47.6754 31.3884 47.6007 31.3216 47.5194C31.1243 47.2753 30.8781 46.6535 30.5794 45.655L30.3699 44.9853L29.0182 40.4977L26.2646 31.3599C26.1955 31.1203 26.1097 31 26.0105 31C25.9102 31 25.8188 31.1248 25.7364 31.3722L22.5727 40.4977H23.3661C23.3761 40.4153 23.4162 40.2749 23.4887 40.0776L25.3474 34.7353C25.4043 34.5704 25.4544 34.4924 25.5001 34.5013C25.5882 34.5091 25.6706 34.6451 25.7464 34.907L25.8244 35.1677L27.3199 40.052L27.3678 40.2749C27.3901 40.3674 27.4046 40.442 27.4113 40.4977H28.1423L27.4113 40.4989C27.4135 40.5211 27.4157 40.5412 27.4157 40.5579C27.4157 40.7641 27.2575 40.8666 26.9388 40.8666H24.0604L23.8029 40.8543C23.5099 40.8543 23.3639 40.7462 23.3639 40.5334C23.3639 40.5223 23.365 40.5111 23.3661 40.4977H22.5727L20.8387 45.4957L20.5623 46.3136C20.4219 46.6925 20.2447 47.058 20.0274 47.4091C19.8124 47.759 19.6408 47.9596 19.5137 48.0086L19.1616 48.1457C19.0591 48.1858 19.0045 48.2705 19 48.3986V48.4187C19 48.5747 19.0847 48.6527 19.2563 48.6527C19.2875 48.6527 19.4647 48.626 19.7879 48.5713C19.8882 48.558 20.0308 48.5513 20.2147 48.5513C20.6136 48.5513 20.9646 48.5591 21.2689 48.5769L22.1793 48.6393C22.3253 48.6482 22.4334 48.6527 22.5025 48.6527C22.6863 48.6527 22.7744 48.5825 22.7677 48.4421C22.7677 48.4276 22.7655 48.412 22.7632 48.3986H22.2941H22.7632C22.7409 48.2738 22.644 48.1891 22.4724 48.1457C22.0311 48.022 21.738 47.8738 21.5876 47.701C21.4371 47.5272 21.3625 47.2475 21.3625 46.8619C21.3625 46.4574 21.5051 45.8411 21.7893 45.0098L22.4211 43.1945C22.6117 42.6351 22.7632 42.3053 22.878 42.2072C22.9928 42.108 23.2848 42.0579 23.755 42.0579H27.2062C27.5617 42.0579 27.7768 42.0935 27.8537 42.1637C27.9294 42.2339 28.0353 42.4958 28.1679 42.9494L28.6482 44.5819C29.0371 45.8857 29.2321 46.7549 29.2321 47.1929C29.2321 47.6698 29.0728 47.9506 28.753 48.0331L28.4565 48.12C28.2961 48.1624 28.217 48.2515 28.217 48.3864V48.3986C28.2214 48.568 28.3028 48.6527 28.4643 48.6527C28.5279 48.6527 28.6259 48.636 28.7596 48.6014C28.9825 48.5513 29.5341 48.5257 30.4167 48.5257C30.8736 48.5257 31.2893 48.5201 31.628 48.5212C31.8765 48.5323 34.3939 48.636 34.5945 48.665C34.8486 48.6973 35.0213 48.7184 35.1116 48.7296C35.2698 48.7363 35.3467 48.6572 35.3411 48.4878C35.3389 48.4555 35.3322 48.4254 35.3211 48.3986C35.2832 48.3117 35.1951 48.2538 35.0547 48.2214C34.3504 48.0732 33.8991 47.8459 33.7019 47.5406C33.5057 47.2352 33.4066 46.6078 33.4066 45.6584V41.1251C33.4066 40.9357 33.4656 40.8399 33.5826 40.8399C33.6606 40.8399 33.7387 40.8855 33.8167 40.9769L34.0072 41.2499L39.1233 48.0977L39.286 48.3295C39.3027 48.354 39.3216 48.3774 39.3406 48.3986H49.2317C49.6017 48.2281 49.9449 48.0309 50.2614 47.8013C51.2655 47.058 52.0567 45.9972 52.6339 44.6187Z" fill="#848484"/>
<path d="M34.8913 39.4344C34.898 39.3341 34.9704 39.2026 35.1097 39.0366L38.367 35.1964C39.9896 33.2998 41.0872 32.2567 41.6589 32.0662C41.9709 31.9692 42.1236 31.8556 42.1169 31.7252C42.1046 31.5636 42.0121 31.4822 41.8394 31.4822C41.7882 31.4822 41.6912 31.5001 41.5441 31.5335C41.416 31.5591 41.1519 31.5714 40.7507 31.5714L40.0341 31.5837L39.1549 31.5502C38.8239 31.5502 38.5253 31.5357 38.2578 31.5056C38.1431 31.49 38.0572 31.4822 37.9993 31.4822C37.8021 31.4822 37.7029 31.5658 37.7029 31.7319C37.7029 31.8823 37.8477 31.9848 38.1364 32.0405C38.5944 32.1486 38.8228 32.3927 38.8228 32.7716C38.8228 33.2106 38.5086 33.7923 37.8801 34.5211L33.7881 39.2951L33.6455 39.4444L33.4928 39.5804C33.4348 39.5804 33.407 39.4935 33.407 39.3185V34.4576C33.407 33.6096 33.4605 33.0435 33.5663 32.7571C33.6711 32.4696 33.9263 32.2144 34.3286 31.9893C34.4824 31.9113 34.5592 31.8166 34.5592 31.7062C34.5592 31.5491 34.4835 31.4733 34.3297 31.4822C34.2784 31.4822 34.1246 31.5045 33.8694 31.5458C33.7302 31.5569 33.5641 31.5625 33.3724 31.5625L32.6548 31.5937L32.3004 31.6104C31.605 31.6104 31.0947 31.5814 30.7682 31.5246C30.6344 31.4967 30.5197 31.4822 30.4238 31.4822C30.2522 31.4822 30.1653 31.5669 30.1653 31.7363C30.1653 31.8567 30.2477 31.9414 30.4138 31.9893L30.8818 32.1152C31.2953 32.23 31.5761 32.4651 31.7221 32.8173C31.8692 33.1716 31.9427 33.7923 31.9427 34.6805V40.4975H35.5187L35.1198 39.9559C34.9615 39.7319 34.8846 39.5581 34.8913 39.4344Z" fill="#848484"/>
</svg>
