<svg xmlns="http://www.w3.org/2000/svg" width="124" height="124" viewBox="0 0 124 124">
    <defs>
        <filter id="a" width="131%" height="166.8%" x="-15.5%" y="-21.9%" filterUnits="objectBoundingBox">
            <feOffset dy="25" in="SourceAlpha" result="shadowOffsetOuter1"/>
            <feGaussianBlur in="shadowOffsetOuter1" result="shadowBlurOuter1" stdDeviation="20"/>
            <feColorMatrix in="shadowBlurOuter1" result="shadowMatrixOuter1" values="0 0 0 0 0.776470588 0 0 0 0 0.776470588 0 0 0 0 0.776470588 0 0 0 0.15 0"/>
            <feMerge>
                <feMergeNode in="shadowMatrixOuter1"/>
                <feMergeNode in="SourceGraphic"/>
            </feMerge>
        </filter>
    </defs>
    <g fill="none" fill-rule="nonzero" filter="url(#a)" transform="translate(-354 -67)">
        <path fill="#FFF" d="M393.912 82h44.748v44.898h-44.748z"/>
        <path fill="#848484" d="M395.95 123.45h-.127c0-.065-.032-.161-.032-.194 0-.032 0-.096-.096-.096h-.192v.29h-.095v-.677h.287c.128 0 .223.032.223.16 0 .098-.032.13-.063.162.032.032.063.065.063.13v.128c0 .032 0 .032.032.032v.065zm-.127-.484c0-.096-.064-.096-.096-.096h-.224v.193h.192c.064 0 .128-.032.128-.097zm.543.13a.72.72 0 0 0-.735-.71.712.712 0 0 0-.702.71c0 .418.32.74.702.74a.727.727 0 0 0 .735-.74zm-.096 0c0 .354-.287.612-.639.612a.59.59 0 0 1-.606-.613.61.61 0 0 1 .606-.612c.351 0 .639.29.639.612zm39.34-13.022c0 .967-.608 1.417-1.693 1.417h-2.076v-.967h2.076c.191 0 .35-.032.415-.096a.412.412 0 0 0 .128-.29.493.493 0 0 0-.128-.322c-.064-.065-.192-.097-.383-.097-.99-.033-2.235.032-2.235-1.386 0-.645.415-1.354 1.532-1.354h2.14v.967h-1.98c-.191 0-.32 0-.415.064a.464.464 0 0 0-.16.355c0 .161.096.258.224.323.128.032.255.064.415.064h.575c.606 0 .99.129 1.245.354.191.226.32.516.32.968zm-4.503-.968c-.256-.225-.64-.354-1.246-.354h-.574c-.16 0-.288-.033-.415-.064-.128-.065-.224-.162-.224-.323s.032-.258.16-.355c.096-.064.223-.064.415-.064h1.98v-.967h-2.14c-1.15 0-1.533.709-1.533 1.354 0 1.418 1.246 1.353 2.236 1.386.191 0 .319.032.383.097a.495.495 0 0 1 .128.322.411.411 0 0 1-.128.29c-.096.064-.224.096-.415.096h-2.076v.967h2.076c1.085 0 1.692-.45 1.692-1.417 0-.452-.128-.742-.32-.968zm-4.088 1.451h-2.522v-.903h2.459v-.902h-2.459v-.838h2.522v-.935h-3.576v4.513h3.576v-.935zm-4.725-3.352c-.352-.193-.767-.226-1.31-.226h-2.458v4.512h1.085v-1.643h1.15c.383 0 .607.032.767.193.191.226.191.612.191.903v.547h1.054v-.87c0-.419-.032-.612-.16-.838a1.246 1.246 0 0 0-.542-.387c.287-.096.766-.483.766-1.192 0-.516-.192-.806-.543-.999zm-6.067-.226h-3.417l-1.373 1.483-1.31-1.483h-4.31v4.512h4.247l1.373-1.482 1.31 1.482h2.075v-1.514h1.341c.926 0 1.852-.258 1.852-1.515 0-1.225-.958-1.483-1.788-1.483zm5.205 1.87c-.16.064-.32.064-.511.064l-1.31.032v-1.031h1.31c.191 0 .383 0 .51.096a.41.41 0 0 1 .224.387.565.565 0 0 1-.223.452zm-5.205.225h-1.405v-1.16h1.405c.383 0 .639.161.639.548s-.256.612-.64.612zm-4.12.161l1.661-1.772v3.642l-1.66-1.87zm-2.586 1.322h-2.65v-.903h2.363v-.902h-2.363v-.838h2.682l1.182 1.321-1.214 1.322zm23.118-6.833h-1.532l-2.012-3.385v3.385h-2.17l-.416-1h-2.235l-.416 1h-1.245c-.51 0-1.181-.13-1.564-.516-.352-.387-.543-.903-.543-1.709 0-.676.095-1.289.574-1.772.32-.355.894-.516 1.629-.516h1.021v.967h-1.021c-.383 0-.607.065-.83.258-.192.194-.288.548-.288 1.031 0 .484.096.839.287 1.064.16.161.448.226.735.226h.479l1.532-3.546h1.597l1.788 4.255V99.21h1.66l1.885 3.127V99.21h1.085v4.513zm-12.676-4.513h-1.086v4.513h1.086V99.21zm-2.267.194c-.352-.194-.735-.194-1.277-.194h-2.46v4.513h1.054v-1.644h1.15c.383 0 .639.032.798.193.192.226.16.613.16.87v.58h1.085v-.902c0-.387-.032-.58-.191-.806a1.338 1.338 0 0 0-.511-.387 1.28 1.28 0 0 0 .766-1.192c0-.516-.223-.806-.574-1.031zm-4.503 3.384h-2.49v-.903h2.458v-.934h-2.458v-.806h2.49v-.935h-3.576v4.513h3.576v-.935zm-4.374-3.578h-1.756l-1.31 3.062-1.405-3.062h-1.724v4.255l-1.82-4.255h-1.596l-1.916 4.513h1.15l.414-1h2.235l.415 1h2.172v-3.546l1.564 3.546h.926l1.565-3.546v3.546h1.085V99.21zm17.307 2.546l-.735-1.772-.734 1.772h1.469zm-9.26-.708c-.16.096-.32.096-.543.096h-1.31v-.999h1.31c.191 0 .414 0 .542.065.128.096.192.225.192.419 0 .193-.064.354-.191.419zm-17.627.708l.735-1.772.734 1.772h-1.469zm36.115-16.696H397.26v16.245l1.309-2.997h2.778l.383.741v-.741h3.257l.734 1.611.703-1.611h10.378c.478 0 .893.096 1.213.354v-.354h2.842v.354c.478-.258 1.085-.354 1.788-.354h4.119l.383.741v-.741h3.034l.447.741v-.741h2.97v6.317h-3.002l-.575-.967v.967h-3.736l-.415-1.031h-.926l-.415 1.031h-1.948c-.766 0-1.341-.193-1.724-.386v.386h-4.63v-1.45c0-.194-.032-.226-.16-.226h-.16v1.676h-8.94v-.806l-.32.806h-1.883l-.32-.774v.774h-3.608l-.383-1.031h-.926l-.415 1.031h-1.852v19.05h38.094v-11.572c-.415.193-.99.29-1.565.29h-2.778v-.387c-.32.258-.894.387-1.437.387h-8.75v-1.45c0-.194-.03-.194-.19-.194h-.16v1.644H417.6v-1.708c-.479.225-1.022.225-1.5.225h-.32v1.483h-3.513l-.83-.967-.926.967h-5.652v-6.317h5.748l.83.966.894-.966h3.864c.447 0 1.181.064 1.5.386v-.386h3.449c.351 0 1.022.064 1.469.386v-.386h5.205v.386c.287-.258.83-.386 1.309-.386h2.906v.386c.32-.225.766-.386 1.341-.386h1.98V85.06z"/>
    </g>
</svg>
