<svg width="83" height="83" viewBox="0 0 83 83" fill="none" xmlns="http://www.w3.org/2000/svg">
<path d="M24.2607 23.9604H58.8005V58.5577H24.2607V23.9604Z" fill="white"/>
<path fill-rule="evenodd" clip-rule="evenodd" d="M26.8448 26.3193H56.2483V42.5135H54.7202C54.2764 42.5135 53.9316 42.6376 53.6849 42.8113V42.5135H51.4421C51.0726 42.5135 50.6535 42.6126 50.4316 42.8113V42.5134H46.4142V42.8112C46.0693 42.5629 45.5516 42.5134 45.2804 42.5134H42.6186V42.8112C42.3723 42.5629 41.8052 42.5134 41.4604 42.5134H38.4781L37.7879 43.2582L37.1471 42.5134H32.7107V47.3813H37.0735L37.7881 46.636L38.4288 47.3813H41.1398V46.2387H41.3864C41.756 46.2387 42.1752 46.2387 42.5447 46.0649V47.3813H44.763V46.1146H44.8861C45.0095 46.1146 45.034 46.1146 45.034 46.2637V47.3813H51.7873C52.2061 47.3813 52.6499 47.282 52.8963 47.0831V47.3813H55.0406C55.4842 47.3813 55.928 47.3067 56.2483 47.1576V56.0744H26.8448V41.3955H28.2745L28.5948 40.6007H29.3096L29.6053 41.3955H32.3905V40.7993L32.6369 41.3955H34.091L34.3374 40.7745V41.3955H41.2386V40.104H41.3617C41.4604 40.104 41.485 40.1288 41.485 40.2779V41.3956H45.0588V41.0977C45.3543 41.2466 45.7981 41.3956 46.3897 41.3956H47.893L48.2133 40.6009H48.9283L49.2487 41.3956H52.1325V40.6506L52.5759 41.3956H54.8925V36.5276H52.6006V37.0988L52.2554 36.5276H49.914V37.0988L49.6181 36.5276H46.4388C45.8964 36.5276 45.4281 36.6019 45.0586 36.8007V36.5276H42.8652V36.8007C42.6185 36.6021 42.2981 36.5276 41.9286 36.5276H33.9184L33.3762 37.7693L32.8093 36.5276H30.2953V37.0988L29.9995 36.5276H27.8553L26.8448 38.8374V26.3193ZM52.9702 40.7001H54.153V37.2229H53.3152V39.6321L51.8611 37.2229H50.5793V40.5015L49.1992 37.2231H47.9667L46.7838 39.9551H46.414C46.1924 39.9551 45.9704 39.9054 45.8473 39.7813C45.6993 39.6074 45.6254 39.3341 45.6254 38.9616C45.6254 38.5891 45.6993 38.316 45.8473 38.1669C46.0197 38.0178 46.1924 37.9681 46.488 37.9681H47.2766V37.2229H46.488C45.9212 37.2229 45.4774 37.3469 45.2311 37.6203C44.8616 37.9928 44.7876 38.4647 44.7876 38.9863C44.7876 39.6072 44.9355 40.0046 45.2068 40.3026C45.5023 40.6007 46.0199 40.7001 46.4142 40.7001H47.3756L47.6959 39.9301H49.4211L49.7418 40.7001H51.4175V38.0922L52.9702 40.7001ZM56.4454 45.5932C56.4454 46.3384 55.9771 46.6857 55.139 46.6857H53.5373V45.9405H55.139C55.2869 45.9405 55.4102 45.9159 55.4597 45.8663C55.5088 45.8165 55.5582 45.7419 55.5582 45.6427C55.5582 45.5432 55.509 45.444 55.4597 45.3944C55.4102 45.3446 55.3118 45.3199 55.1638 45.3199C55.1149 45.3183 55.0652 45.317 55.015 45.3157C54.2809 45.2966 53.4387 45.2746 53.4387 44.2519C53.4387 43.755 53.759 43.2085 54.6216 43.2085H56.2728V43.9537H54.7447C54.5971 43.9537 54.4983 43.9537 54.4244 44.0032C54.3504 44.0778 54.3013 44.1523 54.3013 44.2765C54.3013 44.4008 54.3752 44.4753 54.4737 44.5252L54.4758 44.5257C54.5739 44.5502 54.672 44.5747 54.7944 44.5747H55.2378C55.7061 44.5747 56.002 44.6739 56.1992 44.848C56.3468 45.0218 56.4454 45.2456 56.4454 45.5932ZM26.1548 55.6273C26.1548 55.3295 25.9084 55.0809 25.5879 55.0809C25.2922 55.0809 25.0457 55.3295 25.0457 55.6273C25.0457 55.9502 25.2922 56.1988 25.5879 56.1988C25.9082 56.1986 26.1548 55.9502 26.1548 55.6273ZM25.7358 55.9005H25.8343V55.851C25.822 55.851 25.8158 55.851 25.8127 55.8479C25.8096 55.8448 25.8096 55.8385 25.8096 55.8259V55.7267C25.8096 55.677 25.7851 55.6522 25.7605 55.6272C25.785 55.6027 25.8096 55.5777 25.8096 55.5031C25.8096 55.4041 25.7358 55.3791 25.6372 55.3791H25.4153V55.9005H25.4893V55.6772H25.6372C25.7112 55.6772 25.7112 55.7267 25.7112 55.7514C25.7112 55.7618 25.7154 55.7807 25.7204 55.8029C25.7274 55.834 25.7358 55.8715 25.7358 55.9005ZM25.6619 55.4536C25.6865 55.4536 25.7358 55.4536 25.7358 55.5281C25.7358 55.5777 25.6865 55.6027 25.6372 55.6027H25.4893V55.4536H25.6619ZM25.5879 56.0992C25.8591 56.0992 26.0808 55.9007 26.0808 55.6273C26.0808 55.3791 25.8589 55.1554 25.5879 55.1554C25.3169 55.1554 25.1196 55.3791 25.1196 55.6273C25.1196 55.9005 25.3167 56.0992 25.5879 56.0992ZM52.0088 44.5747C52.4771 44.5747 52.773 44.6739 52.9702 44.848C53.1182 45.0218 53.2166 45.2456 53.2166 45.5932C53.2166 46.3382 52.7481 46.6857 51.9104 46.6857H50.3083V45.9405H51.9104C52.0583 45.9405 52.1568 45.9159 52.2307 45.8663C52.28 45.8165 52.3295 45.7419 52.3295 45.6427C52.3295 45.5432 52.2799 45.444 52.2307 45.3944C52.1816 45.3446 52.0828 45.3199 51.9352 45.3199C51.8864 45.3183 51.8368 45.317 51.7867 45.3157H51.7866C51.0521 45.2965 50.2097 45.2746 50.2097 44.2519C50.2097 43.755 50.5056 43.2085 51.393 43.2085H53.0442V43.9537H51.5161C51.3681 43.9537 51.2697 43.9537 51.1957 44.0032C51.0971 44.0778 51.0726 44.1523 51.0726 44.2765C51.0726 44.4008 51.1462 44.4753 51.245 44.5252L51.2493 44.5262C51.3463 44.5504 51.444 44.5747 51.5654 44.5747H52.0088ZM49.8154 45.9657H47.8687V45.2702H49.7662V44.5751H47.8687V43.9291H49.8154V43.2089H47.0552V46.6859H49.8154V45.9657ZM45.1573 43.2087C45.5762 43.2087 45.8966 43.2337 46.1678 43.3828C46.439 43.5315 46.5869 43.7551 46.5871 44.1523C46.5871 44.6989 46.2171 44.9971 45.9956 45.0713C46.1928 45.1458 46.3404 45.2699 46.4143 45.3694C46.513 45.5432 46.5374 45.6922 46.5374 46.0151V46.6857H45.7243V46.2637C45.7243 46.0401 45.7243 45.7419 45.5764 45.5682C45.4531 45.4441 45.2804 45.4191 44.9849 45.4191H44.0974V46.6857H43.2597V43.2087H45.1573ZM41.485 43.2087H38.8478L37.7879 44.3513L36.7774 43.2087H33.4502V46.6857H36.7283L37.7881 45.5432L38.7986 46.6857H40.4007V45.5187H41.4359C42.1505 45.5187 42.8655 45.3199 42.8655 44.3513C42.8654 43.4075 42.1259 43.2087 41.485 43.2087ZM45.108 44.6989C45.2559 44.6989 45.3792 44.6989 45.5023 44.6494C45.6011 44.5749 45.6747 44.4506 45.6747 44.3016C45.6747 44.1525 45.6011 44.0533 45.5023 44.0034C45.4038 43.9289 45.2559 43.9289 45.108 43.9289H44.0974V44.724L45.108 44.6989ZM41.485 44.8232H40.4005V43.9289H41.485C41.7809 43.9289 41.9779 44.0533 41.9779 44.3513C41.9779 44.6494 41.7807 44.8232 41.485 44.8232ZM39.5871 43.5814L38.3055 44.9472L39.5871 46.3879V43.5814ZM36.3091 45.9657H34.2634V45.2702H36.0872V44.5751H34.2634V43.9291H36.3338L37.2457 44.9474L36.3091 45.9657ZM44.3686 37.2229H43.5309V40.7001H44.3686V37.2229ZM41.6329 37.2229C42.0519 37.2229 42.3474 37.2229 42.6186 37.372C42.8897 37.5457 43.0624 37.7693 43.0623 38.1667C43.0623 38.7131 42.6922 38.9863 42.4707 39.0857C42.6431 39.16 42.791 39.2842 42.865 39.3836C42.9881 39.5576 43.0126 39.7066 43.0126 40.0046V40.7001H42.1748V40.2531C42.1748 40.2291 42.1752 40.2038 42.1756 40.1774C42.1783 39.9844 42.1818 39.7354 42.0517 39.5824C41.9286 39.4582 41.7314 39.4333 41.4355 39.4333H40.5483V40.7001H39.735V37.2229H41.6329ZM39.1435 39.9799H37.221V39.2844H39.1188V38.5642H37.221V37.9433H39.1435V37.2231H36.3831V40.7003H39.1435V39.9799ZM34.4114 37.2229H35.7667V40.7001H34.9288V37.9681L33.721 40.7001H33.0064L31.7988 37.9681V40.7001H30.1227L29.8024 39.9301H28.0772L27.7569 40.7001H26.8696L28.3484 37.2229H29.5807L30.9855 40.5013V37.2229H32.3164L33.4009 39.5824L34.4114 37.2229ZM49.1256 39.185L48.5585 37.819L47.9918 39.185H49.1256ZM41.559 38.7133C41.7316 38.7133 41.8548 38.7133 41.9779 38.6388C42.0764 38.5889 42.1257 38.4649 42.1257 38.316C42.1257 38.1671 42.0762 38.0677 41.9778 37.9931C41.879 37.9434 41.7067 37.9434 41.5588 37.9434H40.5483V38.7133H41.559ZM28.3729 39.185L28.9398 37.819L29.5067 39.185H28.3729Z" fill="#848484"/>
</svg>
