<svg width="83" height="83" viewBox="0 0 83 83" fill="none" xmlns="http://www.w3.org/2000/svg">
<mask id="mask0" mask-type="alpha" maskUnits="userSpaceOnUse" x="9" y="27" width="30" height="29">
<path fill-rule="evenodd" clip-rule="evenodd" d="M38.0806 41.8704C38.0806 49.5323 31.7573 55.7431 23.9574 55.7431C16.1575 55.7431 9.83545 49.5323 9.83545 41.8704C9.83545 34.2058 16.1575 27.995 23.9574 27.995C31.7573 27.995 38.0806 34.2058 38.0806 41.8704Z" fill="white"/>
</mask>
<g mask="url(#mask0)">
<path d="M38.45 41.8442C38.45 49.6066 32.0444 55.9006 24.1422 55.9006C16.24 55.9003 9.83398 49.6066 9.83398 41.8442C9.83398 34.0791 16.24 27.7859 24.1422 27.7859C32.0444 27.7859 38.45 34.0791 38.45 41.8442Z" fill="#B2B4B6"/>
<path d="M38.422 41.8357C38.422 49.5758 32.0357 55.8505 24.157 55.8505C16.2779 55.8505 9.89111 49.5758 9.89111 41.8357C9.89111 34.0937 16.2779 27.8193 24.157 27.8193C32.0361 27.819 38.422 34.0933 38.422 41.8357Z" fill="#B2B4B7"/>
<path d="M38.3955 41.8273C38.3955 49.5443 32.0276 55.8009 24.172 55.8009C16.3164 55.8009 9.94849 49.5443 9.94849 41.8273C9.94849 34.1084 16.3164 27.8525 24.172 27.8525C32.0276 27.8525 38.3955 34.108 38.3955 41.8273Z" fill="#B2B4B7"/>
<path d="M38.3684 41.8188C38.3684 49.5135 32.0188 55.7505 24.1872 55.7505C16.3544 55.7505 10.0056 49.5131 10.0056 41.8188C10.0056 34.1227 16.3544 27.8849 24.1872 27.8849C32.0192 27.8849 38.3684 34.1227 38.3684 41.8188Z" fill="#B3B5B8"/>
<path d="M38.3419 41.8103C38.3419 49.4815 32.0115 55.7004 24.2022 55.7004C16.3929 55.7004 10.063 49.4815 10.063 41.8103C10.063 34.1369 16.3929 27.918 24.2022 27.918C32.0115 27.918 38.3419 34.1369 38.3419 41.8103Z" fill="#B4B6B8"/>
<path d="M38.3143 41.8023C38.3143 49.4507 32.0032 55.6512 24.2174 55.6512C16.4312 55.6512 10.1201 49.4503 10.1201 41.8023C10.1201 34.152 16.4312 27.9515 24.2174 27.9515C32.0032 27.9512 38.3143 34.1516 38.3143 41.8023Z" fill="#B5B7B9"/>
<path d="M38.2873 41.7938C38.2873 49.4195 31.9946 55.6011 24.232 55.6011C16.4693 55.6011 10.177 49.4195 10.177 41.7938C10.177 34.1662 16.4693 27.9843 24.232 27.9843C31.9946 27.9843 38.2873 34.1662 38.2873 41.7938Z" fill="#B6B8BA"/>
<path d="M38.2599 41.7853C38.2599 49.3883 31.9864 55.551 24.2472 55.551C16.5077 55.551 10.2346 49.3883 10.2346 41.7853C10.2346 34.1808 16.5077 28.0173 24.2472 28.0173C31.9864 28.0173 38.2599 34.1808 38.2599 41.7853Z" fill="#B7B9BB"/>
<path d="M38.2331 41.7768C38.2331 49.3563 31.9784 55.5009 24.2624 55.5009C16.546 55.5009 10.2917 49.3563 10.2917 41.7768C10.2917 34.195 16.546 28.05 24.2624 28.05C31.9784 28.05 38.2331 34.195 38.2331 41.7768Z" fill="#B7B9BC"/>
<path d="M38.2062 41.7683C38.2062 49.3251 31.97 55.4508 24.2775 55.4508C16.5842 55.4508 10.3491 49.3251 10.3491 41.7683C10.3487 34.2096 16.5842 28.0831 24.2775 28.0831C31.97 28.0831 38.2062 34.2096 38.2062 41.7683Z" fill="#B7B9BC"/>
<path d="M38.1963 41.761C38.1963 49.302 31.9738 55.4146 24.2977 55.4146C16.6209 55.4146 10.3992 49.302 10.3992 41.761C10.3992 34.2185 16.6209 28.1051 24.2977 28.1051C31.9738 28.1055 38.1963 34.2185 38.1963 41.761Z" fill="#B8BABC"/>
<path d="M38.1869 41.7537C38.1869 49.2781 31.9777 55.3777 24.3173 55.3777C16.6574 55.3777 10.449 49.2781 10.449 41.7537C10.449 34.2274 16.6578 28.1274 24.3173 28.1274C31.9777 28.1274 38.1869 34.2274 38.1869 41.7537Z" fill="#B9BBBD"/>
<path d="M38.1772 41.7464C38.1772 49.2547 31.9817 55.3411 24.3378 55.3411C16.6943 55.3411 10.4993 49.2547 10.4993 41.746C10.4993 34.2363 16.6947 28.149 24.3378 28.149C31.9817 28.149 38.1772 34.2363 38.1772 41.7464Z" fill="#BABCBE"/>
<path d="M38.1678 41.7391C38.1678 49.2312 31.9857 55.3046 24.3586 55.3046C16.7312 55.3046 10.5491 49.2312 10.5491 41.7391C10.5491 34.2452 16.7312 28.171 24.3586 28.171C31.9857 28.1714 38.1678 34.2452 38.1678 41.7391Z" fill="#BBBDBF"/>
<path d="M38.158 41.7318C38.158 49.2077 31.9896 55.268 24.3786 55.268C16.768 55.268 10.5996 49.2077 10.5996 41.7318C10.5996 34.2536 16.768 28.1934 24.3786 28.1934C31.9896 28.1934 38.158 34.254 38.158 41.7318Z" fill="#BCBDC0"/>
<path d="M38.1486 41.7245C38.1486 49.1842 31.9923 55.2314 24.3994 55.2314C16.8049 55.2314 10.6494 49.1842 10.6494 41.7245C10.6494 34.2625 16.8049 28.2153 24.3994 28.2153C31.9923 28.2153 38.1486 34.2629 38.1486 41.7245Z" fill="#BCBEC0"/>
<path d="M38.1387 41.7171C38.1387 49.1606 31.9961 55.1947 24.4193 55.1947C16.8412 55.1947 10.6995 49.1606 10.6995 41.7171C10.6995 34.2716 16.8416 28.2372 24.4193 28.2372C31.9961 28.2372 38.1387 34.2716 38.1387 41.7171Z" fill="#BDBFC1"/>
<path d="M38.1296 41.7098C38.1296 49.1375 32 55.1585 24.44 55.1585C16.878 55.1585 10.75 49.1375 10.75 41.7098C10.75 34.2805 16.8784 28.2595 24.44 28.2595C32 28.2591 38.1296 34.2805 38.1296 41.7098Z" fill="#BEC0C2"/>
<path d="M38.1195 41.7025C38.1195 49.1141 32.0036 55.1216 24.4596 55.1216C16.9149 55.1216 10.7998 49.1137 10.7998 41.7025C10.7998 34.2894 16.9149 28.2815 24.4596 28.2815C32.004 28.2815 38.1195 34.2894 38.1195 41.7025Z" fill="#BFC1C3"/>
<path d="M38.1105 41.6952C38.1105 49.0902 32.0079 55.085 24.4804 55.085C16.9518 55.085 10.8496 49.0902 10.8496 41.6952C10.8496 34.2983 16.9518 28.3035 24.4804 28.3035C32.0075 28.3035 38.1105 34.2983 38.1105 41.6952Z" fill="#C0C2C4"/>
<path d="M38.1004 41.6879C38.1004 49.0668 32.0115 55.0485 24.5005 55.0485C16.9888 55.0485 10.8999 49.0668 10.8999 41.6879C10.8999 34.3072 16.9884 28.3251 24.5005 28.3251C32.0115 28.3251 38.1004 34.3072 38.1004 41.6879Z" fill="#C1C2C4"/>
<path d="M38.0913 41.6806C38.0913 49.0433 32.0154 55.0119 24.5213 55.0119C17.0256 55.0119 10.9504 49.0433 10.9504 41.6806C10.9504 34.316 17.0256 28.3474 24.5213 28.3474C32.0154 28.3474 38.0913 34.316 38.0913 41.6806Z" fill="#C1C3C5"/>
<path d="M38.0816 41.6732C38.0816 49.0197 32.0194 54.9748 24.5413 54.9748C17.062 54.9748 11.0002 49.0197 11.0002 41.6732C11.0002 34.3248 17.062 28.3693 24.5413 28.3693C32.0194 28.3693 38.0816 34.3252 38.0816 41.6732Z" fill="#C2C4C6"/>
<path d="M38.0722 41.6659C38.0722 48.9962 32.0229 54.9386 24.5617 54.9386C17.0989 54.9386 11.05 48.9962 11.05 41.6659C11.05 34.334 17.0989 28.3912 24.5617 28.3912C32.0229 28.3912 38.0722 34.3337 38.0722 41.6659Z" fill="#C3C5C7"/>
<path d="M38.0624 41.6586C38.0624 48.9728 32.0272 54.9021 24.5821 54.9021C17.1361 54.9021 11.1006 48.9728 11.1006 41.6586C11.1006 34.3425 17.1357 28.4132 24.5821 28.4132C32.0268 28.4132 38.0624 34.3425 38.0624 41.6586Z" fill="#C4C6C8"/>
<path d="M38.0528 41.6513C38.0528 48.9493 32.0306 54.8651 24.6023 54.8651C17.1725 54.8651 11.1506 48.9493 11.1506 41.6513C11.1506 34.3518 17.1725 28.4352 24.6023 28.4352C32.0306 28.4352 38.0528 34.3514 38.0528 41.6513Z" fill="#C5C6C8"/>
<path d="M38.0438 41.644C38.0438 48.9258 32.0345 54.8286 24.6223 54.8286C17.2093 54.8286 11.2004 48.9258 11.2004 41.644C11.2004 34.3607 17.2093 28.4575 24.6223 28.4575C32.0345 28.4571 38.0438 34.3603 38.0438 41.644Z" fill="#C5C7C9"/>
<path d="M38.0337 41.6366C38.0337 48.9022 32.0382 54.7919 24.6428 54.7919C17.2459 54.7919 11.2507 48.9022 11.2507 41.6366C11.2507 34.3691 17.2459 28.479 24.6428 28.479C32.0386 28.4794 38.0337 34.3691 38.0337 41.6366Z" fill="#C6C8CA"/>
<path d="M38.0246 41.6293C38.0246 48.8787 32.0424 54.7553 24.6631 54.7553C17.283 54.7553 11.3008 48.8783 11.3008 41.6293C11.3008 34.3779 17.2826 28.5013 24.6631 28.5013C32.042 28.5013 38.0246 34.3779 38.0246 41.6293Z" fill="#C7C9CB"/>
<path d="M38.0145 41.622C38.0145 48.8553 32.0452 54.7188 24.6828 54.7188C17.3196 54.7188 11.3511 48.8553 11.3511 41.622C11.3511 34.3868 17.32 28.5233 24.6832 28.5233C32.0452 28.5233 38.0145 34.3868 38.0145 41.622Z" fill="#C8CACC"/>
<path d="M38.0054 41.6147C38.0054 48.8318 32.049 54.6822 24.7035 54.6822C17.3563 54.6822 11.4011 48.8318 11.4011 41.6147C11.4011 34.3957 17.3563 28.5453 24.7035 28.5453C32.049 28.5453 38.0054 34.3957 38.0054 41.6147Z" fill="#C9CBCC"/>
<path d="M37.9956 41.6074C37.9956 48.8083 32.053 54.6456 24.7235 54.6456C17.3928 54.6456 11.4509 48.8079 11.4509 41.6074C11.4509 34.4046 17.3928 28.5673 24.7235 28.5673C32.053 28.5673 37.9956 34.4046 37.9956 41.6074Z" fill="#CACBCD"/>
<path d="M37.9862 41.6001C37.9862 48.7848 32.0565 54.609 24.7442 54.609C17.43 54.609 11.5015 48.7848 11.5015 41.6001C11.5015 34.4134 17.43 28.5896 24.7442 28.5896C32.0565 28.5892 37.9862 34.4134 37.9862 41.6001Z" fill="#CBCCCE"/>
<path d="M37.9764 41.5928C37.9764 48.7614 32.0604 54.5725 24.7642 54.5725C17.4669 54.5725 11.5513 48.7614 11.5513 41.5928C11.5513 34.4223 17.4669 28.6116 24.7642 28.6116C32.0604 28.6116 37.9764 34.4223 37.9764 41.5928Z" fill="#CBCDCF"/>
<path d="M37.967 41.5855C37.967 48.7379 32.0644 54.5359 24.7846 54.5359C17.5029 54.5359 11.6011 48.7379 11.6011 41.5855C11.6011 34.4312 17.5029 28.6335 24.7846 28.6335C32.0644 28.6335 37.967 34.4312 37.967 41.5855Z" fill="#CCCED0"/>
<path d="M37.9573 41.5781C37.9573 48.7139 32.0684 54.4989 24.8047 54.4989C17.5399 54.4989 11.6514 48.7139 11.6514 41.5781C11.6514 34.44 17.5399 28.655 24.8047 28.655C32.0684 28.655 37.9573 34.4403 37.9573 41.5781Z" fill="#CDCFD0"/>
<path d="M37.9478 41.5708C37.9478 48.6909 32.0718 54.4623 24.825 54.4623C17.5766 54.4623 11.7014 48.6909 11.7014 41.5708C11.7014 34.4488 17.5766 28.677 24.825 28.677C32.0718 28.6774 37.9478 34.4492 37.9478 41.5708Z" fill="#CECFD1"/>
<path d="M37.9381 41.5635C37.9381 48.6674 32.0758 54.4257 24.8455 54.4257C17.614 54.4257 11.7517 48.667 11.7517 41.5635C11.7517 34.4577 17.6136 28.6993 24.8455 28.6993C32.0758 28.6993 37.9381 34.4581 37.9381 41.5635Z" fill="#CFD0D2"/>
<path d="M37.9291 41.5562C37.9291 48.6439 32.0797 54.3895 24.8662 54.3895C17.6508 54.3895 11.8022 48.6439 11.8022 41.5562C11.8022 34.4666 17.6508 28.7213 24.8662 28.7213C32.0797 28.7213 37.9291 34.4666 37.9291 41.5562Z" fill="#D0D1D3"/>
<path d="M37.9188 41.5489C37.9188 48.6204 32.0836 54.3526 24.8858 54.3526C17.6868 54.3526 11.8516 48.6204 11.8516 41.5489C11.8516 34.4758 17.6868 28.7433 24.8858 28.7433C32.0836 28.7433 37.9188 34.4755 37.9188 41.5489Z" fill="#D0D2D3"/>
<path d="M37.9097 41.5415C37.9097 48.5968 32.0875 54.3159 24.9069 54.3159C17.7244 54.3159 11.9021 48.5965 11.9021 41.5415C11.9021 34.4846 17.724 28.7651 24.9069 28.7651C32.0875 28.7651 37.9097 34.4842 37.9097 41.5415Z" fill="#D1D3D4"/>
<path d="M37.8898 41.5312C37.8898 48.5638 32.086 54.2644 24.9281 54.2644C17.7691 54.2644 11.9661 48.5638 11.9661 41.5312C11.9661 34.497 17.7691 28.796 24.9281 28.796C32.086 28.796 37.8898 34.497 37.8898 41.5312Z" fill="#D2D3D5"/>
<path d="M37.8698 41.5211C37.8698 48.5306 32.0851 54.2131 24.9504 54.2131C17.8145 54.2131 12.0303 48.5306 12.0303 41.5211C12.0303 34.5093 17.8145 28.8271 24.9504 28.8271C32.0851 28.8271 37.8698 34.5093 37.8698 41.5211Z" fill="#D3D4D6"/>
<path d="M37.8497 41.5111C37.8497 48.4979 32.0843 54.1619 24.9723 54.1619C17.8592 54.1619 12.0938 48.4983 12.0938 41.5111C12.0938 34.522 17.8592 28.8584 24.9723 28.8584C32.0843 28.8584 37.8497 34.522 37.8497 41.5111Z" fill="#D4D5D7"/>
<path d="M37.8298 41.5003C37.8298 48.4648 32.0824 54.1103 24.9944 54.1103C17.9044 54.1103 12.1577 48.4644 12.1577 41.5003C12.1577 34.5347 17.9044 28.8888 24.9944 28.8888C32.0828 28.8892 37.8298 34.5347 37.8298 41.5003Z" fill="#D5D6D7"/>
<path d="M37.8101 41.4904C37.8101 48.4317 32.0811 54.0592 25.0162 54.0592C17.9501 54.0592 12.2219 48.4321 12.2219 41.4904C12.2219 34.5471 17.9501 28.92 25.0162 28.92C32.0811 28.92 37.8101 34.5471 37.8101 41.4904Z" fill="#D5D7D8"/>
<path d="M37.7903 41.4803C37.7903 48.3989 32.0805 54.0075 25.0387 54.0075C17.9954 54.0075 12.2864 48.3989 12.2864 41.4803C12.2864 34.5597 17.9954 28.9512 25.0387 28.9512C32.0805 28.9512 37.7903 34.5597 37.7903 41.4803Z" fill="#D6D7D9"/>
<path d="M37.7701 41.47C37.7701 48.3659 32.0796 53.9563 25.0605 53.9563C18.0403 53.9563 12.3501 48.3663 12.3501 41.47C12.3501 34.5721 18.0403 28.9821 25.0605 28.9821C32.0796 28.9821 37.7701 34.5721 37.7701 41.47Z" fill="#D7D8DA"/>
<path d="M37.7502 41.4599C37.7502 48.3331 32.0781 53.9047 25.0829 53.9047C18.0858 53.9047 12.4141 48.3331 12.4141 41.4599C12.4141 34.5848 18.0858 29.0132 25.0829 29.0132C32.0781 29.0132 37.7502 34.5848 37.7502 41.4599Z" fill="#D8D9DB"/>
<path d="M37.7303 41.4495C37.7303 48.2999 32.0774 53.853 25.1042 53.853C18.1306 53.853 12.478 48.2999 12.478 41.4495C12.478 34.597 18.1306 29.0439 25.1042 29.0439C32.0774 29.0436 37.7303 34.597 37.7303 41.4495Z" fill="#D8D9DB"/>
<path d="M37.7106 41.4395C37.7106 48.2673 32.0769 53.8023 25.1264 53.8023C18.176 53.8023 12.5422 48.2676 12.5422 41.4395C12.5422 34.6098 18.176 29.0752 25.1264 29.0752C32.0765 29.0748 37.7106 34.6098 37.7106 41.4395Z" fill="#D9DADB"/>
<path d="M37.6907 41.4291C37.6907 48.2341 32.0754 53.7502 25.1488 53.7502C18.2215 53.7502 12.6062 48.2341 12.6062 41.4291C12.6062 34.6221 18.2211 29.106 25.1488 29.106C32.075 29.106 37.6907 34.6225 37.6907 41.4291Z" fill="#D9DBDC"/>
<path d="M37.6706 41.4187C37.6706 48.2011 32.0745 53.6987 25.1711 53.6987C18.2665 53.6987 12.6704 48.2011 12.6704 41.4187C12.6704 34.6349 18.2665 29.1368 25.1711 29.1368C32.0741 29.1368 37.6706 34.6349 37.6706 41.4187Z" fill="#DADCDD"/>
<path d="M37.6507 41.4087C37.6507 48.1683 32.073 53.6474 25.1923 53.6474C18.3117 53.6474 12.7344 48.1679 12.7344 41.4087C12.7344 34.6475 18.3117 29.168 25.1923 29.168C32.0726 29.168 37.6507 34.6475 37.6507 41.4087Z" fill="#DBDCDE"/>
<path d="M37.6308 41.3987C37.6308 48.1356 32.0719 53.5963 25.2148 53.5963C18.3568 53.5963 12.7983 48.1356 12.7983 41.3987C12.7983 34.6603 18.3568 29.1989 25.2148 29.1989C32.0719 29.1989 37.6308 34.6599 37.6308 41.3987Z" fill="#DCDDDE"/>
<path d="M37.6114 41.3883C37.6114 48.1024 32.0702 53.545 25.2365 53.545C18.4017 53.545 12.8621 48.1024 12.8621 41.3883C12.8621 34.6726 18.4017 29.23 25.2365 29.23C32.0706 29.2296 37.6114 34.6726 37.6114 41.3883Z" fill="#DDDEDF"/>
<path d="M37.592 41.3779C37.592 48.069 32.07 53.4931 25.2594 53.4931C18.4478 53.4931 12.9265 48.069 12.9265 41.3779C12.9265 34.685 18.4474 29.2609 25.2594 29.2609C32.07 29.2609 37.592 34.685 37.592 41.3779Z" fill="#DEDFE0"/>
<path d="M37.5718 41.3679C37.5718 48.0362 32.069 53.4418 25.2804 53.4418C18.4923 53.4418 12.9902 48.0362 12.9902 41.3679C12.9902 34.6976 18.4923 29.2916 25.2804 29.2916C32.069 29.2916 37.5718 34.6976 37.5718 41.3679Z" fill="#DEE0E1"/>
<path d="M37.552 41.3574C37.552 48.0034 32.0676 53.3905 25.3029 53.3905C18.5379 53.3905 13.0547 48.0034 13.0547 41.3574C13.0547 34.7099 18.5379 29.3224 25.3029 29.3224C32.0676 29.3224 37.552 34.7099 37.552 41.3574Z" fill="#DFE0E2"/>
<path d="M37.532 41.3475C37.532 47.9708 32.0668 53.339 25.3249 53.339C18.583 53.339 13.1182 47.9704 13.1182 41.3475C13.1182 34.7227 18.5826 29.3536 25.3249 29.3536C32.0668 29.3536 37.532 34.7227 37.532 41.3475Z" fill="#E0E1E2"/>
<path d="M37.5061 41.3321C37.5061 47.918 32.0715 53.257 25.3673 53.257C18.6626 53.257 13.2288 47.918 13.2288 41.3321C13.2288 34.7443 18.663 29.4053 25.3673 29.4053C32.0715 29.4053 37.5061 34.7443 37.5061 41.3321Z" fill="#E1E2E3"/>
<path d="M37.4799 41.3166C37.4799 47.8664 32.0759 53.1749 25.4092 53.1749C18.7418 53.1749 13.3381 47.8664 13.3381 41.3166C13.3381 34.7661 18.7418 29.4564 25.4092 29.4564C32.0759 29.4564 37.4799 34.7657 37.4799 41.3166Z" fill="#E2E3E4"/>
<path d="M37.4538 41.3013C37.4538 47.8136 32.0796 53.0929 25.4506 53.0929C18.8216 53.0929 13.4485 47.814 13.4485 41.3013C13.4481 34.7873 18.8216 29.5081 25.4506 29.5081C32.0796 29.5081 37.4538 34.7873 37.4538 41.3013Z" fill="#E3E4E5"/>
<path d="M37.4284 41.2863C37.4284 47.7617 32.0839 53.0109 25.4925 53.0109C18.9011 53.0109 13.5579 47.7617 13.5579 41.2863C13.5579 34.8093 18.9007 29.5597 25.4925 29.5597C32.0843 29.5597 37.4284 34.8089 37.4284 41.2863Z" fill="#E3E4E5"/>
<path d="M37.4025 41.2708C37.4025 47.7096 32.0898 52.9288 25.5349 52.9288C18.9812 52.9288 13.6685 47.7096 13.6685 41.2708C13.6685 34.8308 18.9812 29.6112 25.5349 29.6112C32.0894 29.6108 37.4025 34.8308 37.4025 41.2708Z" fill="#E4E5E6"/>
<path d="M37.3764 41.2554C37.3764 47.6573 32.0935 52.8472 25.577 52.8472C19.0604 52.8472 13.7783 47.6577 13.7783 41.2554C13.7783 34.8524 19.0604 29.6625 25.577 29.6625C32.0935 29.6625 37.3764 34.8524 37.3764 41.2554Z" fill="#E5E6E7"/>
<path d="M37.3504 41.2404C37.3504 47.6053 32.098 52.7652 25.6192 52.7652C19.1403 52.7652 13.8879 47.6053 13.8879 41.2404C13.8879 34.874 19.1403 29.7141 25.6192 29.7141C32.098 29.7141 37.3504 34.8736 37.3504 41.2404Z" fill="#E6E7E8"/>
<path d="M37.3241 41.225C37.3241 47.5529 32.1023 52.6831 25.6611 52.6831C19.2198 52.6831 13.998 47.5533 13.998 41.225C13.998 34.8955 19.2198 29.7653 25.6611 29.7653C32.1027 29.7653 37.3241 34.8955 37.3241 41.225Z" fill="#E7E8E9"/>
<path d="M37.2984 41.2096C37.2984 47.5009 32.1072 52.6008 25.7036 52.6008C19.3 52.6008 14.1084 47.5009 14.1084 41.2096C14.1084 34.9167 19.3 29.8169 25.7036 29.8169C32.1072 29.8169 37.2984 34.9171 37.2984 41.2096Z" fill="#E7E8E9"/>
<path d="M37.2728 41.1942C37.2728 47.4486 32.1118 52.5188 25.7454 52.5188C19.379 52.5188 14.218 47.4486 14.218 41.1942C14.218 34.9383 19.379 29.8682 25.7454 29.8682C32.1118 29.8685 37.2728 34.9387 37.2728 41.1942Z" fill="#E8E8E9"/>
<path d="M37.247 41.1791C37.247 47.3965 32.1165 52.4374 25.787 52.4374C19.4586 52.4374 14.3286 47.3965 14.3286 41.1791C14.3286 34.9602 19.459 29.92 25.787 29.92C32.1165 29.92 37.247 34.9602 37.247 41.1791Z" fill="#E9E9EA"/>
<path d="M37.2207 41.1638C37.2207 47.3442 32.1209 52.3551 25.829 52.3551C19.5382 52.3551 14.438 47.3442 14.438 41.1638C14.438 34.9818 19.5382 29.9713 25.829 29.9713C32.1212 29.9713 37.2207 34.9818 37.2207 41.1638Z" fill="#E9EAEB"/>
<path d="M37.1949 41.1488C37.1949 47.2922 32.1256 52.2735 25.8713 52.2735C19.6182 52.2735 14.5486 47.2926 14.5486 41.1488C14.5486 35.0038 19.6186 30.0229 25.8713 30.0229C32.1256 30.0229 37.1949 35.0034 37.1949 41.1488Z" fill="#EAEBEC"/>
<path d="M37.169 41.1333C37.169 47.2401 32.1303 52.191 25.9136 52.191C19.6982 52.191 14.6587 47.2398 14.6587 41.1333C14.6587 35.0249 19.6982 30.0745 25.9136 30.0745C32.1303 30.0745 37.169 35.0249 37.169 41.1333Z" fill="#EBECED"/>
<path d="M37.1433 41.1179C37.1433 47.1878 32.1348 52.109 25.9554 52.109C19.7776 52.109 14.7683 47.1878 14.7683 41.1179C14.7683 35.0465 19.7776 30.1257 25.9554 30.1257C32.1348 30.1257 37.1433 35.0465 37.1433 41.1179Z" fill="#ECEDED"/>
<path d="M37.1177 41.1026C37.1177 47.1355 32.1397 52.027 25.998 52.027C19.8574 52.027 14.8787 47.1355 14.8787 41.1026C14.8787 35.0681 19.8578 30.1774 25.998 30.1774C32.1397 30.1774 37.1177 35.0681 37.1177 41.1026Z" fill="#EDEDEE"/>
<path d="M37.0431 41.0771C37.0431 47.0388 32.124 51.8721 26.0551 51.8721C19.9871 51.8721 15.0671 47.0388 15.0671 41.0771C15.0671 35.1138 19.9871 30.2809 26.0551 30.2809C32.1244 30.2809 37.0431 35.1138 37.0431 41.0771Z" fill="#EEEEEF"/>
<path d="M36.9686 41.0521C36.9686 46.9425 32.1086 51.7181 26.1123 51.7181C20.1167 51.7181 15.2556 46.9425 15.2556 41.0521C15.2556 35.1601 20.1167 30.3849 26.1123 30.3849C32.1086 30.3849 36.9686 35.1601 36.9686 41.0521Z" fill="#EEEFF0"/>
<path d="M36.8954 41.0263C36.8954 46.8455 32.0935 51.5633 26.1704 51.5633C20.2474 51.5633 15.4451 46.8455 15.4451 41.0263C15.4451 35.2056 20.2474 30.4882 26.1704 30.4882C32.0935 30.4885 36.8954 35.206 36.8954 41.0263Z" fill="#EFF0F0"/>
<path d="M36.8208 41.0012C36.8208 46.7488 32.0781 51.4088 26.2276 51.4088C20.3771 51.4088 15.6335 46.7488 15.6335 41.0012C15.6335 35.2521 20.3771 30.592 26.2276 30.592C32.0781 30.592 36.8208 35.2521 36.8208 41.0012Z" fill="#F0F1F1"/>
<path d="M36.7472 40.9758C36.7472 46.6522 32.0636 51.2541 26.2848 51.2541C20.5072 51.2541 15.8225 46.6518 15.8225 40.9758C15.8225 35.2976 20.5072 30.6957 26.2848 30.6957C32.0636 30.6961 36.7472 35.298 36.7472 40.9758Z" fill="#F1F1F2"/>
<path d="M36.6731 40.9504C36.6731 46.5555 32.0484 51.1001 26.3425 51.1001C20.6374 51.1001 16.0115 46.5555 16.0115 40.9504C16.0115 35.3438 20.6374 30.7997 26.3425 30.7997C32.0484 30.7997 36.6731 35.3438 36.6731 40.9504Z" fill="#F2F2F3"/>
<path d="M36.5986 40.9254C36.5986 46.4589 32.033 50.9457 26.3996 50.9457C20.7667 50.9457 16.2 46.4593 16.2 40.9254C16.2 35.3901 20.7667 30.9037 26.3996 30.9037C32.033 30.9033 36.5986 35.3897 36.5986 40.9254Z" fill="#F3F3F3"/>
<path d="M36.5254 40.9C36.5254 46.3622 32.0178 50.7912 26.4578 50.7912C20.8977 50.7912 16.3894 46.3622 16.3894 40.9C16.3894 35.4358 20.8977 31.0072 26.4578 31.0072C32.0178 31.0072 36.5254 35.4358 36.5254 40.9Z" fill="#F3F4F4"/>
<path d="M36.4508 40.8746C36.4508 46.2656 32.0025 50.6364 26.5149 50.6364C21.0274 50.6364 16.5779 46.2656 16.5779 40.8746C16.5779 35.4821 21.0274 31.1108 26.5149 31.1108C32.0025 31.1108 36.4508 35.4817 36.4508 40.8746Z" fill="#F3F4F4"/>
<path d="M36.3763 40.8491C36.3763 46.1688 31.9875 50.4819 26.5721 50.4819C21.1567 50.4819 16.7664 46.1688 16.7664 40.8491C16.7664 35.5274 21.1567 31.2144 26.5721 31.2144C31.9879 31.2144 36.3763 35.5278 36.3763 40.8491Z" fill="#F4F5F5"/>
<path d="M36.303 40.8237C36.303 46.0722 31.9722 50.3271 26.6297 50.3271C21.2873 50.3271 16.9553 46.0718 16.9553 40.8237C16.9553 35.5737 21.2873 31.318 26.6297 31.318C31.9722 31.318 36.303 35.5737 36.303 40.8237Z" fill="#F5F6F6"/>
<path d="M36.211 40.7875C36.211 45.9347 31.9634 50.108 26.7232 50.108C21.4838 50.108 17.2354 45.9347 17.2354 40.7875C17.2354 35.638 21.4838 31.4647 26.7232 31.4647C31.9634 31.4647 36.211 35.6384 36.211 40.7875Z" fill="#F6F6F7"/>
<path d="M36.1184 40.7513C36.1184 45.798 31.9543 49.8893 26.8168 49.8893C21.6801 49.8893 17.5151 45.798 17.5151 40.7513C17.5151 35.7027 21.6801 31.6115 26.8168 31.6115C31.9539 31.6111 36.1184 35.7027 36.1184 40.7513Z" fill="#F7F7F8"/>
<path d="M36.0262 40.7148C36.0262 45.6606 31.9455 49.6702 26.9108 49.6702C21.8764 49.6702 17.7949 45.6606 17.7949 40.7148C17.7949 35.7671 21.8764 31.7574 26.9108 31.7574C31.9455 31.7574 36.0262 35.7675 36.0262 40.7148Z" fill="#F8F8F9"/>
<path d="M35.9346 40.6785C35.9346 45.5234 31.9367 49.451 27.0046 49.451C22.0733 49.451 18.075 45.5238 18.075 40.6785C18.075 35.8317 22.0733 31.9041 27.0046 31.9041C31.9367 31.9041 35.9346 35.8317 35.9346 40.6785Z" fill="#F9F9FA"/>
<path d="M35.8424 40.6423C35.8424 45.3867 31.9271 49.2323 27.0978 49.2323C22.2692 49.2323 18.3547 45.3867 18.3547 40.6423C18.3547 35.8964 22.2692 32.0508 27.0978 32.0508C31.9271 32.0504 35.8424 35.8964 35.8424 40.6423Z" fill="#FAFBFB"/>
<path d="M35.7508 40.6057C35.7508 45.2492 31.9191 49.0128 27.1924 49.0128C22.4657 49.0128 18.6348 45.2492 18.6348 40.6057C18.6348 35.9607 22.4657 32.1968 27.1924 32.1968C31.9191 32.1968 35.7508 35.9607 35.7508 40.6057Z" fill="#FAFBFB"/>
<path d="M35.6248 40.5781C35.6248 45.1268 31.8715 48.8141 27.2405 48.8141C22.611 48.8141 18.8577 45.1268 18.8577 40.5781C18.8577 36.0278 22.611 32.3405 27.2405 32.3405C31.8715 32.3408 35.6248 36.0278 35.6248 40.5781Z" fill="#FCFCFC"/>
<path d="M35.499 40.5507C35.499 45.0048 31.8237 48.6154 27.2891 48.6154C22.7557 48.6154 19.0803 45.0048 19.0803 40.5507C19.0803 36.0952 22.7557 32.4845 27.2891 32.4845C31.8237 32.4845 35.499 36.0952 35.499 40.5507Z" fill="#FDFDFD"/>
<path d="M35.3735 40.5234C35.3735 44.8827 31.7762 48.4171 27.3384 48.4171C22.901 48.4171 19.3037 44.8827 19.3037 40.5234C19.3037 36.1622 22.901 32.6285 27.3384 32.6285C31.7762 32.6282 35.3735 36.1622 35.3735 40.5234Z" fill="#FDFDFD"/>
<path d="M35.2478 40.4956C35.2478 44.7602 31.7285 48.2179 27.3875 48.2179C23.0466 48.2179 19.5269 44.7602 19.5269 40.4956C19.5269 36.2291 23.0466 32.7721 27.3875 32.7721C31.7289 32.7721 35.2478 36.2291 35.2478 40.4956Z" fill="white"/>
</g>
<path fill-rule="evenodd" clip-rule="evenodd" d="M57.8588 46.0379L57.8058 46.0398C56.4443 46.0398 55.7544 45.3549 55.7544 44.0093V40.0407C55.7544 39.9722 55.8149 39.9164 55.888 39.9164H58.0207C58.1605 39.9156 58.2738 39.8085 58.2748 39.676V38.7938C58.2744 38.661 58.1608 38.5536 58.0207 38.5534H55.8947C55.8577 38.5538 55.8221 38.5401 55.7958 38.5155C55.7694 38.4909 55.7545 38.4574 55.7544 38.4223V36.5992C55.7595 36.4674 55.6511 36.3566 55.5121 36.3513H55.483L54.3929 36.4325C54.2542 36.4333 54.1424 36.5404 54.1431 36.6718V38.4287C54.143 38.4619 54.1289 38.4937 54.104 38.517C54.079 38.5403 54.0453 38.5533 54.0103 38.553H52.6707C52.6035 38.5527 52.539 38.5778 52.4914 38.6227C52.4437 38.6676 52.417 38.7286 52.417 38.7923L52.4146 39.6793C52.417 39.7448 52.4445 39.8059 52.4944 39.8472C52.5442 39.8922 52.6087 39.9164 52.6758 39.9164H54.0115C54.0845 39.9164 54.1442 39.9711 54.1442 40.0407L54.1431 44.2747C54.1431 46.5475 55.9497 47.3593 57.5324 47.3593C57.5324 47.3593 57.7202 47.3623 57.8643 47.3485C58.0069 47.3355 58.1142 47.2409 58.1142 47.108V46.2761C58.1137 46.2124 58.0865 46.1516 58.0386 46.1069C57.9907 46.0622 57.926 46.0374 57.8588 46.0379ZM67.1312 46.696L65.4361 45.0366C65.38 44.9918 65.3694 44.9137 65.4118 44.8569C65.4149 44.8531 66.7054 42.7948 66.7054 42.7948C66.7249 42.7581 66.7357 42.7178 66.7368 42.6768C66.7366 42.5459 66.6247 42.4399 66.4866 42.4397H65.541C65.4478 42.439 65.3615 42.4859 65.3151 42.5625L64.4957 43.9029C64.4759 43.929 64.4458 43.9466 64.4122 43.9516C64.3787 43.9566 64.3443 43.9487 64.317 43.9297C64.317 43.9289 62.9931 42.6407 62.9931 42.6407C62.9488 42.5914 62.9536 42.5176 63.0041 42.4739L63.0222 42.4594C63.7694 42.0474 64.6218 41.441 64.6218 40.3735C64.6218 39.1467 63.692 38.3226 62.3092 38.3226C60.9551 38.3226 59.9263 39.182 59.9263 40.4643C59.9263 41.0286 60.1746 41.5914 60.6884 42.184L60.7002 42.197C60.7198 42.2204 60.7296 42.2528 60.7257 42.2833C60.7211 42.3161 60.7035 42.3461 60.6766 42.3671C59.5508 42.9742 58.9811 43.7778 58.9811 44.7612C58.9811 46.4287 60.455 47.3027 61.9105 47.3027C62.9102 47.3027 63.69 46.9394 64.4407 46.1228L64.4552 46.1049C64.5 46.0628 64.5825 46.0628 64.6336 46.1116L65.5442 47.0049C65.5449 47.0064 65.5677 47.0284 65.5677 47.0284C65.6172 47.073 65.6801 47.0976 65.7469 47.0976H66.9497C67.0163 47.098 67.0802 47.0732 67.1274 47.0286C67.1745 46.9841 67.2009 46.9236 67.2007 46.8605C67.2007 46.7993 67.176 46.7404 67.1316 46.696H67.1312ZM62.3316 39.5606C62.9012 39.5606 63.206 39.9328 63.206 40.3862C63.206 40.9169 62.706 41.2248 62.1038 41.5437L62.0731 41.556C62.025 41.5807 61.9653 41.5714 61.9282 41.5333L61.9128 41.5203C61.6508 41.2478 61.3432 40.8172 61.3432 40.5034C61.3424 39.9749 61.7431 39.5606 62.3316 39.5606ZM63.5415 45.2317L63.547 45.225V45.2254C63.5687 45.2001 63.5806 45.1686 63.5808 45.136V45.1323C63.5808 45.0995 63.5667 45.0705 63.5337 45.0415L61.7569 43.276C61.7129 43.2381 61.6481 43.2295 61.588 43.2641C60.7351 43.7517 60.4476 44.1299 60.4476 44.7679C60.4476 45.4885 61.0958 46.0543 61.9258 46.0543C62.6239 46.0543 63.1051 45.7245 63.5415 45.2317ZM51.6356 46.1585C51.6431 46.269 51.6671 46.524 51.7535 46.7548H51.7539C51.7539 46.7548 51.7892 46.8601 51.7892 46.9011C51.7871 47.03 51.6755 47.1331 51.5394 47.1318L50.4811 47.1311C50.4442 47.1297 50.408 47.1208 50.375 47.105C50.3083 47.0738 50.2627 47.0068 50.2415 46.9405C50.2175 46.8657 50.1983 46.7637 50.1865 46.6267C50.1684 46.4745 50.1676 46.2985 50.1684 46.2199C50.1684 46.2035 50.1531 46.1886 50.1354 46.1886C50.1247 46.1885 50.1146 46.193 50.1079 46.2009L50.1024 46.208C49.5729 46.814 48.5122 47.3098 47.1931 47.3098C45.8327 47.3098 44.3738 46.4648 44.3738 44.8059C44.3738 41.983 48.1316 41.5043 49.6137 41.556L49.9084 41.562C49.9806 41.5642 50.0396 41.5415 50.0396 41.447L50.0396 41.4315C50.0411 41.1952 50.0497 39.8453 48.1854 39.8453C47.5128 39.8492 46.8546 40.03 46.2841 40.3675L46.2067 40.4159C46.0952 40.4915 45.9402 40.4677 45.8595 40.3627C45.8595 40.3627 45.2942 39.641 45.2895 39.6324C45.2529 39.5799 45.2396 39.5189 45.2529 39.4575C45.2686 39.3948 45.3089 39.3402 45.3657 39.3049C46.0846 38.85 47.2025 38.547 48.4274 38.547C49.9747 38.547 51.6278 39.3343 51.6278 41.5497V45.7427C51.6278 45.7427 51.6313 46.0766 51.6356 46.1585ZM50.1083 43.4703C49.8923 44.9172 49.1404 45.7535 47.7505 45.9698C46.7728 46.122 45.8874 45.7405 45.8398 44.7482C45.7872 43.6587 47.1228 42.743 49.5906 42.8435C49.5906 42.8435 49.772 42.8547 49.8934 42.8677C50.0019 42.8793 50.0686 42.9105 50.1103 42.9723C50.1496 43.0296 50.1566 43.1447 50.1083 43.4703ZM72.1633 46.0398L72.2179 46.0379C72.2849 46.0375 72.3493 46.0624 72.3969 46.1071C72.4444 46.1518 72.4712 46.2126 72.4713 46.2761L72.4697 47.108C72.4697 47.2409 72.3641 47.3355 72.2211 47.3485C72.0777 47.3623 71.8899 47.3593 71.8899 47.3593C70.3053 47.3593 68.5006 46.5475 68.5006 44.2747V40.0407C68.5006 39.9711 68.4401 39.9164 68.3678 39.9164H67.0338C66.9656 39.917 66.9 39.8921 66.8511 39.8472C66.8019 39.8037 66.7735 39.7431 66.7725 39.6793L66.7749 38.7923C66.7746 38.7287 66.8011 38.6676 66.8487 38.6226C66.8962 38.5777 66.9607 38.5526 67.0279 38.553H68.3659C68.4011 38.5536 68.4352 38.5408 68.4604 38.5174C68.4857 38.4941 68.5 38.4621 68.5002 38.4287V36.6718C68.4995 36.5405 68.6111 36.4335 68.7496 36.4325L69.8401 36.3513H69.8688C70.0083 36.3562 70.1172 36.4671 70.1124 36.5992V38.4223C70.1124 38.4575 70.1273 38.4911 70.1537 38.5158C70.1801 38.5404 70.2159 38.554 70.253 38.5534H72.3774C72.5181 38.5529 72.6327 38.6605 72.6336 38.7938V39.676C72.6336 39.8074 72.5188 39.9164 72.3774 39.9164H70.2451C70.1729 39.9164 70.1128 39.9722 70.1128 40.0407V44.0093C70.1128 45.3549 70.803 46.0398 72.1633 46.0398Z" fill="#848484"/>
<path fill-rule="evenodd" clip-rule="evenodd" d="M13.7663 33.5426C13.7663 34.8451 15.593 36.9286 20.8853 36.9286C24.023 36.9286 26.5559 36.298 28.4675 35.6377C31.5329 34.5806 33.0505 33.2877 32.9958 32.3259C32.987 32.1762 32.9308 31.9332 32.7606 31.7406C32.0879 31.1158 31.3584 30.5605 30.5824 30.0823C31.0836 30.3943 31.3661 30.7546 31.3661 31.1552C31.3661 32.5904 27.9897 33.9051 23.5788 34.0227C19.168 34.1406 15.5138 33.0141 15.4151 31.5821C15.3822 31.1092 15.7116 30.6422 16.3355 30.2284C15.8602 30.5336 15.4034 30.8687 14.9675 31.2319C13.7623 32.2696 13.7657 33.3644 13.7663 33.5341L13.7663 33.5426ZM10.9292 37.5918C10.9292 36.9803 11.0134 36.5498 11.1729 36.167C11.4387 35.599 11.7397 35.0496 12.0742 34.5222C11.9836 34.6795 11.9363 34.8596 11.9377 35.0428C11.9377 36.3731 15.0746 38.1009 19.3569 38.6667L19.5622 38.6941H19.5622C21.1442 38.9057 24.7794 39.3917 27.6224 39.1484C33.6244 38.6342 34.9595 36.4581 34.9595 35.0428C34.9595 34.6561 34.7567 34.0914 34.5555 33.763C34.8286 34.1385 35.0844 34.5273 35.3218 34.9281C35.7403 35.6847 35.7296 36.0258 35.7244 36.1894C35.7239 36.2052 35.7235 36.2194 35.7235 36.2321C35.7235 39.121 30.5433 41.0072 27.0769 41.99C18.1848 44.5104 10.9292 41.0759 10.9292 37.5918ZM14.8569 48.2396C17.8344 49.5019 22.5635 50.4621 25.2491 50.3628C34.9384 50.0031 37.0854 44.9254 37.3088 43.4438C37.2927 43.6789 37.2697 43.9116 37.243 44.1435C37.0766 45.255 35.9836 50.883 23.2854 52.3447C21.5463 52.5449 11.4514 53.0206 9.98165 44.7014C9.91203 44.2606 9.86268 43.8123 9.83398 43.358C10.0884 45.245 12.4602 47.223 14.8569 48.2396ZM15.5934 52.2602C13.3141 51.2821 11.7372 49.6564 11.1041 48.4687C11.6843 49.7468 12.4432 50.929 13.3562 51.977C16.3252 54.8723 20.8898 55.2225 22.9851 55.2225C31.8604 55.2225 35.0303 50.3807 35.7464 49.0854C35.8795 48.8265 36.0042 48.5604 36.1225 48.2912C34.7177 51.2948 27.4331 57.3378 15.593 52.2602H15.5934ZM36.9564 39.0011C37.0601 39.472 37.0873 39.9303 37.0873 40.1606C37.0873 40.1649 37.0873 40.1694 37.0873 40.1743C37.0881 40.7264 37.0947 45.0644 27.5123 47.2825C21.72 48.6208 19.2747 48.5791 15.2923 47.2778C11.8045 46.1361 9.90208 43.4835 9.84852 41.2082C9.92028 40.299 10.0758 39.399 10.3129 38.5206C10.241 38.8133 10.202 39.1238 10.2919 39.4613C10.873 41.6215 13.9514 43.1778 17.0172 43.9827C21.6259 45.1926 26.9273 45.1073 27.6488 45.0397C35.9932 44.2515 36.8417 39.9148 36.8417 39.2056C36.8417 39.189 36.842 39.1697 36.8423 39.1476C36.8452 38.9611 36.8512 38.5806 36.7024 38.0604C36.7975 38.3708 36.8823 38.6846 36.9564 39.0011Z" fill="#848484"/>
<path fill-rule="evenodd" clip-rule="evenodd" d="M33.0286 32.3168C32.5831 31.9677 32.0767 31.6818 31.5225 31.451L31.5221 31.4506C31.4762 31.2369 31.3455 31.0353 31.1396 30.8472C31.2751 30.9157 31.4073 30.991 31.5356 31.0728C32.0315 31.4208 32.5046 31.8017 32.9518 32.2131C32.9805 32.2452 33.0062 32.2799 33.0286 32.3168ZM15.5801 32.4407C14.9572 32.7089 14.3957 32.9838 13.9175 33.2571C13.8532 33.4536 13.814 33.6578 13.801 33.8646C14.415 33.5411 15.1462 33.2106 15.9631 32.8891C15.7949 32.7456 15.6653 32.5961 15.5801 32.4407ZM30.8638 32.7164C31.7103 32.8292 32.469 32.9972 33.1065 33.2232C32.8639 33.8468 32.0517 34.5584 30.6764 35.238C28.8579 34.8033 26.9519 34.5276 25.3861 34.3675C27.8749 34.1198 29.8734 33.4914 30.8638 32.7164ZM28.6192 36.0769C27.782 36.3629 26.9307 36.6036 26.0688 36.7979C24.7505 36.5909 23.5434 36.4883 22.6 36.4879C21.1746 36.4879 19.6728 36.7242 18.2212 37.1407C17.7649 37.0606 17.3495 36.9616 16.9727 36.8472C18.5748 36.2761 19.8899 35.9972 20.178 35.9369C21.1121 35.7393 24.7143 35.0364 27.1336 35.262C27.7696 35.3208 28.7125 35.4462 29.7724 35.645C29.3925 35.8013 29.0079 35.9453 28.6192 36.0769ZM27.9485 42.176C27.6978 42.2505 27.4537 42.3211 27.2173 42.3874C23.9811 43.2906 20.9613 43.4232 18.4221 43.0619C20.1931 42.2702 22.2915 41.8119 24.5423 41.8119C25.6871 41.8103 26.8288 41.9323 27.9485 42.176ZM26.3457 45.4478C25.4629 45.4434 24.2623 45.4064 22.9094 45.2963C20.5089 45.5838 18.4703 46.6788 17.3098 48.1969C17.6939 48.2877 18.0711 48.3638 18.446 48.4261C19.6701 47.0519 21.7381 46.1491 24.0845 46.1491C25.7969 46.1491 27.3615 46.6303 28.5567 47.4239C29.0011 47.3096 29.4428 47.1847 29.8815 47.0492C28.9277 46.3017 27.7133 45.7408 26.3457 45.4478ZM35.7317 37.6321C35.4567 38.2763 34.9195 38.8616 34.2207 39.3901C33.6589 39.0745 33.0794 38.793 32.4852 38.5472C33.5284 38.1035 34.196 37.5738 34.604 37.0393C34.9933 37.2092 35.3701 37.4073 35.7317 37.6321ZM31.1465 41.0605C31.8816 40.7552 32.5935 40.4156 33.233 40.0417C32.5685 39.6792 31.796 39.3503 30.897 39.0702C30.0292 39.2899 28.9956 39.4611 27.7676 39.5649C27.402 39.5956 27.0248 39.6145 26.6392 39.6244C27.4977 39.7924 28.3188 40.0173 29.0978 40.2807C29.7905 40.5131 30.4739 40.7732 31.1465 41.0605ZM30.6528 44.9599C31.4597 44.7686 32.167 44.5382 32.7856 44.2818C33.1995 44.583 33.5894 44.9173 33.9515 45.2817C33.395 45.6197 32.8175 45.92 32.2225 46.1806C31.7451 45.7155 31.2187 45.306 30.6528 44.9599ZM14.6417 37.8345C13.5569 38.3784 12.4936 39.0537 11.6412 39.88C11.7704 40.0496 11.9174 40.2161 12.0817 40.379C13.0146 39.5353 14.1894 38.7815 15.491 38.167C15.2045 38.0656 14.9212 37.9547 14.6417 37.8345ZM16.4305 44.188C16.982 44.3484 17.5388 44.4888 18.1 44.6088C17.4259 44.9583 16.8189 45.3705 16.3005 45.8379C15.7675 46.3148 15.3169 46.8802 14.9676 47.5102C14.5796 47.3694 14.2004 47.2044 13.8322 47.016C14.4119 45.9455 15.3043 44.9835 16.4305 44.188ZM14.2117 50.4302C14.2118 49.7519 14.3267 49.0815 14.5507 48.4427C14.1734 48.2703 13.8047 48.079 13.4458 47.8696C13.2039 48.5205 13.0795 49.2109 13.0786 49.9072C13.0786 50.046 13.0848 50.1841 13.0952 50.3206C13.4627 50.6013 13.8496 50.8544 14.253 51.0779C14.2257 50.8631 14.2119 50.6468 14.2117 50.4302ZM19.6398 39.1133L19.64 39.1134C20.1594 39.1816 20.8985 39.2787 21.7585 39.3704C18.8953 39.6295 16.3495 40.5758 14.4863 41.9618C14.194 41.8297 13.9171 41.6892 13.6564 41.5421C14.9376 40.4515 16.5767 39.5396 18.4445 38.9342C18.7673 38.9917 19.097 39.0422 19.4345 39.0864L19.6398 39.1133ZM17.8609 53.42C17.4698 53.2924 17.0814 53.1558 16.6962 53.0106C17.0113 53.6992 17.4934 54.3287 18.1062 54.875C18.6024 55.0143 19.1046 55.1303 19.6111 55.2225C18.8675 54.7287 18.2663 54.1146 17.8609 53.42ZM36.9795 38.6805L36.9801 38.6825H36.9805L36.9795 38.6805ZM36.9795 38.6805L36.9366 38.5382L36.9411 38.5553C36.9499 38.5883 36.9582 38.6197 36.9651 38.6514L36.9795 38.6805ZM11.6887 45.471C12.0331 44.5639 12.5962 43.7178 13.3374 42.9613C13.0945 42.8326 12.8562 42.6949 12.6232 42.5483C11.9721 43.278 11.4712 44.0617 11.1499 44.8695C11.3184 45.0803 11.4982 45.2812 11.6887 45.4714V45.471ZM35.6087 44.0191C35.3731 43.7446 35.0942 43.4669 34.7652 43.1873V43.1869C35.1634 42.8973 35.53 42.5651 35.859 42.1957C36.0744 42.4681 36.2692 42.7569 36.4417 43.0595C36.1943 43.4056 35.9154 43.7269 35.6087 44.0191ZM13.2263 51.1725C13.3463 51.688 13.5364 52.1878 13.7836 52.667C14.2723 53.0801 14.7986 53.4444 15.3552 53.7549C14.9557 53.2062 14.6495 52.6169 14.4551 51.9985C14.0274 51.7523 13.6169 51.4764 13.2263 51.1725ZM31.1808 53.8049C30.6023 54.0969 30.0052 54.3489 29.3936 54.5591H29.3932C29.7322 54.2388 30.0215 53.8866 30.2529 53.5079C30.7459 53.3211 31.2286 53.1072 31.6992 52.8674C31.5596 53.1979 31.3858 53.5122 31.1808 53.8049ZM30.6351 49.9167C30.7608 50.2574 30.8426 50.6128 30.8742 50.9785C31.2602 50.8303 31.6412 50.669 32.0166 50.4949C31.9703 50.1673 31.8886 49.8459 31.7728 49.5368C31.4142 49.6725 31.0362 49.7999 30.6351 49.9167ZM9.97475 42.5467C10.139 41.9429 10.4167 41.3883 10.7762 40.8803H10.7766C10.8906 41.0453 11.0156 41.2021 11.1507 41.3496C10.6936 41.9097 10.3481 42.4982 10.1398 43.1009C10.0727 42.9159 10.0183 42.7305 9.97475 42.5467ZM11.2995 47.5674C11.2995 47.1612 11.3427 46.762 11.4245 46.3715C11.2283 46.1857 11.0416 45.9895 10.8653 45.7838C10.7366 46.3512 10.7049 46.937 10.7715 47.5154C10.954 47.8822 11.158 48.2238 11.3817 48.5429C11.3273 48.2207 11.2999 47.8944 11.2995 47.5674ZM20.1777 34.2988C18.0584 34.5236 16.2612 35.066 14.7976 35.7464L14.7972 35.7468C14.6275 35.6052 14.4821 35.4608 14.3587 35.3149C15.4956 34.7725 16.8011 34.3012 18.1915 33.9083C18.8445 34.0825 19.508 34.2129 20.1777 34.2988ZM35.6758 47.9721C35.6012 47.7582 35.5152 47.5486 35.4182 47.3442C34.9224 47.803 34.3821 48.2087 33.8057 48.5551C33.9025 48.8166 33.9812 49.0848 34.0375 49.3574C34.7062 48.8986 35.2435 48.4304 35.6758 47.9721ZM36.6527 45.8974C36.8495 45.6 37.0233 45.2873 37.1726 44.9622C37.2046 45.1118 37.2318 45.2624 37.254 45.4138C37.1502 45.7278 36.9983 46.0958 36.7723 46.497C36.7484 46.3041 36.7102 46.1049 36.6527 45.8974ZM37.183 39.4469C37.1516 39.3122 37.1179 39.1781 37.082 39.0446C37.0623 38.9972 37.0406 38.9506 37.0172 38.905C37.0677 39.2076 37.0642 39.4336 37.0622 39.5641C37.0618 39.5858 37.0615 39.6049 37.0615 39.6213C37.0615 39.852 36.9693 40.4693 36.5509 41.2226C36.7381 41.4428 36.9055 41.6797 37.0511 41.9306C37.3097 41.2491 37.309 40.7474 37.3087 40.5833V40.5832L37.3087 40.5699C37.3087 40.345 37.2825 39.9049 37.183 39.4469ZM17.692 49.5443C17.4247 50.0993 17.279 50.6992 17.279 51.3244C17.279 51.6419 17.317 51.9582 17.392 52.2663C17.0499 52.1846 16.7051 52.0892 16.3618 51.9787C16.3055 51.6967 16.2766 51.4072 16.2766 51.113C16.278 50.4671 16.4164 49.8292 16.6823 49.2434C17.0105 49.3471 17.348 49.4481 17.692 49.5443ZM34.0718 51.3236C34.0362 51.5271 33.9891 51.7284 33.9306 51.9263C35.0645 50.8972 35.6824 49.9238 35.9531 49.4402C35.9634 49.4227 35.9725 49.4043 35.9813 49.3868L35.9814 49.3867L35.9815 49.3865L35.9816 49.3861L35.9712 49.2832C35.5489 49.9202 34.9126 50.6322 34.0718 51.3236ZM12.0832 34.9859L11.9667 35.1689C11.9872 35.1433 12.0092 35.1165 12.0323 35.09C12.0477 35.0542 12.0651 35.0194 12.0832 34.9859ZM35.8374 37.3351C35.5397 37.1076 35.2018 36.8946 34.83 36.6966H34.8304C35.0718 36.2706 35.1636 35.8537 35.164 35.4868C35.164 35.1078 34.965 34.5572 34.7641 34.2286L34.768 34.2333C34.7699 34.2357 34.7718 34.2381 34.7741 34.2404C35.0499 34.614 35.3071 35.0021 35.5455 35.4028C35.9503 36.1343 35.9398 36.4661 35.9348 36.6258C35.9343 36.6413 35.9338 36.6553 35.9338 36.6678C35.9338 36.8965 35.9014 37.119 35.8374 37.3351ZM12.8715 36.8346C12.7106 36.7117 12.5595 36.576 12.4195 36.4287C11.8198 36.8516 11.3196 37.3044 10.942 37.784C10.9389 37.8597 10.9374 37.937 10.9374 38.0183C10.9374 38.1701 10.952 38.322 10.9798 38.4723C11.4426 37.9441 12.0743 37.3773 12.8715 36.8346ZM12.2456 50.8353C11.8184 50.2003 11.4422 49.531 11.1206 48.8339C11.2822 49.1248 11.4679 49.401 11.6756 49.6595C11.8272 50.0697 12.0181 50.4635 12.2456 50.8353ZM10.3099 38.9697C10.2228 39.2899 10.1465 39.6131 10.0812 39.9388C10.1167 39.8126 10.1711 39.6757 10.2443 39.5286C10.241 39.3401 10.2631 39.152 10.3099 38.9697ZM9.83398 43.7478C9.8536 43.8871 9.88364 44.0246 9.92385 44.1592C9.91031 44.3656 9.91508 44.5729 9.93812 44.7784C9.89106 44.4388 9.85712 44.0949 9.83398 43.7478Z" fill="#848484"/>
</svg>
