<?xml version="1.0" encoding="UTF-8"?>
<svg width="124px" height="124px" viewBox="0 0 124 124" version="1.1" xmlns="http://www.w3.org/2000/svg" xmlns:xlink="http://www.w3.org/1999/xlink">
    <!-- Generator: Sketch 53.2 (72643) - https://sketchapp.com -->
    <title>att-2</title>
    <desc>Created with Sketch.</desc>
    <defs>
        <rect id="path-1" x="0" y="0" width="124" height="124"></rect>
        <path d="M28.2467228,14.1684783 C28.2467228,21.8303626 21.9234615,28.0412024 14.1235574,28.0412024 C6.32365328,28.0412024 0.0015679775,21.8303626 0.0015679775,14.1684783 C0.0015679775,6.50389841 6.32365328,0.2930586 14.1235574,0.2930586 C21.9234615,0.2930586 28.2467228,6.50389841 28.2467228,14.1684783 Z" id="path-2"></path>
    </defs>
    <g stroke="none" stroke-width="1" fill="none" fill-rule="evenodd">
        <g>
            <g>
                <use fill-opacity="0.01" fill="#D8D8D8" fill-rule="evenodd" style="mix-blend-mode: screen;" xlink:href="#path-1"></use>
                <rect stroke-opacity="0" stroke="#979797" stroke-width="1" stroke-linejoin="square" x="0.5" y="0.5" width="123" height="123"></rect>
            </g>
            <g transform="translate(31.000000, 49.000000)">
                <g transform="translate(0.728126, 0.000000)">
                    <g>
                        <g>
                            <mask id="mask-3" fill="white">
                                <use xlink:href="#path-2"></use>
                            </mask>
                            <g></g>
                            <g mask="url(#mask-3)" fill-rule="nonzero">
                                <path d="M28.6159815,14.1422918 C28.6159815,21.9046862 22.2104014,28.1987069 14.3081867,28.1987069 C6.4059721,28.1983218 0,21.9046862 0,14.1422918 C0,6.3772016 6.4059721,0.0839510838 14.3081867,0.0839510838 C22.2104014,0.0839510838 28.6159815,6.3772016 28.6159815,14.1422918 Z" fill="#B2B4B6"></path>
                                <path d="M28.5881499,14.1338196 C28.5881499,21.8738785 22.2017775,28.1486444 14.3230825,28.1486444 C6.44399555,28.1486444 0.0572311789,21.8738785 0.0572311789,14.1338196 C0.0572311789,6.39183527 6.44399555,0.117454498 14.3230825,0.117454498 C22.2021695,0.117069401 28.5881499,6.39145017 28.5881499,14.1338196 Z" fill="#B2B4B7"></path>
                                <path d="M28.5614942,14.1253475 C28.5614942,21.8423006 22.1935456,28.0989669 14.3379783,28.0989669 C6.482411,28.0989669 0.114462358,21.8423006 0.114462358,14.1253475 C0.114462358,6.40646895 6.482411,0.150572815 14.3379783,0.150572815 C22.1935456,0.150572815 28.5614942,6.40608385 28.5614942,14.1253475 Z" fill="#B2B4B7"></path>
                                <path d="M28.5344466,14.1168754 C28.5344466,21.8114928 22.1849217,28.0485192 14.3532661,28.0485192 C6.52043445,28.0485192 0.171693537,21.8111077 0.171693537,14.1168754 C0.171693537,6.42071752 6.52043445,0.182920939 14.3532661,0.182920939 C22.1853137,0.182920939 28.5344466,6.42071752 28.5344466,14.1168754 Z" fill="#B3B5B8"></path>
                                <path d="M28.507791,14.1084032 C28.507791,21.7795298 22.1774738,27.9984566 14.3681619,27.9984566 C6.5588499,27.9984566 0.228924716,21.7795298 0.228924716,14.1084032 C0.228924716,6.4349661 6.5588499,0.216039257 14.3681619,0.216039257 C22.1774738,0.216039257 28.507791,6.4349661 28.507791,14.1084032 Z" fill="#B4B6B8"></path>
                                <path d="M28.4803514,14.1003162 C28.4803514,21.7487221 22.1692419,27.9491643 14.3834496,27.9491643 C6.59726535,27.9491643 0.286155895,21.748337 0.286155895,14.1003162 C0.286155895,6.44998487 6.59726535,0.249542671 14.3834496,0.249542671 C22.1692419,0.249157574 28.4803514,6.44959978 28.4803514,14.1003162 Z" fill="#B5B7B9"></path>
                                <path d="M28.4533038,14.0918441 C28.4533038,21.7175292 22.1606181,27.8991017 14.3979534,27.8991017 C6.63528881,27.8991017 0.342995079,21.7175292 0.342995079,14.0918441 C0.342995079,6.46423345 6.63528881,0.282275892 14.3979534,0.282275892 C22.1606181,0.282275892 28.4533038,6.46423345 28.4533038,14.0918441 Z" fill="#B6B8BA"></path>
                                <path d="M28.4258642,14.083372 C28.4258642,21.6863364 22.1523862,27.8490391 14.4132412,27.8490391 C6.67370425,27.8490391 0.400618252,21.6863364 0.400618252,14.083372 C0.400618252,6.47886713 6.67370425,0.315394209 14.4132412,0.315394209 C22.1523862,0.315394209 28.4258642,6.47886713 28.4258642,14.083372 L28.4258642,14.083372 Z" fill="#B7B9BB"></path>
                                <path d="M28.3992086,14.0748998 C28.3992086,21.6543734 22.1445463,27.7989765 14.428529,27.7989765 C6.7121197,27.7989765 0.457849431,21.6543734 0.457849431,14.0748998 C0.457849431,6.49311571 6.7121197,0.34812743 14.428529,0.34812743 C22.1445463,0.34812743 28.3992086,6.49311571 28.3992086,14.0748998 L28.3992086,14.0748998 Z" fill="#B7B9BC"></path>
                                <path d="M28.372161,14.0664277 C28.372161,21.6231805 22.1359224,27.748914 14.4434248,27.748914 C6.75014316,27.748914 0.51508061,21.6231805 0.51508061,14.0664277 C0.514688616,6.50774938 6.75014316,0.381245748 14.4434248,0.381245748 C22.1359224,0.381245748 28.372161,6.50774938 28.372161,14.0664277 L28.372161,14.0664277 Z" fill="#B7B9BC"></path>
                                <path d="M28.3623611,14.0591109 C28.3623611,21.6000747 22.1398424,27.7127149 14.4638085,27.7127149 C6.78699063,27.7127149 0.56525589,21.6000747 0.56525589,14.0591109 C0.56525589,6.51660661 6.78699063,0.40319626 14.4638085,0.40319626 C22.1398424,0.403581357 28.3623611,6.51660661 28.3623611,14.0591109 Z" fill="#B8BABC"></path>
                                <path d="M28.3529532,14.051794 C28.3529532,21.5761987 22.1437623,27.6757456 14.4834082,27.6757456 C6.82344611,27.6757456 0.615039176,21.5761987 0.615039176,14.051794 C0.615039176,6.52546383 6.8238381,0.42553187 14.4834082,0.42553187 C22.1437623,0.42553187 28.3529532,6.52546383 28.3529532,14.051794 Z" fill="#B9BBBD"></path>
                                <path d="M28.3431534,14.0444772 C28.3431534,21.5527078 22.1476823,27.6391614 14.5037919,27.6391614 C6.86029358,27.6391614 0.665214456,21.5527078 0.665214456,14.0440921 C0.665214456,6.53432105 6.86068557,0.447097286 14.5037919,0.447097286 C22.1476823,0.447097286 28.3431534,6.53432105 28.3431534,14.0444772 Z" fill="#BABCBE"></path>
                                <path d="M28.3337455,14.0371603 C28.3337455,21.5292169 22.1516022,27.6025772 14.5245676,27.6025772 C6.89714105,27.6025772 0.714997742,21.5292169 0.714997742,14.0371603 C0.714997742,6.54317828 6.89714105,0.469047798 14.5245676,0.469047798 C22.1516022,0.469432895 28.3337455,6.54317828 28.3337455,14.0371603 Z" fill="#BBBDBF"></path>
                                <path d="M28.3239456,14.0298435 C28.3239456,21.505726 22.1555221,27.565993 14.5445593,27.565993 C6.93398852,27.565993 0.765565017,21.505726 0.765565017,14.0298435 C0.765565017,6.55165041 6.93398852,0.491383408 14.5445593,0.491383408 C22.1555221,0.491383408 28.3239456,6.5520355 28.3239456,14.0298435 Z" fill="#BCBDC0"></path>
                                <path d="M28.3145378,14.0225267 C28.3145378,21.4822351 22.1582661,27.5294088 14.565335,27.5294088 C6.97083599,27.5294088 0.815348302,21.4822351 0.815348302,14.0225267 C0.815348302,6.56050763 6.97083599,0.513333921 14.565335,0.513333921 C22.1582661,0.513333921 28.3145378,6.56089273 28.3145378,14.0225267 Z" fill="#BCBEC0"></path>
                                <path d="M28.3047379,14.0152098 C28.3047379,21.4587442 22.162186,27.4928247 14.5853267,27.4928247 C7.00729147,27.4928247 0.865523583,21.4587442 0.865523583,14.0152098 C0.865523583,6.56974995 7.00768346,0.535284433 14.5853267,0.535284433 C22.162186,0.535284433 28.3047379,6.56974995 28.3047379,14.0152098 Z" fill="#BDBFC1"></path>
                                <path d="M28.2957221,14.007893 C28.2957221,21.4356384 22.166106,27.4566256 14.6061025,27.4566256 C7.04413894,27.4566256 0.916090857,21.4356384 0.916090857,14.007893 C0.916090857,6.57860718 7.04453093,0.557620043 14.6061025,0.557620043 C22.166106,0.557234946 28.2957221,6.57860718 28.2957221,14.007893 Z" fill="#BEC0C2"></path>
                                <path d="M28.2855302,14.0005762 C28.2855302,21.4121475 22.1696339,27.4196563 14.6257022,27.4196563 C7.08098641,27.4196563 0.965874143,21.4117624 0.965874143,14.0005762 C0.965874143,6.5874644 7.08098641,0.579570556 14.6257022,0.579570556 C22.1700259,0.579570556 28.2855302,6.5874644 28.2855302,14.0005762 Z" fill="#BFC1C3"></path>
                                <path d="M28.2765143,13.9932593 C28.2765143,21.3882715 22.1739459,27.3830721 14.6464779,27.3830721 C7.11783388,27.3830721 1.01565743,21.3882715 1.01565743,13.9932593 C1.01565743,6.59632163 7.11783388,0.601521068 14.6464779,0.601521068 C22.1735539,0.601521068 28.2765143,6.59632163 28.2765143,13.9932593 Z" fill="#C0C2C4"></path>
                                <path d="M28.2663225,13.9859425 C28.2663225,21.3647806 22.1774738,27.3464879 14.6664696,27.3464879 C7.15468135,27.3464879 1.06583271,21.3647806 1.06583271,13.9859425 C1.06583271,6.60517885 7.15428936,0.623086484 14.6664696,0.623086484 C22.1774738,0.623086484 28.2663225,6.60517885 28.2663225,13.9859425 Z" fill="#C1C2C4"></path>
                                <path d="M28.2573066,13.9786256 C28.2573066,21.3412897 22.1813938,27.3099037 14.6872453,27.3099037 C7.19152883,27.3099037 1.11639998,21.3412897 1.11639998,13.9786256 C1.11639998,6.61403607 7.19152883,0.645422094 14.6872453,0.645422094 C22.1813938,0.645422094 28.2573066,6.61403607 28.2573066,13.9786256 Z" fill="#C1C3C5"></path>
                                <path d="M28.2475067,13.9713088 C28.2475067,21.3177988 22.1853137,27.2729344 14.707237,27.2729344 C7.2279843,27.2729344 1.16618327,21.3177988 1.16618327,13.9713088 C1.16618327,6.6228933 7.2279843,0.667372607 14.707237,0.667372607 C22.1853137,0.667372607 28.2475067,6.6232784 28.2475067,13.9713088 Z" fill="#C2C4C6"></path>
                                <path d="M28.2380989,13.963992 C28.2380989,21.2943079 22.1888417,27.2367353 14.7276207,27.2367353 C7.26483177,27.2367353 1.21596655,21.2943079 1.21596655,13.963992 C1.21596655,6.63213562 7.26483177,0.689323119 14.7276207,0.689323119 C22.1888417,0.689323119 28.2380989,6.63175052 28.2380989,13.963992 Z" fill="#C3C5C7"></path>
                                <path d="M28.228299,13.9566751 C28.228299,21.270817 22.1931536,27.2001512 14.7480044,27.2001512 C7.30207124,27.2001512 1.26653383,21.270817 1.26653383,13.9566751 C1.26653383,6.64060775 7.30167925,0.711273632 14.7480044,0.711273632 C22.1927616,0.711273632 28.228299,6.64060775 28.228299,13.9566751 Z" fill="#C4C6C8"></path>
                                <path d="M28.2188912,13.9493583 C28.2188912,21.2473261 22.1966816,27.1631819 14.7683881,27.1631819 C7.33852672,27.1631819 1.31670911,21.2473261 1.31670911,13.9493583 C1.31670911,6.64985007 7.33852672,0.733224145 14.7683881,0.733224145 C22.1966816,0.733224145 28.2188912,6.64946497 28.2188912,13.9493583 Z" fill="#C5C6C8"></path>
                                <path d="M28.2098753,13.9420415 C28.2098753,21.2238352 22.2006015,27.1265977 14.7883798,27.1265977 C7.37537419,27.1265977 1.3664924,21.2238352 1.3664924,13.9420415 C1.3664924,6.65870729 7.37537419,0.755559754 14.7883798,0.755559754 C22.2006015,0.755174658 28.2098753,6.6583222 28.2098753,13.9420415 Z" fill="#C5C7C9"></path>
                                <path d="M28.1996834,13.9347246 C28.1996834,21.2003443 22.2041294,27.0900135 14.8087635,27.0900135 C7.41182966,27.0900135 1.41666768,21.2003443 1.41666768,13.9347246 C1.41666768,6.66717942 7.41182966,0.77712517 14.8087635,0.77712517 C22.2045214,0.777510267 28.1996834,6.66717942 28.1996834,13.9347246 Z" fill="#C6C8CA"></path>
                                <path d="M28.1906676,13.9274078 C28.1906676,21.1768534 22.2084414,27.0534293 14.8291473,27.0534293 C7.44906913,27.0534293 1.46684296,21.1764683 1.46684296,13.9274078 C1.46684296,6.67603665 7.44867714,0.79946078 14.8291473,0.79946078 C22.2080494,0.79946078 28.1906676,6.67603665 28.1906676,13.9274078 Z" fill="#C7C9CB"></path>
                                <path d="M28.1804757,13.9200909 C28.1804757,21.1533625 22.2111853,27.0168451 14.848747,27.0168451 C7.48552461,27.0168451 1.51701824,21.1533625 1.51701824,13.9200909 C1.51701824,6.68489387 7.4859166,0.821411292 14.849139,0.821411292 C22.2111853,0.821411292 28.1804757,6.68489387 28.1804757,13.9200909 L28.1804757,13.9200909 Z" fill="#C8CACC"></path>
                                <path d="M28.1714598,13.9127741 C28.1714598,21.1298716 22.2151053,26.9802609 14.8695227,26.9802609 C7.52237208,26.9802609 1.56719352,21.1298716 1.56719352,13.9127741 C1.56719352,6.69375109 7.52237208,0.843361805 14.8695227,0.843361805 C22.2151053,0.843361805 28.1714598,6.69375109 28.1714598,13.9127741 L28.1714598,13.9127741 Z" fill="#C9CBCC"></path>
                                <path d="M28.16166,13.9054573 C28.16166,21.1063807 22.2190252,26.9436767 14.8895144,26.9436767 C7.55882756,26.9436767 1.6169768,21.1059956 1.6169768,13.9054573 C1.6169768,6.70260832 7.55882756,0.865312318 14.8895144,0.865312318 C22.2190252,0.865312318 28.16166,6.70260832 28.16166,13.9054573 Z" fill="#CACBCD"></path>
                                <path d="M28.1522521,13.8981404 C28.1522521,21.0828898 22.2225532,26.9070926 14.9102901,26.9070926 C7.59606702,26.9070926 1.66754408,21.0828898 1.66754408,13.8981404 C1.66754408,6.71146554 7.59606702,0.887647927 14.9102901,0.887647927 C22.2225532,0.887262831 28.1522521,6.71146554 28.1522521,13.8981404 Z" fill="#CBCCCE"></path>
                                <path d="M28.1424522,13.8908236 C28.1424522,21.0593989 22.2264731,26.8705084 14.9302818,26.8705084 C7.63291449,26.8705084 1.71732736,21.0593989 1.71732736,13.8908236 C1.71732736,6.72032277 7.63291449,0.90959844 14.9302818,0.90959844 C22.2264731,0.90959844 28.1424522,6.72032277 28.1424522,13.8908236 Z" fill="#CBCDCF"></path>
                                <path d="M28.1330444,13.8835068 C28.1330444,21.035908 22.2303931,26.8339242 14.9506655,26.8339242 C7.66897798,26.8339242 1.76711065,21.035908 1.76711065,13.8835068 C1.76711065,6.72917999 7.66897798,0.931548953 14.9506655,0.931548953 C22.2303931,0.931548953 28.1330444,6.72917999 28.1330444,13.8835068 Z" fill="#CCCED0"></path>
                                <path d="M28.1232445,13.8761899 C28.1232445,21.012032 22.234313,26.7969549 14.9706572,26.7969549 C7.70582545,26.7969549 1.81728593,21.012032 1.81728593,13.8761899 C1.81728593,6.73803722 7.70582545,0.953114369 14.9706572,0.953114369 C22.234313,0.953114369 28.1232445,6.73842231 28.1232445,13.8761899 Z" fill="#CDCFD0"></path>
                                <path d="M28.1138367,13.8688731 C28.1138367,20.9889262 22.237841,26.7603707 14.9910409,26.7603707 C7.74267292,26.7603707 1.86746121,20.9889262 1.86746121,13.8688731 C1.86746121,6.74689444 7.74267292,0.975064882 14.9910409,0.975064882 C22.237841,0.975449978 28.1138367,6.74727954 28.1138367,13.8688731 Z" fill="#CECFD1"></path>
                                <path d="M28.1040368,13.8615562 C28.1040368,20.9654353 22.2417609,26.7237865 15.0114246,26.7237865 C7.77991238,26.7237865 1.91763649,20.9650502 1.91763649,13.8615562 C1.91763649,6.75575167 7.77952039,0.997400491 15.0114246,0.997400491 C22.2417609,0.997400491 28.1040368,6.75613676 28.1040368,13.8615562 Z" fill="#CFD0D2"></path>
                                <path d="M28.0950209,13.8542394 C28.0950209,20.9419444 22.2456808,26.6875874 15.0322003,26.6875874 C7.81675986,26.6875874 1.96820376,20.9419444 1.96820376,13.8542394 C1.96820376,6.76460889 7.81675986,1.019351 15.0322003,1.019351 C22.2456808,1.019351 28.0950209,6.76460889 28.0950209,13.8542394 Z" fill="#D0D1D3"></path>
                                <path d="M28.0848291,13.8469226 C28.0848291,20.9184535 22.2496008,26.6506181 15.0518001,26.6506181 C7.85282334,26.6506181 2.01759505,20.9184535 2.01759505,13.8469226 C2.01759505,6.77385121 7.85282334,1.04130152 15.0518001,1.04130152 C22.2496008,1.04130152 28.0848291,6.77346611 28.0848291,13.8469226 Z" fill="#D0D2D3"></path>
                                <path d="M28.0758132,13.8396057 C28.0758132,20.8949626 22.2535207,26.614034 15.0729678,26.614034 C7.8904548,26.614034 2.06816233,20.8945775 2.06816233,13.8396057 C2.06816233,6.78270844 7.8900628,1.06325203 15.0729678,1.06325203 C22.2535207,1.06325203 28.0758132,6.78232334 28.0758132,13.8396057 Z" fill="#D1D3D4"></path>
                                <path d="M28.0558215,13.8292081 C28.0558215,20.8618443 22.2519528,26.562431 15.0941354,26.562431 C7.93514216,26.562431 2.13205741,20.8618443 2.13205741,13.8292081 C2.13205741,6.79503153 7.93514216,1.09405977 15.0941354,1.09405977 C22.2519528,1.09405977 28.0558215,6.79503153 28.0558215,13.8292081 Z" fill="#D2D3D5"></path>
                                <path d="M28.0358298,13.8191956 C28.0358298,20.828726 22.2511688,26.5112131 15.1164791,26.5112131 C7.9806135,26.5112131 2.19634449,20.828726 2.19634449,13.8191956 C2.19634449,6.80735463 7.9806135,1.1252526 15.1164791,1.1252526 C22.2511688,1.1252526 28.0358298,6.80735463 28.0358298,13.8191956 Z" fill="#D3D4D6"></path>
                                <path d="M28.0158381,13.8091831 C28.0158381,20.7959928 22.2503848,26.4599953 15.1384308,26.4599953 C8.02530086,26.4599953 2.25984758,20.7963779 2.25984758,13.8091831 C2.25984758,6.82006282 8.02530086,1.15644543 15.1384308,1.15644543 C22.2503848,1.15644543 28.0158381,6.82006282 28.0158381,13.8091831 Z" fill="#D4D5D7"></path>
                                <path d="M27.9958464,13.7984004 C27.9958464,20.7628745 22.2484248,26.4083923 15.1603825,26.4083923 C8.07038022,26.4083923 2.32374266,20.7624894 2.32374266,13.7984004 C2.32374266,6.83277101 8.07038022,1.18686807 15.1603825,1.18686807 C22.2488168,1.18725317 27.9958464,6.83277101 27.9958464,13.7984004 Z" fill="#D5D6D7"></path>
                                <path d="M27.9762466,13.7883879 C27.9762466,20.7297562 22.2472488,26.3571744 15.1823342,26.3571744 C8.11624356,26.3571744 2.38802974,20.7301412 2.38802974,13.7883879 C2.38802974,6.8450941 8.11624356,1.21806091 15.1823342,1.21806091 C22.2472488,1.21806091 27.9762466,6.8450941 27.9762466,13.7883879 Z" fill="#D5D7D8"></path>
                                <path d="M27.9562549,13.7783754 C27.9562549,20.6970229 22.2464648,26.3055715 15.2046779,26.3055715 C8.16132291,26.3055715 2.45231682,20.6970229 2.45231682,13.7783754 C2.45231682,6.8578023 8.16132291,1.24925374 15.2046779,1.24925374 C22.2464648,1.24925374 27.9562549,6.8578023 27.9562549,13.7783754 Z" fill="#D6D7D9"></path>
                                <path d="M27.9362632,13.7679777 C27.9362632,20.6639046 22.2456808,26.2543536 15.2266295,26.2543536 C8.20640227,26.2543536 2.5162119,20.6642897 2.5162119,13.7679777 C2.5162119,6.87012539 8.20640227,1.28006148 15.2266295,1.28006148 C22.2456808,1.28006148 27.9362632,6.87012539 27.9362632,13.7679777 Z" fill="#D7D8DA"></path>
                                <path d="M27.9162715,13.7579652 C27.9162715,20.6311714 22.2441129,26.2027507 15.2489732,26.2027507 C8.25187361,26.2027507 2.58010698,20.6311714 2.58010698,13.7579652 C2.58010698,6.88283358 8.25187361,1.31125431 15.2489732,1.31125431 C22.2441129,1.31125431 27.9162715,6.88283358 27.9162715,13.7579652 Z" fill="#D8D9DB"></path>
                                <path d="M27.8962798,13.7475676 C27.8962798,20.5980531 22.2433289,26.1511477 15.2701409,26.1511477 C8.29656097,26.1511477 2.64400207,20.5980531 2.64400207,13.7475676 C2.64400207,6.89515668 8.29656097,1.34206205 15.2701409,1.34206205 C22.2433289,1.34167695 27.8962798,6.89515668 27.8962798,13.7475676 Z" fill="#D8D9DB"></path>
                                <path d="M27.8766801,13.7375551 C27.8766801,20.5653199 22.2429369,26.1003149 15.2924846,26.1003149 C8.34203232,26.1003149 2.70828915,20.565705 2.70828915,13.7375551 C2.70828915,6.90786487 8.34203232,1.37325488 15.2924846,1.37325488 C22.2425449,1.37286979 27.8766801,6.90786487 27.8766801,13.7375551 L27.8766801,13.7375551 Z" fill="#D9DADB"></path>
                                <path d="M27.8566883,13.7271575 C27.8566883,20.5322015 22.2413689,26.0483269 15.3148283,26.0483269 C8.38750367,26.0483269 2.77218423,20.5322015 2.77218423,13.7271575 C2.77218423,6.92018796 8.38711167,1.40406262 15.3148283,1.40406262 C22.2409769,1.40406262 27.8566883,6.92057306 27.8566883,13.7271575 Z" fill="#D9DBDC"></path>
                                <path d="M27.8366966,13.7167599 C27.8366966,20.4990832 22.2405849,25.9967239 15.337172,25.9967239 C8.43258302,25.9967239 2.83647131,20.4990832 2.83647131,13.7167599 C2.83647131,6.93289615 8.43258302,1.43487036 15.337172,1.43487036 C22.2401929,1.43487036 27.8366966,6.93289615 27.8366966,13.7167599 Z" fill="#DADCDD"></path>
                                <path d="M27.8167049,13.7067474 C27.8167049,20.46635 22.2390169,25.9455061 15.3583397,25.9455061 C8.47766237,25.9455061 2.90036639,20.4659649 2.90036639,13.7067474 C2.90036639,6.94560435 8.47766237,1.46606319 15.3583397,1.46606319 C22.2386249,1.46606319 27.8167049,6.94560435 27.8167049,13.7067474 Z" fill="#DBDCDE"></path>
                                <path d="M27.7967132,13.6967349 C27.7967132,20.4336168 22.237841,25.8942882 15.3806833,25.8942882 C8.52274173,25.8942882 2.96426147,20.4336168 2.96426147,13.6967349 C2.96426147,6.95831254 8.52274173,1.49687093 15.3806833,1.49687093 C22.237841,1.49687093 27.7967132,6.95792744 27.7967132,13.6967349 Z" fill="#DCDDDE"></path>
                                <path d="M27.7775055,13.6863372 C27.7775055,20.4004985 22.236273,25.8430703 15.402635,25.8430703 C8.56782108,25.8430703 3.02815656,20.4004985 3.02815656,13.6863372 C3.02815656,6.97063563 8.56782108,1.52806376 15.402635,1.52806376 C22.236665,1.52767867 27.7775055,6.97063563 27.7775055,13.6863372 Z" fill="#DDDEDF"></path>
                                <path d="M27.7579058,13.6759396 C27.7579058,20.366995 22.235881,25.7910823 15.4253707,25.7910823 C8.61368442,25.7910823 3.09244363,20.366995 3.09244363,13.6759396 C3.09244363,6.98295873 8.61329243,1.5588715 15.4253707,1.5588715 C22.235881,1.5588715 27.7579058,6.98295873 27.7579058,13.6759396 Z" fill="#DEDFE0"></path>
                                <path d="M27.7379141,13.6659271 C27.7379141,20.3342618 22.235097,25.7398644 15.4465384,25.7398644 C8.65837178,25.7398644 3.15633872,20.3342618 3.15633872,13.6659271 C3.15633872,6.99566692 8.65837178,1.58967924 15.4465384,1.58967924 C22.235097,1.58967924 27.7379141,6.99566692 27.7379141,13.6659271 Z" fill="#DEE0E1"></path>
                                <path d="M27.7179223,13.6555295 C27.7179223,20.3015286 22.233529,25.6886465 15.4688821,25.6886465 C8.70384313,25.6886465 3.22062579,20.3015286 3.22062579,13.6555295 C3.22062579,7.00799001 8.70384313,1.62048698 15.4688821,1.62048698 C22.233529,1.62048698 27.7179223,7.00799001 27.7179223,13.6555295 Z" fill="#DFE0E2"></path>
                                <path d="M27.6979306,13.645517 C27.6979306,20.2687954 22.232745,25.6370436 15.4908338,25.6370436 C8.74892248,25.6370436 3.28412888,20.2684103 3.28412888,13.645517 C3.28412888,7.02069821 8.74853049,1.65167981 15.4908338,1.65167981 C22.232745,1.65167981 27.6979306,7.02069821 27.6979306,13.645517 Z" fill="#E0E1E2"></path>
                                <path d="M27.672059,13.6301131 C27.672059,20.2160371 22.237449,25.555018 15.5331692,25.555018 C8.82849734,25.555018 3.3946713,20.2160371 3.3946713,13.6301131 C3.3946713,7.04226362 8.82888933,1.70328277 15.5331692,1.70328277 C22.237449,1.70328277 27.672059,7.04226362 27.672059,13.6301131 Z" fill="#E1E2E3"></path>
                                <path d="M27.6457954,13.6147093 C27.6457954,20.1644342 22.2417609,25.4729924 15.5751125,25.4729924 C8.9076802,25.4729924 3.50403773,20.1644342 3.50403773,13.6147093 C3.50403773,7.06421413 8.9076802,1.75450063 15.5751125,1.75450063 C22.2417609,1.75450063 27.6457954,7.06382904 27.6457954,13.6147093 Z" fill="#E2E3E4"></path>
                                <path d="M27.6199237,13.5993054 C27.6199237,20.1116759 22.2456808,25.3909668 15.616664,25.3909668 C8.98764706,25.3909668 3.61458014,20.112061 3.61458014,13.5993054 C3.61418815,7.08539445 8.98764706,1.80610359 15.616664,1.80610359 C22.2456808,1.80610359 27.6199237,7.08539445 27.6199237,13.5993054 Z" fill="#E3E4E5"></path>
                                <path d="M27.5944441,13.5842866 C27.5944441,20.0596879 22.2499928,25.3089412 15.6586074,25.3089412 C9.06722192,25.3089412 3.72394657,20.0596879 3.72394657,13.5842866 C3.72394657,7.10734497 9.06682992,1.85770655 15.6586074,1.85770655 C22.2503848,1.85770655 27.5944441,7.10695987 27.5944441,13.5842866 Z" fill="#E3E4E5"></path>
                                <path d="M27.5685725,13.5688827 C27.5685725,20.0076998 22.2558727,25.2269156 15.7009427,25.2269156 C9.14718877,25.2269156 3.83448899,20.0076998 3.83448899,13.5688827 C3.83448899,7.12891038 9.14718877,1.90930951 15.7009427,1.90930951 C22.2554807,1.90892441 27.5685725,7.12891038 27.5685725,13.5688827 Z" fill="#E4E5E6"></path>
                                <path d="M27.5423089,13.5534789 C27.5423089,19.9553267 22.2594007,25.1452751 15.7428861,25.1452751 C9.22637163,25.1452751 3.94424741,19.9557118 3.94424741,13.5534789 C3.94424741,7.1504758 9.22637163,1.96052737 15.7428861,1.96052737 C22.2594007,1.96052737 27.5423089,7.1504758 27.5423089,13.5534789 Z" fill="#E5E6E7"></path>
                                <path d="M27.5164372,13.5384601 C27.5164372,19.9033386 22.2641046,25.0632495 15.7852215,25.0632495 C9.30633848,25.0632495 4.05400584,19.9033386 4.05400584,13.5384601 C4.05400584,7.17204121 9.30633848,2.01213033 15.7852215,2.01213033 C22.2641046,2.01213033 27.5164372,7.17165612 27.5164372,13.5384601 Z" fill="#E6E7E8"></path>
                                <path d="M27.4901736,13.5230562 C27.4901736,19.8509654 22.2684165,24.9812239 15.8271649,24.9812239 C9.38591334,24.9812239 4.16415626,19.8513505 4.16415626,13.5230562 C4.16415626,7.19360663 9.38591334,2.0633482 15.8271649,2.0633482 C22.2688085,2.0633482 27.4901736,7.19360663 27.4901736,13.5230562 Z" fill="#E7E8E9"></path>
                                <path d="M27.464302,13.5076524 C27.464302,19.7989774 22.2731205,24.8988132 15.8695003,24.8988132 C9.4658802,24.8988132 4.27430668,19.7989774 4.27430668,13.5076524 C4.27430668,7.21478695 9.4658802,2.11495116 15.8695003,2.11495116 C22.2731205,2.11495116 27.464302,7.21517205 27.464302,13.5076524 Z" fill="#E7E8E9"></path>
                                <path d="M27.4388223,13.4922485 C27.4388223,19.7466042 22.2778244,24.8167876 15.9114437,24.8167876 C9.54506306,24.8167876 4.3840651,19.7466042 4.3840651,13.4922485 C4.3840651,7.23635237 9.54506306,2.16616902 15.9114437,2.16616902 C22.2778244,2.16655412 27.4388223,7.23673746 27.4388223,13.4922485 Z" fill="#E8E8E9"></path>
                                <path d="M27.4129507,13.4772297 C27.4129507,19.6946162 22.2825283,24.7355322 15.9529951,24.7355322 C9.62463792,24.7355322 4.49460752,19.6946162 4.49460752,13.4772297 C4.49460752,7.25830288 9.62502991,2.21815708 15.9529951,2.21815708 C22.2825283,2.21815708 27.4129507,7.25830288 27.4129507,13.4772297 Z" fill="#E9E9EA"></path>
                                <path d="M27.3866871,13.4618259 C27.3866871,19.642243 22.2868403,24.6531215 15.9949385,24.6531215 C9.70421278,24.6531215 4.60397395,19.642243 4.60397395,13.4618259 C4.60397395,7.27986829 9.70421278,2.26937494 15.9949385,2.26937494 C22.2872323,2.26937494 27.3866871,7.27986829 27.3866871,13.4618259 Z" fill="#E9EAEB"></path>
                                <path d="M27.3608155,13.4468071 C27.3608155,19.590255 22.2915442,24.571481 16.0372739,24.571481 C9.78417963,24.571481 4.71451636,19.5906401 4.71451636,13.4468071 C4.71451636,7.30181881 9.78457162,2.3209779 16.0372739,2.3209779 C22.2915442,2.3209779 27.3608155,7.30143371 27.3608155,13.4468071 Z" fill="#EAEBEC"></path>
                                <path d="M27.3349438,13.4314032 C27.3349438,19.5382669 22.2962481,24.4890703 16.0796093,24.4890703 C9.86414648,24.4890703 4.82466678,19.5378818 4.82466678,13.4314032 C4.82466678,7.32299913 9.86414648,2.37258086 16.0796093,2.37258086 C22.2962481,2.37258086 27.3349438,7.32299913 27.3349438,13.4314032 Z" fill="#EBECED"></path>
                                <path d="M27.3094642,13.4159993 C27.3094642,19.4858938 22.3009521,24.4070447 16.1215527,24.4070447 C9.94372134,24.4070447 4.93442521,19.4858938 4.93442521,13.4159993 C4.93442521,7.34456454 9.94372134,2.42379872 16.1215527,2.42379872 C22.3009521,2.42379872 27.3094642,7.34456454 27.3094642,13.4159993 Z" fill="#ECEDED"></path>
                                <path d="M27.2835926,13.4005955 C27.2835926,19.4335206 22.305656,24.3250191 16.1638881,24.3250191 C10.0232962,24.3250191 5.04457563,19.4335206 5.04457563,13.4005955 C5.04457563,7.36612996 10.0236882,2.47540168 16.1638881,2.47540168 C22.305656,2.47540168 27.2835926,7.36612996 27.2835926,13.4005955 Z" fill="#EDEDEE"></path>
                                <path d="M27.2091136,13.3751791 C27.2091136,19.3368613 22.2899762,24.1702102 16.2211193,24.1702102 C10.1530463,24.1702102 5.23312492,19.3368613 5.23312492,13.3751791 C5.23312492,7.41195647 10.1530463,2.5789927 16.2211193,2.5789927 C22.2903682,2.5789927 27.2091136,7.41195647 27.2091136,13.3751791 Z" fill="#EEEEEF"></path>
                                <path d="M27.1346347,13.3501478 C27.1346347,19.2405872 22.2746884,24.0161715 16.2783505,24.0161715 C10.2827965,24.0161715 5.42167422,19.2405872 5.42167422,13.3501478 C5.42167422,7.45816807 10.2827965,2.68296881 16.2783505,2.68296881 C22.2746884,2.68296881 27.1346347,7.45816807 27.1346347,13.3501478 Z" fill="#EEEFF0"></path>
                                <path d="M27.0613318,13.3243463 C27.0613318,19.1435428 22.2594007,23.8613626 16.3363656,23.8613626 C10.4133306,23.8613626 5.6110075,19.1435428 5.6110075,13.3243463 C5.6110075,7.50360949 10.4133306,2.78617473 16.3363656,2.78617473 C22.2594007,2.78655983 27.0613318,7.50399458 27.0613318,13.3243463 Z" fill="#EFF0F0"></path>
                                <path d="M26.9868528,13.299315 C26.9868528,19.0468835 22.2441129,23.7069389 16.3935968,23.7069389 C10.5430807,23.7069389 5.7995568,19.0468835 5.7995568,13.299315 C5.7995568,7.55020619 10.5430807,2.89015084 16.3935968,2.89015084 C22.2441129,2.89015084 26.9868528,7.55020619 26.9868528,13.299315 Z" fill="#F0F1F1"></path>
                                <path d="M26.9131579,13.2738987 C26.9131579,18.9502242 22.2296091,23.55213 16.450828,23.55213 C10.6732229,23.55213 5.98849808,18.9498391 5.98849808,13.2738987 C5.98849808,7.5956476 10.6732229,2.99374186 16.450828,2.99374186 C22.2296091,2.99412696 26.9131579,7.5960327 26.9131579,13.2738987 L26.9131579,13.2738987 Z" fill="#F1F1F2"></path>
                                <path d="M26.8390709,13.2484823 C26.8390709,18.853565 22.2143213,23.3980913 16.5084512,23.3980913 C10.803365,23.3980913 6.17743937,18.853565 6.17743937,13.2484823 C6.17743937,7.64185921 10.803365,3.09771797 16.5084512,3.09771797 C22.2143213,3.09771797 26.8390709,7.64185921 26.8390709,13.2484823 Z" fill="#F2F2F3"></path>
                                <path d="M26.764592,13.223451 C26.764592,18.7569057 22.1990335,23.2436675 16.5656823,23.2436675 C10.9327232,23.2436675 6.36598867,18.7572908 6.36598867,13.223451 C6.36598867,7.68807081 10.9327232,3.20169409 16.5656823,3.20169409 C22.1990335,3.20130899 26.764592,7.68768572 26.764592,13.223451 Z" fill="#F3F3F3"></path>
                                <path d="M26.6912891,13.1980346 C26.6912891,18.6602464 22.1837457,23.0892437 16.6236975,23.0892437 C11.0636493,23.0892437 6.55532195,18.6602464 6.55532195,13.1980346 C6.55532195,7.73389732 11.0636493,3.3052851 16.6236975,3.3052851 C22.1837457,3.3052851 26.6912891,7.73389732 26.6912891,13.1980346 L26.6912891,13.1980346 Z" fill="#F3F4F4"></path>
                                <path d="M26.6168101,13.1726182 C26.6168101,18.5635871 22.168458,22.9344348 16.6809287,22.9344348 C11.1933994,22.9344348 6.74387125,18.5635871 6.74387125,13.1726182 C6.74387125,7.78010893 11.1933994,3.40887612 16.6809287,3.40887612 C22.168458,3.40887612 26.6168101,7.77972383 26.6168101,13.1726182 Z" fill="#F3F4F4"></path>
                                <path d="M26.5423312,13.1472018 C26.5423312,18.4669279 22.1535622,22.7800111 16.7381599,22.7800111 C11.3227576,22.7800111 6.93242054,18.4669279 6.93242054,13.1472018 C6.93242054,7.82555034 11.3227576,3.51246713 16.7381599,3.51246713 C22.1539542,3.51246713 26.5423312,7.82593544 26.5423312,13.1472018 Z" fill="#F4F5F5"></path>
                                <path d="M26.4690283,13.1217855 C26.4690283,18.3702686 22.1382744,22.6252022 16.795783,22.6252022 C11.4532917,22.6252022 7.12136183,18.3698835 7.12136183,13.1217855 C7.12136183,7.87176195 11.4532917,3.61605815 16.795783,3.61605815 C22.1382744,3.61605815 26.4690283,7.87176195 26.4690283,13.1217855 Z" fill="#F5F6F6"></path>
                                <path d="M26.3769096,13.0855864 C26.3769096,18.2327891 22.1292585,22.4060822 16.8890777,22.4060822 C11.6496809,22.4060822 7.40124582,18.2327891 7.40124582,13.0855864 C7.40124582,7.9360731 11.6496809,3.76278 16.8890777,3.76278 C22.1292585,3.76278 26.3769096,7.93645819 26.3769096,13.0855864 Z" fill="#F6F6F7"></path>
                                <path d="M26.2843989,13.0493873 C26.2843989,18.0960797 22.1202426,22.1873472 16.9827644,22.1873472 C11.84607,22.1873472 7.6811298,18.0960797 7.6811298,13.0493873 C7.6811298,8.00076934 11.84607,3.90950185 16.9827644,3.90950185 C22.1198507,3.90911675 26.2843989,8.00076934 26.2843989,13.0493873 Z" fill="#F7F7F8"></path>
                                <path d="M26.1922802,13.0128031 C26.1922802,17.9586002 22.1116188,21.9682272 17.076843,21.9682272 C12.0424592,21.9682272 7.96101379,17.9586002 7.96101379,13.0128031 C7.96101379,8.0650805 12.0424592,4.0554535 17.076843,4.0554535 C22.1116188,4.0554535 26.1922802,8.06546559 26.1922802,13.0128031 Z" fill="#F8F8F9"></path>
                                <path d="M26.1005535,12.976604 C26.1005535,17.8215058 22.1026029,21.7491072 17.1705297,21.7491072 C12.2392404,21.7491072 8.24089777,17.8218909 8.24089777,12.976604 C8.24089777,8.12977674 12.2392404,4.20217535 17.1705297,4.20217535 C22.1026029,4.20217535 26.1005535,8.12977674 26.1005535,12.976604 Z" fill="#F9F9FA"></path>
                                <path d="M26.0084349,12.9404049 C26.0084349,17.6847964 22.093195,21.5303722 17.2638243,21.5303722 C12.4352376,21.5303722 8.52078176,17.6847964 8.52078176,12.9404049 C8.52078176,8.19447299 12.4352376,4.3488972 17.2638243,4.3488972 C22.093195,4.3485121 26.0084349,8.19447299 26.0084349,12.9404049 Z" fill="#FAFBFB"></path>
                                <path d="M25.9167082,12.9038207 C25.9167082,17.5473169 22.0849632,21.3108671 17.358295,21.3108671 C12.6316268,21.3108671 8.80066574,17.5473169 8.80066574,12.9038207 C8.80066574,8.25878414 12.6316268,4.49484885 17.358295,4.49484885 C22.0849632,4.49484885 25.9167082,8.25878414 25.9167082,12.9038207 L25.9167082,12.9038207 Z" fill="#FAFBFB"></path>
                                <path d="M25.790878,12.8760938 C25.790878,17.4248561 22.0375318,21.1121572 17.4065103,21.1121572 C12.7770567,21.1121572 9.02371054,17.4248561 9.02371054,12.8760938 C9.02371054,8.32579097 12.7770567,4.63848993 17.4065103,4.63848993 C22.0375318,4.63887503 25.790878,8.32579097 25.790878,12.8760938 Z" fill="#FCFCFC"></path>
                                <path d="M25.6650478,12.8487519 C25.6650478,17.3027805 21.9897085,20.9134473 17.4551176,20.9134473 C12.9217026,20.9134473 9.24636335,17.3027805 9.24636335,12.8487519 C9.24636335,8.3931829 12.9217026,4.7825161 17.4551176,4.7825161 C21.9897085,4.7825161 25.6650478,8.3931829 25.6650478,12.8487519 Z" fill="#FDFDFD"></path>
                                <path d="M25.5396096,12.82141 C25.5396096,17.1807048 21.9422772,20.7151225 17.5045089,20.7151225 C13.0671325,20.7151225 9.46980014,17.1807048 9.46980014,12.82141 C9.46980014,8.46018973 13.0671325,4.92654227 17.5045089,4.92654227 C21.9422772,4.92615717 25.5396096,8.46018973 25.5396096,12.82141 Z" fill="#FDFDFD"></path>
                                <path d="M25.4137794,12.7936831 C25.4137794,17.0582441 21.8944539,20.5160275 17.5535082,20.5160275 C13.2125624,20.5160275 9.69284494,17.0582441 9.69284494,12.7936831 C9.69284494,8.52719655 13.2125624,5.07018335 17.5535082,5.07018335 C21.8948459,5.07018335 25.4137794,8.52719655 25.4137794,12.7936831 L25.4137794,12.7936831 Z" fill="#FFFFFF"></path>
                            </g>
                        </g>
                    </g>
                    <path d="M57.2971291,18.9939838 L55.6020691,17.3346391 C55.5459185,17.2897938 55.5353372,17.2116872 55.5777137,17.1548581 C55.5808563,17.151136 56.8713017,15.0927743 56.8713017,15.0927743 C56.8908807,15.0561376 56.9016153,15.0158337 56.9027281,14.9747814 C56.9025118,14.8439183 56.7906055,14.7378839 56.6524956,14.7376789 L55.7069546,14.7376789 C55.613782,14.7369874 55.5274497,14.7839348 55.4810776,14.8605107 L54.6616349,16.2008652 C54.6417986,16.2270219 54.6117438,16.2445731 54.5781685,16.2496073 C54.5445933,16.2546415 54.5102878,16.2467404 54.4828975,16.2276648 C54.4828975,16.2269204 53.1590615,14.9386763 53.1590615,14.9386763 C53.1147082,14.889364 53.1195725,14.8156186 53.1700608,14.7719229 L53.1881309,14.7574065 C53.9352929,14.3453619 54.7877333,13.7390199 54.7877333,12.6715007 C54.7877333,11.4446724 53.8579055,10.6205833 52.4751451,10.6205833 C51.1210613,10.6205833 50.0922404,11.4800331 50.0922404,12.7623217 C50.0922404,13.3266031 50.3405088,13.8893957 50.85433,14.4819656 L50.8661148,14.4949933 C50.8857563,14.5184429 50.8955771,14.5508259 50.8916488,14.5813477 C50.8870258,14.6141366 50.869484,14.6440549 50.8425451,14.6650966 C49.7166953,15.272183 49.1470923,16.0758002 49.1470923,17.0591983 C49.1470923,18.7267318 50.6209891,19.6006981 52.076423,19.6006981 C53.0761745,19.6006981 53.8559413,19.237414 54.6066388,18.4207692 L54.6211735,18.4029028 C54.6659561,18.3608422 54.7484503,18.3608422 54.7995181,18.4096027 L55.7100973,19.3029242 C55.7108829,19.3044131 55.7336671,19.3263739 55.7336671,19.3263739 C55.7831636,19.37104 55.8460163,19.3956063 55.9127974,19.3956063 L57.1156418,19.3956063 C57.1822074,19.396004 57.2461795,19.3711753 57.2933232,19.3266451 C57.3404669,19.282115 57.3668709,19.2215777 57.3666599,19.1585039 C57.3666604,19.0973052 57.3419192,19.0384314 57.2975219,18.9939838 L57.2971291,18.9939838 Z M52.4975364,11.8585781 C53.0671394,11.8585781 53.3719752,12.2307954 53.3719752,12.6841561 C53.3719752,13.2149379 52.871903,13.5227616 52.2696952,13.8417519 L52.2390545,13.8540351 C52.1909335,13.8787188 52.1312773,13.8693744 52.0941003,13.8313298 C52.0890548,13.826923 52.0839476,13.8225801 52.07878,13.8183022 C51.8167626,13.5458391 51.509177,13.1151837 51.509177,12.8014045 C51.5083913,12.2728559 51.9090776,11.8585781 52.4975364,11.8585781 L52.4975364,11.8585781 Z M53.7129513,17.522981 L53.7074517,17.529681 C53.271018,18.0224967 52.7898017,18.3522812 52.0917434,18.3522812 C51.2616943,18.3522812 50.6135254,17.7865109 50.6135254,17.0658982 C50.6135254,16.4279177 50.9010767,16.0497449 51.7539099,15.5621403 C51.8140128,15.5275241 51.8788297,15.5360851 51.9228266,15.5740512 L53.6995951,17.3394779 C53.7325928,17.3685109 53.7467347,17.3975438 53.7467347,17.4302989 L53.7467347,17.4340211 C53.7465388,17.466575 53.7346205,17.4980902 53.7129513,17.5233533 L53.7129513,17.522981 Z M48.0251708,18.3359036 L47.971746,18.3377647 C46.6101984,18.3377647 45.9203895,17.6528849 45.9203895,16.3073193 L45.9203895,12.3387384 C45.9203895,12.2702504 45.9808853,12.2144178 46.0539516,12.2144178 L48.1866238,12.2144178 C48.3264842,12.2136074 48.439713,12.1064857 48.4407846,11.9739654 L48.4407846,11.0918104 C48.4403523,10.959037 48.3267503,10.8515623 48.1866238,10.851358 L46.0606297,10.851358 C46.023649,10.8517553 45.9880329,10.8381388 45.9616981,10.8135353 C45.9353633,10.7889318 45.9204919,10.75538 45.9203895,10.7203375 L45.9203895,8.89721717 C45.9254783,8.76542365 45.8170885,8.65456497 45.6780136,8.64932045 L45.6489442,8.64932045 L44.558842,8.73046382 C44.4201446,8.73128375 44.3083494,8.83837874 44.3090023,8.96979955 L44.3090023,10.7266652 C44.3088991,10.7598656 44.2948266,10.7916562 44.2699032,10.8149924 C44.2449798,10.8383286 44.2112636,10.8512833 44.1762259,10.8509858 L42.8366768,10.8509858 C42.7694819,10.8506888 42.7049316,10.8757732 42.6573067,10.9206896 C42.6096818,10.965606 42.5829081,11.0266518 42.5829088,11.0903215 L42.5805518,11.9773154 C42.5829088,12.0428256 42.6104069,12.1038693 42.6602963,12.1451854 C42.7101856,12.1902237 42.7746097,12.2144178 42.8417836,12.2144178 L44.1774044,12.2144178 C44.2504707,12.2144178 44.3101808,12.2691338 44.3101808,12.3387384 L44.3090023,16.5727103 C44.3090023,18.8454691 46.1156259,19.6572751 47.6983365,19.6572751 C47.6983365,19.6572751 47.8861091,19.6602528 48.0302776,19.6464808 C48.1728748,19.6334532 48.2801173,19.53891 48.2801173,19.4060284 L48.2801173,18.5741227 C48.2795983,18.5104489 48.2524046,18.4495785 48.2045187,18.4049034 C48.1566329,18.3602282 48.0919778,18.3354081 48.024778,18.3359036 L48.0251708,18.3359036 Z M41.9194195,19.0527942 C41.832997,18.8220195 41.8090344,18.5670506 41.8015706,18.4565021 C41.7972495,18.3746142 41.793714,18.0407353 41.793714,18.0407353 L41.793714,13.8477074 C41.793714,11.6322699 40.1406869,10.8450303 38.5933309,10.8450303 C37.368488,10.8450303 36.2504948,11.1480152 35.5316166,11.6028648 C35.4748432,11.6382221 35.4345034,11.6928266 35.4188745,11.7554739 C35.4055183,11.8168897 35.4188745,11.8779334 35.4554076,11.930416 C35.4601216,11.938977 36.0254034,12.6607064 36.0254034,12.6607064 C36.1061259,12.7657418 36.26111,12.7894972 36.3726649,12.7139334 L36.4500523,12.6655452 C37.0205299,12.3279558 37.6787658,12.1471609 38.3513478,12.1433243 C40.2616784,12.1433243 40.2055038,13.5607278 40.2055038,13.7449754 C40.2055038,13.8395186 40.1465793,13.8622238 40.0742987,13.8599905 L39.7796764,13.8540351 C38.2975301,13.8022968 34.5397217,14.2809683 34.5397217,17.1038644 C34.5397217,18.7628369 35.998691,19.6077702 37.3590601,19.6077702 C38.6781821,19.6077702 39.7388221,19.1119767 40.2683565,18.506007 L40.2738561,18.4989348 C40.2805283,18.4910363 40.2906781,18.4865025 40.3013542,18.4866517 C40.3190315,18.4866517 40.3343519,18.5015404 40.3343519,18.5179179 C40.3335662,18.5964558 40.3343519,18.7725146 40.3524221,18.9247514 C40.3642069,19.0617274 40.3834556,19.1637149 40.4074182,19.2385306 C40.428631,19.3047853 40.4741992,19.3717844 40.5409803,19.4030507 C40.5739723,19.4187961 40.6101344,19.4276795 40.6470443,19.4291059 L41.7053274,19.4298503 C41.8414052,19.4310945 41.9530133,19.3280031 41.955167,19.1990756 C41.955167,19.1581317 41.9198124,19.0527942 41.9198124,19.0527942 L41.9194195,19.0527942 Z M40.274249,15.7683487 C40.0581926,17.2151573 39.3063167,18.0515296 37.9164854,18.2677879 C36.9387324,18.4200248 36.0532943,18.038502 36.005762,17.0461707 C35.9531228,15.9566906 37.2887436,15.041036 39.7564995,15.1415347 C39.7564995,15.1415347 39.9379868,15.1527012 40.0593711,15.1657288 C40.1677921,15.1772676 40.2345732,15.2085338 40.2762131,15.2703219 C40.3154961,15.3276434 40.322567,15.4426585 40.274249,15.7683487 Z M62.3838802,18.3359036 L62.3292769,18.3377647 C60.9689078,18.3377647 60.2787061,17.6528849 60.2787061,16.3073193 L60.2787061,12.3387384 C60.2787061,12.2702504 60.3388091,12.2144178 60.4110897,12.2144178 L62.5433691,12.2144178 C62.6847877,12.2144178 62.799494,12.1053581 62.799494,11.9739654 L62.799494,11.0918104 C62.7986287,10.9584809 62.684084,10.8509453 62.5433691,10.851358 L60.4189463,10.851358 C60.3818666,10.851957 60.346087,10.838418 60.3196431,10.8137816 C60.2931993,10.7891453 60.2783079,10.7554768 60.2783133,10.7203375 L60.2783133,8.89721717 C60.2831739,8.76508143 60.1742028,8.65416751 60.0347589,8.64932045 L60.0060824,8.64932045 L58.9155872,8.73046382 C58.7770437,8.73148797 58.6654868,8.83852301 58.6661404,8.96979955 L58.6661404,10.7266652 C58.665936,10.7600959 58.6516144,10.7920574 58.6263725,10.8154154 C58.6011305,10.8387734 58.5670695,10.8515834 58.5317927,10.8509858 L57.1938149,10.8509858 C57.12666,10.8505874 57.0621281,10.8756631 57.0146045,10.9206231 C56.967081,10.965583 56.9405165,11.0266898 56.9408326,11.0903215 L56.9384756,11.9773154 C56.9394904,12.0410655 56.967857,12.1016757 57.0170415,12.1451854 C57.0659658,12.1901063 57.1315839,12.2149763 57.1997073,12.2144178 L58.5337568,12.2144178 C58.6060375,12.2144178 58.6665332,12.2691338 58.6665332,12.3387384 L58.6665332,16.5727103 C58.6665332,18.8454691 60.4711927,19.6572751 62.0558675,19.6572751 C62.0558675,19.6572751 62.24364,19.6602528 62.3870229,19.6464808 C62.5300129,19.6334532 62.635684,19.53891 62.635684,19.4060284 L62.6372554,18.5741227 C62.6371522,18.5106501 62.6103612,18.4498326 62.5628099,18.4051256 C62.5152585,18.3604186 62.4508666,18.3355075 62.3838802,18.3359036 L62.3838802,18.3359036 Z" fill="#848484" fill-rule="nonzero"></path>
                    <path d="M1.0952574,9.88985173 C1.0952574,9.27832222 1.17941969,8.84786899 1.33894548,8.4650674 C1.60467094,7.89708494 1.90574162,7.34766411 2.24024706,6.82029129 C2.1496074,6.97754575 2.10236167,7.15763959 2.10367462,7.34088556 C2.10367462,8.67116079 5.2406326,10.3989302 9.52296279,10.9647935 C10.9736146,11.1573856 14.8144753,11.7010115 17.7884645,11.4464723 C23.7903832,10.9322316 25.1255031,8.75613956 25.1255031,7.34088556 C25.1255031,6.954113 24.9227485,6.38944095 24.7215242,6.06104167 C24.9946637,6.43652124 25.2503747,6.82532494 25.4877835,7.22612451 C25.9468506,8.05605741 25.8894672,8.38604508 25.8894672,8.53019132 C25.8894672,11.4190726 20.7092784,13.3052837 17.2429398,14.288099 C8.35081166,16.8084742 1.0952574,13.3739815 1.0952574,9.88985173 Z M3.93229159,5.84065279 C3.93229159,7.14313122 5.75899577,9.2266996 11.0512734,9.2266996 C14.1889965,9.2266996 16.7218988,8.59610944 18.6335304,7.93573699 C21.6989504,6.87866456 23.2165495,5.58571646 23.161844,4.62394733 C23.1530452,4.47424173 23.0968095,4.23121832 22.9265721,4.03862623 C22.2438782,3.40454905 21.5025942,2.84191825 20.7134865,2.35890558 C21.2364404,2.67578905 21.532156,3.04350094 21.532156,3.45330513 C21.532156,4.88841399 18.1557181,6.20320242 13.7448492,6.32074316 C9.3339802,6.43868099 5.67980671,5.31211657 5.5811073,3.8801845 C5.5482075,3.40724187 5.87758809,2.9402557 6.50153668,2.52648054 C6.02622988,2.83167741 5.56936878,3.16679233 5.13351696,3.52994487 C3.90589523,4.5870173 3.93229159,5.7032572 3.93229159,5.84065279 L3.93229159,5.84065279 Z M15.415088,22.660891 C12.7295459,22.7601652 8.0003905,21.7999845 5.02295832,20.5376129 C2.62624591,19.5210443 0.254399641,17.5431038 0,15.6560985 C0.0286916888,16.1103775 0.0780413935,16.5587001 0.147666558,16.9994779 C1.61744614,25.3186617 11.7123299,24.8429394 13.4514288,24.6428025 C26.1496052,23.1810881 27.2425672,17.5530312 27.408979,16.4415565 C27.4357579,16.2096518 27.4587113,15.9769529 27.4747786,15.7418714 C27.251366,17.2234406 25.1044626,22.301121 15.415088,22.660891 Z M5.75937833,24.5582208 C3.48011057,23.5801707 1.90321536,21.9544553 1.27008542,20.7667379 C1.85030986,22.0448928 2.60919854,23.2270968 3.52219172,24.2750906 C6.49120767,27.1703254 11.0558641,27.5205651 13.1511225,27.5205651 C22.0264182,27.5205651 25.196276,22.6787603 25.9124205,21.3834297 C26.04555,21.1245224 26.1702632,20.8584673 26.2884729,20.5892355 C24.8837279,23.5928778 17.5990993,29.6359012 5.75899577,24.5582208 L5.75937833,24.5582208 Z M27.2532788,12.4586727 C27.2532788,12.2283564 27.2261173,11.7701064 27.1224447,11.2991493 C27.0482803,10.9826196 26.9635569,10.6688564 26.8684276,10.3584263 C27.0348394,10.9401735 27.0076779,11.347198 27.0076779,11.5036543 C27.0076779,12.2128697 26.1591691,16.5495669 17.8148608,17.3378046 C17.0933605,17.4053111 11.7919015,17.490687 7.1832512,16.2807322 C4.11744862,15.4758164 1.03902169,13.9195929 0.457919353,11.7593848 C0.368018728,11.4218523 0.407039425,11.1113224 0.478959925,10.8186618 C0.241810082,11.6970589 0.0862917917,12.5970226 0.0145371223,13.5062149 C0.0680949414,15.7815811 1.97054519,18.4341896 5.45830687,19.5758437 C9.44071328,20.8771309 11.8860103,20.9188261 17.6782884,19.5806089 C27.3447096,17.3429669 27.2532788,12.9482935 27.2532788,12.4586727 Z" fill="#848484" fill-rule="nonzero"></path>
                    <path d="M17.3833058,14.68543 C17.6197215,14.6191658 17.8638507,14.5485629 18.1145362,14.4740157 C16.9948202,14.2303721 15.8530762,14.1083426 14.7082984,14.1099571 C12.457528,14.1099571 10.3590973,14.5682844 8.5881005,15.3599047 C11.1273521,15.7212022 14.1471485,15.5886739 17.3833058,14.68543 L17.3833058,14.68543 Z M16.2347804,9.09596749 C17.0967259,8.90163968 17.9480531,8.66096645 18.7852164,8.3749501 C19.1739352,8.24338866 19.55851,8.09935057 19.9383698,7.94304963 C18.8785486,7.74425709 17.9355853,7.61882847 17.2996154,7.56005845 C14.8803072,7.33444469 11.278149,8.03731832 10.3440562,8.23492757 C10.0559607,8.29527531 8.74082584,8.57413707 7.13875248,9.14527119 C7.51555211,9.25965579 7.93091875,9.35865763 8.38716641,9.43872685 C9.83882845,9.02220914 11.3406276,8.78594579 12.7660641,8.78594579 C13.709413,8.78634021 14.9165602,8.88889192 16.2347804,9.09596749 L16.2347804,9.09596749 Z M16.5116915,17.7458096 C15.6288928,17.7414709 14.4283019,17.7043945 13.0753714,17.5943486 C10.6749611,17.8818878 8.63630926,18.9768245 7.4758281,20.4949842 C7.85995546,20.585703 8.23714076,20.661828 8.61201204,20.7241478 C9.83612876,19.349955 11.9040915,18.4471055 14.2505081,18.4471055 C15.962883,18.4471055 17.5275464,18.9283097 18.7227379,19.7219021 C19.1671463,19.6076574 19.608861,19.48272 20.0475145,19.347194 C19.0937524,18.5997498 17.8792775,18.0388708 16.5116915,17.7458096 L16.5116915,17.7458096 Z M24.3866881,11.6881591 C25.0855222,11.1596234 25.6227606,10.5742898 25.8977433,9.93018618 C25.5361419,9.7053374 25.159281,9.50722286 24.7700441,9.33735843 C24.3620052,9.8718106 23.6944104,10.4015296 22.6511729,10.845263 C23.2453982,11.0910423 23.8249121,11.3724977 24.3866881,11.6881591 L24.3866881,11.6881591 Z M21.3125122,13.3585687 C22.0475993,13.0532801 22.7595462,12.7136762 23.3989871,12.3397569 C22.7344776,11.977276 21.9619806,11.6483217 21.0629837,11.3682767 C20.1952261,11.587974 19.1616304,11.7591564 17.933657,11.8628914 C17.5680418,11.893657 17.1908565,11.9125896 16.8051864,11.9224503 C17.6636879,12.0904773 18.4847795,12.3153022 19.2638329,12.5787812 C19.9564725,12.8110992 20.6398953,13.07123 21.3125122,13.3585687 L21.3125122,13.3585687 Z M22.9516099,16.5798756 C22.3329951,16.8362548 21.6256763,17.0666017 20.8188545,17.2579001 C21.3846943,17.6040777 21.9111528,18.0135119 22.3885316,18.4786599 C22.9834701,18.2180548 23.5610324,17.9177737 24.1174904,17.5797547 C23.755421,17.2153513 23.3655628,16.8810023 22.9516099,16.5798756 L22.9516099,16.5798756 Z M4.80776275,10.1325286 C3.72287292,10.6764471 2.65958061,11.3517106 1.80724982,12.1780407 C1.93644928,12.3476455 2.08338957,12.5140948 2.24768501,12.6769942 C3.18062084,11.8333092 4.35537179,11.0795542 5.65700818,10.4650328 C5.37047292,10.3636535 5.08724106,10.25276 4.80776275,10.1325286 L4.80776275,10.1325286 Z M8.26606601,16.9068577 C7.70484776,16.7868315 7.14797487,16.6464576 6.5965004,16.4860013 C5.47034388,17.2815659 4.5779034,18.2435798 3.99824133,19.3140619 C4.36646527,19.5024122 4.74564952,19.6674629 5.13365393,19.8082822 C5.48291669,19.1781944 5.93351959,18.6128153 6.4665296,18.1359005 C6.98487013,17.6685014 7.59191478,17.2563224 8.26606601,16.9068577 L8.26606601,16.9068577 Z M4.37774065,22.7286393 C4.37774065,22.0502203 4.49267032,21.3796899 4.71674462,20.7407139 C4.33945812,20.5683359 3.97069702,20.3770691 3.61179995,20.1676076 C3.36988168,20.8185037 3.24547982,21.5088992 3.24464207,22.2052312 C3.24464207,22.3440704 3.25081279,22.4821208 3.26122588,22.6185934 C3.62871605,22.8993633 4.0156612,23.1524641 4.41900734,23.3758983 C4.391705,23.1611404 4.37792105,22.9448104 4.37774065,22.7282449 L4.37774065,22.7286393 Z M11.924532,11.6684376 C10.9437731,11.5639138 10.1203676,11.4522902 9.60048436,11.3844483 C9.26302307,11.3402722 8.93327519,11.2897852 8.61046936,11.2321984 C6.74266935,11.8376479 5.10357167,12.7495693 3.82237579,13.8401673 C4.08308874,13.9872895 4.35999983,14.1277065 4.65233772,14.2598404 C6.51550969,12.8738146 9.06131764,11.9275779 11.924532,11.6684376 L11.924532,11.6684376 Z M8.02695059,25.7180216 C7.63579191,25.5903895 7.24745487,25.4538831 6.86222706,25.3086036 C7.17731949,25.9972778 7.65940704,26.6267875 8.27223674,27.1730725 C8.76841154,27.3123516 9.27056639,27.428304 9.77712124,27.5205651 C9.0335494,27.0267391 8.4322898,26.4126122 8.02695059,25.7180216 L8.02695059,25.7180216 Z M27.1461573,10.9805523 L27.1025765,10.8361911 C27.1129896,10.875634 27.1230171,10.912316 27.1311161,10.9493924 L27.1465429,10.9805523 L27.1461573,10.9805523 Z M1.85468723,17.7690809 C2.19909058,16.8618928 2.76216884,16.0158412 3.50342666,15.2593251 C3.26046696,15.1306766 3.02221877,14.9929274 2.78916575,14.8463573 C2.13815471,15.5760521 1.63716933,16.3597838 1.31590618,17.1675757 C1.48438735,17.3783247 1.66426193,17.5792718 1.85468723,17.7694754 L1.85468723,17.7690809 Z M24.9312542,15.4853333 C25.2602308,15.7649839 25.5390702,16.0426624 25.7747146,16.3171854 C26.0813984,16.0249178 26.3603263,15.7036006 26.6077619,15.3575381 C26.4351773,15.0549304 26.2403679,14.7661661 26.0250144,14.4937372 C25.6960436,14.8630937 25.3293693,15.1953861 24.9312542,15.4849389 L24.9312542,15.4853333 Z M3.39235369,23.4705615 C3.51229707,23.986081 3.70243241,24.4858234 3.9496469,24.9650554 C4.43834167,25.378169 4.96461473,25.7424457 5.52125232,26.0528923 C5.12169816,25.5042407 4.81547615,24.9149628 4.62109845,24.2964971 C4.19346286,24.0503603 3.78290993,23.7743955 3.39235369,23.4705615 L3.39235369,23.4705615 Z M19.5596419,26.8571344 C20.1712028,26.6469339 20.7682768,26.3949843 21.3468368,26.1029849 C21.5518109,25.8102615 21.7255797,25.4959537 21.8651774,25.1654256 C21.3946528,25.4052748 20.9118697,25.6191008 20.4189147,25.8059794 C20.1875127,26.1846318 19.8982602,26.5368575 19.5592562,26.8571344 L19.5596419,26.8571344 Z M20.8011137,22.2146975 C20.9268422,22.5554847 21.0086042,22.9108658 21.0402292,23.2765021 C21.4261731,23.1283666 21.8071704,22.9670864 22.1825838,22.7929313 C22.1363181,22.4653206 22.0545677,22.1439888 21.9388404,21.8348617 C21.5801672,21.9705455 21.2022106,22.0979463 20.8011137,22.2146975 L20.8011137,22.2146975 Z M23.2724874,5.52125162 C22.6349748,5.29524343 21.8763618,5.1272164 21.0298161,5.01440952 C20.0394154,5.78946377 18.0408732,6.4177902 15.5521445,6.66549201 C17.1179648,6.82563045 19.0239462,7.10133677 20.8423804,7.53599824 C22.2176798,6.85639596 23.0299009,6.14484488 23.2724874,5.52125162 Z M5.74609796,4.7387032 C5.12324084,5.00691536 4.56170526,5.28183282 4.08347441,5.55517256 C4.01918087,5.75165723 3.98003136,5.9558281 3.96700205,6.16259422 C4.58098876,5.83916191 5.31221916,5.50862987 6.12906831,5.18716971 C5.96091617,5.04359732 5.83133104,4.89410848 5.74609796,4.7387032 Z M0.942191913,13.1783143 C0.582747434,13.6863397 0.305065003,14.2409078 0.140769565,14.8447796 C0.18435028,15.0285838 0.238729756,15.2139657 0.305836343,15.3989532 C0.514098166,14.7962647 0.859658524,14.2077757 1.31667752,13.6476856 C1.18165147,13.5001418 1.05665932,13.3433181 0.942577583,13.1783143 L0.942191913,13.1783143 Z M1.46554616,19.8654745 C1.46554616,19.459212 1.50874121,19.0600492 1.59050325,18.6695638 C1.39426989,18.4837007 1.20761112,18.2875363 1.03128169,18.0818637 C0.90263842,18.6491995 0.87093164,19.2350193 0.937563873,19.8134098 C1.1199858,20.1802294 1.32400525,20.5218054 1.54769388,20.840899 C1.49335543,20.5187228 1.46587407,20.1924083 1.46554616,19.8654745 L1.46554616,19.8654745 Z M4.96357344,8.04441805 C6.42719125,7.36402692 8.22441365,6.82168615 10.3436705,6.59686126 C9.67401744,6.51093166 9.01054668,6.38049388 8.35746981,6.20637591 C6.96712931,6.59922783 5.66163622,7.07057126 4.52468094,7.61291202 C4.64809535,7.75885099 4.79349295,7.90321224 4.96318777,8.04481248 L4.96357344,8.04441805 Z M25.8418212,20.2701593 C25.7671781,20.0562116 25.6811744,19.8465893 25.5841936,19.6422273 C25.0884561,20.1010102 24.5481511,20.506753 23.9717071,20.8531263 C24.0685103,21.1146332 24.147187,21.3828454 24.2034948,21.6553962 C24.8722467,21.1966746 25.4094851,20.7284866 25.8418212,20.2701593 L25.8418212,20.2701593 Z M27.3386066,17.2602667 C27.1893452,17.5853445 27.0155239,17.8980232 26.8187234,18.1954594 C26.8761882,18.4029294 26.9143696,18.6021164 26.9382811,18.7949925 C27.1642838,18.3938575 27.3162377,18.0258546 27.419983,17.7118886 C27.3977798,17.5604637 27.3706393,17.4098391 27.3386066,17.2602667 L27.3386066,17.2602667 Z M27.3490197,11.744957 C27.3176439,11.6102561 27.2839569,11.4761294 27.2479742,11.3426387 C27.2282677,11.2952026 27.2066517,11.2486201 27.1831816,11.2030106 C27.2421891,11.5560252 27.2275336,11.8049103 27.2275336,11.9192949 C27.2275336,12.1500362 27.1353585,12.7673186 26.7169065,13.5206792 C26.9041211,13.7408173 27.0715375,13.9777778 27.2171205,14.2286805 C27.4832329,13.5273845 27.4747481,13.0165982 27.4747481,12.8678982 C27.4747481,12.6430733 27.4485226,12.2028898 27.3490197,11.744957 L27.3490197,11.744957 Z M7.44497449,23.6224169 C7.44497449,22.9972459 7.59075777,22.3973184 7.85802711,21.8423559 C7.51400943,21.7461151 7.17654815,21.6451411 6.84834294,21.5414061 C6.58242621,22.1272419 6.44399859,22.7651219 6.44261805,23.4110026 C6.44261805,23.7052471 6.47154331,23.9947585 6.52785113,24.2767757 C6.87109747,24.387216 7.21588649,24.4826679 7.55797582,24.5643149 C7.48300715,24.2562147 7.44505989,23.9399136 7.44497449,23.6224169 L7.44497449,23.6224169 Z M24.2378195,23.621628 C24.2022468,23.8251561 24.1551153,24.0263929 24.0966642,24.2243165 C25.2305342,23.1952496 25.8483776,22.2217972 26.1191179,21.7382265 C26.129531,21.7204771 26.1387871,21.7019389 26.1476575,21.6841896 L26.1372444,21.5812435 C25.7149357,22.2182473 25.0785802,22.9301928 24.2378195,23.621628 L24.2378195,23.621628 Z M21.6885405,3.74907922 C22.2427483,3.97982056 22.7491331,4.26578206 23.194582,4.61485229 C23.1721897,4.57792197 23.1464969,4.54319495 23.1178337,4.51111729 C22.6706367,4.09978786 22.1975629,3.71887295 21.7016533,3.37082119 C21.5733035,3.28905329 21.4411177,3.21375864 21.3055701,3.14520743 C21.5115179,3.33335038 21.6422601,3.53490392 21.6881548,3.74868479 L21.6885405,3.74907922 Z M2.24922769,7.2839577 L2.13275533,7.46697305 C2.15319585,7.44133513 2.17517904,7.41451391 2.19831924,7.38808712 C2.21374604,7.35219403 2.23110119,7.31748422 2.24922769,7.2839577 Z M24.9960468,8.99459907 C25.3678327,9.19260275 25.7056797,9.40559476 26.0034169,9.63318066 C26.0674382,9.41703322 26.0998344,9.1945749 26.0998344,8.9658057 C26.0998344,8.82499432 26.1557566,8.50353416 25.7114647,7.70086983 C25.4731206,7.30012931 25.2158787,6.91201054 24.9401246,6.53848567 C24.9362679,6.53454137 24.9335682,6.53059708 24.9300972,6.52665278 C25.1310313,6.85521267 25.330037,7.40583646 25.330037,7.78488335 C25.3296514,8.15170292 25.2378619,8.56861505 24.9964324,8.99459907 L24.9960468,8.99459907 Z M3.03753725,9.13264944 C2.87665903,9.0097372 2.72552097,8.87402614 2.58553196,8.72678134 C1.98581505,9.14960992 1.485601,9.60241515 1.10803003,10.0820416 C1.10494467,10.1577721 1.10340199,10.2350803 1.10340199,10.3163328 C1.10340199,10.4681882 1.11805745,10.6200436 1.1458257,10.7703213 C1.60862975,10.24218 2.24035728,9.67538463 3.03753725,9.13264944 L3.03753725,9.13264944 Z M1.28659526,21.1319881 C1.60818266,21.8290501 1.98441092,22.4983474 2.41159477,23.1333241 C2.18411921,22.7615878 1.99318157,22.3677361 1.84157445,21.9575293 C1.6339326,21.6990137 1.44826449,21.4228292 1.28659526,21.1319881 L1.28659526,21.1319881 Z M0.475916832,11.2676971 C0.388810171,11.5879496 0.312530707,11.9111797 0.247214497,12.2368107 C0.282696141,12.1105933 0.337075617,11.9737262 0.410352925,11.8266039 C0.407060481,11.6381092 0.429121648,11.4500463 0.475916832,11.2676971 L0.475916832,11.2676971 Z M0.0898611198,16.4572079 C0.0496568247,16.322632 0.0196148319,16.1850978 0,16.0458178 C0.0231402025,16.3929159 0.0570791662,16.7368586 0.104130911,17.0764625 C0.0810986547,16.8709086 0.0763225372,16.6636433 0.0898611198,16.4572079 L0.0898611198,16.4572079 Z" fill="#848484" fill-rule="nonzero"></path>
                </g>
            </g>
        </g>
    </g>
</svg>