<?xml version="1.0" encoding="UTF-8"?>
<svg width="156px" height="109px" viewBox="0 0 156 109" version="1.1" xmlns="http://www.w3.org/2000/svg" xmlns:xlink="http://www.w3.org/1999/xlink">
    <!-- Generator: Sketch 49.1 (51147) - http://www.bohemiancoding.com/sketch -->
    <title>att</title>
    <desc>Created with Sketch.</desc>
    <defs>
        <filter x="-11.2%" y="-22.8%" width="122.3%" height="170.3%" filterUnits="objectBoundingBox" id="filter-1">
            <feOffset dx="0" dy="25" in="SourceAlpha" result="shadowOffsetOuter1"></feOffset>
            <feGaussianBlur stdDeviation="19.5" in="shadowOffsetOuter1" result="shadowBlurOuter1"></feGaussianBlur>
            <feColorMatrix values="0 0 0 0 0.776470588   0 0 0 0 0.776470588   0 0 0 0 0.776470588  0 0 0 0.15 0" type="matrix" in="shadowBlurOuter1" result="shadowMatrixOuter1"></feColorMatrix>
            <feMerge>
                <feMergeNode in="shadowMatrixOuter1"></feMergeNode>
                <feMergeNode in="SourceGraphic"></feMergeNode>
            </feMerge>
        </filter>
    </defs>
    <g id="Page-6" stroke="none" stroke-width="1" fill="none" fill-rule="evenodd">
        <g id="Desktop-HD-Copy-28" transform="translate(-938.000000, -2354.000000)" fill="#848484" fill-rule="nonzero">
            <g id="clients" filter="url(#filter-1)" transform="translate(704.000000, 2281.000000)">
                <g id="att" transform="translate(269.000000, 85.000000)">
                    <path d="M80.5086904,24.6771593 C80.2765015,24.6771593 80.1165897,24.5151713 80.1165897,24.282188 L80.1165897,12.7090853 L76.2102465,12.7090853 C75.9779709,12.7090853 75.8177988,12.5477959 75.8177988,12.3145507 L75.8177988,10.7181613 C75.8177988,10.4843921 75.9780577,10.3226661 76.2102465,10.3226661 L86.6082464,10.3226661 C86.8402617,10.3226661 87,10.4845668 87,10.7181613 L87,12.3144634 C87,12.5475339 86.8402617,12.7090853 86.6082464,12.7090853 L82.7021635,12.7090853 L82.7021635,24.2820134 C82.7021635,24.5151713 82.5414708,24.6771593 82.3100629,24.6771593 L80.5086904,24.6771593 Z M50.5854823,18.8992094 L48.5349146,12.9785704 L46.4659523,18.8992094 L50.5854823,18.8992094 Z M55.1334684,24.2095336 C55.2230989,24.4433901 55.0801066,24.6771593 54.8303908,24.6771593 L52.9759169,24.6771593 C52.7082403,24.6771593 52.5475475,24.5519351 52.4580906,24.2995657 L51.4062994,21.2503493 L45.6461764,21.2503493 L44.5925631,24.2995657 C44.5040606,24.5520224 44.3429341,24.6771593 44.0759516,24.6771593 L42.3287218,24.6771593 C42.096533,24.6771593 41.9357535,24.4433028 42.0250368,24.2095336 L46.8581398,10.6822707 C46.9475967,10.4302506 47.1080291,10.3232774 47.3750116,10.3232774 L49.7649255,10.3232774 C50.0326889,10.3232774 50.2110821,10.4303379 50.300192,10.6822707 L55.1334684,24.2095336 Z M68.9870562,22.7389796 C70.1279572,22.7389796 70.895239,22.1836795 71.5196153,21.232273 L68.6308771,18.1098782 C67.5245961,18.7383567 66.8108497,19.3655252 66.8108497,20.6218709 C66.8110232,21.8601402 67.8092791,22.7389796 68.9870562,22.7389796 Z M69.7894786,12.2245185 C68.8623718,12.2245185 68.3273656,12.8171937 68.3273656,13.6065249 C68.3273656,14.2164905 68.6477099,14.7548495 69.3792436,15.54453 C70.6453496,14.8083797 71.1807028,14.3600529 71.1807028,13.570809 C71.1807028,12.8345714 70.7171928,12.2245185 69.7894786,12.2245185 Z M77.6909277,24.1746909 C77.9225092,24.4260997 77.7801243,24.6771593 77.4939663,24.6771593 L75.228997,24.6771593 C74.9259194,24.6771593 74.7654002,24.6050288 74.5693065,24.3715216 L73.2139171,22.8649896 C72.3045108,24.0851827 71.03719,25 68.9331738,25 C66.3294656,25 64.2778567,23.4211629 64.2778567,20.7123396 C64.2778567,18.6303356 65.3842244,17.5176397 67.0609125,16.5848334 C66.2398351,15.6339508 65.8660423,14.6291014 65.8660423,13.7503493 C65.8660423,11.5248702 67.4175255,10 69.7534703,10 C72.1433842,10 73.6061045,11.4179843 73.6061045,13.5168421 C73.6061045,15.3111101 72.322298,16.314999 70.966388,17.0691382 L72.9642013,19.2409124 L74.0875754,17.2664928 C74.2301338,17.0335969 74.3907397,16.9435647 74.675683,16.9435647 L76.4052991,16.9435647 C76.69111,16.9435647 76.8516292,17.1414433 76.6738433,17.4462951 L74.6759433,20.8907447 L77.6909277,24.1746909 Z M59.8922987,24.6771593 C60.1241405,24.6771593 60.2854406,24.5151713 60.2854406,24.282188 L60.2854406,12.7090853 L64.1906557,12.7090853 C64.4224975,12.7090853 64.5828432,12.5477959 64.5828432,12.3145507 L64.5828432,10.7181613 C64.5828432,10.4843921 64.4224975,10.3226661 64.1906557,10.3226661 L53.7926559,10.3226661 C53.560467,10.3226661 53.4002949,10.4845668 53.4002949,10.7181613 L53.4002949,12.3144634 C53.4002949,12.5475339 53.5605538,12.7090853 53.7926559,12.7090853 L57.6978711,12.7090853 L57.6978711,24.2820134 C57.6978711,24.5151713 57.8589109,24.6771593 58.0904924,24.6771593 L59.8922987,24.6771593 Z" id="path5"></path>
                    <path d="M6.96205727,32.2168458 C10.0137297,34.5800801 13.8440999,36 17.9998687,36 C22.5476564,36 26.6936203,34.310862 29.8577859,31.5381079 C29.8961299,31.5042147 29.8772205,31.4817945 29.8394018,31.5042147 C28.4195367,32.4528715 24.3727594,34.5236792 18.0000438,34.5236792 C12.4618785,34.5236792 8.96198432,33.2875003 6.98551888,32.1838285 C6.94770016,32.1651742 6.93369323,32.1935498 6.96205727,32.2168458 M19.2217107,33.1369518 C23.6512274,33.1369518 28.5187233,31.9289734 31.4298887,29.5378013 C32.2265329,28.8863004 32.9853584,28.0191798 33.6649571,26.8538524 C34.0561882,26.1833468 34.4388401,25.3867274 34.7504943,24.6036827 C34.7643261,24.5654982 34.7407769,24.5469314 34.7120627,24.5898452 C32.0048732,28.5753947 24.1654569,31.0613273 16.0708517,31.0613273 C10.3492832,31.0613273 4.19297465,29.2309242 1.78273208,25.7359052 C1.75900784,25.7035886 1.7352836,25.7174261 1.74972825,25.7545596 C3.99503921,30.5288464 10.8067846,33.1369518 19.2217107,33.1369518 M14.3820536,25.2166488 C5.16952034,25.2166488 0.82562101,20.9242222 0.0376436258,17.9949642 C0.0279263177,17.9525759 0,17.9618593 0,17.9999562 C0,18.9860968 0.0986613168,20.2587086 0.268407806,21.103409 C0.349385373,21.5145929 0.683888382,22.1598756 1.17430604,22.6742277 C3.40508481,25.000416 8.96671165,28.2599348 18.5985774,28.2599348 C31.7215831,28.2599348 34.7221302,23.8867602 35.3348459,22.4486239 C35.7730002,21.420095 36,19.5614039 36,18.0000438 C36,17.6222276 35.9905453,17.32043 35.9762758,17.0241499 C35.9762758,16.976069 35.948437,16.972128 35.9388072,17.0189828 C35.2830202,20.5379984 24.0709101,25.2166488 14.3820536,25.2166488 M1.7352836,10.2779323 C1.20739741,11.3259913 0.622257888,13.0941256 0.44830932,14.0092396 C0.372059092,14.4013312 0.404537662,14.5896263 0.541980668,14.882228 C1.64616451,17.2259322 7.23134051,20.9758939 20.2593617,20.9758939 C28.2074193,20.9758939 34.3816743,19.0224421 35.3819442,15.4577102 C35.5661353,14.8014801 35.5760277,14.1086419 35.3393981,13.1750487 C35.0750173,12.1318065 34.5798723,10.9152453 34.1608025,10.0609988 C34.1469706,10.0331487 34.1225461,10.0372649 34.127536,10.0701946 C34.283188,14.7456922 21.2500018,17.7590261 14.6740106,17.7590261 C7.5510487,17.7590261 1.60852088,14.919887 1.60852088,11.3349244 C1.60852088,10.9904758 1.67978114,10.6459396 1.76872515,10.2873908 C1.77765457,10.2546362 1.74964071,10.2492063 1.7352836,10.2779323 M29.8869378,4.53738533 C29.9625752,4.65596742 30.0003064,4.78251921 30.0003064,4.95286055 C30.0003064,6.95281676 23.8818165,10.490837 14.1420098,10.490837 C6.98551888,10.490837 5.64566843,7.83491341 5.64566843,6.14586298 C5.64566843,5.5420927 5.87713296,4.92430977 6.38689768,4.29689313 C6.41473646,4.25958444 6.39109976,4.24522147 6.35897137,4.27298404 C5.42926135,5.06119589 4.57501368,5.94810939 3.8256429,6.90552405 C3.46759073,7.35830797 3.24531826,7.75942023 3.24531826,7.99973726 C3.24531826,11.5000109 12.0185592,14.037878 20.2218056,14.037878 C28.9624804,14.037878 32.8634105,11.1833249 32.8634105,8.67470935 C32.8634105,7.77816215 32.5145504,7.25478948 31.6221339,6.24009809 C31.0428597,5.58001445 30.4949261,5.04254155 29.9149517,4.51347623 C29.8869378,4.49035535 29.8674156,4.50918486 29.8869378,4.53738533 M27.2073245,2.53786701 C24.5097647,0.920281129 21.3772023,0 18.0000438,0 C14.5993361,0 11.372402,0.952422657 8.66512493,2.61283472 C7.85307314,3.11282377 7.39600948,3.51349813 7.39600948,4.02855078 C7.39600948,5.54682197 10.9428269,7.1792963 17.2353529,7.1792963 C23.4625716,7.1792963 28.2925114,5.39119392 28.2925114,3.67000197 C28.2925114,3.25916844 27.9335838,2.97173385 27.2073245,2.53786701" id="path9"></path>
                </g>
            </g>
        </g>
    </g>
</svg>