<svg xmlns="http://www.w3.org/2000/svg" xmlns:xlink="http://www.w3.org/1999/xlink" width="155" height="112" viewBox="0 0 155 112">
    <defs>
        <filter id="a" width="131%" height="166.8%" x="-15.5%" y="-21.9%" filterUnits="objectBoundingBox">
            <feOffset dy="25" in="SourceAlpha" result="shadowOffsetOuter1"/>
            <feGaussianBlur in="shadowOffsetOuter1" result="shadowBlurOuter1" stdDeviation="20"/>
            <feColorMatrix in="shadowBlurOuter1" result="shadowMatrixOuter1" values="0 0 0 0 0.776470588 0 0 0 0 0.776470588 0 0 0 0 0.776470588 0 0 0 0.15 0"/>
            <feMerge>
                <feMergeNode in="shadowMatrixOuter1"/>
                <feMergeNode in="SourceGraphic"/>
            </feMerge>
        </filter>
        <path id="b" d="M36.595 18.387c0 9.943-8.192 18.003-18.297 18.003S.002 28.33.002 18.387C.002 8.44 8.192.38 18.298.38c10.105 0 18.297 8.06 18.297 18.007z"/>
    </defs>
    <g fill="none" fill-rule="evenodd" filter="url(#a)" transform="translate(-156 -70)">
        <g transform="translate(193.943 83)">
            <mask id="c" fill="#fff">
                <use xlink:href="#b"/>
            </mask>
            <g fill-rule="nonzero" mask="url(#c)">
                <path fill="#B2B4B6" d="M37.074 18.353c0 10.073-8.299 18.241-18.537 18.241S0 28.426 0 18.353C0 8.276 8.3.109 18.537.109c10.238 0 18.537 8.167 18.537 18.244z"/>
                <path fill="#B2B4B7" d="M37.038 18.342c0 10.044-8.274 18.187-18.482 18.187C8.35 36.53.074 28.386.074 18.342.074 8.295 8.35.152 18.556.152c10.208 0 18.482 8.142 18.482 18.19z"/>
                <path fill="#B2B4B7" d="M37.003 18.33c0 10.015-8.25 18.135-18.427 18.135C8.398 36.465.148 28.345.148 18.33.148 8.314 8.398.195 18.576.195c10.177 0 18.427 8.118 18.427 18.136z"/>
                <path fill="#B3B5B8" d="M36.968 18.32c0 9.985-8.226 18.08-18.372 18.08C8.448 36.4.222 28.304.222 18.32.222 8.332 8.448.237 18.596.237c10.146 0 18.372 8.095 18.372 18.083z"/>
                <path fill="#B4B6B8" d="M36.934 18.309c0 9.955-8.202 18.025-18.32 18.025C8.498 36.334.298 28.264.298 18.31.297 8.35 8.497.28 18.615.28c10.117 0 18.319 8.07 18.319 18.029z"/>
                <path fill="#B5B7B9" d="M36.898 18.298c0 9.926-8.176 17.972-18.263 17.972C8.547 36.27.37 28.223.37 18.298.37 8.37 8.547.324 18.635.324c10.087 0 18.263 8.046 18.263 17.974z"/>
                <path fill="#B6B8BA" d="M36.863 18.287c0 9.897-8.152 17.919-18.21 17.919C8.596 36.206.444 28.184.444 18.287.444 8.39 8.596.367 18.654.367c10.057 0 18.21 8.022 18.21 17.92z"/>
                <path fill="#B7B9BB" d="M36.828 18.276c0 9.867-8.128 17.865-18.155 17.865C8.646 36.14.52 28.143.52 18.276.519 8.408 8.646.41 18.673.41s18.155 7.999 18.155 17.867z"/>
                <path fill="#B7B9BC" d="M36.793 18.265c0 9.837-8.103 17.81-18.1 17.81-9.997 0-18.1-7.973-18.1-17.81C.593 8.426 8.696.452 18.693.452c9.997 0 18.1 7.974 18.1 17.813z"/>
                <path fill="#B7B9BC" d="M36.758 18.254c0 9.807-8.08 17.757-18.046 17.757C8.745 36.01.667 28.06.667 18.254.667 8.445 8.745.494 18.712.494c9.967 0 18.046 7.951 18.046 17.76z"/>
                <path fill="#B8BABC" d="M36.745 18.245c0 9.786-8.061 17.719-18.006 17.719-9.946 0-18.007-7.933-18.007-17.72C.732 8.458 8.793.525 18.74.525c9.945 0 18.006 7.933 18.006 17.72z"/>
                <path fill="#B9BBBD" d="M36.733 18.235c0 9.765-8.044 17.68-17.969 17.68C8.84 35.916.797 28 .797 18.236.797 8.468 8.84.552 18.764.552c9.925 0 17.97 7.916 17.97 17.683z"/>
                <path fill="#BABCBE" d="M36.72 18.226c0 9.744-8.026 17.642-17.93 17.642C8.889 35.868.863 27.97.863 18.225.862 8.48 8.888.58 18.79.58c9.903 0 17.93 7.9 17.93 17.646z"/>
                <path fill="#BBBDBF" d="M36.708 18.216c0 9.723-8.01 17.605-17.89 17.605C8.936 35.82.926 27.939.926 18.216.926 8.491 8.936.61 18.818.61c9.88 0 17.89 7.882 17.89 17.607z"/>
                <path fill="#BCBDC0" d="M36.695 18.207c0 9.702-7.991 17.566-17.852 17.566-9.86 0-17.851-7.864-17.851-17.566C.992 8.502 8.983.637 18.843.637s17.852 7.866 17.852 17.57z"/>
                <path fill="#BCBEC0" d="M36.683 18.197c0 9.681-7.976 17.529-17.813 17.529-9.839 0-17.814-7.848-17.814-17.529C1.056 8.514 9.031.667 18.87.667c9.837 0 17.813 7.847 17.813 17.53z"/>
                <path fill="#BDBFC1" d="M36.67 18.188c0 9.66-7.957 17.49-17.774 17.49-9.818 0-17.775-7.83-17.775-17.49C1.121 8.526 9.08.695 18.896.695c9.817 0 17.775 7.83 17.775 17.493z"/>
                <path fill="#BEC0C2" d="M36.659 18.178c0 9.64-7.941 17.453-17.736 17.453-9.797 0-17.736-7.813-17.736-17.453S9.127.724 18.923.724c9.795 0 17.736 7.813 17.736 17.454z"/>
                <path fill="#BFC1C3" d="M36.646 18.169c0 9.618-7.924 17.414-17.697 17.414-9.775 0-17.698-7.796-17.698-17.414C1.251 8.549 9.174.752 18.95.752c9.774 0 17.697 7.797 17.697 17.417z"/>
                <path fill="#C0C2C4" d="M36.634 18.16c0 9.596-7.906 17.376-17.659 17.376s-17.66-7.78-17.66-17.377C1.316 8.56 9.223.781 18.976.781c9.752 0 17.659 7.78 17.659 17.378z"/>
                <path fill="#C1C2C4" d="M36.62 18.15c0 9.576-7.888 17.338-17.619 17.338-9.732 0-17.62-7.762-17.62-17.338C1.38 8.572 9.269.809 19 .809c9.731 0 17.62 7.763 17.62 17.341z"/>
                <path fill="#C1C3C5" d="M36.61 18.14c0 9.555-7.873 17.3-17.582 17.3-9.71 0-17.582-7.745-17.582-17.3C1.446 8.583 9.317.838 19.028.838c9.71 0 17.581 7.745 17.581 17.302z"/>
                <path fill="#C2C4C6" d="M36.596 18.131c0 9.534-7.854 17.262-17.542 17.262-9.69 0-17.543-7.728-17.543-17.262C1.51 8.595 9.364.866 19.054.866c9.688 0 17.542 7.73 17.542 17.265z"/>
                <path fill="#C3C5C7" d="M36.584 18.122c0 9.512-7.837 17.224-17.503 17.224-9.669 0-17.506-7.712-17.506-17.224C1.575 8.607 9.412.895 19.081.895c9.666 0 17.503 7.711 17.503 17.227z"/>
                <path fill="#C4C6C8" d="M36.572 18.112c0 9.492-7.82 17.186-17.465 17.186-9.647 0-17.466-7.694-17.466-17.186C1.64 8.618 9.46.923 19.107.923c9.645 0 17.465 7.695 17.465 17.189z"/>
                <path fill="#C5C6C8" d="M36.56 18.103c0 9.47-7.803 17.147-17.427 17.147-9.625 0-17.427-7.677-17.427-17.147C1.706 8.63 9.508.952 19.133.952c9.624 0 17.426 7.677 17.426 17.15z"/>
                <path fill="#C5C7C9" d="M36.548 18.093c0 9.45-7.786 17.11-17.389 17.11-9.604 0-17.389-7.66-17.389-17.11C1.77 8.641 9.555.981 19.16.981 28.761.98 36.547 8.64 36.547 18.093z"/>
                <path fill="#C6C8CA" d="M36.534 18.084c0 9.428-7.767 17.072-17.348 17.072-9.583 0-17.35-7.644-17.35-17.072 0-9.432 7.767-17.076 17.35-17.076 9.581.001 17.348 7.644 17.348 17.076z"/>
                <path fill="#C7C9CB" d="M36.523 18.074c0 9.408-7.75 17.034-17.31 17.034C9.65 35.108 1.9 27.481 1.9 18.074c0-9.41 7.75-17.037 17.312-17.037 9.56 0 17.31 7.627 17.31 17.037z"/>
                <path fill="#C8CACC" d="M36.51 18.065c0 9.386-7.734 16.996-17.272 16.996-9.54 0-17.273-7.61-17.273-16.996 0-9.39 7.733-16.999 17.273-16.999 9.538 0 17.272 7.61 17.272 16.999z"/>
                <path fill="#C9CBCC" d="M36.498 18.055c0 9.366-7.717 16.958-17.234 16.958-9.518 0-17.234-7.592-17.234-16.958 0-9.368 7.716-16.96 17.234-16.96 9.517 0 17.234 7.592 17.234 16.96z"/>
                <path fill="#CACBCD" d="M36.485 18.046c0 9.344-7.699 16.92-17.195 16.92-9.497 0-17.195-7.576-17.195-16.92 0-9.348 7.698-16.923 17.195-16.923 9.496 0 17.195 7.575 17.195 16.923z"/>
                <path fill="#CBCCCE" d="M36.473 18.036c0 9.324-7.682 16.882-17.156 16.882-9.476 0-17.157-7.558-17.157-16.882 0-9.326 7.681-16.884 17.157-16.884 9.474 0 17.156 7.558 17.156 16.884z"/>
                <path fill="#CBCDCF" d="M36.46 18.027c0 9.302-7.664 16.844-17.117 16.844-9.454 0-17.118-7.542-17.118-16.844C2.225 8.72 9.889 1.18 19.343 1.18c9.453 0 17.117 7.541 17.117 16.847z"/>
                <path fill="#CCCED0" d="M36.448 18.017c0 9.282-7.647 16.806-17.078 16.806-9.434 0-17.08-7.524-17.08-16.806C2.29 8.733 9.935 1.21 19.37 1.21c9.43 0 17.078 7.524 17.078 16.808z"/>
                <path fill="#CDCFD0" d="M36.435 18.008c0 9.26-7.629 16.767-17.04 16.767-9.412 0-17.04-7.507-17.04-16.767 0-9.264 7.628-16.771 17.04-16.771 9.411 0 17.04 7.508 17.04 16.77z"/>
                <path fill="#CECFD1" d="M36.423 17.998c0 9.24-7.612 16.73-17.001 16.73-9.39 0-17.003-7.49-17.003-16.73 0-9.242 7.612-16.733 17.003-16.733 9.389 0 17.001 7.491 17.001 16.733z"/>
                <path fill="#CFD0D2" d="M36.41 17.989c0 9.218-7.594 16.691-16.962 16.691-9.369 0-16.964-7.473-16.964-16.691 0-9.222 7.595-16.695 16.964-16.695 9.368 0 16.963 7.474 16.963 16.695z"/>
                <path fill="#D0D1D3" d="M36.399 17.98c0 9.197-7.578 16.653-16.924 16.653-9.348 0-16.925-7.456-16.925-16.654 0-9.2 7.577-16.656 16.925-16.656 9.346 0 16.924 7.456 16.924 16.656z"/>
                <path fill="#D0D2D3" d="M36.386 17.97c0 9.177-7.56 16.615-16.885 16.615-9.327 0-16.887-7.438-16.887-16.615 0-9.18 7.56-16.619 16.887-16.619 9.325 0 16.885 7.44 16.885 16.619z"/>
                <path fill="#D1D3D4" d="M36.374 17.96c0 9.156-7.543 16.578-16.846 16.578-9.305 0-16.849-7.422-16.849-16.578 0-9.158 7.543-16.58 16.849-16.58 9.303 0 16.846 7.422 16.846 16.58z"/>
                <path fill="#D2D3D5" d="M36.348 17.947c0 9.126-7.52 16.524-16.793 16.524-9.275 0-16.793-7.398-16.793-16.524 0-9.129 7.518-16.527 16.793-16.527 9.274 0 16.793 7.398 16.793 16.527z"/>
                <path fill="#D3D4D6" d="M36.322 17.934c0 9.096-7.494 16.47-16.738 16.47-9.245 0-16.738-7.374-16.738-16.47 0-9.1 7.493-16.474 16.738-16.474 9.244 0 16.738 7.374 16.738 16.474z"/>
                <path fill="#D4D5D7" d="M36.296 17.92c0 9.068-7.47 16.418-16.683 16.418-9.216 0-16.685-7.35-16.685-16.417 0-9.07 7.47-16.42 16.685-16.42 9.214 0 16.683 7.35 16.683 16.42z"/>
                <path fill="#D5D6D7" d="M36.27 17.907c0 9.038-7.446 16.364-16.629 16.364-9.185 0-16.63-7.327-16.63-16.364 0-9.04 7.445-16.367 16.63-16.367 9.184 0 16.63 7.327 16.63 16.367z"/>
                <path fill="#D5D7D8" d="M36.245 17.894c0 9.008-7.422 16.31-16.575 16.31-9.155 0-16.576-7.302-16.576-16.31 0-9.01 7.421-16.313 16.576-16.313 9.153 0 16.575 7.302 16.575 16.313z"/>
                <path fill="#D6D7D9" d="M36.22 17.88c0 8.98-7.398 16.258-16.521 16.258-9.125 0-16.522-7.279-16.522-16.257C3.177 8.9 10.574 1.62 19.7 1.62c9.123 0 16.52 7.279 16.52 16.26z"/>
                <path fill="#D7D8DA" d="M36.193 17.867c0 8.95-7.372 16.204-16.466 16.204-9.095 0-16.467-7.254-16.467-16.204 0-8.951 7.372-16.206 16.467-16.206 9.094 0 16.466 7.255 16.466 16.206z"/>
                <path fill="#D8D9DB" d="M36.167 17.854c0 8.92-7.348 16.15-16.411 16.15-9.065 0-16.413-7.23-16.413-16.15 0-8.922 7.348-16.152 16.413-16.152 9.063 0 16.411 7.23 16.411 16.152z"/>
                <path fill="#D8D9DB" d="M36.141 17.84c0 8.89-7.323 16.097-16.358 16.097-9.034 0-16.358-7.206-16.358-16.096 0-8.893 7.324-16.1 16.358-16.1 9.035 0 16.358 7.207 16.358 16.1z"/>
                <path fill="#D9DADB" d="M36.116 17.828c0 8.86-7.299 16.043-16.304 16.043-9.004 0-16.303-7.182-16.303-16.043 0-8.863 7.299-16.046 16.303-16.046 9.005 0 16.304 7.183 16.304 16.046z"/>
                <path fill="#D9DBDC" d="M36.09 17.814c0 8.831-7.275 15.99-16.249 15.99-8.974 0-16.25-7.159-16.25-15.99 0-8.833 7.275-15.992 16.25-15.992 8.974 0 16.25 7.159 16.25 15.992z"/>
                <path fill="#DADCDD" d="M36.064 17.8c0 8.802-7.25 15.937-16.194 15.937-8.945 0-16.195-7.135-16.195-15.936 0-8.804 7.25-15.939 16.195-15.939 8.944 0 16.194 7.135 16.194 15.939z"/>
                <path fill="#DBDCDE" d="M36.038 17.788c0 8.772-7.226 15.882-16.14 15.882-8.915 0-16.14-7.11-16.14-15.882 0-8.774 7.225-15.885 16.14-15.885 8.914 0 16.14 7.11 16.14 15.885z"/>
                <path fill="#DCDDDE" d="M36.012 17.775c0 8.742-7.201 15.829-16.085 15.829-8.885 0-16.087-7.087-16.087-15.83 0-8.744 7.202-15.831 16.087-15.831 8.884 0 16.085 7.087 16.085 15.832z"/>
                <path fill="#DDDEDF" d="M35.988 17.761c0 8.713-7.18 15.776-16.033 15.776-8.855 0-16.032-7.063-16.032-15.776 0-8.715 7.177-15.778 16.032-15.778 8.854 0 16.033 7.063 16.033 15.778z"/>
                <path fill="#DEDFE0" d="M35.962 17.748c0 8.683-7.154 15.722-15.977 15.722-8.825 0-15.979-7.04-15.979-15.722 0-8.686 7.153-15.725 15.979-15.725 8.823 0 15.977 7.039 15.977 15.725z"/>
                <path fill="#DEE0E1" d="M35.936 17.735c0 8.653-7.129 15.668-15.924 15.668S4.089 26.388 4.089 17.735c0-8.657 7.128-15.672 15.923-15.672s15.924 7.015 15.924 15.672z"/>
                <path fill="#DFE0E2" d="M35.91 17.721c0 8.625-7.105 15.616-15.87 15.616-8.764 0-15.867-6.991-15.867-15.616 0-8.627 7.103-15.618 15.868-15.618 8.764 0 15.87 6.991 15.87 15.618z"/>
                <path fill="#E0E1E2" d="M35.884 17.708c0 8.595-7.08 15.562-15.815 15.562-8.734 0-15.814-6.967-15.814-15.562 0-8.597 7.08-15.565 15.814-15.565 8.735 0 15.815 6.968 15.815 15.565z"/>
                <path fill="#E1E2E3" d="M35.85 17.688c0 8.547-7.04 15.476-15.726 15.476S4.398 26.235 4.398 17.688c0-8.549 7.04-15.478 15.726-15.478S35.851 9.14 35.851 17.688z"/>
                <path fill="#E2E3E4" d="M35.817 17.668c0 8.5-7.001 15.39-15.638 15.39-8.639 0-15.64-6.89-15.64-15.39S11.54 2.277 20.18 2.277c8.637 0 15.638 6.89 15.638 15.391z"/>
                <path fill="#E3E4E5" d="M35.783 17.648c0 8.452-6.962 15.303-15.55 15.303-8.589 0-15.55-6.851-15.55-15.303 0-8.453 6.961-15.304 15.55-15.304 8.588 0 15.55 6.85 15.55 15.304z"/>
                <path fill="#E3E4E5" d="M35.75 17.629c0 8.403-6.924 15.215-15.463 15.215-8.54 0-15.462-6.812-15.462-15.215 0-8.406 6.922-15.218 15.462-15.218S35.75 9.223 35.75 17.629z"/>
                <path fill="#E4E5E6" d="M35.717 17.609c0 8.356-6.883 15.129-15.375 15.129-8.491 0-15.374-6.773-15.374-15.13 0-8.357 6.883-15.13 15.374-15.13s15.375 6.773 15.375 15.13z"/>
                <path fill="#E5E6E7" d="M35.683 17.589c0 8.308-6.845 15.043-15.287 15.043-8.443 0-15.286-6.735-15.286-15.043 0-8.31 6.843-15.045 15.286-15.045 8.442 0 15.287 6.735 15.287 15.045z"/>
                <path fill="#E6E7E8" d="M35.65 17.57c0 8.26-6.805 14.955-15.2 14.955-8.393 0-15.198-6.696-15.198-14.956 0-8.262 6.805-14.958 15.199-14.958S35.649 9.307 35.649 17.57z"/>
                <path fill="#E7E8E9" d="M35.615 17.55c0 8.211-6.765 14.869-15.11 14.869-8.345 0-15.11-6.657-15.11-14.87 0-8.214 6.765-14.871 15.11-14.871 8.346 0 15.11 6.657 15.11 14.871z"/>
                <path fill="#E7E8E9" d="M35.582 17.53c0 8.164-6.726 14.782-15.022 14.782S5.538 25.694 5.538 17.529c0-8.166 6.726-14.784 15.022-14.784s15.022 6.618 15.022 14.784z"/>
                <path fill="#E8E8E9" d="M35.549 17.51c0 8.116-6.687 14.696-14.935 14.696-8.248 0-14.934-6.58-14.934-14.697 0-8.118 6.686-14.698 14.934-14.698S35.55 9.391 35.55 17.51z"/>
                <path fill="#E9E9EA" d="M35.515 17.49c0 8.068-6.647 14.61-14.847 14.61-8.199 0-14.845-6.542-14.845-14.61 0-8.07 6.647-14.611 14.845-14.611 8.2 0 14.847 6.54 14.847 14.61z"/>
                <path fill="#E9EAEB" d="M35.481 17.47c0 8.02-6.607 14.523-14.759 14.523-8.15 0-14.757-6.503-14.757-14.523 0-8.023 6.607-14.525 14.757-14.525 8.153 0 14.76 6.502 14.76 14.525z"/>
                <path fill="#EAEBEC" d="M35.448 17.45c0 7.973-6.568 14.437-14.67 14.437S6.107 25.423 6.107 17.45c0-7.974 6.569-14.438 14.67-14.438 8.102 0 14.67 6.463 14.67 14.438z"/>
                <path fill="#EBECED" d="M35.414 17.43c0 7.925-6.528 14.35-14.582 14.35-8.052 0-14.581-6.425-14.581-14.35C6.25 9.503 12.78 3.08 20.832 3.08c8.054 0 14.582 6.424 14.582 14.351z"/>
                <path fill="#ECEDED" d="M35.381 17.41c0 7.877-6.489 14.264-14.494 14.264-8.004 0-14.494-6.387-14.494-14.264 0-7.879 6.49-14.265 14.494-14.265 8.005 0 14.494 6.386 14.494 14.265z"/>
                <path fill="#EDEDEE" d="M35.348 17.39c0 7.83-6.45 14.177-14.407 14.177-7.955 0-14.405-6.348-14.405-14.177 0-7.83 6.45-14.178 14.405-14.178 7.957 0 14.407 6.347 14.407 14.178z"/>
                <path fill="#EEEEEF" d="M35.251 17.357c0 7.737-6.373 14.01-14.235 14.01-7.862 0-14.236-6.273-14.236-14.01 0-7.738 6.374-14.01 14.236-14.01 7.863 0 14.235 6.272 14.235 14.01z"/>
                <path fill="#EEEFF0" d="M35.155 17.325c0 7.644-6.297 13.842-14.065 13.842S7.024 24.969 7.024 17.325c0-7.646 6.298-13.843 14.066-13.843 7.768 0 14.065 6.197 14.065 13.843z"/>
                <path fill="#EFF0F0" d="M35.06 17.291c0 7.552-6.222 13.675-13.895 13.675-7.674 0-13.896-6.123-13.896-13.675 0-7.553 6.222-13.675 13.896-13.675 7.673 0 13.895 6.122 13.895 13.675z"/>
                <path fill="#F0F1F1" d="M34.963 17.259c0 7.459-6.144 13.506-13.724 13.506S7.514 24.718 7.514 17.26c0-7.46 6.145-13.508 13.725-13.508s13.724 6.047 13.724 13.508z"/>
                <path fill="#F1F1F2" d="M34.868 17.226c0 7.366-6.068 13.338-13.555 13.338-7.485 0-13.555-5.972-13.555-13.338 0-7.369 6.07-13.34 13.555-13.34 7.487 0 13.555 5.972 13.555 13.34z"/>
                <path fill="#F2F2F3" d="M34.772 17.193c0 7.274-5.992 13.171-13.384 13.171S8.003 24.467 8.003 17.193c0-7.276 5.993-13.173 13.385-13.173 7.392 0 13.384 5.897 13.384 13.173z"/>
                <path fill="#F3F3F3" d="M34.675 17.16c0 7.181-5.915 13.004-13.213 13.004-7.298 0-13.214-5.822-13.214-13.004 0-7.183 5.916-13.005 13.214-13.005S34.675 9.977 34.675 17.16z"/>
                <path fill="#F3F4F4" d="M34.58 17.127c0 7.089-5.84 12.837-13.043 12.837-7.203 0-13.044-5.748-13.044-12.837 0-7.09 5.84-12.838 13.044-12.838 7.203 0 13.043 5.748 13.043 12.838z"/>
                <path fill="#F3F4F4" d="M34.484 17.095c0 6.996-5.763 12.668-12.873 12.668-7.11 0-12.874-5.672-12.874-12.668 0-6.999 5.765-12.671 12.874-12.671 7.11 0 12.873 5.672 12.873 12.67z"/>
                <path fill="#F4F5F5" d="M34.387 17.062c0 6.903-5.686 12.5-12.702 12.5s-12.704-5.597-12.704-12.5c0-6.907 5.688-12.504 12.704-12.504 7.017 0 12.702 5.598 12.702 12.504z"/>
                <path fill="#F5F6F6" d="M34.292 17.029c0 6.81-5.61 12.332-12.532 12.332S9.226 23.84 9.226 17.03c0-6.814 5.612-12.336 12.534-12.336 6.922 0 12.532 5.522 12.532 12.336z"/>
                <path fill="#F6F6F7" d="M34.173 16.982c0 6.68-5.503 12.095-12.292 12.095-6.788 0-12.292-5.416-12.292-12.095 0-6.683 5.504-12.099 12.292-12.099 6.789 0 12.292 5.416 12.292 12.099z"/>
                <path fill="#F7F7F8" d="M34.053 16.935c0 6.549-5.395 11.858-12.05 11.858-6.656 0-12.052-5.31-12.052-11.858 0-6.552 5.396-11.862 12.051-11.862 6.656 0 12.051 5.31 12.051 11.862z"/>
                <path fill="#F8F8F9" d="M33.934 16.887c0 6.418-5.287 11.622-11.81 11.622-6.522 0-11.81-5.204-11.81-11.622 0-6.42 5.288-11.624 11.81-11.624 6.523 0 11.81 5.204 11.81 11.624z"/>
                <path fill="#F9F9FA" d="M33.815 16.84c0 6.288-5.18 11.384-11.57 11.384-6.388 0-11.568-5.096-11.568-11.384 0-6.29 5.18-11.387 11.569-11.387 6.39 0 11.569 5.097 11.569 11.387z"/>
                <path fill="#FAFBFB" d="M33.696 16.793c0 6.157-5.073 11.148-11.33 11.148-6.255 0-11.327-4.99-11.327-11.148 0-6.159 5.072-11.15 11.327-11.15 6.257 0 11.33 4.991 11.33 11.15z"/>
                <path fill="#FAFBFB" d="M33.577 16.746c0 6.026-4.965 10.91-11.088 10.91-6.124 0-11.087-4.884-11.087-10.91 0-6.028 4.963-10.913 11.087-10.913 6.123 0 11.088 4.885 11.088 10.913z"/>
                <path fill="#FCFCFC" d="M33.414 16.71c0 5.903-4.863 10.688-10.863 10.688-5.998 0-10.86-4.785-10.86-10.688 0-5.905 4.862-10.69 10.86-10.69 6 0 10.863 4.785 10.863 10.69z"/>
                <path fill="#FDFDFD" d="M33.25 16.674c0 5.78-4.76 10.466-10.636 10.466-5.873 0-10.635-4.686-10.635-10.466 0-5.782 4.762-10.468 10.635-10.468 5.875 0 10.637 4.686 10.637 10.468z"/>
                <path fill="#FDFDFD" d="M33.088 16.639c0 5.657-4.66 10.244-10.41 10.244-5.749 0-10.41-4.587-10.41-10.244 0-5.66 4.661-10.246 10.41-10.246 5.75 0 10.41 4.586 10.41 10.246z"/>
                <path fill="#FFF" d="M32.925 16.603c0 5.534-4.56 10.021-10.183 10.021-5.624 0-10.184-4.487-10.184-10.021 0-5.537 4.56-10.023 10.184-10.023s10.183 4.486 10.183 10.023z"/>
            </g>
        </g>
        <path fill="#848484" fill-rule="nonzero" d="M268.175 107.65l-2.196-2.154a.168.168 0 0 1-.031-.234c.004-.004 1.676-2.676 1.676-2.676.025-.047.039-.1.04-.153a.317.317 0 0 0-.324-.307h-1.225c-.12-.001-.232.06-.292.159l-1.062 1.74a.172.172 0 0 1-.232.035c0-.002-1.715-1.674-1.715-1.674a.15.15 0 0 1 .015-.216l.023-.019c.968-.535 2.072-1.321 2.072-2.707 0-1.592-1.204-2.661-2.996-2.661-1.754 0-3.087 1.115-3.087 2.78 0 .731.322 1.462.987 2.23l.016.018c.025.03.038.072.033.112a.168.168 0 0 1-.064.108c-1.459.788-2.196 1.831-2.196 3.107 0 2.164 1.91 3.298 3.795 3.298 1.295 0 2.305-.471 3.278-1.53l.019-.024c.058-.055.164-.055.23.009l1.18 1.159.03.03c.065.058.146.09.233.09h1.558c.087 0 .17-.031.23-.09a.299.299 0 0 0 .006-.43zm-6.218-9.26c.738 0 1.133.482 1.133 1.07 0 .69-.648 1.089-1.428 1.503l-.04.016a.161.161 0 0 1-.187-.03.986.986 0 0 0-.02-.017c-.34-.353-.738-.912-.738-1.32-.001-.685.518-1.223 1.28-1.223zm1.575 7.35l-.007.009c-.566.64-1.19 1.067-2.093 1.067-1.076 0-1.916-.734-1.916-1.67 0-.827.373-1.318 1.478-1.95a.186.186 0 0 1 .219.015l2.302 2.291c.042.038.06.075.06.118v.005a.18.18 0 0 1-.043.116zm-7.369 1.055l-.07.002c-1.763 0-2.657-.888-2.657-2.634v-5.15c0-.09.079-.162.173-.162h2.763a.323.323 0 0 0 .33-.312v-1.145a.322.322 0 0 0-.33-.312h-2.754a.185.185 0 0 1-.128-.049.166.166 0 0 1-.054-.12v-2.367a.318.318 0 0 0-.314-.322h-.038l-1.412.106a.318.318 0 0 0-.324.31v2.28a.158.158 0 0 1-.05.115.175.175 0 0 1-.122.047h-1.735a.336.336 0 0 0-.232.09.303.303 0 0 0-.097.22l-.003 1.151a.293.293 0 0 0 .103.218.35.35 0 0 0 .236.09h1.73c.095 0 .172.071.172.161l-.002 5.495c0 2.95 2.341 4.003 4.392 4.003 0 0 .243.004.43-.014.184-.017.323-.14.323-.312v-1.08a.304.304 0 0 0-.098-.22.338.338 0 0 0-.232-.089zm-7.91.93a2.89 2.89 0 0 1-.153-.773c-.006-.107-.01-.54-.01-.54v-5.441c0-2.875-2.142-3.897-4.147-3.897-1.586 0-3.035.393-3.966.983a.328.328 0 0 0-.146.198c-.018.08 0 .16.047.227.006.012.739.948.739.948a.335.335 0 0 0 .45.07l.1-.064a4.89 4.89 0 0 1 2.463-.677c2.475 0 2.402 1.84 2.402 2.078 0 .123-.076.152-.17.15l-.382-.008c-1.92-.067-6.788.554-6.788 4.217 0 2.153 1.89 3.25 3.652 3.25 1.71 0 3.084-.644 3.77-1.43l.007-.01a.046.046 0 0 1 .035-.015c.023 0 .043.019.043.04 0 .102 0 .33.023.528.016.178.04.31.072.407a.352.352 0 0 0 .173.214.35.35 0 0 0 .137.034h1.371a.313.313 0 0 0 .324-.299.982.982 0 0 0-.046-.19zm-2.132-4.262c-.28 1.878-1.254 2.963-3.054 3.244-1.267.197-2.414-.298-2.476-1.586-.068-1.414 1.662-2.602 4.86-2.471 0 0 .235.014.392.031.14.015.227.056.28.136.052.074.06.223-.002.646zm28.645 3.332l-.071.002c-1.763 0-2.657-.888-2.657-2.634v-5.15c0-.09.078-.162.172-.162h2.762c.183 0 .332-.142.332-.312v-1.145a.323.323 0 0 0-.332-.312h-2.752a.184.184 0 0 1-.129-.049.166.166 0 0 1-.053-.12v-2.367a.318.318 0 0 0-.316-.322h-.037l-1.413.106a.318.318 0 0 0-.323.31v2.28a.158.158 0 0 1-.051.115.176.176 0 0 1-.123.047h-1.733a.335.335 0 0 0-.233.09.301.301 0 0 0-.095.22l-.003 1.151a.298.298 0 0 0 .102.218c.063.058.148.09.236.09h1.729c.093 0 .172.071.172.161v5.495c0 2.95 2.338 4.003 4.39 4.003 0 0 .244.004.43-.014.185-.017.322-.14.322-.312l.002-1.08a.302.302 0 0 0-.097-.22.335.335 0 0 0-.231-.089zM195.362 95.834c0-.793.11-1.352.316-1.849a19.09 19.09 0 0 1 1.168-2.134 1.337 1.337 0 0 0-.177.675c0 1.727 4.064 3.969 9.612 4.703 1.88.25 6.855.956 10.708.625 7.776-.667 9.506-3.49 9.506-5.328 0-.501-.263-1.234-.523-1.66.354.487.685.991.992 1.512.595 1.077.52 1.505.52 1.692 0 3.749-6.71 6.197-11.201 7.472-11.52 3.27-20.92-1.186-20.92-5.708zm3.676-5.254c0 1.69 2.366 4.394 9.223 4.394 4.065 0 7.347-.819 9.823-1.676 3.972-1.371 5.938-3.05 5.867-4.297a1.303 1.303 0 0 0-.305-.76 18.1 18.1 0 0 0-2.867-2.18c.678.411 1.06.889 1.06 1.42 0 1.863-4.374 3.57-10.088 3.722-5.715.153-10.45-1.31-10.577-3.168-.043-.613.384-1.22 1.192-1.756a17.76 17.76 0 0 0-1.772 1.302c-1.59 1.372-1.556 2.82-1.556 2.999zm14.877 21.828c-3.48.129-9.607-1.117-13.464-2.756-3.105-1.319-6.178-3.886-6.508-6.335.038.59.101 1.172.192 1.744 1.904 10.796 14.982 10.178 17.236 9.919 16.45-1.897 17.867-9.2 18.082-10.643.035-.301.065-.603.086-.908-.29 1.922-3.071 8.512-15.624 8.979zm-12.51 2.462c-2.953-1.27-4.996-3.379-5.816-4.92a18.695 18.695 0 0 0 2.918 4.553c3.846 3.757 9.76 4.211 12.474 4.211 11.499 0 15.606-6.283 16.534-7.964.172-.336.334-.681.487-1.03-1.82 3.897-11.258 11.74-26.598 5.15h.001zm27.847-15.702c0-.299-.035-.894-.17-1.505-.096-.41-.206-.818-.329-1.22.216.754.18 1.283.18 1.486 0 .92-1.099 6.548-11.91 7.57-.934.088-7.803.2-13.773-1.371-3.972-1.045-7.96-3.064-8.713-5.867-.117-.439-.066-.841.027-1.221a19.198 19.198 0 0 0-.602 3.487c.07 2.953 2.534 6.396 7.053 7.877 5.16 1.689 8.327 1.743 15.832.006 12.523-2.903 12.405-8.607 12.405-9.242z"/>
        <path fill="#848484" fill-rule="nonzero" d="M216.465 102.058c.306-.086.622-.178.947-.275a20.583 20.583 0 0 0-4.413-.472c-2.916 0-5.635.595-7.93 1.622 3.29.469 7.203.297 11.396-.875zm-1.488-7.254a31.924 31.924 0 0 0 3.304-.936c.503-.17 1.002-.357 1.494-.56a38.875 38.875 0 0 0-3.419-.497c-3.134-.293-7.801.62-9.011.876-.374.078-2.077.44-4.153 1.181a13.74 13.74 0 0 0 1.617.38c1.881-.54 3.827-.846 5.674-.846 1.222 0 2.786.133 4.494.402zm.358 11.225a59.458 59.458 0 0 1-4.452-.196c-3.11.373-5.75 1.794-7.254 3.764.497.118.986.216 1.472.297 1.586-1.783 4.265-2.955 7.305-2.955 2.218 0 4.245.625 5.794 1.655a37.09 37.09 0 0 0 1.716-.487c-1.235-.97-2.809-1.697-4.58-2.078zm10.203-7.86c.905-.687 1.601-1.446 1.958-2.282a11.4 11.4 0 0 0-1.461-.77c-.53.694-1.394 1.381-2.746 1.957.77.32 1.521.684 2.249 1.094zm-3.983 2.167a22.468 22.468 0 0 0 2.703-1.322c-.86-.47-1.862-.898-3.026-1.261-1.124.285-2.464.507-4.054.642-.474.04-.963.064-1.462.077a24.8 24.8 0 0 1 3.185.852c.897.301 1.783.639 2.654 1.012zm2.124 4.18c-.802.333-1.718.632-2.764.88.734.45 1.416.98 2.034 1.584.77-.338 1.52-.728 2.24-1.166-.469-.473-.974-.907-1.51-1.298zm-23.507-8.367c-1.405.706-2.783 1.582-3.887 2.655.167.22.357.436.57.647 1.209-1.095 2.731-2.073 4.417-2.87a17.834 17.834 0 0 1-1.1-.432zm4.48 8.792a30.754 30.754 0 0 1-2.162-.547c-1.46 1.033-2.616 2.281-3.367 3.67.477.245.969.46 1.471.642a8.328 8.328 0 0 1 1.727-2.17 11.109 11.109 0 0 1 2.332-1.595zm-5.037 7.555c0-.88.149-1.75.44-2.58a16.167 16.167 0 0 1-1.432-.744 7.63 7.63 0 0 0-.476 2.644c0 .18.008.36.021.537.477.364.978.693 1.5.983a6.72 6.72 0 0 1-.053-.84zm9.777-14.354c-1.27-.135-2.337-.28-3.01-.368a27.943 27.943 0 0 1-1.283-.198c-2.42.786-4.544 1.97-6.204 3.385.338.19.697.373 1.076.544 2.414-1.798 5.712-3.026 9.421-3.363zm-5.05 18.233a35.324 35.324 0 0 1-1.508-.531c.408.893 1.033 1.71 1.827 2.42.642.18 1.293.33 1.95.45-.964-.64-1.743-1.438-2.268-2.339zm24.77-19.125l-.056-.188c.014.052.027.1.037.147l.02.04zm-32.766 8.81c.446-1.178 1.176-2.276 2.136-3.258a14.357 14.357 0 0 1-.925-.535c-.844.947-1.493 1.964-1.909 3.012.218.273.451.534.698.781zm29.897-2.964c.427.363.788.723 1.093 1.08.397-.38.759-.797 1.08-1.246a8.988 8.988 0 0 0-.756-1.121c-.426.48-.9.91-1.417 1.286zm-27.905 10.362c.156.67.402 1.318.722 1.94a12.847 12.847 0 0 0 2.036 1.412 7.914 7.914 0 0 1-1.166-2.28 13.82 13.82 0 0 1-1.592-1.072zm20.946 4.395a18.43 18.43 0 0 0 2.316-.978c.265-.38.49-.788.671-1.217-.61.311-1.235.589-1.874.831a6.66 6.66 0 0 1-1.113 1.364zm1.609-6.024a5.3 5.3 0 0 1 .31 1.378c.5-.193.993-.402 1.48-.628a5.907 5.907 0 0 0-.316-1.243c-.465.176-.955.341-1.474.493zm3.201-21.664c-.826-.293-1.808-.511-2.905-.658-1.283 1.006-3.873 1.822-7.097 2.143 2.029.208 4.498.566 6.854 1.13 1.782-.882 2.834-1.806 3.148-2.615zm-22.706-1.015a21.62 21.62 0 0 0-2.154 1.06c-.084.254-.134.52-.151.787a28.41 28.41 0 0 1 2.8-1.265 2.136 2.136 0 0 1-.495-.582zm-6.224 10.952a6.861 6.861 0 0 0-1.038 2.163c.056.238.127.479.214.719.27-.782.717-1.546 1.31-2.273a5.722 5.722 0 0 1-.485-.61h-.001zm.678 8.678c0-.527.056-1.045.162-1.552a10.14 10.14 0 0 1-.725-.763 6.71 6.71 0 0 0-.121 2.247c.236.477.5.92.79 1.334a7.67 7.67 0 0 1-.106-1.266zm4.532-15.34c1.896-.883 4.225-1.587 6.97-1.879a19.713 19.713 0 0 1-2.573-.507c-1.801.51-3.493 1.122-4.966 1.826.16.189.349.376.568.56h.001zm27.05 15.865a8.213 8.213 0 0 0-.335-.815 12.729 12.729 0 0 1-2.089 1.572c.126.34.228.687.3 1.04a13.04 13.04 0 0 0 2.123-1.797zm1.938-3.906a9.025 9.025 0 0 1-.673 1.214c.074.269.124.528.155.778.292-.52.49-.998.624-1.406a9.124 9.124 0 0 0-.106-.586zm.014-7.157a15.65 15.65 0 0 0-.131-.522 2.453 2.453 0 0 0-.084-.182c.076.459.057.782.057.93 0 .3-.12 1.1-.661 2.078.242.286.46.593.648.919.345-.91.334-1.573.334-1.766 0-.292-.034-.863-.163-1.457zm-25.787 15.414c0-.812.189-1.59.535-2.31a40.924 40.924 0 0 1-1.308-.391 5.911 5.911 0 0 0-.526 2.426c0 .382.038.758.11 1.124.445.143.892.267 1.335.373-.097-.4-.146-.81-.146-1.222zm21.756-.001a7.053 7.053 0 0 1-.183.782c1.47-1.336 2.27-2.6 2.62-3.227.014-.023.026-.047.037-.07l-.013-.133c-.547.826-1.372 1.75-2.461 2.648zm-3.303-25.79c.718.3 1.374.67 1.951 1.124a.91.91 0 0 0-.099-.135 17.907 17.907 0 0 0-1.835-1.48 5.965 5.965 0 0 0-.513-.292c.267.244.436.505.496.783zm-25.185 4.588l-.15.237c.026-.033.054-.068.084-.102a1.68 1.68 0 0 1 .066-.135zm29.47 2.22c.482.257.92.533 1.305.828.083-.28.125-.569.125-.866 0-.183.073-.6-.503-1.641a18.228 18.228 0 0 0-1-1.509l-.012-.015c.26.426.518 1.14.518 1.633 0 .476-.12 1.017-.432 1.57zm-28.448.179a4.981 4.981 0 0 1-.586-.527c-.777.549-1.425 1.136-1.914 1.759a7.449 7.449 0 0 0-.006.304c0 .197.019.394.055.589.6-.685 1.418-1.421 2.45-2.125zm-2.269 15.572c.417.904.904 1.773 1.458 2.597a8.711 8.711 0 0 1-.739-1.526 7.633 7.633 0 0 1-.719-1.071zm-1.05-12.802c-.113.416-.212.836-.296 1.258.046-.164.116-.341.211-.532a2.731 2.731 0 0 1 .085-.726zm-.5 6.735a3.642 3.642 0 0 1-.117-.534c.03.45.074.897.135 1.338a4.553 4.553 0 0 1-.018-.804z"/>
    </g>
</svg>
