<svg width="83" height="83" viewBox="0 0 83 83" fill="none" xmlns="http://www.w3.org/2000/svg">
<path d="M5 34H9.88275C11.4619 34 12.6323 34.3394 13.3942 35.0182C14.1699 35.6828 14.5577 36.6303 14.5577 37.8606C14.5577 38.596 14.35 39.2465 13.9344 39.8121C13.5327 40.3778 12.9717 40.7313 12.2514 40.8727V40.8939C13.0548 41.0495 13.6989 41.4242 14.1837 42.0182C14.6685 42.6121 14.9109 43.298 14.9109 44.0758C14.9109 45.2778 14.4677 46.2323 13.5812 46.9394C12.6947 47.6465 11.4549 48 9.86198 48H5V34ZM9.90353 40.1515C10.887 40.1515 11.6142 39.9677 12.0852 39.6C12.57 39.2182 12.8124 38.6384 12.8124 37.8606C12.8124 36.3475 11.8428 35.5909 9.90353 35.5909H6.66221V40.1515H9.90353ZM10.2568 46.4091C11.2264 46.4091 11.9536 46.2111 12.4384 45.8152C12.9232 45.405 13.1656 44.8253 13.1656 44.0758C13.1656 43.3263 12.9232 42.7535 12.4384 42.3576C11.9536 41.9475 11.2264 41.7424 10.2568 41.7424H6.66221V46.4091H10.2568Z" fill="#848484"/>
<path d="M25.0571 43.3333H18.2005V41.5727H25.0571V43.3333Z" fill="#848484"/>
<path d="M34.1113 42.1879H30.8284V48H29.1662V34H34.3606C35.7597 34 36.8817 34.3677 37.7266 35.103C38.5716 35.8384 38.9941 36.8354 38.9941 38.0939C38.9941 39.0838 38.7239 39.9182 38.1837 40.597C37.6435 41.2758 36.9024 41.7424 35.9605 41.997L39.8252 48H37.8513L34.1113 42.1879ZM30.8284 40.597H34.3399C36.2791 40.597 37.2487 39.7626 37.2487 38.0939C37.2487 36.4253 36.2791 35.5909 34.3399 35.5909H30.8284V40.597Z" fill="#848484"/>
<path d="M52.9159 46.4091V48H42.9842V34H52.6042V35.5909H44.6464V40.1091H50.8381V41.7H44.6464V46.4091H52.9159Z" fill="#848484"/>
<path d="M66.1657 46.4091V48H56.234V34H65.8541V35.5909H57.8962V40.1091H64.088V41.7H57.8962V46.4091H66.1657Z" fill="#848484"/>
<path d="M79 46.4091V48H69.4838V34H71.146V46.4091H79Z" fill="#848484"/>
</svg>
