<svg xmlns="http://www.w3.org/2000/svg" xmlns:xlink="http://www.w3.org/1999/xlink" width="20" height="13" viewBox="0 0 20 13">
    <defs>
        <path id="a" d="M0 0h1440v800H0z"/>
    </defs>
    <g fill="none" fill-rule="evenodd">
        <use fill="#000" transform="translate(-1215 -489)" xlink:href="#a"/>
        <path fill="#FFF" d="M8.056 5.834c.74.216 1.302.606 1.684 1.17.382.564.572 1.255.572 2.07 0 1.225-.45 2.161-1.354 2.81-.764.6-1.759.9-2.986.9H0V0h5.799c1.203 0 2.13.216 2.777.648.764.504 1.146 1.357 1.146 2.557s-.555 2.077-1.666 2.629zM2.708 2.197v2.989h2.743c.51 0 .909-.126 1.198-.379.29-.252.434-.642.434-1.17 0-.96-.613-1.44-1.84-1.44H2.708zm2.882 8.426c1.343 0 2.014-.564 2.014-1.692 0-1.225-.648-1.837-1.944-1.837H2.708v3.53H5.59zm7.466-8.678V.685h5v1.26h-5zM20 8.283l-.035.468h-6.423c0 .768.19 1.356.573 1.764.382.408.92.612 1.614.612a2.4 2.4 0 0 0 1.198-.324c.382-.216.63-.516.747-.9h2.152C19.178 11.968 17.79 13 15.66 13c-1.39 0-2.494-.444-3.316-1.332-.822-.889-1.233-2.053-1.233-3.493 0-.913.191-1.741.573-2.485a4.404 4.404 0 0 1 1.615-1.765c.694-.432 1.481-.648 2.36-.648 1.343 0 2.42.492 3.23 1.476.74.937 1.111 2.113 1.111 3.53zm-6.458-1.117h3.993c-.047-.624-.232-1.11-.556-1.458-.324-.348-.781-.522-1.371-.522s-1.071.18-1.441.54c-.37.36-.579.84-.625 1.44z"/>
    </g>
</svg>
