<svg width="83" height="83" viewBox="0 0 83 83" fill="none" xmlns="http://www.w3.org/2000/svg">
<path fill-rule="evenodd" clip-rule="evenodd" d="M25.0027 37.5352C25.0116 37.5353 25.0168 37.5354 25.0182 37.5354L25.1363 37.5369L25.1242 34.0179H25.0068L20.5816 34.0217L19.3884 34.0464C17.1747 34.1699 16.0762 34.5403 15.3645 34.8502C13.256 35.8366 11.7849 37.6724 11.3284 39.8892C11.2474 40.3629 11.2073 40.8561 11.2073 41.3545C11.2073 42.9351 11.7123 44.4432 12.6662 45.7125C13.415 46.7101 14.4189 47.5124 15.5704 48.0348C16.7701 48.5193 17.9412 48.5899 18.6485 48.6326L18.6503 48.6327L24.9993 48.6447H25.1181L25.106 45.3188L24.9887 45.321C24.9851 45.321 24.9619 45.3213 24.9211 45.3217C24.277 45.3278 19.2592 45.376 18.2937 45.2507C16.1375 44.9723 14.7452 43.4875 14.7452 41.4675C14.7452 39.8495 15.7052 37.8655 18.4125 37.6035C20.0476 37.4464 24.6964 37.5297 25.0027 37.5352ZM39.1569 41.5506C41.0405 42.1703 41.382 43.7329 41.3782 45.0067C41.3744 46.9541 39.9851 48.6357 35.8734 48.6357L28.1972 48.6372V34.0179H35.8522C39.9897 34.0179 41.5114 36.1172 41.5114 38.2202C41.5114 40.767 39.1569 41.5506 39.1569 41.5506ZM31.818 45.5284H36.9859L37.0041 45.5246C37.587 45.4228 38.0118 44.9326 38.0118 44.3579C38.0118 43.7689 37.5567 43.2143 36.9556 43.1335L31.8202 43.1253L31.818 45.5284ZM31.818 37.3297H36.7368C37.4084 37.3387 37.9709 37.909 37.9709 38.5773C37.9709 39.1887 37.4954 39.7044 36.8685 39.7747L36.8572 39.7762H31.818V37.3297ZM58.5562 48.6649H71.5267L71.5191 45.4752H62.1607L62.1698 43.1185H70.6068V39.9116H62.1698V37.3618H71.5297L71.5275 34.0179H58.5562V48.6649ZM43.2374 34.0179H51.0809C53.6429 34.0179 56.3919 34.6818 56.3919 37.8453C56.3919 40.4302 54.2069 41.0754 54.2069 41.0754C54.2069 41.0754 56.3442 41.722 56.3442 43.9088L56.3503 48.6275L52.8252 48.629V44.7919C52.8252 43.6574 51.9417 42.7383 50.8061 42.7211L46.8389 42.7248V48.6425H43.2374V34.0179ZM53.0792 38.6663C53.0141 39.1476 52.5281 39.6692 51.9209 39.6692L46.8582 39.6707V37.3297H51.9224C52.5281 37.3297 53.002 37.769 53.0792 38.3475V38.6663Z" fill="#848484"/>
</svg>
