<svg xmlns="http://www.w3.org/2000/svg" width="153" height="97" viewBox="0 0 153 97">
    <defs>
        <filter id="a" width="131%" height="166.8%" x="-15.5%" y="-21.9%" filterUnits="objectBoundingBox">
            <feOffset dy="25" in="SourceAlpha" result="shadowOffsetOuter1"/>
            <feGaussianBlur in="shadowOffsetOuter1" result="shadowBlurOuter1" stdDeviation="20"/>
            <feColorMatrix in="shadowBlurOuter1" result="shadowMatrixOuter1" values="0 0 0 0 0.776470588 0 0 0 0 0.776470588 0 0 0 0 0.776470588 0 0 0 0.15 0"/>
            <feMerge>
                <feMergeNode in="shadowMatrixOuter1"/>
                <feMergeNode in="SourceGraphic"/>
            </feMerge>
        </filter>
    </defs>
    <path fill="#848484" fill-rule="evenodd" d="M48.21 189.775c2.44.805 2.883 2.832 2.878 4.485-.005 2.528-1.804 4.71-7.132 4.71l-9.945.002V180h9.918c5.36 0 7.332 2.724 7.332 5.453 0 3.305-3.05 4.322-3.05 4.322zm-9.508 5.162h6.696l.023-.004c.756-.133 1.306-.769 1.306-1.515 0-.764-.59-1.484-1.368-1.588l-6.654-.011-.003 3.118zm6.373-10.64h-6.373v3.176h6.53l.014-.002c.812-.092 1.428-.76 1.428-1.554 0-.868-.729-1.608-1.599-1.62zm28.269 14.71V180h16.805l.003 4.34H78.025v3.308h10.93v4.162h-10.93l-.012 3.058h12.125l.01 4.14H73.344zM63.659 180c3.32 0 6.88.861 6.88 4.967 0 3.354-2.83 4.192-2.83 4.192s2.769.839 2.769 3.677l.008 6.123-4.567.002v-4.98c0-1.472-1.145-2.664-2.616-2.687l-5.14.005v7.68h-4.666V180H63.66zm2.589 6.032v-.413a1.5 1.5 0 0 0-1.499-1.321h-6.56v3.038l6.558-.002c.787 0 1.416-.677 1.5-1.302zm-36.355-1.467c-.066-.001-6.379-.122-8.558.088-3.508.34-4.751 2.915-4.751 5.015 0 2.62 1.803 4.548 4.597 4.91 1.33.172 8.596.09 8.674.09l.152-.003.015 4.317h-.154l-8.225-.016c-.916-.055-2.435-.147-3.99-.776a9.744 9.744 0 0 1-3.763-3.014 9.36 9.36 0 0 1-1.89-5.655c0-.647.052-1.287.157-1.902.591-2.877 2.497-5.259 5.229-6.539.922-.402 2.345-.883 5.213-1.043l1.546-.032 5.733-.005h.152l.016 4.567-.153-.002z" filter="url(#a)" transform="translate(25 -166)"/>
</svg>
