<?xml version="1.0" encoding="UTF-8"?>
<svg width="124px" height="124px" viewBox="0 0 124 124" version="1.1" xmlns="http://www.w3.org/2000/svg" xmlns:xlink="http://www.w3.org/1999/xlink">
    <!-- Generator: Sketch 53.2 (72643) - https://sketchapp.com -->
    <title>Chanel</title>
    <desc>Created with Sketch.</desc>
    <defs>
        <rect id="path-1" x="0" y="0" width="124" height="124"></rect>
    </defs>
    <g stroke="none" stroke-width="1" fill="none" fill-rule="evenodd">
        <g>
            <g>
                <use fill-opacity="0.01" fill="#D8D8D8" fill-rule="evenodd" style="mix-blend-mode: screen;" xlink:href="#path-1"></use>
                <rect stroke-opacity="0" stroke="#979797" stroke-width="1" stroke-linejoin="square" x="0.5" y="0.5" width="123" height="123"></rect>
            </g>
            <g transform="translate(35.000000, 42.500000)" fill="#848484">
                <path d="M7.97353783,33.3570529 C7.96677124,33.3692149 7.95358424,33.3935389 7.9471009,33.4119267 C7.23251676,34.6539002 5.8294707,35.5 4.22817907,35.5 C1.90557763,35.5 0,33.709983 0,31.5 C0,29.302208 1.90557763,27.5 4.22817907,27.5 C5.83623729,27.5 7.24573523,28.3644876 7.95358424,29.6248489 C7.97353783,29.6491729 7.97998971,29.6613349 7.99997477,29.697821 C8.00674137,29.7040468 6.65011731,30.6049915 6.63689884,30.5868933 C6.63013224,30.5625692 6.62368037,30.5441814 6.6104619,30.5320194 C6.21982467,29.6370109 5.29377651,29.0403482 4.22817907,29.058736 C2.80547211,29.070898 1.63418987,30.1545047 1.63418987,31.5 C1.63418987,32.8576574 2.80547211,33.9537445 4.22817907,33.9537445 C5.26057297,33.9537445 6.16049893,33.3692149 6.57049177,32.5412133 C6.59047684,32.5106924 6.59724344,32.4863684 6.6104619,32.4620444 C6.6104619,32.4620444 7.97353783,33.3570529 7.97353783,33.3570529 Z"></path>
                <path d="M10,27.5 C10,27.5 11.5104344,27.5 11.5104344,27.5 C11.5104344,27.5 11.5104344,30.3755019 11.5104344,30.3755019 C11.5104344,30.3755019 15.4772997,30.3755019 15.4772997,30.3755019 C15.4772997,30.3755019 15.4772997,27.5 15.4772997,27.5 C15.4772997,27.5 17,27.5 17,27.5 C17,27.5 17,35.5 17,35.5 C17,35.5 15.4772997,35.5 15.4772997,35.5 C15.4772997,35.5 15.4772997,31.9855076 15.4772997,31.9855076 C15.4772997,31.9855076 11.5104344,31.9855076 11.5104344,31.9855076 C11.5104344,31.9855076 11.5104344,35.5 11.5104344,35.5 C11.5104344,35.5 10,35.5 10,35.5 C10,35.5 10,27.5 10,27.5 Z"></path>
                <path d="M40,35.5 C40,35.5 40,27.5 40,27.5 C40,27.5 45.4451856,27.5 45.4451856,27.5 C45.4451856,27.5 45.4451856,29.1161141 45.4451856,29.1161141 C45.4451856,29.1161141 41.5182715,29.1161141 41.5182715,29.1161141 C41.5182715,29.1161141 41.5182715,30.7136052 41.5182715,30.7136052 C41.5182715,30.7136052 45.1464617,30.7136052 45.1464617,30.7136052 C45.1464617,30.7136052 45.1464617,32.3111261 45.1464617,32.3111261 C45.1464617,32.3111261 41.5182715,32.3111261 41.5182715,32.3111261 C41.5182715,32.3111261 41.5182715,33.9086172 41.5182715,33.9086172 C41.5182715,33.9086172 46,33.9086172 46,33.9086172 C46,33.9086172 46,35.5 46,35.5 C46,35.5 40,35.5 40,35.5 Z"></path>
                <path d="M49,35.5 C49,35.5 49,27.5 49,27.5 C49,27.5 50.5888755,27.5 50.5888755,27.5 C50.5888755,27.5 50.5888755,33.9086172 50.5888755,33.9086172 C50.5888755,33.9086172 55,33.9086172 55,33.9086172 C55,33.9086172 55,35.5 55,35.5 C55,35.5 49,35.5 49,35.5 Z"></path>
                <path d="M30.7512703,35.5 C30.7512703,35.5 30.6952936,35.5 30.6952936,35.5 C30.6952936,35.5 29,35.5 29,35.5 C29,35.5 29,27.5 29,27.5 C29,27.5 29.1259475,27.5 29.1259475,27.5 C29.1259475,27.5 31.4306539,27.5 31.4306539,27.5 C31.4306539,27.5 35.2627239,32.3111261 35.2627239,32.3111261 C35.2627239,32.3111261 35.2627239,27.5 35.2627239,27.5 C35.2627239,27.5 37,27.5 37,27.5 C37,27.5 37,35.5 37,35.5 C37,35.5 35.6129113,35.5 35.6129113,35.5 C35.6129113,35.5 30.7512703,29.4670299 30.7512703,29.4670299 C30.7512703,29.4670299 30.7512703,35.5 30.7512703,35.5 Z"></path>
                <path d="M22.9932764,29.1161141 C22.9932764,29.1161141 21.5224381,32.3111261 21.5224381,32.3111261 C21.5224381,32.3111261 24.5317997,32.3111261 24.5317997,32.3111261 C24.5317997,32.3111261 22.9932764,29.1161141 22.9932764,29.1161141 Z M20.7664791,33.9086172 C20.7664791,33.9086172 19.9973619,35.5 19.9973619,35.5 C19.9973619,35.5 18,35.5 18,35.5 C18,35.5 21.8192374,27.5 21.8192374,27.5 C21.8192374,27.5 24.1538363,27.5 24.1538363,27.5 C24.1538363,27.5 28,35.5 28,35.5 C28,35.5 26.0026381,35.5 26.0026381,35.5 C26.0026381,35.5 25.2269417,33.9086172 25.2269417,33.9086172 C25.2269417,33.9086172 20.7664791,33.9086172 20.7664791,33.9086172 Z"></path>
                <path d="M28.5001194,24.8104786 C26.7932379,25.8701683 24.7512681,26.5 22.5756608,26.5 C18.1242381,26.5 14.2253532,23.8943597 12.1166044,20.0307652 C12.1166044,20.0128188 12.1002877,20.0128188 12.1002877,19.9948725 C12.1002877,19.9769261 12.0831752,19.9769261 12.0831752,19.9589798 C12.0831752,19.9589798 13.7901362,19.0069682 13.7901362,19.0069682 C13.7901362,19.0069682 15.4970177,18.0720484 15.4970177,18.0720484 C15.5141302,18.0908493 15.5312428,18.1079411 15.5475595,18.1446884 C17.0034032,20.6776887 19.6142274,22.3672101 22.5756608,22.3672101 C23.530225,22.3672101 24.4504844,22.1877465 25.2705357,21.8997502 C23.4462539,19.6538917 22.3417357,16.7072706 22.3417357,13.4905995 C22.3417357,10.2927294 23.4299373,7.34610834 25.2371065,5.08144886 C24.4170552,4.77636077 23.5131124,4.61484354 22.5756608,4.61484354 C19.6476567,4.61484354 16.9365447,6.30351039 15.4472718,9.01682882 C15.4301592,9.03477518 15.4301592,9.05357612 15.4301592,9.07066789 C15.4301592,9.07066789 12,7.16664475 12,7.16664475 C12.0163167,7.13075204 12.0334292,7.09485932 12.0497459,7.07605837 C14.142178,3.141533 18.0908089,0.5 22.5756608,0.5 C24.7512681,0.5 26.7932379,1.12897712 28.5001194,2.20746779 C30.2070008,1.12897712 32.2489707,0.5 34.423782,0.5 C38.9087136,0.5 42.8581404,3.141533 44.9498561,7.07605837 C44.9665708,7.09485932 44.9832854,7.13075204 45,7.16664475 C45,7.16664475 41.5695225,9.07066789 41.5695225,9.07066789 C41.5695225,9.05357612 41.5695225,9.03477518 41.5528078,9.01682882 C40.0636145,6.30351039 37.3526617,4.61484354 34.423782,4.61484354 C33.4871264,4.61484354 32.5831836,4.77636077 31.7631323,5.08144886 C33.5703015,7.34610834 34.6585031,10.2927294 34.6585031,13.4905995 C34.6585031,16.7072706 33.5539849,19.6538917 31.7297031,21.8997502 C32.5497543,22.1877465 33.4700138,22.3672101 34.423782,22.3672101 C37.3860909,22.3672101 39.996756,20.6776887 41.4525201,18.1446884 C41.4692347,18.1079411 41.4859493,18.0908493 41.502664,18.0720484 C41.502664,18.0720484 43.2091475,19.0069682 43.2091475,19.0069682 C43.2091475,19.0069682 44.9164269,19.9589798 44.9164269,19.9589798 C44.9164269,19.9769261 44.8997123,19.9769261 44.8997123,19.9948725 C44.8997123,20.0128188 44.8829976,20.0128188 44.8829976,20.0307652 C42.7745672,23.8943597 38.8752843,26.5 34.423782,26.5 C32.2489707,26.5 30.2070008,25.8701683 28.5001194,24.8104786 Z M28.5001194,19.6538917 C27.0940216,18.0549566 26.1907951,15.8808835 26.1907951,13.4905995 C26.1907951,11.1370628 27.0442757,8.99888246 28.5001194,7.39994741 C29.9559631,8.99888246 30.8094436,11.1370628 30.8094436,13.4905995 C30.8094436,15.8808835 29.9054213,18.0549566 28.5001194,19.6538917 Z"></path>
            </g>
        </g>
    </g>
</svg>