<svg width="83" height="83" viewBox="0 0 83 83" fill="none" xmlns="http://www.w3.org/2000/svg">
<path fill-rule="evenodd" clip-rule="evenodd" d="M27.4779 31.7584C22.3571 31.7584 18.191 36.0289 18.191 41.2774C18.191 46.5273 22.3571 50.7964 27.4779 50.7964C30.3538 50.7964 32.9282 49.4493 34.633 47.3386H33.252C31.7593 48.8313 29.7235 49.7573 27.4779 49.7573C22.9159 49.7573 19.205 45.9532 19.205 41.2774C19.205 36.6015 22.9159 32.7975 27.4779 32.7975C29.7235 32.7975 31.76 33.7227 33.252 35.2162H34.633C32.9282 33.1054 30.3538 31.7584 27.4779 31.7584Z" fill="#848484"/>
<path fill-rule="evenodd" clip-rule="evenodd" d="M27.6881 27C19.589 27 13 33.5025 13 41.4949C13 49.4873 19.589 55.9898 27.6881 55.9898C33.6808 55.9898 38.842 52.4295 41.1244 47.3411H39.9922C38.8615 49.6389 37.1091 51.5734 34.934 52.925C32.7588 54.2766 30.2483 54.9911 27.6874 54.9874C20.1494 54.9874 14.0168 48.9349 14.0168 41.4949C14.0168 34.0556 20.1501 28.0024 27.6896 28.0024C30.2501 27.999 32.7602 28.7137 34.9349 30.0653C37.1096 31.4169 38.8617 33.3512 39.9922 35.6486H41.1244C38.842 30.561 33.6801 27 27.6881 27ZM46.3166 45.1727H47.6146V37.8171H46.3166V45.1727ZM51.9415 44.74H58.4317V43.7427H52.9431V41.6853H57.6341V40.6872H52.9431V38.8137H58.4317V37.8171H51.9415V44.74ZM69.2488 38.8692V37.8171H62.7585V45.1727H63.7746V42.1958H68.3221V41.1437H63.7746V38.8699L69.2488 38.8692Z" fill="#848484"/>
<path fill-rule="evenodd" clip-rule="evenodd" d="M40.5417 40.9038H35.6582V37.8181H34.6385V45.1737H35.6582V41.9249H40.5417V45.1737H41.5614V37.8181H40.5417V40.9038ZM30.3852 43.4098C29.8033 44.115 28.9501 44.5722 27.9874 44.5722C26.2394 44.5722 24.8166 43.0954 24.8166 41.2802C24.8166 39.4637 26.2394 37.9868 27.9874 37.9868C28.9321 37.9868 29.773 38.4267 30.3542 39.1118H31.5873C30.864 37.8231 29.5235 36.9527 27.9874 36.9527C25.6906 36.9527 23.8214 38.894 23.8214 41.2795C23.8214 43.6658 25.6906 45.6064 27.9874 45.6064C29.5386 45.6064 30.8929 44.7194 31.6097 43.4098H30.3852V43.4098Z" fill="#848484"/>
</svg>
