<svg id="Layer_1" fill="white" data-name="Layer 1" xmlns="http://www.w3.org/2000/svg" viewBox="0 0 12 12"><defs></defs><title>Artboard 1</title><path id="a" class="cls-1" d="M7.25,6l4.06,4.06a.48.48,0,0,1,.1.28.32.32,0,0,1-.1.25l-.72.72a.32.32,0,0,1-.25.1.48.48,0,0,1-.28-.1L6,7.25,1.94,11.31a.48.48,0,0,1-.28.1.32.32,0,0,1-.25-.1l-.72-.72a.32.32,0,0,1-.1-.25.44.44,0,0,1,.1-.28L4.75,6,.69,1.94a.48.48,0,0,1-.1-.28.3.3,0,0,1,.1-.25L1.41.69a.32.32,0,0,1,.25-.1.44.44,0,0,1,.28.1L6,4.75,10.06.69a.48.48,0,0,1,.28-.1.34.34,0,0,1,.25.1l.72.72a.32.32,0,0,1,.1.25.48.48,0,0,1-.1.28Z"/></svg>
