<?xml version="1.0" encoding="UTF-8"?>
<svg width="188px" height="198px" viewBox="0 0 188 198" version="1.1" xmlns="http://www.w3.org/2000/svg" xmlns:xlink="http://www.w3.org/1999/xlink">
    <!-- Generator: Sketch 51.1 (57501) - http://www.bohemiancoding.com/sketch -->
    <title>consulting-icon</title>
    <desc>Created with Sketch.</desc>
    <defs></defs>
    <g stroke="none" stroke-width="1" fill="none" fill-rule="evenodd">
        <g transform="translate(3.000000, 29.000000)">
            <g>
                <g transform="translate(0.000000, 36.704000)">
                    <path d="M72.9403587,32.1264685 C72.9403587,15.6782245 60.2415848,0 35.7819055,0 C11.3222263,0 0.144027031,13.9419817 0.144027031,32.1264685 C0.144027031,37.7169091 1.41292341,43.9467963 3.95071616,50.81613 L8.67565359,49.5522898 C7.52798177,36.5784976 8.41017266,29.3103628 11.3222263,27.7478854 C18.3394351,23.9827656 28.0588238,29.3257271 37.0985071,29.3206108 C42.5434705,29.317529 48.7255928,26.6286824 55.644874,21.254071 C55.9523747,29.5165276 57.6700208,35.4293867 60.7978121,38.9926482 C62.2157926,40.5007016 63.3085981,44.0205821 64.0762285,49.5522898 L69.7255782,50.81613 C71.8687652,47.7456426 72.9403587,41.5157554 72.9403587,32.1264685 Z"></path>
                    <path d="M62.5405479,59.4986338 L61.4954051,72.1135774 C59.585896,88.7978575 47.9051263,100.192 36.0105986,100.192 C35.7268325,100.192 35.4430664,100.185218 35.1596115,100.17227" stroke="#000000" stroke-width="3"></path>
                    <path d="M62.5405479,59.4986338 L61.4954051,72.1135774 C59.585896,88.7978575 47.9051263,100.192 36.0105986,100.192 C35.7268325,100.192 35.4430664,100.185218 35.1596115,100.17227" stroke="#000000" stroke-width="3"></path>
                    <path d="M56.6287548,30.2117415 C58.7610452,39.3054757 63.7851359,39.7894802 63.7851359,48.8733493 L62.9201473,59.1903508 M55.6953138,21.5798154 C55.7348295,25.3072661 56.0892259,28.193104 56.6287548,30.5200246" stroke="#000000" stroke-width="0.550000012"></path>
                    <path d="M8.413415,41.3099323 C8.2889562,34.3162224 9.00708349,26.9716864 14.5305651,26.6408987 C21.3064134,26.2351981 43.3770039,35.2648095 55.6953138,20.6549662" stroke="#000000" stroke-width="3"></path>
                    <path d="M8.413415,41.3099323 C8.2889562,34.3162224 9.00708349,26.9716864 14.5305651,26.6408987 C21.3064134,26.2351981 43.3770039,35.2648095 55.6953138,20.6549662" stroke="#000000" stroke-width="0.550000012"></path>
                    <path d="M9.33441014,55.7992369 C9.08518139,52.5437676 8.80048188,49.2889149 8.58610159,46.0312876 C8.48248964,44.4605854 8.43052809,42.8831008 8.40096912,41.3099323 M10.8901452,74.2962215 C10.3655513,70.8252624 10.1564605,67.3163844 9.95670414,63.8145969 M35.1596115,99.8837169 C25.7106993,99.7264926 17.7450248,92.5592193 14.0016152,84.7778462" stroke="#000000" stroke-width="0.550000012"></path>
                    <path d="M8.927741,49.683209 C8.927741,49.683209 2.69733338,48.6689576 2.28661934,55.8035529 C1.87590529,62.9381481 2.23683582,72.7227447 10.5789982,72.1108028 M70.319223,59.4986338 C70.2252566,65.6581297 68.733929,71.9862564 61.9182539,71.4948532" stroke="#000000" stroke-width="0.550000012"></path>
                    <path d="M63.4739889,49.0663345 C63.4739889,49.0663345 69.7924511,48.0631814 70.209077,55.1210142 C70.2856191,56.4154948 70.3357138,57.7984527 70.3142447,59.1903508" stroke="#000000" stroke-width="3"></path>
                    <path d="M63.4739889,49.0663345 C63.4739889,49.0663345 69.7924511,48.0631814 70.209077,55.1210142 C70.2856191,56.4154948 70.3357138,57.7984527 70.3142447,59.1903508" stroke="#000000" stroke-width="0.550000012"></path>
                    <path d="M72.7458585,27.1289108 C73.4832769,35.4371397 73.4832769,44.270683 69.385782,51.7915569 M35.1596115,0.0123313231 C44.9734992,-0.217339569 54.9435826,2.75759212 62.5405479,8.94020923" stroke="#000000" stroke-width="0.550000012"></path>
                    <path d="M0,28.3620431 C0.603625189,20.5069903 3.72536309,12.268125 12.4443244,6.61020574 C19.4466878,2.06611318 27.3989829,0.0517915569 35.1596115,0" stroke="#000000" stroke-width="3"></path>
                    <path d="M4.04491106,51.1749908 C4.04491106,51.1749908 -0.804626154,40.2028878 0.11636898,28.3620431" stroke="#000000" stroke-width="0.550000012"></path>
                    <path d="M35.7606103,63.6604554 L35.7606103,53.8165846" stroke="#000000" stroke-width="0.550000012"></path>
                    <path d="M23.8810718,44.4963269 C23.6405099,44.3584624 23.3439885,44.3582274 23.1032043,44.4957103 C22.86242,44.6331932 22.7139539,44.8875071 22.7137316,45.1628545 C22.7133879,45.5885046 23.0613724,45.9338382 23.4909768,45.9341787 C23.9205812,45.9345193 24.2691229,45.5897377 24.2694666,45.1640876 C24.2696889,44.8887403 24.1216337,44.6341913 23.8810718,44.4963269 Z" fill="#000000"></path>
                    <path d="M48.4616851,44.4963269 C48.2211233,44.3584624 47.9246018,44.3582274 47.6838176,44.4957103 C47.4430334,44.6331932 47.2945673,44.8875071 47.2943449,45.1628545 C47.2940013,45.5885046 47.6419858,45.9338382 48.0715902,45.9341787 C48.5011945,45.9345193 48.8497363,45.5897377 48.85008,45.1640876 C48.8503023,44.8887403 48.702247,44.6341913 48.4616851,44.4963269 Z" stroke="#000000" stroke-width="0.550000012"></path>
                </g>
                <g transform="translate(81.566029, 0.000000)">
                    <path d="M71.3513587,59.4986338 L70.3062159,72.1135774 C68.3967068,88.7978575 56.7159371,100.192 44.8214094,100.192 C44.5376433,100.192 44.2538772,100.185218 43.9704223,100.17227" stroke="#000000" stroke-width="3"></path>
                    <path d="M71.3513587,59.4986338 L70.3062159,72.1135774 C68.3967068,88.7978575 56.7159371,100.192 44.8214094,100.192 C44.5376433,100.192 44.2538772,100.185218 43.9704223,100.17227" stroke="#000000" stroke-width="3"></path>
                    <path d="M65.4395656,30.2117415 C67.5718561,39.3054757 72.5959467,39.7894802 72.5959467,48.8733493 L71.7309581,59.1903508 M64.5061246,21.5798154 C64.5456403,25.3072661 64.9000367,28.193104 65.4395656,30.5200246" stroke="#000000" stroke-width="0.550000012"></path>
                    <path d="M17.2242258,41.3099323 C17.099767,34.3162224 17.8178943,26.9716864 23.3413759,26.6408987 C30.1172242,26.2351981 52.1878147,35.2648095 64.5061246,20.6549662" stroke="#000000" stroke-width="3"></path>
                    <path d="M17.2242258,41.3099323 C17.099767,34.3162224 17.8178943,26.9716864 23.3413759,26.6408987 C30.1172242,26.2351981 52.1878147,35.2648095 64.5061246,20.6549662" stroke="#000000" stroke-width="0.550000012"></path>
                    <path d="M18.1452209,55.7992369 C17.8959922,52.5437676 17.6112927,49.2889149 17.3969124,46.0312876 C17.2933004,44.4605854 17.2413389,42.8831008 17.2117799,41.3099323 M19.700956,74.2962215 C19.1763621,70.8252624 18.9672713,67.3163844 18.767515,63.8145969 M43.9704223,99.8837169 C34.5215101,99.7264926 26.5558356,92.5592193 22.812426,84.7778462" stroke="#000000" stroke-width="0.550000012"></path>
                    <path d="M17.7385518,49.683209 C17.7385518,49.683209 11.5081442,48.6689576 11.0974301,55.8035529 C10.6867161,62.9381481 11.0476466,72.7227447 19.389809,72.1108028 M79.1300338,59.4986338 C79.0360674,65.6581297 77.5447398,71.9862564 70.7290647,71.4948532" stroke="#000000" stroke-width="0.550000012"></path>
                    <path d="M72.2847997,49.0663345 C72.2847997,49.0663345 78.603262,48.0631814 79.0198878,55.1210142 C79.09643,56.4154948 79.1465246,57.7984527 79.1250555,59.1903508" stroke="#000000" stroke-width="3"></path>
                    <path d="M72.2847997,49.0663345 C72.2847997,49.0663345 78.603262,48.0631814 79.0198878,55.1210142 C79.09643,56.4154948 79.1465246,57.7984527 79.1250555,59.1903508" stroke="#000000" stroke-width="0.550000012"></path>
                    <path d="M90.7990146,49.7325769 C91.717762,64.963175 91.717762,81.1567765 86.6127054,94.944 M43.9704223,0.0226171761 C56.1975155,-0.398414202 68.6192126,5.05521371 78.0842488,16.3891523" stroke="#000000" stroke-width="0.550000012"></path>
                    <path d="M8.81081081,28.3620431 C9.414436,20.5069903 12.5361739,12.268125 21.2551353,6.61020574 C28.2574986,2.06611318 36.2097937,0.0517915569 43.9704223,0" stroke="#000000" stroke-width="3"></path>
                    <path d="M8.81081081,28.3620431 C9.414436,20.5069903 12.5361739,12.268125 21.2551353,6.61020574 C28.2574986,2.06611318 36.2097937,0.0517915569 43.9704223,0" stroke="#000000" stroke-width="0.550000012"></path>
                    <path d="M8.81083707,90 C8.81083707,90 -0.888300318,60.3546416 0.953701906,28.3620431" stroke="#000000" stroke-width="0.550000012" transform="translate(4.765926, 59.181022) scale(-1, 1) translate(-4.765926, -59.181022) "></path>
                    <path d="M44.5714212,63.6604554 L44.5714212,53.8165846" stroke="#000000" stroke-width="0.550000012"></path>
                    <path d="M32.6918826,44.4963269 C32.4513207,44.3584624 32.1547993,44.3582274 31.9140151,44.4957103 C31.6732309,44.6331932 31.5247647,44.8875071 31.5245424,45.1628545 C31.5241987,45.5885046 31.8721832,45.9338382 32.3017876,45.9341787 C32.731392,45.9345193 33.0799337,45.5897377 33.0802774,45.1640876 C33.0804998,44.8887403 32.9324445,44.6341913 32.6918826,44.4963269 Z" fill="#000000"></path>
                    <path d="M57.272496,44.4963269 C57.0319341,44.3584624 56.7354126,44.3582274 56.4946284,44.4957103 C56.2538442,44.6331932 56.1053781,44.8875071 56.1051558,45.1628545 C56.1048121,45.5885046 56.4527966,45.9338382 56.882401,45.9341787 C57.3120053,45.9345193 57.6605471,45.5897377 57.6608908,45.1640876 C57.6611131,44.8887403 57.5130578,44.6341913 57.272496,44.4963269 Z" stroke="#000000" stroke-width="0.550000012"></path>
                </g>
            </g>
            <g transform="translate(32.746120, 82.336000)" stroke="#000000" stroke-width="0.989999995">
                <g transform="translate(0.000000, 37.696000)" stroke-linecap="square">
                    <path d="M4.99224988,0.961292929 L0.969800643,4.98249906"></path>
                    <path d="M4.99224988,0.961292929 L0.969800643,4.98249906" transform="translate(2.976920, 2.976000) scale(1, -1) translate(-2.976920, -2.976000) "></path>
                </g>
                <ellipse cx="93.3460664" cy="2.976" rx="2.97691999" ry="2.976"></ellipse>
                <path d="M8.32801119,40.4191563 C35.3644916,40.3506979 48.8827318,34.1402031 48.8827318,21.7876719 C48.8827318,9.43514063 61.6477239,3.08011458 87.1777082,2.72259375" stroke-dasharray="1.979999990463256,4.950000107288361"></path>
            </g>
        </g>
    </g>
</svg>