<svg class="svg-animate full" viewBox="0 0 364 330" xmlns="http://www.w3.org/2000/svg">
<g stroke="#84FFDD" fill="none" fill-rule="evenodd">
<path d="M121.169 243.29a2.97 2.97 0 0 0 2.963 2.98 2.97 2.97 0 0 0 2.967-2.975 2.97 2.97 0 0 0-2.963-2.979 2.97 2.97 0 0 0-2.967 2.974zM61.061 6.974a2.972 2.972 0 0 0 2.963 2.98 2.972 2.972 0 0 0 2.968-2.976A2.972 2.972 0 0 0 64.03 4a2.972 2.972 0 0 0-2.968 2.975zM121.212 182.821a2.97 2.97 0 0 0 2.963 2.98 2.972 2.972 0 0 0 2.968-2.976 2.971 2.971 0 0 0-2.963-2.978 2.97 2.97 0 0 0-2.968 2.974zM1.052 122.265a2.97 2.97 0 0 0 2.963 2.979 2.97 2.97 0 0 0 2.967-2.975 2.97 2.97 0 0 0-2.963-2.978 2.97 2.97 0 0 0-2.967 2.974zM63.894 329.551l3.115-5.407-6.222-.005zM3.971 186.562l3.115-5.407-6.222-.005zM124.218 126.264l3.114-5.407-6.221-.004zM64.048 119.605l-3.115 5.408 6.222.004zM4.062 59.093L.947 64.5l6.222.004zM1.234 246.81l5.39.005.003-5.41-5.389-.004zM121.567 64.587l5.39.004.003-5.41-5.389-.004zM61.244 185.483l5.389.004.004-5.41-5.39-.004z"></path>
<path d="M139.038 167.926l-29.701-.021-.022 29.816 29.702.022zM190.622 62.43a2.97 2.97 0 0 0-2.962-2.98 2.972 2.972 0 0 0-2.968 2.975 2.972 2.972 0 0 0 2.963 2.98 2.97 2.97 0 0 0 2.967-2.976zM250.73 243.881a2.971 2.971 0 0 0-2.964-2.979 2.972 2.972 0 0 0-2.967 2.975 2.97 2.97 0 0 0 2.963 2.98 2.97 2.97 0 0 0 2.967-2.976zM190.579 122.9a2.97 2.97 0 0 0-2.963-2.98 2.97 2.97 0 0 0-2.967 2.975 2.97 2.97 0 0 0 2.963 2.978 2.97 2.97 0 0 0 2.967-2.974zM310.738 183.455a2.97 2.97 0 0 0-2.963-2.979 2.971 2.971 0 0 0-2.967 2.975 2.97 2.97 0 0 0 2.963 2.978 2.97 2.97 0 0 0 2.967-2.974zM247.896 58.865l-3.115 5.407 6.222.005zM307.82 119.158l-3.116 5.407 6.222.005zM187.574 179.456l-3.115 5.408 6.222.004zM247.743 186.115l3.115-5.407-6.222-.005zM307.728 246.627l3.115-5.407-6.222-.005zM310.557 58.91l-5.39-.004-.004 5.41 5.39.003zM190.224 241.133l-5.39-.004-.004 5.41 5.39.004zM250.547 120.238l-5.39-.004-.003 5.41 5.389.004z"></path>
<path d="M232.903 258.777l29.701.02.022-29.815-29.702-.021zM121.537 114.884c10.942.008 21.148-3.153 29.747-8.618"></path>
<path class="animate-stroke o200" stroke-width="8" d="M67.52 46.922c-5.962 25.859 7.83 53.044 32.215 63.497a55.53 55.53 0 0 0 21.802 4.465M163.06 22.593C145.67.818 113.67-1.182 90.882 13.206"></path>
<path d="M151.284 106.266c15.474-9.832 25.747-27.12 25.762-46.81.009-14.147-5.277-27.06-13.986-36.864"></path>
<path class="animate-stroke o200" stroke-width="8" d="M253.56 97.086l-7.33 12.674 30.106.021"></path>
<path d="M292.72 29.371l-39.16 67.715"></path>
<path class="animate-stroke o200" stroke-width="8" d="M315.091 27.349L304.507 8.987 292.72 29.371M336.465 64.43L327.5 48.876"></path>
<path d="M304.435 109.802l58.205.042-26.176-45.415M276.337 109.782l28.099.02"></path>
<path class="animate-stroke o200" stroke-width="8" d="M145.67 283.05l26.278.018.036-50.444"></path>
<path d="M117.67 283.029l28 .02"></path>
<path class="animate-stroke o200" stroke-width="8" d="M71.162 242.484l-.03 40.512 46.539.033"></path>
<path d="M71.181 215.15l-.02 27.334M171.984 232.624l.036-50.37-100.814-.074-.025 32.97"></path>
</g>
</svg>
