<?xml version="1.0" encoding="UTF-8"?>
<svg width="153px" height="20px" viewBox="0 0 153 20" version="1.1" xmlns="http://www.w3.org/2000/svg" xmlns:xlink="http://www.w3.org/1999/xlink">
    <!-- Generator: Sketch 49.3 (51167) - http://www.bohemiancoding.com/sketch -->
    <title>Group 17</title>
    <desc>Created with Sketch.</desc>
    <defs></defs>
    <g stroke="none" stroke-width="1" fill="none" fill-rule="evenodd">
        <g fill="#0828CC" fill-rule="nonzero">
            <g>
                <path d="M1.507,18.564 L9.493,18.564 L9.493,10.24 C9.493,8.142 7.703,6.436 5.5,6.436 C3.298,6.436 1.507,8.142 1.507,10.239 L1.507,18.563 L1.507,18.564 Z M11,20 L0,20 L0,10.24 C0,7.35 2.468,5 5.5,5 C8.533,5 11,7.35 11,10.24 L11,20 Z"></path>
                <path d="M10.507,18.564 L18.493,18.564 L18.493,10.24 C18.493,8.142 16.703,6.436 14.5,6.436 C12.298,6.436 10.507,8.142 10.507,10.239 L10.507,18.563 L10.507,18.564 Z M20,20 L9,20 L9,10.24 C9,7.35 11.467,5 14.5,5 C17.533,5 20,7.35 20,10.24 L20,20 Z"></path>
                <path d="M10,1.47 C5.297,1.47 1.47,5.297 1.47,10 C1.47,14.703 5.297,18.53 10,18.53 C14.703,18.53 18.53,14.703 18.53,10 C18.53,5.297 14.703,1.47 10,1.47 M10,20 C4.486,20 0,15.514 0,10 C0,4.486 4.486,0 10,0 C15.514,0 20,4.486 20,10 C20,15.514 15.514,20 10,20"></path>
                <path d="M7,10.5 C7,11.328 6.328,12 5.5,12 C4.672,12 4,11.328 4,10.5 C4,9.672 4.672,9 5.5,9 C6.328,9 7,9.672 7,10.5 M16,10.5 C16,11.328 15.33,12 14.5,12 C13.672,12 13,11.328 13,10.5 C13,9.672 13.672,9 14.5,9 C15.33,9 16,9.672 16,10.5"></path>
            </g>
            <g transform="translate(31.000000, 5.000000)">
                <path d="M5.5,9.8 C6,9.6 6.4,9.3 6.7,8.9 C7,8.6 7.2,8.1 7.4,7.6 C7.5,7.1 7.6,6.6 7.6,6 C7.6,4.7 7.3,3.8 6.8,3 C6.3,2.2 5.4,1.9 4.1,1.9 L1.9,1.9 L1.9,10.1 L3.8,10.1 C4.5,10.1 5,10 5.5,9.8 Z M4.1,0.3 C4.9,0.3 5.7,0.4 6.4,0.6 C7.1,0.8 7.6,1.2 8.1,1.6 C8.6,2.1 8.9,2.7 9.2,3.4 C9.5,4.1 9.6,5 9.6,5.9 C9.6,6.8 9.5,7.7 9.2,8.4 C8.9,9.2 8.5,9.8 8,10.2 C7.5,10.7 6.9,11.1 6.2,11.3 C5.5,11.5 4.7,11.7 3.8,11.7 L0,11.7 L0,0.3 L4.1,0.3 Z M17.7,11.2 C17.1,11.7 16.3,11.9 15.2,11.9 C13.9,11.9 12.9,11.5 12.2,10.8 C11.5,10 11.2,9 11.2,7.6 C11.2,6.9 11.3,6.3 11.5,5.7 C11.7,5.1 12,4.7 12.3,4.3 C12.7,3.9 13.1,3.6 13.6,3.4 C14.1,3.2 14.6,3.1 15.2,3.1 C15.8,3.1 16.4,3.2 16.9,3.4 C17.4,3.6 17.8,3.9 18.1,4.2 C18.4,4.6 18.6,5 18.8,5.5 C18.9,6 19,6.5 19,7.2 L19,8 L13,8 C13,8.8 13.2,9.4 13.6,9.8 C14,10.3 14.5,10.5 15.2,10.5 C15.8,10.5 16.2,10.4 16.5,10.2 C16.8,10 17,9.7 17.1,9.2 L18.8,9.2 C18.7,10.1 18.3,10.7 17.7,11.2 Z M17.2,6.7 C17.2,6 17,5.5 16.7,5.1 C16.4,4.7 15.9,4.5 15.2,4.5 C14.5,4.5 14,4.7 13.7,5.1 C13.3,5.5 13.1,6 13.1,6.7 L17.2,6.7 Z M22,9.2 C22,9.5 22.1,9.7 22.2,9.9 C22.3,10.1 22.5,10.2 22.6,10.3 C22.8,10.4 23,10.5 23.2,10.5 C23.4,10.5 23.7,10.6 24,10.6 C24.6,10.6 25,10.5 25.3,10.3 C25.6,10.1 25.7,9.9 25.7,9.5 C25.7,9.2 25.6,9 25.5,8.8 C25.4,8.6 25,8.5 24.5,8.4 C23.8,8.3 23.3,8.2 22.8,8.1 C22.3,8 21.9,7.8 21.5,7.7 C21.2,7.5 20.9,7.3 20.7,7 C20.5,6.7 20.4,6.3 20.4,5.8 C20.4,5.4 20.5,5.1 20.7,4.8 C20.9,4.5 21.1,4.2 21.4,4 C21.7,3.8 22.1,3.6 22.5,3.5 C22.9,3.4 23.4,3.3 23.9,3.3 C24.5,3.3 25.1,3.4 25.5,3.5 C25.9,3.6 26.3,3.8 26.5,4 C26.8,4.2 27,4.5 27.1,4.8 L27.4,5.7 L25.8,5.9 C25.7,5.5 25.5,5.2 25.2,5 C24.9,4.8 24.5,4.7 23.9,4.7 C23.5,4.7 23.3,4.7 23,4.8 C22.8,4.9 22.6,4.9 22.5,5 L22.2,5.3 C22.1,5.4 22.1,5.5 22.1,5.7 C22.1,5.9 22.1,6 22.2,6.1 C22.2,6.2 22.3,6.3 22.4,6.4 C22.5,6.5 22.7,6.5 22.9,6.6 C23.1,6.7 23.3,6.7 23.6,6.8 L24.6,7 C25.2,7.1 25.6,7.2 26,7.4 C26.4,7.6 26.7,7.7 26.9,8 C27.1,8.3 27.3,8.5 27.4,8.8 C27.5,9.1 27.5,9.4 27.5,9.8 C27.5,10.6 27.2,11.2 26.6,11.6 C26.1,11.7 25.2,12 24,12 C23.5,12 23.1,12 22.6,11.9 C22.2,11.8 21.8,11.7 21.4,11.4 C21,11.2 20.8,10.9 20.5,10.5 C20.3,10.1 20.2,9.7 20.1,9.1 L22,9.1 L22,9.2 Z M31.1,0.3 L31.1,2.1 L29.2,2.1 L29.2,0.3 L31.1,0.3 Z M31,3.4 L31,11.7 L29.2,11.7 L29.2,3.4 L31,3.4 Z M35,12.4 C35.1,12.8 35.3,13.2 35.6,13.3 C35.9,13.4 36.3,13.6 37,13.6 C37.5,13.6 37.9,13.5 38.2,13.3 C38.5,13.1 38.7,12.8 38.8,12.4 C38.9,12 39,11.5 39,10.8 L39,10.2 C38.7,10.6 38.3,11 37.9,11.2 C37.5,11.4 36.9,11.5 36.4,11.5 C35.3,11.5 34.4,11.1 33.8,10.4 C33.2,9.7 32.9,8.6 32.9,7.3 C32.9,6 33.2,5 33.9,4.2 C34.6,3.4 35.4,3 36.6,3 C37.6,3 38.5,3.4 39.1,4.3 L39.1,3.3 L40.9,3.3 L40.9,10.4 C40.9,12 40.6,13.2 40,13.9 C39.4,14.6 38.3,15 37,15 C35.8,15 34.9,14.8 34.3,14.4 C33.7,14 33.3,13.3 33.2,12.4 L35,12.4 Z M39,7.2 C39,6.3 38.8,5.7 38.5,5.2 C38.2,4.7 37.6,4.5 36.9,4.5 C36.2,4.5 35.7,4.7 35.3,5.2 C34.9,5.7 34.7,6.3 34.7,7.2 C34.7,8.1 34.9,8.7 35.2,9.2 C35.6,9.7 36.1,9.9 36.7,9.9 C37.4,9.9 38,9.7 38.3,9.2 C38.6,8.7 39,8.3 39,7.5 L39,7.2 Z M44.6,3.4 L44.6,4.6 C45,4.1 45.4,3.7 45.9,3.5 C46.4,3.3 46.9,3.1 47.4,3.1 C49.3,3.1 50.2,4.1 50.2,6.2 L50.2,11.7 L48.4,11.7 L48.4,6.5 C48.4,5.8 48.3,5.4 48,5.1 C47.7,4.8 47.4,4.7 46.9,4.7 C46.6,4.7 46.3,4.8 46,4.9 C45.7,5 45.5,5.2 45.3,5.4 C45.1,5.6 45,5.7 44.9,6 C44.8,6.3 44.7,6.5 44.7,6.8 L44.7,11.8 L42.9,11.8 L42.9,3.4 L44.6,3.4 Z M52.4,0.3 L56.4,0.3 C57.2,0.3 57.9,0.4 58.4,0.5 C58.9,0.7 59.4,0.9 59.7,1.1 C60,1.3 60.2,1.7 60.3,2.1 C60.4,2.5 60.5,2.9 60.5,3.3 C60.5,3.8 60.4,4.2 60.2,4.6 C60,5 59.6,5.3 59,5.6 C59.4,5.8 59.7,5.9 59.9,6.1 L60.5,6.7 C60.7,6.9 60.7,7.2 60.8,7.4 C60.9,7.7 60.9,7.9 60.9,8.2 C60.9,8.7 60.8,9.1 60.7,9.5 C60.6,9.9 60.3,10.3 60,10.6 C59.7,10.9 59.2,11.1 58.7,11.3 C58.2,11.5 57.5,11.6 56.7,11.6 L52.5,11.6 L52.5,0.3 L52.4,0.3 Z M56.5,5 C57.3,5 57.8,4.9 58.1,4.6 C58.4,4.3 58.5,3.9 58.5,3.4 C58.5,2.9 58.3,2.5 58,2.2 C57.7,1.9 57.1,1.8 56.2,1.8 L54.2,1.8 L54.2,5 L56.5,5 Z M57.6,10.1 C57.9,10 58.1,9.9 58.3,9.7 C58.5,9.5 58.6,9.3 58.7,9.1 C58.8,8.9 58.8,8.6 58.8,8.3 C58.8,7.7 58.6,7.3 58.3,7 C58,6.7 57.4,6.5 56.6,6.5 L54.1,6.5 L54.1,10.171875 L56.5,10.171875 C57.0333333,10.190625 57.4,10.1666667 57.6,10.1 Z M68.7,11.2 C68.1,11.7 67.3,11.9 66.2,11.9 C64.9,11.9 63.9,11.5 63.2,10.8 C62.5,10.1 62.2,9 62.2,7.6 C62.2,6.9 62.3,6.3 62.5,5.7 C62.7,5.1 63,4.7 63.3,4.3 C63.7,3.9 64.1,3.6 64.6,3.4 C65.1,3.2 65.6,3.1 66.2,3.1 C66.8,3.1 67.4,3.2 67.9,3.4 C68.4,3.6 68.8,3.9 69.1,4.2 C69.4,4.6 69.6,5 69.8,5.5 C69.9,6 70,6.5 70,7.2 L70,8 L64,8 C64,8.8 64.2,9.4 64.6,9.8 C65,10.3 65.5,10.5 66.2,10.5 C66.8,10.5 67.2,10.4 67.5,10.2 C67.8,10 68,9.7 68.1,9.2 L69.8,9.2 C69.7,10.1 69.3,10.7 68.7,11.2 Z M68.1,6.7 C68.1,6 67.9,5.5 67.6,5.1 C67.3,4.7 66.8,4.5 66.1,4.5 C65.4,4.5 64.9,4.7 64.6,5.1 C64.2,5.5 64,6.1 64,6.7 L68.1,6.7 Z M70.9,3.4 L72.2,3.4 L72.2,1.2 L74,1.2 L74,3.4 L76.1,3.4 L76.1,4.8 L74,4.8 L74,9.2 C74,9.6 74.1,9.9 74.3,10.1 C74.5,10.3 74.7,10.4 75.1,10.4 L75.6,10.4 C75.7,10.4 75.9,10.3 76.1,10.3 L76.4,11.7 C75.9,11.9 75.3,12 74.7,12 C73.8,12 73.1,11.8 72.8,11.3 C72.4,10.8 72.3,10.1 72.3,9.2 L72.3,4.8 L70.9,4.8 L70.9,3.4 Z M76.7,4.8 L76.7,3.4 L78,3.4 L78,1.2 L79.8,1.2 L79.8,3.4 L81.9,3.4 L81.9,4.8 L79.8,4.8 L79.8,9.2 C79.8,9.6 79.9,9.9 80.1,10.1 C80.3,10.3 80.5,10.4 80.9,10.4 L81.4,10.4 C81.5,10.4 81.7,10.3 81.9,10.3 L82.2,11.7 C81.7,11.9 81.1,12 80.5,12 C79.6,12 78.9,11.8 78.6,11.3 C78.2,10.7 78,10 78,9 L78,4.8 L76.7,4.8 Z M89.6,11.2 C89,11.7 88.2,12 87.1,12 C85.8,12 84.8,11.6 84.1,10.9 C83.4,10.2 83,9 83,7.6 C83,6.9 83.1,6.3 83.3,5.7 C83.5,5.1 83.8,4.7 84.1,4.3 C84.5,3.9 84.9,3.6 85.4,3.4 C85.9,3.2 86.4,3.1 87,3.1 C87.6,3.1 88.2,3.2 88.7,3.4 C89.2,3.6 89.6,3.9 89.9,4.2 C90.2,4.6 90.4,5 90.6,5.5 C90.7,6 90.8,6.5 90.8,7.2 L90.8,8 L84.8,8 C84.8,8.8 85,9.4 85.4,9.8 C85.8,10.2 86.3,10.5 87,10.5 C87.6,10.5 88,10.4 88.3,10.2 C88.6,10 88.8,9.7 88.9,9.2 L90.7,9.2 C90.6,10.1 90.2,10.7 89.6,11.2 Z M88.5,5.1 C88.2,4.7 87.7,4.5 87,4.5 C86.3,4.5 85.8,4.7 85.5,5.1 C85.1,5.5 84.9,6 84.9,6.7 L89,6.7 C89,6 88.8,5.5 88.5,5.1 Z M94.4,4.6 C94.7,4.2 95,3.8 95.4,3.6 C95.8,3.4 96.2,3.2 96.7,3.2 L97.6,3.2 L97.3,5 C97.2,5 97.1,4.9 96.9,4.9 L96.5,4.9 C96.2,4.9 95.9,5 95.6,5.1 C95.3,5.2 95.1,5.4 95,5.5 C94.8,5.7 94.7,5.9 94.6,6.1 C94.5,6.3 94.5,6.6 94.5,6.8 L94.5,11.7 L92.7,11.7 L92.7,3.4 L94.4,3.4 L94.4,4.6 Z M100.7,9.5 L100.7,11.7 L98.8,11.7 L98.8,9.5 L100.7,9.5 Z M112.3,7.9 C112.2,8.5 112.1,9 111.9,9.5 C111.7,10 111.4,10.4 111,10.8 C110.6,11.2 110.1,11.5 109.6,11.7 C109,11.9 108.4,12 107.6,12 C106.8,12 106,11.9 105.4,11.6 C104.8,11.3 104.2,10.9 103.8,10.4 C103.4,9.9 103,9.3 102.8,8.5 C102.6,7.7 102.5,6.9 102.5,6 C102.5,5.1 102.6,4.2 102.9,3.5 C103.2,2.8 103.5,2.1 104,1.6 C104.5,1.1 105,0.7 105.6,0.4 C106.2,0.1 106.9,1.88737914e-15 107.7,1.88737914e-15 C108.4,1.88737914e-15 109,0.1 109.6,0.3 C110.1,0.5 110.6,0.7 110.9,1.1 C111.3,1.4 111.6,1.8 111.8,2.3 C112,2.8 112.2,3.3 112.3,3.9 L110.4,4.2 C110.3,3.8 110.2,3.5 110.1,3.2 C110,2.9 109.8,2.6 109.6,2.4 C109.4,2.2 109.1,2 108.8,1.9 C108.5,1.8 108.1,1.7 107.7,1.7 C107.2,1.7 106.7,1.8 106.3,2 C105.9,2.2 105.6,2.5 105.3,2.9 C105,3.3 104.8,3.7 104.7,4.3 C104.6,4.8 104.5,5.4 104.5,6.1 C104.5,6.8 104.6,7.4 104.7,7.9 C104.8,8.4 105.1,8.9 105.3,9.3 C105.6,9.7 105.9,10 106.3,10.2 C106.7,10.4 107.1,10.5 107.6,10.5 C108,10.5 108.4,10.4 108.7,10.3 C109,10.2 109.3,10 109.5,9.8 C109.7,9.6 109.9,9.3 110,9 C110.1,8.7 110.2,8.4 110.3,8 L112.3,8 L112.3,7.9 Z M117.8,10.5 C118.6,10.5 119.1,10.2 119.5,9.7 C119.9,9.2 120,8.4 120,7.5 C120,6.6 119.8,5.9 119.5,5.4 C119.2,4.9 118.6,4.6 117.8,4.6 C117,4.6 116.5,4.9 116.1,5.4 C115.7,5.9 115.6,6.6 115.6,7.5 C115.6,8.4 115.8,9.1 116.1,9.7 C116.4,10.2 117,10.5 117.8,10.5 Z M114.8,10.8 C114.1,10 113.7,8.9 113.7,7.5 C113.7,6.8 113.8,6.2 114,5.7 C114.2,5.2 114.5,4.7 114.8,4.3 C115.2,3.9 115.6,3.6 116.1,3.4 C116.6,3.2 117.2,3.1 117.8,3.1 C118.5,3.1 119,3.2 119.6,3.4 C120.1,3.6 120.5,3.9 120.9,4.3 C121.2,4.7 121.5,5.1 121.7,5.7 C121.9,6.2 122,6.8 122,7.5 C122,8.2 121.9,8.9 121.7,9.4 C121.5,9.9 121.2,10.4 120.8,10.8 C120.4,11.2 120,11.5 119.5,11.7 C119,11.9 118.4,12 117.8,12 C116.5,12 115.5,11.6 114.8,10.8 Z"></path>
            </g>
        </g>
    </g>
</svg>