<?xml version="1.0" encoding="UTF-8"?>
<svg width="168px" height="198px" viewBox="0 0 168 198" version="1.1" xmlns="http://www.w3.org/2000/svg" xmlns:xlink="http://www.w3.org/1999/xlink" id="design-icon">
    <!-- Generator: Sketch 51.1 (57501) - http://www.bohemiancoding.com/sketch -->
    <title>design-icon</title>
    <desc>Created with Sketch.</desc>
    <defs></defs>
    <g stroke="none" stroke-width="1" fill="none" fill-rule="evenodd">
        <g transform="translate(2.000000, 20.000000)" stroke="#000000">
            <g transform="translate(0.000000, 53.000000)">
                <polyline stroke-width="3" points="41 104.982158 53.9822148 105 54 55"></polyline>
                <path d="M27,105 L41,105.02"></path>
                <path d="M4.00991483,59 L4,105 M53.9821498,88 L54,4.12322576 L4.012396,4 L4,58.9020696"></path>
                <path d="M49.9821498,84 L50,0.123225755 L0.0123959976,0 L0,54.9020696" opacity="0.25" stroke-dasharray="2"></path>
            </g>
            <g transform="translate(67.000000, 0.000000)">
                <polyline stroke-width="3" points="41 104.982158 53.9822148 105 54 55"></polyline>
                <path d="M27,105 L41,105.02"></path>
                <path d="M4.00991483,59 L4,105 M53.9821498,88 L54,4.12322576 L4.012396,4 L4,58.9020696" transform="translate(29.000000, 54.500000) scale(-1, 1) translate(-29.000000, -54.500000) "></path>
                <path d="M49.9821498,84 L50,0.123225755 L0.0123959976,0 L0,54.9020696" opacity="0.25" stroke-dasharray="2"></path>
            </g>
            <g transform="translate(27.000000, 94.000000)">
                <circle cx="3" cy="56" r="3"></circle>
                <circle cx="67" cy="3" r="3"></circle>
                <path d="M9.234375,56.0371094 C26.0794271,56.2393359 34.5019531,47.5018066 34.5019531,29.8245214 C34.5019531,12.1472363 44.0026042,3.30859375 63.0039062,3.30859375" stroke-dasharray="2,5"></path>
            </g>
        </g>
    </g>
</svg>
