<?xml version="1.0" encoding="UTF-8"?>
<svg width="1240px" height="282px" viewBox="0 0 1240 282" version="1.1" xmlns="http://www.w3.org/2000/svg" xmlns:xlink="http://www.w3.org/1999/xlink">
    <!-- Generator: Sketch 53.2 (72643) - https://sketchapp.com -->
    <title>Asset / Process / Design Sprint Timeline Copy</title>
    <desc>Created with Sketch.</desc>
    <g stroke="none" stroke-width="1" fill="none" fill-rule="evenodd">
        <g transform="translate(-100.000000, -4329.000000)">
            <g transform="translate(100.000000, 4329.000000)">
                <g>
                    <g>
                        <rect stroke="#E7E7E7" stroke-width="0.731144157" fill="#FFFFFF" x="0.365572079" y="1.09931817" width="874.448412" height="280.29361" rx="2.92457663"></rect>
                        <g transform="translate(11.698307, 11.739937)" fill="#000000" font-family="Montserrat-Medium, Montserrat" font-size="8.77372989" font-weight="400">
                            <text>
                                <tspan x="0" y="8.01779359">DETAILED DESIGN SPRINT </tspan>
                            </text>
                        </g>
                        <path d="M633.608371,0.771647614 L633.608371,281.110099 L754.394527,281.110099 L754.394527,0.771647614 L633.608371,0.771647614 Z" stroke="#E7E7E7" stroke-width="0.5" fill="#FFFFFF"></path>
                        <path d="M754.553681,1.10342507 L754.553681,281.441876 L875.339836,281.441876 L875.339836,1.10342507 L754.553681,1.10342507 Z" stroke="#E7E7E7" stroke-width="0.5" fill="#FFFFFF"></path>
                        <path d="M875.310302,1.10342507 L875.310302,281.441876 L996.096457,281.441876 L996.096457,1.10342507 L875.310302,1.10342507 Z" stroke="#E7E7E7" stroke-width="0.5" fill="#FFFFFF"></path>
                        <path d="M996.066922,1.10342507 L996.066922,281.441876 L1116.85308,281.441876 L1116.85308,1.10342507 L996.066922,1.10342507 Z M1116.85308,281.441876 L1117.10308,281.441876 L1116.85308,281.691876 L1116.85308,281.441876 Z" stroke="#E7E7E7" stroke-width="0.5" fill="#FFFFFF"></path>
                        <path d="M1117.65706,1.10342507 L1117.65706,281.441876 L1238.44321,281.441876 L1238.44321,1.10342507 L1117.65706,1.10342507 Z" stroke="#E7E7E7" stroke-width="0.5" fill="#FFFFFF"></path>
                        <path d="M512.524863,0.771647614 L512.524863,281.110099 L633.311018,281.110099 L633.311018,0.771647614 L512.524863,0.771647614 Z" stroke="#E7E7E7" stroke-width="0.5" fill="#FFFFFF"></path>
                        <path d="M390.934729,0.771647614 L390.934729,281.110099 L511.720884,281.110099 L511.720884,0.771647614 L390.934729,0.771647614 Z" stroke="#E7E7E7" stroke-width="0.5" fill="#FFFFFF"></path>
                        <path d="M269.85122,0.771647614 L269.85122,281.110099 L390.637376,281.110099 L390.637376,0.771647614 L269.85122,0.771647614 Z" stroke="#E7E7E7" stroke-width="0.5" fill="#FFFFFF"></path>
                        <path d="M148.767712,0.771647614 L148.767712,281.110099 L269.553867,281.110099 L269.553867,0.771647614 L148.767712,0.771647614 Z" stroke="#E7E7E7" stroke-width="0.5" fill="#FFFFFF"></path>
                        <rect stroke="#E7E7E7" stroke-width="0.731144157" x="0.365572079" y="1.09931817" width="1239.26947" height="280.29361" rx="2.92457663"></rect>
                        <path d="M0.365572079,32.6530021 L1237.93425,32.6530021 L1237.93425,3.65832272 C1237.93425,2.24502353 1236.78854,1.09931817 1235.37524,1.09931817 L2.92457663,1.09931817 C1.51127744,1.09931817 0.365572079,2.24502353 0.365572079,3.65832272 L0.365572079,32.6530021 Z" stroke="#E7E7E7" stroke-width="0.731144157"></path>
                        <g transform="translate(160.851715, 11.739937)" fill="#848484" font-family="Montserrat-Medium, Montserrat" font-size="8.77372989" font-weight="400">
                            <text>
                                <tspan x="0" y="8.01779359">WEEK 3</tspan>
                            </text>
                            <text>
                                <tspan x="121.36993" y="8.01779359">WEEK 4</tspan>
                            </text>
                            <text>
                                <tspan x="242.008716" y="8.01779359">WEEK 5</tspan>
                            </text>
                            <text>
                                <tspan x="362.647502" y="8.01779359">WEEK 6</tspan>
                            </text>
                            <text>
                                <tspan x="484.748576" y="8.01779359">WEEK 7</tspan>
                            </text>
                            <text>
                                <tspan x="604.633503" y="8.01779359">WEEK 8</tspan>
                            </text>
                            <text>
                                <tspan x="724.539725" y="8.01779359">WEEK 9</tspan>
                            </text>
                            <text>
                                <tspan x="844.445947" y="8.01779359">WEEK 10</tspan>
                            </text>
                            <text>
                                <tspan x="966.547021" y="8.01779359">WEEK 11</tspan>
                            </text>
                        </g>
                    </g>
                    <g transform="translate(11.905582, 36.697278)">
                        <g transform="translate(0.000000, 91.000000)">
                            <path d="M502.959035,0.365572079 C501.545736,0.365572079 500.40003,1.51127744 500.40003,2.92457663 L500.40003,16.1528218 C500.40003,17.566121 501.545736,18.7118264 502.959035,18.7118264 L719.137776,18.7118264 C720.551076,18.7118264 721.696781,17.566121 721.696781,16.1528218 L721.696781,2.92457663 C721.696781,1.51127744 720.551076,0.365572079 719.137776,0.365572079 L502.959035,0.365572079 Z" stroke="#E7E7E7" stroke-width="0.731144157" fill="#6E0091"></path>
                            <text font-family="Montserrat-Regular, Montserrat" font-size="7.31144157" font-weight="normal" fill="#000000">
                                <tspan x="3.55271368e-13" y="11.2831396">DESIGN</tspan>
                            </text>
                        </g>
                        <g transform="translate(0.000000, 113.000000)">
                            <path d="M723.212308,0.365572079 C721.799009,0.365572079 720.653303,1.51127744 720.653303,2.92457663 L720.653303,16.1528218 C720.653303,17.566121 721.799009,18.7118264 723.212308,18.7118264 L739.297479,18.7118264 C740.710779,18.7118264 741.856484,17.566121 741.856484,16.1528218 L741.856484,2.92457663 C741.856484,1.51127744 740.710779,0.365572079 739.297479,0.365572079 L723.212308,0.365572079 Z" stroke="#E7E7E7" stroke-width="0.731144157" fill="#6E0091"></path>
                            <text font-family="Montserrat-Regular, Montserrat" font-size="7.31144157" font-weight="normal" fill="#000000">
                                <tspan x="0" y="11.2831396">DESIGN REVIEW / APPROVAL</tspan>
                            </text>
                        </g>
                        <g transform="translate(0.000000, 135.000000)">
                            <path d="M744.472276,0.365572079 C743.058977,0.365572079 741.913272,1.51127744 741.913272,2.92457663 L741.913272,16.1528218 C741.913272,17.566121 743.058977,18.7118264 744.472276,18.7118264 L860.169096,18.7118264 C861.582395,18.7118264 862.7281,17.566121 862.7281,16.1528218 L862.7281,2.92457663 C862.7281,1.51127744 861.582395,0.365572079 860.169096,0.365572079 L744.472276,0.365572079 Z" stroke="#E7E7E7" stroke-width="0.731144157" fill="#6E0091"></path>
                            <text font-family="Montserrat-Regular, Montserrat" font-size="7.31144157" font-weight="normal" fill="#000000">
                                <tspan x="0" y="12.1365646">PROTOTYPE</tspan>
                            </text>
                        </g>
                        <g transform="translate(0.000000, 157.000000)">
                            <g>
                                <path d="M865.228897,0.365572079 C863.815598,0.365572079 862.669893,1.51127744 862.669893,2.92457663 L862.669893,16.1528218 C862.669893,17.566121 863.815598,18.7118264 865.228897,18.7118264 L961.806652,18.7118264 C963.219951,18.7118264 964.365656,17.566121 964.365656,16.1528218 L964.365656,2.92457663 C964.365656,1.51127744 963.219951,0.365572079 961.806652,0.365572079 L865.228897,0.365572079 Z" stroke="#E7E7E7" stroke-width="0.731144157" fill="#6E0091"></path>
                                <text font-family="Montserrat-Regular, Montserrat" font-size="7.31144157" font-weight="normal" fill="#000000">
                                    <tspan x="3.55271368e-13" y="11.2831396">USER STUDY</tspan>
                                </text>
                            </g>
                        </g>
                        <g transform="translate(0.000000, 180.000000)">
                            <path d="M966.426347,0.365572079 C965.013048,0.365572079 963.867342,1.51127744 963.867342,2.92457663 L963.867342,16.1528218 C963.867342,17.566121 965.013048,18.7118264 966.426347,18.7118264 L981.582043,18.7118264 C982.995342,18.7118264 984.141047,17.566121 984.141047,16.1528218 L984.141047,2.92457663 C984.141047,1.51127744 982.995342,0.365572079 981.582043,0.365572079 L966.426347,0.365572079 Z" stroke="#E7E7E7" stroke-width="0.731144157" fill="#6E0091"></path>
                            <text font-family="Montserrat-Regular, Montserrat" font-size="7.31144157" font-weight="normal" fill="#000000">
                                <tspan x="3.55271368e-13" y="11.2831396">ANALYSIS / FEEDBACK</tspan>
                            </text>
                        </g>
                        <g transform="translate(0.000000, 202.000000)">
                            <path d="M987.686315,0.365572079 C986.273016,0.365572079 985.127311,1.51127744 985.127311,2.92457663 L985.127311,16.1528218 C985.127311,17.566121 986.273016,18.7118264 987.686315,18.7118264 L1103.18906,18.7118264 C1104.60236,18.7118264 1105.74807,17.566121 1105.74807,16.1528218 L1105.74807,2.92457663 C1105.74807,1.51127744 1104.60236,0.365572079 1103.18906,0.365572079 L987.686315,0.365572079 Z" stroke="#E7E7E7" stroke-width="0.731144157" fill="#6E0091"></path>
                            <text font-family="Montserrat-Regular, Montserrat" font-size="7.31144157" font-weight="normal" fill="#000000">
                                <tspan x="0" y="11.1164439">CHANGES</tspan>
                            </text>
                        </g>
                        <g transform="translate(0.000000, 224.000000)">
                            <path d="M1109.29334,0.365572079 C1107.88004,0.365572079 1106.73433,1.51127744 1106.73433,2.92457663 L1106.73433,16.1528218 C1106.73433,17.566121 1107.88004,18.7118264 1109.29334,18.7118264 L1225.04694,18.7118264 C1226.46024,18.7118264 1227.60595,17.566121 1227.60595,16.1528218 L1227.60595,2.92457663 C1227.60595,1.51127744 1226.46024,0.365572079 1225.04694,0.365572079 L1109.29334,0.365572079 Z" stroke="#E7E7E7" stroke-width="0.731144157" fill="#6E0091"></path>
                            <text font-family="Montserrat-Regular, Montserrat" font-size="7.31144157" font-weight="normal" fill="#000000">
                                <tspan x="0" y="11.7205377">HANDOFF</tspan>
                            </text>
                        </g>
                        <g>
                            <g>
                                <g>
                                    <path d="M140.689172,0.365572079 C139.275873,0.365572079 138.130168,1.51127744 138.130168,2.92457663 L138.130168,16.8865679 C138.130168,18.2998671 139.275873,19.4455725 140.689172,19.4455725 L155.312055,19.4455725 C156.725355,19.4455725 157.87106,18.2998671 157.87106,16.8865679 L157.87106,2.92457663 C157.87106,1.51127744 156.725355,0.365572079 155.312055,0.365572079 L140.689172,0.365572079 Z" stroke="#E7E7E7" stroke-width="0.731144157" fill="#6E0091"></path>
                                    <text font-family="Montserrat-Regular, Montserrat" font-size="7.31144157" font-weight="normal" fill="#000000">
                                        <tspan x="0" y="12.9899897">PLANNING</tspan>
                                    </text>
                                    <text font-family="Montserrat-Medium, Montserrat" font-size="7.31144157" font-weight="400" fill="#EF485B">
                                        <tspan x="162.426159" y="12.9899897">Client Required</tspan>
                                    </text>
                                </g>
                            </g>
                        </g>
                        <g transform="translate(0.000000, 23.000000)">
                            <g>
                                <path d="M159.397944,0.365572079 C157.984645,0.365572079 156.83894,1.51127744 156.83894,2.92457663 L156.83894,16.1528218 C156.83894,17.566121 157.984645,18.7118264 159.397944,18.7118264 L256.509505,18.7118264 C257.922804,18.7118264 259.06851,17.566121 259.06851,16.1528218 L259.06851,2.92457663 C259.06851,1.51127744 257.922804,0.365572079 256.509505,0.365572079 L159.397944,0.365572079 Z" stroke="#E7E7E7" stroke-width="0.731144157" fill="#6E0091"></path>
                                <text font-family="Montserrat-Regular, Montserrat" font-size="7.31144157" font-weight="normal" fill="#000000">
                                    <tspan x="0" y="12.1365646">USER FLOWS</tspan>
                                </text>
                            </g>
                        </g>
                        <g transform="translate(0.000000, 46.000000)">
                            <g>
                                <path d="M261.445793,0.365572079 C260.032494,0.365572079 258.886789,1.51127744 258.886789,2.92457663 L258.886789,15.4190757 C258.886789,16.8323749 260.032494,17.9780803 261.445793,17.9780803 L477.323559,17.9780803 C478.736858,17.9780803 479.882563,16.8323749 479.882563,15.4190757 L479.882563,2.92457663 C479.882563,1.51127744 478.736858,0.365572079 477.323559,0.365572079 L261.445793,0.365572079 Z" stroke="#E7E7E7" stroke-width="0.731144157" fill="#6E0091"></path>
                                <text font-family="Montserrat-Regular, Montserrat" font-size="7.31144157" font-weight="normal" fill="#000000">
                                    <tspan x="0" y="12.1365646">WIREFRAME </tspan>
                                </text>
                            </g>
                        </g>
                        <g transform="translate(0.000000, 68.000000)">
                            <g>
                                <path d="M482.549465,0.365572079 C481.136166,0.365572079 479.99046,1.51127744 479.99046,2.92457663 L479.99046,16.1528218 C479.99046,17.566121 481.136166,18.7118264 482.549465,18.7118264 L497.053094,18.7118264 C498.466393,18.7118264 499.612098,17.566121 499.612098,16.1528218 L499.612098,2.92457663 C499.612098,1.51127744 498.466393,0.365572079 497.053094,0.365572079 L482.549465,0.365572079 Z" stroke="#E7E7E7" stroke-width="0.731144157" fill="#6E0091"></path>
                                <text font-family="Montserrat-Regular, Montserrat" font-size="7.31144157" font-weight="normal" fill="#000000">
                                    <tspan x="0" y="12.1365646">WIREFRAME REVIEW / APPROVAL</tspan>
                                </text>
                            </g>
                        </g>
                    </g>
                </g>
            </g>
        </g>
    </g>
</svg>