<svg width="97" height="83" viewBox="0 0 97 83" fill="none" xmlns="http://www.w3.org/2000/svg">
<path fill-rule="evenodd" clip-rule="evenodd" d="M26.2593 38.2689H23.4912V45.6711H26.0001C26.6014 45.6711 27.1405 45.5916 27.6174 45.4327C28.0943 45.2737 28.4986 45.0353 28.8304 44.7173C29.1621 44.3994 29.4161 44.0089 29.5924 43.5458C29.7686 43.0827 29.8567 42.5436 29.8567 41.9285C29.8567 40.719 29.5405 39.8067 28.9081 39.1915C28.2757 38.5764 27.3928 38.2689 26.2593 38.2689ZM27.0576 44.1834C26.7742 44.2975 26.4321 44.3545 26.0312 44.3545H25.0359V39.5855H26.2593C26.6256 39.5855 26.9349 39.6408 27.1872 39.7514C27.4394 39.862 27.645 40.0175 27.804 40.2179C27.963 40.4184 28.0787 40.6655 28.1513 40.9592C28.2239 41.2529 28.2602 41.5795 28.2602 41.9389C28.2602 42.3052 28.2187 42.6353 28.1358 42.929C28.0528 43.2227 27.9232 43.4767 27.747 43.691C27.5707 43.9052 27.3409 44.0694 27.0576 44.1834ZM30.7711 40.2594H32.181V41.0162C32.3607 40.7328 32.5785 40.5203 32.8342 40.3786C33.0899 40.2369 33.3595 40.1661 33.6428 40.1661C33.7811 40.1661 33.8951 40.1713 33.9849 40.1817C34.0748 40.192 34.1543 40.2041 34.2234 40.2179L34.0472 41.5346C33.8813 41.4931 33.6774 41.4724 33.4355 41.4724C33.2765 41.4724 33.1245 41.4914 32.9793 41.5294C32.8342 41.5674 32.7029 41.6383 32.5854 41.7419C32.461 41.8525 32.3694 41.9769 32.3106 42.1152C32.2519 42.2534 32.2225 42.3951 32.2225 42.5402V45.6711H30.7711V40.2594ZM38.8336 45.3653C39.2241 45.0508 39.4677 44.5895 39.5645 43.9813H38.1545C38.0509 44.4651 37.7122 44.707 37.1385 44.707C36.7238 44.707 36.4128 44.5843 36.2055 44.339C35.9981 44.0936 35.8876 43.7532 35.8737 43.3178H39.6267V42.7372C39.6267 41.9286 39.4176 41.2858 38.9995 40.8089C38.5813 40.332 37.9576 40.0935 37.1282 40.0935C36.7273 40.0935 36.361 40.1575 36.0292 40.2853C35.6975 40.4132 35.4124 40.6015 35.1739 40.8504C34.9355 41.0992 34.7506 41.4016 34.6193 41.7575C34.488 42.1134 34.4223 42.5195 34.4223 42.9757C34.4223 43.888 34.6487 44.593 35.1014 45.0906C35.5541 45.5882 36.2297 45.837 37.1282 45.837C37.8746 45.837 38.4431 45.6798 38.8336 45.3653ZM38.2272 42.364C38.2272 41.9907 38.1356 41.7005 37.9525 41.4931C37.7693 41.2858 37.4842 41.1821 37.0972 41.1821C36.9036 41.1821 36.7343 41.2132 36.5892 41.2754C36.444 41.3376 36.3213 41.4223 36.2211 41.5294C36.1209 41.6365 36.0432 41.7609 35.9879 41.9026C35.9326 42.0443 35.9015 42.1981 35.8946 42.364H38.2272ZM42.9619 45.5778C43.228 45.4258 43.4681 45.2288 43.6824 44.9869V45.6712H45.0509V42.2499C45.0509 41.9182 45.0111 41.6193 44.9317 41.3532C44.8522 41.0871 44.7243 40.8607 44.5481 40.6741C44.3718 40.4875 44.1386 40.3441 43.8483 40.2439C43.558 40.1437 43.2055 40.0935 42.7908 40.0935C42.1135 40.0935 41.5744 40.2197 41.1735 40.472C40.7726 40.7242 40.5238 41.1337 40.4271 41.7005L41.7541 41.8249C41.837 41.3895 42.1653 41.1717 42.739 41.1717C42.9878 41.1717 43.2038 41.234 43.3869 41.3584C43.5701 41.4828 43.6617 41.7108 43.6617 42.0426V42.3122L42.9671 42.3433C42.6215 42.3571 42.2811 42.3916 41.9459 42.4469C41.6107 42.5022 41.3083 42.5955 41.0387 42.7268C40.7692 42.8582 40.5515 43.0413 40.3856 43.2763C40.2197 43.5113 40.1368 43.8154 40.1368 44.1886C40.1368 44.472 40.1852 44.7156 40.2819 44.9195C40.3787 45.1234 40.5083 45.291 40.6707 45.4223C40.8331 45.5537 41.0232 45.6504 41.2409 45.7126C41.4586 45.7748 41.6884 45.8059 41.9303 45.8059C42.3519 45.8059 42.6958 45.7299 42.9619 45.5778ZM43.6512 43.2556L43.0084 43.2867C42.7043 43.3005 42.4589 43.3316 42.2723 43.38C42.0857 43.4284 41.9423 43.4888 41.8421 43.5614C41.7419 43.634 41.6745 43.7186 41.6399 43.8154C41.6054 43.9122 41.5881 44.0193 41.5881 44.1368C41.5881 44.3165 41.6503 44.4582 41.7747 44.5618C41.8991 44.6655 42.0719 44.7174 42.293 44.7174C42.6663 44.7174 42.9704 44.631 43.2054 44.4582C43.3367 44.3614 43.4438 44.2387 43.5268 44.0901C43.6097 43.9415 43.6512 43.7567 43.6512 43.5355V43.2556ZM47.4477 40.2594H46.0377V45.6712H47.4891V42.4158C47.4891 42.2569 47.5185 42.11 47.5773 41.9752C47.636 41.8404 47.7138 41.7247 47.8105 41.6279C47.928 41.5104 48.0472 41.4275 48.1682 41.3791C48.2891 41.3307 48.4222 41.3065 48.5673 41.3065C48.6572 41.3065 48.7436 41.3203 48.8265 41.348C48.9095 41.3756 48.9803 41.424 49.039 41.4931C49.0978 41.5622 49.1444 41.6573 49.179 41.7782C49.2136 41.8992 49.2308 42.0564 49.2308 42.2499V45.6712H50.6823V42.3536C50.6823 42.2154 50.7116 42.0841 50.7704 41.9597C50.8291 41.8353 50.9069 41.7247 51.0036 41.6279C51.1211 41.5104 51.2404 41.4275 51.3613 41.3791C51.4823 41.3307 51.6153 41.3065 51.7605 41.3065C51.8503 41.3065 51.9367 41.3203 52.0196 41.348C52.1026 41.3756 52.1734 41.424 52.2322 41.4931C52.2909 41.5622 52.3376 41.6573 52.3721 41.7782C52.4067 41.8992 52.424 42.0564 52.424 42.2499V45.6712H53.8754V42.053C53.8754 41.3618 53.7354 40.8625 53.4555 40.5549C53.1756 40.2473 52.7557 40.0935 52.1959 40.0935C51.8641 40.0935 51.56 40.1661 51.2836 40.3113C51.0071 40.4564 50.7445 40.6948 50.4956 41.0266C50.392 40.7225 50.2157 40.491 49.9669 40.332C49.7181 40.173 49.3967 40.0935 49.0028 40.0935C48.7056 40.0935 48.4222 40.1661 48.1526 40.3113C47.8831 40.4564 47.6481 40.681 47.4477 40.9851V40.2594ZM57.031 38.2689H59.6747C60.2414 38.2689 60.7097 38.3328 61.0795 38.4607C61.4492 38.5885 61.743 38.7579 61.9607 38.9687C62.1784 39.1795 62.3304 39.4248 62.4168 39.7048C62.5032 39.9847 62.5464 40.2767 62.5464 40.5808C62.5464 40.9056 62.5032 41.2167 62.4168 41.5139C62.3304 41.811 62.1784 42.072 61.9607 42.2966C61.743 42.5212 61.4527 42.6992 61.0898 42.8305C60.727 42.9618 60.2691 43.0275 59.7162 43.0275H58.555V45.6711H57.031V38.2689ZM60.333 41.659C60.1568 41.7143 59.9339 41.7419 59.6643 41.7419H58.555V39.5441H59.654C59.9235 39.5441 60.1464 39.5682 60.3226 39.6166C60.4989 39.665 60.6388 39.7341 60.7425 39.824C60.8462 39.9138 60.9188 40.0244 60.9602 40.1557C61.0017 40.287 61.0224 40.4391 61.0224 40.6119C61.0224 40.7778 61.0034 40.9315 60.9654 41.0732C60.9274 41.2149 60.8566 41.3341 60.7529 41.4309C60.6492 41.5277 60.5093 41.6037 60.333 41.659ZM63.3051 40.2594H64.7151V41.0162C64.8948 40.7328 65.1125 40.5203 65.3682 40.3786C65.624 40.2369 65.8935 40.1661 66.1769 40.1661C66.3151 40.1661 66.4292 40.1713 66.519 40.1817C66.6089 40.192 66.6883 40.2041 66.7575 40.2179L66.5812 41.5346C66.4153 41.4931 66.2114 41.4724 65.9695 41.4724C65.8106 41.4724 65.6585 41.4914 65.5134 41.5294C65.3682 41.5674 65.2369 41.6383 65.1194 41.7419C64.995 41.8525 64.9034 41.9769 64.8447 42.1152C64.7859 42.2534 64.7566 42.3951 64.7566 42.5402V45.6711H63.3051V40.2594ZM67.6717 45.0906C68.1486 45.5882 68.8225 45.837 69.6933 45.837C70.108 45.837 70.4847 45.7714 70.8234 45.6401C71.162 45.5087 71.4506 45.3187 71.689 45.0699C71.9275 44.821 72.1106 44.5187 72.2385 44.1627C72.3664 43.8068 72.4303 43.4042 72.4303 42.9549C72.4303 42.5126 72.3681 42.1134 72.2437 41.7575C72.1193 41.4016 71.9379 41.1009 71.6994 40.8555C71.461 40.6102 71.1724 40.4218 70.8337 40.2905C70.4951 40.1592 70.1149 40.0935 69.6933 40.0935C69.2786 40.0935 68.902 40.1592 68.5633 40.2905C68.2246 40.4218 67.9361 40.6102 67.6976 40.8555C67.4592 41.1009 67.276 41.4016 67.1482 41.7575C67.0203 42.1134 66.9564 42.5126 66.9564 42.9549C66.9564 43.8811 67.1948 44.593 67.6717 45.0906ZM69.6934 44.6759C70.1081 44.6759 70.4174 44.5273 70.6213 44.2301C70.8252 43.9329 70.9271 43.5078 70.9271 42.9549C70.9271 42.402 70.8252 41.9804 70.6213 41.6901C70.4174 41.3998 70.1081 41.2547 69.6934 41.2547C69.2787 41.2547 68.9694 41.3998 68.7655 41.6901C68.5616 41.9804 68.4597 42.402 68.4597 42.9549C68.4597 43.5148 68.5599 43.9415 68.7603 44.2353C68.9608 44.529 69.2718 44.6759 69.6934 44.6759ZM74.765 38.2689H73.2721V39.5752H74.765V38.2689ZM72.0591 46.3243C72.2803 46.3796 72.4842 46.4072 72.6708 46.4072C72.8574 46.4072 73.0077 46.364 73.1217 46.2776C73.2358 46.1912 73.2928 46.0063 73.2928 45.723V40.2594H74.7442V45.6919C74.7442 46.3554 74.5939 46.8375 74.2933 47.1381C73.9926 47.4388 73.5485 47.5891 72.9611 47.5891C72.7883 47.5891 72.6103 47.5753 72.4271 47.5476C72.244 47.52 72.0522 47.475 71.8518 47.4128L72.0591 46.3243ZM80.018 45.3653C80.4085 45.0508 80.6522 44.5895 80.7489 43.9813H79.339C79.2353 44.4651 78.8966 44.707 78.323 44.707C77.9083 44.707 77.5973 44.5843 77.3899 44.339C77.1826 44.0936 77.072 43.7532 77.0582 43.3178H80.8111V42.7372C80.8111 41.9286 80.6021 41.2858 80.1839 40.8089C79.7658 40.332 79.142 40.0935 78.3126 40.0935C77.9117 40.0935 77.5454 40.1575 77.2137 40.2853C76.8819 40.4132 76.5968 40.6015 76.3584 40.8504C76.1199 41.0992 75.9351 41.4016 75.8037 41.7575C75.6724 42.1134 75.6068 42.5195 75.6068 42.9757C75.6068 43.888 75.8331 44.593 76.2858 45.0906C76.7385 45.5882 77.4141 45.837 78.3126 45.837C79.0591 45.837 79.6275 45.6798 80.018 45.3653ZM79.4115 42.364C79.4115 41.9907 79.3199 41.7005 79.1368 41.4931C78.9536 41.2858 78.6685 41.1821 78.2815 41.1821C78.0879 41.1821 77.9186 41.2132 77.7735 41.2754C77.6283 41.3376 77.5056 41.4223 77.4054 41.5294C77.3052 41.6365 77.2275 41.7609 77.1722 41.9026C77.1169 42.0443 77.0858 42.1981 77.0789 42.364H79.4115ZM85.8464 45.2616C86.2369 44.8781 86.4598 44.3614 86.5151 43.7117H85.0429C85.0153 44.0228 84.922 44.2612 84.763 44.4271C84.604 44.593 84.3794 44.6759 84.0891 44.6759C83.868 44.6759 83.6848 44.6292 83.5397 44.5359C83.3945 44.4426 83.2805 44.3165 83.1975 44.1575C83.1146 43.9986 83.0559 43.8154 83.0213 43.6081C82.9867 43.4007 82.9695 43.183 82.9695 42.9549C82.9695 42.7338 82.9867 42.5212 83.0213 42.3173C83.0559 42.1134 83.1163 41.932 83.2027 41.7731C83.2891 41.6141 83.4049 41.488 83.55 41.3946C83.6952 41.3013 83.8783 41.2547 84.0995 41.2547C84.4036 41.2547 84.6179 41.3394 84.7423 41.5087C84.8667 41.678 84.9462 41.9009 84.9807 42.1774L86.4425 41.9804C86.4079 41.7039 86.3388 41.4499 86.2352 41.2184C86.1315 40.9869 85.9863 40.7882 85.7997 40.6223C85.6131 40.4564 85.3833 40.3268 85.1103 40.2335C84.8373 40.1402 84.5176 40.0935 84.1513 40.0935C83.7228 40.0935 83.3427 40.1627 83.0109 40.3009C82.6792 40.4391 82.3993 40.6344 82.1712 40.8866C81.9431 41.1389 81.7686 41.443 81.6476 41.799C81.5267 42.1549 81.4662 42.5471 81.4662 42.9757C81.4662 43.4042 81.518 43.7947 81.6217 44.1472C81.7254 44.4997 81.8826 44.8003 82.0934 45.0491C82.3042 45.2979 82.5755 45.4915 82.9073 45.6297C83.239 45.7679 83.633 45.837 84.0891 45.837C84.8701 45.837 85.4559 45.6452 85.8464 45.2616ZM87.6367 41.3894H86.7865V40.2594H87.6367V38.8183H89.0881V40.2594H90.3321V41.3894H89.0881V43.8879C89.0881 44.1713 89.1468 44.3631 89.2643 44.4633C89.3818 44.5636 89.5339 44.6137 89.7205 44.6137C89.8172 44.6137 89.9157 44.6085 90.0159 44.5981C90.1162 44.5877 90.2146 44.5687 90.3114 44.5411L90.5188 45.6089C90.3183 45.6711 90.1231 45.7143 89.933 45.7385C89.7429 45.7627 89.5615 45.7748 89.3887 45.7748C88.7943 45.7748 88.3537 45.6331 88.0669 45.3497C87.7801 45.0664 87.6367 44.5895 87.6367 43.9191V41.3894ZM92.418 44.5722C92.2106 44.4755 92.0828 44.2681 92.0344 43.9502H90.6452C90.6659 44.3165 90.7506 44.6206 90.8992 44.8625C91.0478 45.1044 91.2378 45.2979 91.4694 45.4431C91.7009 45.5882 91.9635 45.6902 92.2573 45.7489C92.551 45.8077 92.8603 45.837 93.1851 45.837C93.9938 45.837 94.5916 45.6833 94.9787 45.3757C95.3657 45.0681 95.5593 44.6586 95.5593 44.1472C95.5593 43.8914 95.5299 43.6668 95.4711 43.4733C95.4124 43.2798 95.3087 43.1122 95.1601 42.9705C95.0115 42.8288 94.8128 42.7096 94.564 42.6128C94.3152 42.516 94.0007 42.4366 93.6206 42.3744L92.9363 42.2603C92.6253 42.205 92.4162 42.1376 92.3091 42.0582C92.202 41.9787 92.1484 41.8525 92.1484 41.6797C92.1484 41.6245 92.164 41.5657 92.1951 41.5035C92.2262 41.4413 92.278 41.386 92.3506 41.3376C92.4231 41.2892 92.5234 41.2495 92.6512 41.2184C92.7791 41.1873 92.9398 41.1717 93.1333 41.1717C93.4789 41.1717 93.7294 41.2305 93.8849 41.348C94.0405 41.4655 94.1493 41.6486 94.2115 41.8975L95.5074 41.7316C95.466 41.5035 95.3986 41.2892 95.3053 41.0888C95.212 40.8884 95.0737 40.7156 94.8906 40.5704C94.7074 40.4253 94.4707 40.3095 94.1804 40.2231C93.8901 40.1367 93.5307 40.0935 93.1022 40.0935C92.7566 40.0935 92.4404 40.1333 92.1536 40.2128C91.8668 40.2923 91.6197 40.4046 91.4123 40.5497C91.205 40.6949 91.0443 40.8711 90.9303 41.0784C90.8162 41.2858 90.7592 41.5208 90.7592 41.7834C90.7592 42.2949 90.9199 42.6767 91.2413 42.929C91.5627 43.1813 92.0517 43.3592 92.7083 43.4629L93.4547 43.5873C93.7173 43.6288 93.8953 43.7014 93.9886 43.805C94.0819 43.9087 94.1286 44.0297 94.1286 44.1679C94.1286 44.3614 94.0543 44.5014 93.9057 44.5878C93.7571 44.6742 93.51 44.7174 93.1644 44.7174C92.8741 44.7174 92.6253 44.669 92.418 44.5722Z" fill="#848484"/>
<path fill-rule="evenodd" clip-rule="evenodd" d="M2 33H10.0635C14.8439 33 18.7029 36.8589 18.7029 41.6394C18.7029 46.4199 14.8439 50.2788 10.0635 50.2788H2V33ZM15.7654 35.9374C14.2103 34.4399 12.1944 33.576 10.0633 33.576H2.57585V49.7029H10.0633C14.4982 49.7029 18.1268 46.0743 18.1268 41.6394C18.1268 39.5083 17.3205 37.4349 15.7654 35.9374Z" fill="#848484"/>
<path d="M9.66029 33V50.2788" stroke="#848484" stroke-width="0.575961"/>
<path fill-rule="evenodd" clip-rule="evenodd" d="M13.1158 40.8907C14.8335 40.8907 16.226 39.4982 16.226 37.7805C16.226 36.0628 14.8335 34.6703 13.1158 34.6703C11.3981 34.6703 10.0056 36.0628 10.0056 37.7805C10.0056 39.4982 11.3981 40.8907 13.1158 40.8907Z" stroke="#848484" stroke-width="0.575961"/>
</svg>
