<svg xmlns="http://www.w3.org/2000/svg" xmlns:xlink="http://www.w3.org/1999/xlink" width="17" height="17" viewBox="0 0 17 17">
    <defs>
        <path id="a" d="M0 0h1440v800H0z"/>
    </defs>
    <g fill="none" fill-rule="evenodd">
        <use fill="#000" transform="translate(-1178 -487)" xlink:href="#a"/>
        <path fill="#FFF" d="M8.5 0a8.24 8.24 0 0 1 4.25 1.148 8.589 8.589 0 0 1 3.102 3.102A8.24 8.24 0 0 1 17 8.5a8.24 8.24 0 0 1-1.148 4.25 8.589 8.589 0 0 1-3.102 3.102A8.24 8.24 0 0 1 8.5 17a8.24 8.24 0 0 1-4.25-1.148 8.589 8.589 0 0 1-3.102-3.102A8.24 8.24 0 0 1 0 8.5a8.24 8.24 0 0 1 1.148-4.25A8.589 8.589 0 0 1 4.25 1.148 8.24 8.24 0 0 1 8.5 0zm5.621 3.907c-.251.343-.606.709-1.063 1.097a11.107 11.107 0 0 1-2.981 1.782c.205.457.41.937.617 1.44 1.028-.137 2.147-.149 3.358-.034a23.9 23.9 0 0 1 1.714.24 7.739 7.739 0 0 0-.445-2.417 7.04 7.04 0 0 0-1.2-2.108zm-.823-.822a7.075 7.075 0 0 0-3.05-1.628 7.239 7.239 0 0 0-3.462-.017 32.89 32.89 0 0 1 2.708 4.25c1.097-.389 2.045-.914 2.845-1.577.434-.366.754-.708.96-1.028zM5.415 1.954A7.144 7.144 0 0 0 2.81 4.01a7.044 7.044 0 0 0-1.405 3.016c.617 0 1.348-.034 2.194-.103 1.576-.137 3.073-.4 4.49-.788a38.406 38.406 0 0 0-2.674-4.181zM1.234 8.5c0 .914.166 1.788.497 2.622a7.463 7.463 0 0 0 1.388 2.245c.617-1.074 1.462-2.045 2.536-2.913 1.166-.96 2.377-1.611 3.633-1.954-.16-.411-.354-.823-.582-1.234-1.531.457-3.188.766-4.97.926-.96.068-1.794.102-2.502.102V8.5zm2.81 5.724a6.77 6.77 0 0 0 3.548 1.49 7.354 7.354 0 0 0 3.753-.53c-.297-1.76-.811-3.588-1.543-5.484a10.875 10.875 0 0 0-3.701 2.056c-.96.8-1.645 1.622-2.057 2.468zm8.5.308a7.175 7.175 0 0 0 2.057-2.09 7.092 7.092 0 0 0 1.062-2.777 7.58 7.58 0 0 0-1.508-.308 9.534 9.534 0 0 0-3.016 0c.663 1.828 1.131 3.553 1.405 5.175z"/>
    </g>
</svg>
