<svg width="87" height="83" viewBox="0 0 87 83" fill="none" xmlns="http://www.w3.org/2000/svg">
<path fill-rule="evenodd" clip-rule="evenodd" d="M2.26405 49.4017H5.73888V40.9982H8.05742L8.36446 38.1027H5.73888L5.74325 36.6534C5.74325 35.8981 5.81475 35.4933 6.89914 35.4933H8.34857V32.597H6.02964C3.24438 32.597 2.26445 34.0015 2.26445 36.364V38.1031H0.527832V40.9986H2.26405V49.4017ZM33.4143 40.5474C32.2342 40.5474 31.9649 41.1946 31.9649 41.9963V42.4467H34.8622V41.9963C34.8622 41.1946 34.5929 40.5474 33.4143 40.5474ZM44.7103 40.8394C44.0017 40.8394 43.4909 41.0716 42.9729 41.3081V46.6602C43.469 46.7074 43.7534 46.7074 44.2241 46.7074C45.925 46.7074 46.1582 45.9292 46.1582 44.8426V42.2864C46.1582 41.4839 45.8916 40.8394 44.7103 40.8394ZM12.4923 47.0817C11.8313 47.0817 11.5318 46.7523 11.5318 46.1181C11.5318 45.4803 11.8544 45.3438 12.5884 45.3438H14.1388V46.6134C14.0887 46.6363 14.0395 46.6592 13.9909 46.6819C13.5372 46.8932 13.1327 47.0817 12.4923 47.0817ZM55.6984 40.8394C54.5163 40.8394 54.1068 41.4839 54.1068 42.2864V45.2148C54.1068 46.0193 54.5163 46.6658 55.6984 46.6658C56.8774 46.6658 57.2901 46.0193 57.2901 45.2148V42.2864C57.2897 41.4839 56.877 40.8394 55.6984 40.8394ZM17.6144 49.4235H14.7183L14.5932 48.6917C13.2708 49.4235 12.0907 49.5422 11.3122 49.5422C9.18828 49.5422 8.05781 48.1246 8.05781 46.1641C8.05781 43.8512 9.37696 43.0258 11.7368 43.0258H14.1388V42.5257C14.1388 41.345 14.0033 40.9986 12.1861 40.9986H9.2149L9.50526 38.1031H12.7529C16.7401 38.1031 17.6144 39.3615 17.6144 42.5491V49.4235ZM24.2757 40.8343C25.1428 40.8343 25.6603 40.9022 27.4625 41.2109V38.388C25.884 38.0328 24.8556 37.9396 23.9865 37.9396C20.2558 37.9396 18.7731 39.9033 18.7731 42.7372V44.7656C18.7731 47.5972 20.2558 49.5573 23.9865 49.5573C24.8556 49.5573 25.884 49.4644 27.4625 49.1108V46.2864C25.6603 46.5963 25.1428 46.6654 24.2757 46.6654C22.7182 46.6654 22.2475 46.3205 22.2475 44.9989V42.4991C22.2475 41.1776 22.7182 40.8343 24.2757 40.8343ZM38.3366 44.7656H31.9645V44.9989C31.9645 46.3205 32.4356 46.6654 33.9927 46.6654C35.3925 46.6654 36.2469 46.5963 38.0459 46.2864V49.1108C36.3108 49.4644 35.4068 49.5573 33.7047 49.5573C29.9737 49.5573 28.4901 47.5972 28.4901 44.7656V42.4463C28.4901 39.9687 29.5908 37.9396 33.414 37.9396C37.2371 37.9396 38.3366 39.9453 38.3366 42.4463V44.7656ZM44.1066 49.5521C48.8493 49.5521 49.6322 47.5559 49.6322 44.8192H49.6318V41.9967C49.6318 39.4961 49.0531 37.94 45.579 37.94C44.6948 37.94 43.7232 38.0817 42.9725 38.3603V32.8879L39.4989 33.467V49.1112C41.3892 49.4017 42.3938 49.5521 44.1066 49.5521ZM60.7673 44.8787C60.7673 47.2396 59.7917 49.5295 55.71 49.5295C51.6262 49.5295 50.6324 47.2396 50.6324 44.8787V42.5991C50.6324 40.237 51.6262 37.9467 55.71 37.9467C59.7917 37.9467 60.7673 40.237 60.7673 42.5991V44.8787ZM66.8371 49.5295C70.9181 49.5295 71.8948 47.2396 71.8948 44.8787V42.5991C71.8948 40.237 70.9181 37.9467 66.8371 37.9467C62.7533 37.9467 61.7595 40.237 61.7595 42.5991V44.8787C61.7595 47.2396 62.7533 49.5295 66.8371 49.5295ZM83.3143 49.4017H79.5491L76.3647 44.0905V49.4017H72.8898V33.4666L76.3647 32.8875V43.146L79.5491 38.1031H83.3143L79.8379 43.6064L83.3143 49.4017ZM65.2355 42.2864C65.2355 41.4839 65.6451 40.8394 66.8252 40.8394C68.0037 40.8394 68.4208 41.4839 68.4208 42.2864V45.2148C68.4208 46.0193 68.0037 46.6658 66.8252 46.6658C65.6451 46.6658 65.2355 46.0193 65.2355 45.2148V42.2864ZM85.2976 47.4198C85.8827 47.4198 86.3486 47.8964 86.3486 48.4917C86.3486 49.0961 85.8823 49.5676 85.2932 49.5676C84.707 49.5676 84.2315 49.0961 84.2315 48.4917C84.2315 47.8964 84.707 47.4198 85.2932 47.4198H85.2976ZM84.4361 48.4917C84.4361 47.9917 84.8218 47.5865 85.2932 47.5865H85.2976C85.7735 47.5865 86.1536 47.9921 86.1536 48.4965C86.1536 49.0009 85.7735 49.4057 85.2976 49.4009C84.8222 49.4009 84.4361 49.0009 84.4361 48.4917ZM85.0935 49.1156H84.9028V47.9194L84.9122 47.9181C85.0089 47.9047 85.1027 47.8917 85.2412 47.8917C85.4223 47.8917 85.5407 47.9298 85.6134 47.9817C85.6837 48.0345 85.7214 48.1151 85.7214 48.229C85.7214 48.3869 85.6174 48.4818 85.4891 48.5203V48.5294C85.5935 48.5489 85.6646 48.6433 85.6889 48.8191C85.7167 49.0053 85.7457 49.0763 85.7643 49.1152H85.5645C85.5363 49.0763 85.5073 48.9672 85.4835 48.8096C85.4557 48.6576 85.3786 48.6005 85.2261 48.6005H85.0938V49.1156H85.0935ZM85.2327 48.4695H85.0934V48.0484C85.1263 48.0438 85.1699 48.0389 85.2327 48.0389C85.4484 48.0389 85.5244 48.1473 85.5244 48.256C85.5244 48.4097 85.3904 48.4695 85.2327 48.4695Z" fill="#848484"/>
</svg>
