<svg xmlns="http://www.w3.org/2000/svg" width="181" height="97" viewBox="0 0 181 97">
    <defs>
        <filter id="a" width="131%" height="166.8%" x="-15.5%" y="-21.9%" filterUnits="objectBoundingBox">
            <feOffset dy="25" in="SourceAlpha" result="shadowOffsetOuter1"/>
            <feGaussianBlur in="shadowOffsetOuter1" result="shadowBlurOuter1" stdDeviation="20"/>
            <feColorMatrix in="shadowBlurOuter1" result="shadowMatrixOuter1" values="0 0 0 0 0.776470588 0 0 0 0 0.776470588 0 0 0 0 0.776470588 0 0 0 0.15 0"/>
            <feMerge>
                <feMergeNode in="shadowMatrixOuter1"/>
                <feMergeNode in="SourceGraphic"/>
            </feMerge>
        </filter>
    </defs>
    <path fill="#848484" fill-rule="nonzero" d="M57.241 10.696c-.918 0-1.58.302-2.25.609v6.945c.642.061 1.01.061 1.62.061 2.204 0 2.506-1.01 2.506-2.42v-3.317c0-1.041-.345-1.878-1.876-1.878zm-14.634-.379c-1.53 0-1.878.84-1.878 1.88v.585h3.753v-.584c0-1.04-.349-1.88-1.875-1.88zm-28.35 7.23c0 .823.387 1.25 1.244 1.25.918 0 1.462-.3 2.133-.608v-1.647h-2.009c-.95 0-1.369.177-1.369 1.005zm57.22-6.85c-1.531 0-2.062.836-2.062 1.877v3.8c0 1.044.53 1.883 2.062 1.883 1.527 0 2.062-.839 2.062-1.883v-3.8c0-1.041-.535-1.878-2.062-1.878zM6.751 21.806H2.25V10.904H0V7.145h2.25V4.89C2.25 1.823 3.52 0 7.128 0h3.004v3.759H8.254c-1.404 0-1.497.525-1.497 1.505l-.006 1.88h3.402l-.398 3.758H6.751v10.906zm15.386.03h-3.752l-.162-.95a8.594 8.594 0 0 1-4.251 1.103c-2.752 0-4.216-1.84-4.216-4.384 0-3.001 1.709-4.072 4.766-4.072h3.112v-.65c0-1.531-.176-1.981-2.53-1.981h-3.85l.377-3.758h4.207c5.166 0 6.299 1.633 6.299 5.77v8.921zm12.759-10.659c-2.335-.4-3.006-.488-4.13-.488-2.017 0-2.627.445-2.627 2.16v3.244c0 1.715.61 2.163 2.628 2.163 1.123 0 1.794-.09 4.129-.492v3.665c-2.045.46-3.378.58-4.504.58-4.833 0-6.754-2.544-6.754-6.219V13.16c0-3.678 1.92-6.226 6.754-6.226 1.126 0 2.459.121 4.504.582v3.663zm14.088 4.613h-8.256v.303c0 1.715.61 2.163 2.628 2.163 1.813 0 2.92-.09 5.251-.492v3.665c-2.248.46-3.42.58-5.624.58-4.834 0-6.756-2.544-6.756-6.219v-3.01c0-3.215 1.426-5.848 6.38-5.848 4.952 0 6.377 2.603 6.377 5.849v3.01zm14.634.07c0 3.552-1.014 6.142-7.159 6.142-2.219 0-3.52-.195-5.97-.572V1.129l4.5-.751v7.101c.973-.361 2.232-.545 3.378-.545 4.5 0 5.25 2.02 5.25 5.264v3.663zm14.426.077c0 3.064-1.264 6.036-6.552 6.036-5.29 0-6.578-2.972-6.578-6.036V12.98c0-3.065 1.287-6.038 6.578-6.038 5.288 0 6.552 2.973 6.552 6.038v2.958zm14.417 0c0 3.064-1.266 6.036-6.553 6.036-5.29 0-6.578-2.972-6.578-6.036V12.98c0-3.065 1.287-6.038 6.578-6.038 5.287 0 6.553 2.973 6.553 6.038v2.958zm14.794 5.87h-4.878l-4.126-6.893v6.893H93.75V1.128L98.25.377V13.69l4.126-6.545h4.878l-4.504 7.142 4.504 7.52zM85.892 10.696c-1.528 0-2.059.837-2.059 1.878v3.8c0 1.044.53 1.883 2.06 1.883 1.526 0 2.067-.839 2.067-1.883v-3.8c0-1.041-.54-1.878-2.068-1.878zm23.933 8.54c.758 0 1.361.618 1.361 1.391 0 .784-.604 1.396-1.367 1.396-.76 0-1.376-.612-1.376-1.396a1.38 1.38 0 0 1 1.376-1.391h.006zm-.006.216c-.61 0-1.11.526-1.11 1.175 0 .66.5 1.18 1.116 1.18.616.006 1.109-.52 1.109-1.174 0-.654-.493-1.18-1.11-1.18h-.005zm-.259 1.985h-.247v-1.553c.13-.018.253-.036.439-.036.234 0 .388.05.482.117.09.069.14.173.14.321 0 .205-.135.328-.301.378v.012c.135.025.227.148.259.376.036.241.073.334.097.384h-.258c-.037-.05-.075-.192-.105-.396-.036-.198-.136-.272-.334-.272h-.171v.669zm0-.839h.18c.205 0 .379-.077.379-.277 0-.141-.099-.282-.378-.282a1.25 1.25 0 0 0-.18.013v.546z" filter="url(#a)" transform="translate(37 11)"/>
</svg>
