<?xml version="1.0" encoding="UTF-8"?>
<svg width="124px" height="124px" viewBox="0 0 124 124" version="1.1" xmlns="http://www.w3.org/2000/svg" xmlns:xlink="http://www.w3.org/1999/xlink">
    <!-- Generator: Sketch 53.2 (72643) - https://sketchapp.com -->
    <title>Facebook-2</title>
    <desc>Created with Sketch.</desc>
    <defs>
        <rect id="path-1" x="0" y="0" width="124" height="124"></rect>
    </defs>
    <g stroke="none" stroke-width="1" fill="none" fill-rule="evenodd">
        <g>
            <g>
                <use fill-opacity="0.01" fill="#D8D8D8" fill-rule="evenodd" style="mix-blend-mode: screen;" xlink:href="#path-1"></use>
                <rect stroke-opacity="0" stroke="#979797" stroke-width="1" stroke-linejoin="square" x="0.5" y="0.5" width="123" height="123"></rect>
            </g>
            <path d="M63.1824827,62.2424002 C62.4738534,62.2424002 61.9630365,62.4745637 61.4450698,62.7110927 L61.4450698,68.0631563 C61.9411897,68.1103827 62.2255948,68.1103827 62.6962931,68.1103827 C64.3971624,68.1103827 64.6303268,67.3321388 64.6303268,66.2455342 L64.6303268,63.6893543 C64.6303268,62.886902 64.3637964,62.2424002 63.1824827,62.2424002 L63.1824827,62.2424002 Z M51.8865181,61.9503107 C50.706396,61.9503107 50.4370851,62.5975905 50.4370851,63.3992492 L50.4370851,63.8496861 L53.3343622,63.8496861 L53.3343622,63.3992492 C53.3343622,62.5975905 53.0650513,61.9503107 51.8865181,61.9503107 Z M30.0040125,67.5210445 C30.0040125,68.155228 30.3035117,68.4846224 30.9644754,68.4846224 C31.6735019,68.4846224 32.0933569,68.2536494 32.6109264,68.0163267 L32.6109264,66.7467693 L31.0606011,66.7467693 C30.3265501,66.7467693 30.0040125,66.8832894 30.0040125,67.5210445 Z M74.1706067,62.2424002 C72.9884986,62.2424002 72.5789712,62.886902 72.5789712,63.6893543 L72.5789712,66.6177896 C72.5789712,67.4222262 72.9884986,68.0687123 74.1706067,68.0687123 C75.3495371,68.0687123 75.7622422,67.4222262 75.7622422,66.6177896 L75.7622422,63.6893543 C75.761845,62.886902 75.3491399,62.2424002 74.1706067,62.2424002 L74.1706067,62.2424002 Z M24.2110472,70.8046701 L20.7362213,70.8046701 L20.7362213,62.4015413 L19,62.4015413 L19,59.5060456 L20.7366185,59.5060456 L20.7366185,57.7670019 C20.7366185,55.4044901 21.7165448,54 24.5018077,54 L26.8207415,54 L26.8207415,56.8962895 L25.3713086,56.8962895 C24.286915,56.8962895 24.2154165,57.3010874 24.2154165,58.0563134 L24.2110472,59.5056487 L26.8366301,59.5056487 L26.5295839,62.4011445 L24.2110472,62.4011445 L24.2110472,70.8046701 L24.2110472,70.8046701 Z M36.0865467,70.8264974 L33.1904612,70.8264974 L33.0653389,70.0946863 C31.7430143,70.8264974 30.5628923,70.9451588 29.7843533,70.9451588 C27.6604514,70.9451588 26.5299811,69.5275723 26.5299811,67.5670804 C26.5299811,65.2541761 27.8491279,64.4287059 30.2089748,64.4287059 L32.6109264,64.4287059 L32.6109264,63.9286614 C32.6109264,62.7480007 32.4754765,62.4015413 30.6582236,62.4015413 L27.6870647,62.4015413 L27.977428,59.5060456 L31.2250476,59.5060456 C35.2122792,59.5060456 36.0865467,60.7644909 36.0865467,63.9520761 L36.0865467,70.8264974 L36.0865467,70.8264974 Z M45.9346672,62.6138618 C44.1325084,62.3051042 43.6149389,62.237241 42.7478213,62.237241 C41.1903462,62.237241 40.7196479,62.5805255 40.7196479,63.9020717 L40.7196479,66.4018973 C40.7196479,67.7234435 41.1903462,68.0683155 42.7478213,68.0683155 C43.6149389,68.0683155 44.1325084,67.9992617 45.9346672,67.6893135 L45.9346672,70.5137712 C44.3561398,70.8673741 43.3277534,70.9602395 42.4586497,70.9602395 C38.7280181,70.9602395 37.2452192,69.0001444 37.2452192,66.1685432 L37.2452192,64.1401881 C37.2452192,61.3062058 38.7280181,59.3425389 42.4586497,59.3425389 C43.3277534,59.3425389 44.3561398,59.4358012 45.9346672,59.7909915 L45.9346672,62.6138618 L45.9346672,62.6138618 Z M56.8087909,66.1685432 L50.4366879,66.1685432 L50.4366879,66.4018973 C50.4366879,67.7234435 50.9077834,68.0683155 52.4648613,68.0683155 C53.8646425,68.0683155 54.7190493,67.9992617 56.5180304,67.6893135 L56.5180304,70.5137712 C54.7830007,70.8673741 53.8789422,70.9602395 52.1768813,70.9602395 C48.4458526,70.9602395 46.9622592,69.0001444 46.9622592,66.1685432 L46.9622592,63.8492892 C46.9622592,61.3716878 48.0629385,59.3425389 51.8861209,59.3425389 C55.7093032,59.3425389 56.8087909,61.348273 56.8087909,63.8492892 L56.8087909,66.1685432 L56.8087909,66.1685432 Z M68.1043583,66.2221194 C68.1043583,68.9588709 67.32145,70.9550803 62.5787178,70.9550803 C60.8659321,70.9550803 59.8613785,70.8046701 57.9710383,70.514168 L57.9710383,54.8699187 L61.4446726,54.2908989 L61.4446726,59.7632113 C62.1954065,59.4846151 63.1669914,59.3429358 64.0511892,59.3429358 C67.5252207,59.3429358 68.1039611,60.8990267 68.1039611,63.399646 L68.1039611,66.2221194 L68.1043583,66.2221194 Z M79.2394514,66.2816485 C79.2394514,68.6425729 78.2638944,70.9324592 74.1821259,70.9324592 C70.0983713,70.9324592 69.1045425,68.6425729 69.1045425,66.2816485 L69.1045425,64.0020806 C69.1045425,61.6399656 70.0983713,59.3496824 74.1821259,59.3496824 C78.2638944,59.3496824 79.2394514,61.6399656 79.2394514,64.0020806 L79.2394514,66.2816485 Z M90.3669974,66.2816485 C90.3669974,68.6425729 89.3902488,70.9324592 85.3092747,70.9324592 C81.2255201,70.9324592 80.2316913,68.6425729 80.2316913,66.2816485 L80.2316913,64.0020806 C80.2316913,61.6399656 81.2255201,59.3496824 85.3092747,59.3496824 C89.3902488,59.3496824 90.3669974,61.6399656 90.3669974,64.0020806 L90.3669974,66.2816485 Z M101.786496,70.8046701 L98.0213064,70.8046701 L94.8368437,65.4934831 L94.8368437,70.8046701 L91.3620178,70.8046701 L91.3620178,54.8695218 L94.8368437,54.290502 L94.8368437,64.5489546 L98.0213064,59.5060456 L101.786496,59.5060456 L98.3100808,65.0093131 L101.786496,70.8046701 L101.786496,70.8046701 Z M85.2973583,62.2424002 C84.1172362,62.2424002 83.7077089,62.886902 83.7077089,63.6893543 L83.7077089,66.6177896 C83.7077089,67.4222262 84.1172362,68.0687123 85.2973583,68.0687123 C86.4758915,68.0687123 86.8929659,67.4222262 86.8929659,66.6177896 L86.8929659,63.6893543 C86.8929659,62.886902 86.4758915,62.2424002 85.2973583,62.2424002 Z M103.769784,68.8227477 C104.35488,68.8227477 104.820811,69.2993774 104.820811,69.8946685 C104.820811,70.4990873 104.354482,70.9705579 103.765414,70.9705579 C103.179127,70.9705579 102.703662,70.4990873 102.703662,69.8946685 C102.703662,69.2993774 103.179127,68.8227477 103.765414,68.8227477 L103.769784,68.8227477 L103.769784,68.8227477 Z M103.765414,68.9894292 C103.293922,68.9894292 102.908227,69.394624 102.908227,69.8946685 C102.908227,70.4038408 103.294319,70.8038764 103.769784,70.8038764 C104.245646,70.8086387 104.625779,70.4038408 104.625779,69.8994308 C104.625779,69.3950208 104.245646,68.9894292 103.769784,68.9894292 L103.765414,68.9894292 L103.765414,68.9894292 Z M103.565616,70.5185335 L103.374953,70.5185335 L103.374953,69.3223953 C103.475051,69.3085052 103.570382,69.2946151 103.713379,69.2946151 C103.894509,69.2946151 104.012879,69.3327137 104.085569,69.3847025 C104.155876,69.4374849 104.193611,69.5180477 104.193611,69.6319467 C104.193611,69.7898972 104.089541,69.884747 103.961241,69.9232424 L103.961241,69.9323702 C104.065708,69.9518164 104.136809,70.0462693 104.161039,70.2220786 C104.188844,70.4082062 104.217841,70.4792443 104.23651,70.5181367 L104.036711,70.5181367 C104.008509,70.4792443 103.979513,70.3701076 103.95568,70.2125539 C103.927875,70.0605562 103.850815,70.0034083 103.698285,70.0034083 L103.566013,70.0034083 L103.566013,70.5185335 L103.565616,70.5185335 Z M103.565616,69.8724443 L103.704873,69.8724443 C103.862538,69.8724443 103.996593,69.8126968 103.996593,69.6590016 C103.996593,69.55022 103.920562,69.4418504 103.704873,69.4418504 C103.642047,69.4418504 103.598429,69.446795 103.565616,69.4513276 L103.565616,69.8724443 Z" fill="#848484" fill-rule="nonzero"></path>
        </g>
    </g>
</svg>