<?xml version="1.0" encoding="UTF-8"?>
<svg width="124px" height="198px" viewBox="0 0 124 198" version="1.1" xmlns="http://www.w3.org/2000/svg" xmlns:xlink="http://www.w3.org/1999/xlink">
    <!-- Generator: Sketch 52.2 (67145) - http://www.bohemiancoding.com/sketch -->
    <title>Slice</title>
    <desc>Created with Sketch.</desc>
    <g stroke="none" stroke-width="1" fill="none" fill-rule="evenodd">
        <g>
            <g stroke="#000000">
                <g>
                    <g>
                        <g>
                            <g>
                                <polyline stroke-width="1.63896168" points="20.2119403 27.7457017 27.3037173 27.7506039 27.3134328 14.0126812"></polyline>
                                <path d="M12.5641791,27.7506039 L20.2119403,27.756099" stroke-width="0.641221374"></path>
                                <path d="M0.00541616174,15.111715 L0,27.7506039 M27.3036818,23.0797101 L27.3134328,0.033857318 L0.00677154495,0 L0,15.0848078" stroke-width="0.641221374"></path>
                            </g>
                        </g>
                    </g>
                </g>
                <g transform="translate(13.656716, 45.056159) scale(-1, -1) translate(-13.656716, -45.056159) translate(0.000000, 31.043478)">
                    <g>
                        <g>
                            <g>
                                <polyline stroke-width="1.63896168" points="20.2119403 27.7457017 27.3037173 27.7506039 27.3134328 14.0126812"></polyline>
                                <path d="M12.5641791,27.7506039 L20.2119403,27.756099" stroke-width="0.641221374"></path>
                                <path d="M0.00541616174,15.111715 L0,27.7506039 M27.3036818,23.0797101 L27.3134328,0.033857318 L0.00677154495,0 L0,15.0848078" stroke-width="0.641221374"></path>
                            </g>
                        </g>
                    </g>
                </g>
                <g transform="translate(107.432836, 122.664855) rotate(-180.000000) translate(-107.432836, -122.664855) translate(93.776119, 108.652174)">
                    <g>
                        <polyline stroke-width="1.63896168" points="20.2119403 28.0204602 27.3037173 28.0253623 27.3134328 14.2874396"></polyline>
                        <path d="M12.5641791,27.7506039 L20.2119403,27.756099" stroke-width="0.641221374"></path>
                    </g>
                    <path d="M0.00541616174,15.111715 L0,27.7506039 M27.3036818,23.0797101 L27.3134328,0.033857318 L0.00677154495,0 L0,15.0848078" stroke-width="0.641221374" transform="translate(13.656716, 13.875302) scale(-1, 1) translate(-13.656716, -13.875302) "></path>
                </g>
                <g transform="translate(107.432836, 153.987319) scale(-1, -1) rotate(-180.000000) translate(-107.432836, -153.987319) translate(93.776119, 139.974638)">
                    <g>
                        <polyline stroke-width="1.63896168" points="20.2119403 28.0204602 27.3037173 28.0253623 27.3134328 14.2874396"></polyline>
                        <path d="M12.5641791,27.7506039 L20.2119403,27.756099" stroke-width="0.641221374"></path>
                    </g>
                    <path d="M0.00541616174,15.111715 L0,27.7506039 M27.3036818,23.0797101 L27.3134328,0.033857318 L0.00677154495,0 L0,15.0848078" stroke-width="0.641221374" transform="translate(13.656716, 13.875302) scale(-1, 1) translate(-13.656716, -13.875302) "></path>
                </g>
            </g>
            <ellipse stroke="#000000" stroke-width="0.901428976" cx="79.1879421" cy="79.4128696" rx="2.71033014" ry="2.71721739"></ellipse>
            <path d="M76.0597306,78.5217391 C70.4512302,73.7651155 60.1180037,71.3868037 45.0600513,71.3868037 C30.0020989,71.3868037 19.6688724,62.6534477 14.060372,45.1867357" stroke="#000000" stroke-width="0.901428976" stroke-dasharray="1.802857948072029,4.507145274769177"></path>
            <g transform="translate(0.000000, 75.782609)">
                <path d="M66.4083863,29.3328625 C66.4083863,14.3149006 54.846816,0 32.5775558,0 C10.3082955,0 0.131129088,12.7296355 0.131129088,29.3328625 C0.131129088,34.4371779 1.28639295,40.1253357 3.59692069,46.3973361 L7.89872939,45.243395 C6.85383415,33.3977587 7.65702287,26.7616356 10.3082955,25.3350258 C16.6970976,21.8973077 25.5460933,26.7756638 33.7762527,26.7709924 C38.7336075,26.7681787 44.3621069,24.3131448 50.6617509,19.4058909 C50.9417143,26.9498731 52.5055413,32.3485705 55.353232,35.6019832 C56.6442291,36.9789015 57.6391714,40.1927054 58.3380588,45.243395 L63.4814965,46.3973361 C65.4327564,43.5938476 66.4083863,37.9056897 66.4083863,29.3328625 Z"></path>
                <path d="M56.9399018,54.3248396 L55.9883539,65.8428315 C54.2498456,81.0763047 43.615115,91.4796522 32.7857688,91.4796522 C32.5274147,91.4796522 32.2690605,91.4734597 32.0109896,91.4616377" stroke="#000000" stroke-width="2.73160297"></path>
                <path d="M56.9399018,54.3248396 L55.9883539,65.8428315 C54.2498456,81.0763047 43.615115,91.4796522 32.7857688,91.4796522 C32.5274147,91.4796522 32.2690605,91.4734597 32.0109896,91.4616377" stroke="#000000" stroke-width="2.73160297"></path>
                <path d="M51.557523,27.5846336 C53.4988621,35.8876083 58.0730342,36.3295254 58.0730342,44.6234929 L57.2855072,54.0433637 M50.7076738,19.7033097 C50.7436507,23.1066342 51.0663102,25.7415297 51.557523,27.8661094" stroke="#000000" stroke-width="0.641221374"></path>
                <path d="M7.65997485,37.7177643 C7.54666162,31.3322031 8.200479,24.6263224 13.2293205,24.3242988 C19.3983764,23.9538766 39.4924961,32.1983043 50.7076738,18.8588821" stroke="#000000" stroke-width="2.73160297"></path>
                <path d="M7.65997485,37.7177643 C7.54666162,31.3322031 8.200479,24.6263224 13.2293205,24.3242988 C19.3983764,23.9538766 39.4924961,32.1983043 50.7076738,18.8588821" stroke="#000000" stroke-width="0.641221374"></path>
                <path d="M8.49849281,50.9471294 C8.27158305,47.9747444 8.01237902,45.0029223 7.81719697,42.028567 C7.7228637,40.5944475 7.67555542,39.1541356 7.64864353,37.7177643 M9.91490828,67.8356805 C9.43729298,64.6665439 9.24692674,61.4627858 9.065059,58.2655015 M32.0109896,91.1981763 C23.4082486,91.0546236 16.1559181,84.5105915 12.7477392,77.4058595" stroke="#000000" stroke-width="0.641221374"></path>
                <path d="M8.12824181,45.3629299 C8.12824181,45.3629299 2.45578114,44.4368744 2.08184746,50.95107 C1.70791377,57.4652657 2.03652216,66.3990278 9.63162519,65.8402982 M64.0219792,54.3248396 C63.9364277,59.9487271 62.5786518,65.726582 56.3733356,65.2779095" stroke="#000000" stroke-width="0.641221374"></path>
                <path d="M57.7897511,44.7996967 C57.7897511,44.7996967 63.5423809,43.8837743 63.921697,50.3278825 C63.9913846,51.5097996 64.0369932,52.7725003 64.0174466,54.0433637" stroke="#000000" stroke-width="2.73160297"></path>
                <path d="M57.7897511,44.7996967 C57.7897511,44.7996967 63.5423809,43.8837743 63.921697,50.3278825 C63.9913846,51.5097996 64.0369932,52.7725003 64.0174466,54.0433637" stroke="#000000" stroke-width="0.641221374"></path>
                <path d="M66.231304,24.7698751 C66.902685,32.3556493 66.902685,40.4210584 63.1721299,47.2879433 M32.0109896,0.0112590341 C40.9460216,-0.198440476 50.0232618,2.5178015 56.9399018,8.16279973" stroke="#000000" stroke-width="0.641221374"></path>
                <path d="M0,25.8957785 C0.549569202,18.7237737 3.39174848,11.2013316 11.3299073,6.03540524 C17.7051934,1.88645117 24.9453427,0.0472879433 32.0109896,0" stroke="#000000" stroke-width="2.73160297"></path>
                <path d="M3.68268022,46.7249916 C3.68268022,46.7249916 -0.73257008,36.7069845 0.105947877,25.8957785" stroke="#000000" stroke-width="0.641221374"></path>
                <path d="M32.5581676,58.1247636 L32.5581676,49.1368816" stroke="#000000" stroke-width="0.641221374"></path>
                <path d="M21.7424683,40.627081 C21.5234493,40.5012048 21.253482,40.5009902 21.0342606,40.6265181 C20.8150391,40.752046 20.6798685,40.9842456 20.6796661,41.2356497 C20.6793532,41.6242868 20.9961749,41.9395914 21.3873072,41.9399023 C21.7784396,41.9402132 22.0957686,41.6254127 22.0960815,41.2367756 C22.096284,40.9853715 21.9614874,40.7529573 21.7424683,40.627081 Z" fill="#000000"></path>
                <path d="M44.1218327,40.627081 C43.9028137,40.5012048 43.6328464,40.5009902 43.413625,40.6265181 C43.1944035,40.752046 43.0592329,40.9842456 43.0590305,41.2356497 C43.0587176,41.6242868 43.3755393,41.9395914 43.7666716,41.9399023 C44.157804,41.9402132 44.475133,41.6254127 44.4754459,41.2367756 C44.4756484,40.9853715 44.3408518,40.7529573 44.1218327,40.627081 Z" stroke="#000000" stroke-width="0.641221374"></path>
            </g>
            <ellipse stroke="#000000" stroke-width="0.901428976" cx="31.8446585" cy="155.195478" rx="2.71033014" ry="2.71721739"></ellipse>
            <path d="M34.5970149,154.94034 C60.7732182,154.869544 73.8613199,148.446974 73.8613199,135.672631 C73.8613199,122.898287 86.2201412,116.326251 110.937784,115.956522" stroke="#000000" stroke-width="0.901428976" stroke-dasharray="1.802857948072029,4.507145274769177"></path>
            <g transform="translate(40.059701, 0.913043)">
                <path d="M63.1407893,54.3248396 L62.1892414,65.8428315 C60.450733,81.0763047 49.8160024,91.4796522 38.9866563,91.4796522 C38.7283021,91.4796522 38.4699479,91.4734597 38.211877,91.4616377" stroke="#000000" stroke-width="2.73160297"></path>
                <path d="M63.1407893,54.3248396 L62.1892414,65.8428315 C60.450733,81.0763047 49.8160024,91.4796522 38.9866563,91.4796522 C38.7283021,91.4796522 38.4699479,91.4734597 38.211877,91.4616377" stroke="#000000" stroke-width="2.73160297"></path>
                <path d="M57.7584105,27.5846336 C59.6997495,35.8876083 64.2739217,36.3295254 64.2739217,44.6234929 L63.4863947,54.0433637 M56.9085612,19.7033097 C56.9445382,23.1066342 57.2671976,25.7415297 57.7584105,27.8661094" stroke="#000000" stroke-width="0.641221374"></path>
                <path d="M13.8608623,37.7177643 C13.7475491,31.3322031 14.4013665,24.6263224 19.4302079,24.3242988 C25.5992639,23.9538766 45.6933835,32.1983043 56.9085612,18.8588821" stroke="#000000" stroke-width="2.73160297"></path>
                <path d="M13.8608623,37.7177643 C13.7475491,31.3322031 14.4013665,24.6263224 19.4302079,24.3242988 C25.5992639,23.9538766 45.6933835,32.1983043 56.9085612,18.8588821" stroke="#000000" stroke-width="0.641221374"></path>
                <path d="M14.6993803,50.9471294 C14.4724705,47.9747444 14.2132665,45.0029223 14.0180844,42.028567 C13.9237512,40.5944475 13.8764429,39.1541356 13.849531,37.7177643 M16.1157957,67.8356805 C15.6381804,64.6665439 15.4478142,61.4627858 15.2659465,58.2655015 M38.211877,91.1981763 C29.6091361,91.0546236 22.3568056,84.5105915 18.9486267,77.4058595" stroke="#000000" stroke-width="0.641221374"></path>
                <path d="M14.3291293,45.3629299 C14.3291293,45.3629299 8.65666859,44.4368744 8.28273491,50.95107 C7.90880123,57.4652657 8.23740962,66.3990278 15.8325126,65.8402982 M70.2228666,54.3248396 C70.1373151,59.9487271 68.7795393,65.726582 62.5742231,65.2779095" stroke="#000000" stroke-width="0.641221374"></path>
                <path d="M63.9906386,44.7996967 C63.9906386,44.7996967 69.7432683,43.8837743 70.1225844,50.3278825 C70.1922721,51.5097996 70.2378806,52.7725003 70.2183341,54.0433637" stroke="#000000" stroke-width="2.73160297"></path>
                <path d="M63.9906386,44.7996967 C63.9906386,44.7996967 69.7432683,43.8837743 70.1225844,50.3278825 C70.1922721,51.5097996 70.2378806,52.7725003 70.2183341,54.0433637" stroke="#000000" stroke-width="0.641221374"></path>
                <path d="M80.8468641,45.408005 C81.6833356,59.3142033 81.6833356,74.0996655 77.0354482,86.688 M38.211877,0.0206504652 C49.3440067,-0.363769488 60.6533129,4.61562991 69.270734,14.9640087" stroke="#000000" stroke-width="0.641221374"></path>
                <path d="M6.20088745,25.8957785 C6.75045666,18.7237737 9.59263594,11.2013316 17.5307948,6.03540524 C23.9060808,1.88645117 31.1462301,0.0472879433 38.211877,0" stroke="#000000" stroke-width="2.73160297"></path>
                <path d="M6.20088745,25.8957785 C6.75045666,18.7237737 9.59263594,11.2013316 17.5307948,6.03540524 C23.9060808,1.88645117 31.1462301,0.0472879433 38.211877,0" stroke="#000000" stroke-width="0.641221374"></path>
                <path d="M6.20091136,65.7391304 C6.20091136,65.7391304 -0.446518724,46.5760934 0.815921482,25.8957785" stroke="#000000" stroke-width="0.641221374" transform="translate(3.428679, 45.817454) scale(-1, 1) translate(-3.428679, -45.817454) "></path>
                <path d="M38.7590551,58.1247636 L38.7590551,49.1368816" stroke="#000000" stroke-width="0.641221374"></path>
                <path d="M27.9433558,40.627081 C27.7243368,40.5012048 27.4543695,40.5009902 27.235148,40.6265181 C27.0159266,40.752046 26.8807559,40.9842456 26.8805535,41.2356497 C26.8802406,41.6242868 27.1970624,41.9395914 27.5881947,41.9399023 C27.979327,41.9402132 28.2966561,41.6254127 28.296969,41.2367756 C28.2971714,40.9853715 28.1623748,40.7529573 27.9433558,40.627081 Z" fill="#000000"></path>
                <path d="M50.3227202,40.627081 C50.1037012,40.5012048 49.8337339,40.5009902 49.6145124,40.6265181 C49.395291,40.752046 49.2601203,40.9842456 49.2599179,41.2356497 C49.259605,41.6242868 49.5764268,41.9395914 49.9675591,41.9399023 C50.3586914,41.9402132 50.6760205,41.6254127 50.6763334,41.2367756 C50.6765358,40.9853715 50.5417392,40.7529573 50.3227202,40.627081 Z" stroke="#000000" stroke-width="0.641221374"></path>
            </g>
        </g>
    </g>
</svg>