<svg width="83" height="83" viewBox="0 0 83 83" fill="none" xmlns="http://www.w3.org/2000/svg">
<path fill-rule="evenodd" clip-rule="evenodd" d="M21.2763 38.0939H12.1276V40.8132H18.6159C18.2955 44.6266 15.1283 46.2527 12.1386 46.2527C8.31355 46.2527 4.97595 43.2382 4.97595 39.013C4.97595 34.897 8.15747 31.7273 12.1469 31.7273C15.2249 31.7273 17.0386 33.6924 17.0386 33.6924L18.9394 31.7208C18.9394 31.7208 16.4995 29 12.0498 29C6.38344 29 2 33.7903 2 38.9646C2 44.0346 6.12351 48.9782 12.1942 48.9782C17.5334 48.9782 21.4419 45.3147 21.4419 39.8969C21.4419 38.7538 21.2763 38.0933 21.2763 38.0933V38.0939Z" fill="#848484"/>
<path fill-rule="evenodd" clip-rule="evenodd" d="M28.808 38.6467C30.6541 38.6467 32.4034 40.1419 32.4034 42.5507C32.4034 44.9087 30.6614 46.4461 28.7994 46.4461C26.7535 46.4461 25.1396 44.805 25.1396 42.532C25.1396 40.3078 26.7337 38.6467 28.808 38.6467ZM28.7707 36.1248C25.0168 36.1248 22.3264 39.0644 22.3264 42.4929C22.3264 45.9722 24.9358 48.9666 28.8147 48.9666C32.3264 48.9666 35.2031 46.2785 35.2031 42.5678C35.2031 38.3148 31.8566 36.1248 28.7707 36.1248Z" fill="#848484"/>
<mask id="mask0" mask-type="alpha" maskUnits="userSpaceOnUse" x="36" y="36" width="27" height="19">
<path fill-rule="evenodd" clip-rule="evenodd" d="M62.6776 54.732V36.1248H36.3418L36.3418 54.732H62.6776Z" fill="white"/>
</mask>
<g mask="url(#mask0)">
<path fill-rule="evenodd" clip-rule="evenodd" d="M42.8236 38.6467C44.6698 38.6467 46.419 40.1419 46.419 42.5507C46.419 44.9087 44.6771 46.4461 42.8151 46.4461C40.7692 46.4461 39.1553 44.805 39.1553 42.532C39.1553 40.3078 40.7491 38.6467 42.8236 38.6467ZM42.7864 36.1248C39.0322 36.1248 36.3418 39.0644 36.3418 42.4929C36.3418 45.9722 38.9515 48.9666 42.8304 48.9666C46.3418 48.9666 49.2187 46.2785 49.2187 42.5678C49.2187 38.3148 45.8723 36.1248 42.7864 36.1248Z" fill="#848484"/>
<path fill-rule="evenodd" clip-rule="evenodd" d="M56.7828 38.6486C58.4722 38.6486 60.2068 40.0933 60.2068 42.5608C60.2068 45.069 58.4759 46.4513 56.7455 46.4513C54.9086 46.4513 53.1993 44.9573 53.1993 42.5847C53.1993 40.1196 54.9743 38.6486 56.7828 38.6486ZM56.5333 36.1315C53.0875 36.1315 50.3792 39.1543 50.3792 42.5473C50.3792 46.4121 53.5191 48.9751 56.474 48.9751C58.3009 48.9751 59.2725 48.2488 59.9897 47.4151V48.6811C59.9897 50.8965 58.6469 52.2231 56.62 52.2231C54.6618 52.2231 53.6798 50.7646 53.3383 49.937L50.8749 50.9687C51.7488 52.8197 53.5081 54.7503 56.6405 54.7503C60.0663 54.7503 62.6776 52.5887 62.6776 48.0557V36.5176H59.9897V37.6053C59.1634 36.7131 58.0333 36.1315 56.5333 36.1315Z" fill="#848484"/>
</g>
<path fill-rule="evenodd" clip-rule="evenodd" d="M74.7396 38.5856C75.911 38.5856 76.7537 39.2094 77.1117 39.9572L71.3715 42.3604C71.1241 40.4999 72.8837 38.5856 74.7396 38.5856ZM74.6278 36.1162C71.3773 36.1162 68.6484 38.7064 68.6484 42.5287C68.6484 46.5731 71.6904 48.9718 74.94 48.9718C77.652 48.9718 79.3167 47.4855 80.3103 46.154L78.0943 44.6768C77.5192 45.5708 76.5579 46.4446 74.9534 46.4446C73.1513 46.4446 72.3226 45.4561 71.8095 44.4984L80.405 40.9258L79.9588 39.8788C79.1283 37.8286 77.1914 36.1165 74.6281 36.1165L74.6278 36.1162Z" fill="#848484"/>
<path fill-rule="evenodd" clip-rule="evenodd" d="M64.5505 48.5905H67.3738V29.6642H64.5505V48.5905Z" fill="#848484"/>
</svg>
