<?xml version="1.0" encoding="UTF-8"?>
<svg width="124px" height="124px" viewBox="0 0 124 124" version="1.1" xmlns="http://www.w3.org/2000/svg" xmlns:xlink="http://www.w3.org/1999/xlink">
    <!-- Generator: Sketch 53.2 (72643) - https://sketchapp.com -->
    <title>Google-2</title>
    <desc>Created with Sketch.</desc>
    <defs>
        <rect id="path-1" x="0" y="0" width="124" height="124"></rect>
        <polygon id="path-2" points="26.4677264 18.6448386 26.4677264 0.0376323458 0.131952244 0.0376323458 0.131952244 18.6448386"></polygon>
    </defs>
    <g stroke="none" stroke-width="1" fill="none" fill-rule="evenodd">
        <g>
            <g>
                <use fill-opacity="0.01" fill="#D8D8D8" fill-rule="evenodd" style="mix-blend-mode: screen;" xlink:href="#path-1"></use>
                <rect stroke-opacity="0" stroke="#979797" stroke-width="1" stroke-linejoin="square" x="0.5" y="0.5" width="123" height="123"></rect>
            </g>
            <g transform="translate(25.000000, 48.000000)">
                <g transform="translate(0.740990, 0.000000)">
                    <path d="M19.2763291,9.34964922 L10.1276402,9.34964922 L10.1276402,12.0689686 L16.6159031,12.0689686 C16.2954913,15.8823797 13.128332,17.5085254 10.1386362,17.5085254 C6.31354835,17.5085254 2.97595073,14.4939603 2.97595073,10.2687351 C2.97595073,6.15273556 6.15746595,2.9830518 10.1468832,2.9830518 C13.2248526,2.9830518 15.0385851,4.94819454 15.0385851,4.94819454 L16.9393694,2.97662676 C16.9393694,2.97662676 14.4994746,0.25577757 10.0497517,0.25577757 C4.38344133,0.25577757 0,5.04609983 0,10.2203944 C0,15.2903586 4.12350763,20.2339639 10.1942272,20.2339639 C15.533406,20.2339639 19.4418803,16.5704703 19.4418803,11.1526363 C19.4418803,10.0095921 19.2763291,9.34903731 19.2763291,9.34903731 L19.2763291,9.34964922" fill="#848484"></path>
                    <path d="M26.8079922,9.90250816 C28.6541018,9.90250816 30.4033854,11.3977055 30.4033854,13.8064816 C30.4033854,16.1644693 28.6614325,17.7018883 26.7994397,17.7018883 C24.753569,17.7018883 23.1395976,16.0607509 23.1395976,13.7878184 C23.1395976,11.5635326 24.7337151,9.90250816 26.8079922,9.90250816 Z M26.7707279,7.38052908 C23.0168087,7.38052908 20.3264491,10.3201354 20.3264491,13.7486563 C20.3264491,17.2279655 22.9358658,20.2223376 26.814712,20.2223376 C30.3264132,20.2223376 33.2030943,17.5342255 33.2030943,13.823615 C33.2030943,9.57054803 29.8566388,7.38052908 26.7707279,7.38052908 L26.7707279,7.38052908 Z" fill="#848484"></path>
                    <g transform="translate(34.209841, 7.342897)">
                        <mask id="mask-3" fill="white">
                            <use xlink:href="#path-2"></use>
                        </mask>
                        <g></g>
                        <path d="M6.6138008,2.55961142 C8.45991043,2.55961142 10.209194,4.05480877 10.209194,6.46358485 C10.209194,8.82157256 8.46724111,10.3589916 6.60524834,10.3589916 C4.55937766,10.3589916 2.94540623,8.71785415 2.94540623,6.44492166 C2.94540623,4.22063585 4.53921829,2.55961142 6.6138008,2.55961142 Z M6.5765365,0.0376323458 C2.82231189,0.0376323458 0.131952244,2.97723867 0.131952244,6.40575954 C0.131952244,9.88506878 2.74167441,12.8794409 6.62052059,12.8794409 C10.1319164,12.8794409 13.008903,10.1913288 13.008903,6.48071828 C13.008903,2.2276513 9.66244744,0.0376323458 6.5765365,0.0376323458 L6.5765365,0.0376323458 Z" fill="#848484" mask="url(#mask-3)"></path>
                        <path d="M20.5729432,2.56144714 C22.2623595,2.56144714 23.9969817,4.00616208 23.9969817,6.47368133 C23.9969817,8.98189248 22.2660249,10.3641928 20.5356789,10.3641928 C18.6987326,10.3641928 16.9894623,8.87021926 16.9894623,6.49754575 C16.9894623,4.03247412 18.7644033,2.56144714 20.5729432,2.56144714 Z M20.3233946,0.0443633344 C16.8776695,0.0443633344 14.1692886,3.06718916 14.1692886,6.46021936 C14.1692886,10.3250307 17.3092633,12.8880076 20.2641383,12.8880076 C22.0910049,12.8880076 23.0626255,12.1616727 23.7798103,11.327948 L23.7798103,12.5939858 C23.7798103,14.8093989 22.4370741,16.1360156 20.410141,16.1360156 C18.451933,16.1360156 17.4699273,14.6775327 17.1284398,13.8499271 L14.6650258,14.881604 C15.538904,16.7326259 17.2982672,18.6631959 20.4306058,18.6631959 C23.856477,18.6631959 26.4677264,16.5016306 26.4677264,11.9686157 L26.4677264,0.430477321 L23.7798103,0.430477321 L23.7798103,1.5181439 C22.9535816,0.625981947 21.8234351,0.0443633344 20.3233946,0.0443633344 L20.3233946,0.0443633344 Z" fill="#848484" mask="url(#mask-3)"></path>
                    </g>
                    <path d="M72.739591,9.84131735 C73.9109726,9.84131735 74.7536953,10.4651576 75.1116769,11.2129093 L69.3714488,13.6161782 C69.1240384,11.7556717 70.8837071,9.84131735 72.739591,9.84131735 Z M72.6277981,7.37196237 C69.3772523,7.37196237 66.6484066,9.96216919 66.6484066,13.7844529 C66.6484066,17.8288592 69.6903334,20.2275388 72.9399629,20.2275388 C75.6520091,20.2275388 77.3166844,18.7412141 78.310297,17.4097022 L76.0942935,15.9325561 C75.5191405,16.8265538 74.5579051,17.7003585 72.9534025,17.7003585 C71.1512769,17.7003585 70.3226046,16.7118211 69.809457,15.7541849 L78.404985,12.1815597 L77.9587298,11.134585 C77.1282249,9.08438708 75.191398,7.37226832 72.6281035,7.37226832 L72.6277981,7.37196237 L72.6277981,7.37196237 Z" fill="#848484"></path>
                    <polygon fill="#848484" points="62.5505563 19.8463201 65.3737845 19.8463201 65.3737845 0.92000377 62.5505563 0.92000377"></polygon>
                </g>
            </g>
        </g>
    </g>
</svg>