<svg xmlns="http://www.w3.org/2000/svg" xmlns:xlink="http://www.w3.org/1999/xlink" width="176" height="108" viewBox="0 0 176 108">
    <defs>
        <filter id="a" width="131%" height="166.8%" x="-15.5%" y="-21.9%" filterUnits="objectBoundingBox">
            <feOffset dy="25" in="SourceAlpha" result="shadowOffsetOuter1"/>
            <feGaussianBlur in="shadowOffsetOuter1" result="shadowBlurOuter1" stdDeviation="20"/>
            <feColorMatrix in="shadowBlurOuter1" result="shadowMatrixOuter1" values="0 0 0 0 0.776470588 0 0 0 0 0.776470588 0 0 0 0 0.776470588 0 0 0 0.15 0"/>
            <feMerge>
                <feMergeNode in="shadowMatrixOuter1"/>
                <feMergeNode in="SourceGraphic"/>
            </feMerge>
        </filter>
        <path id="b" d="M.171 24.196h34.12V.049H.17v24.147z"/>
    </defs>
    <g fill="none" fill-rule="evenodd" filter="url(#a)" transform="translate(37 12)">
        <path fill="#848484" d="M25.934 12.133H14.08v3.53h8.406c-.415 4.948-4.518 7.058-8.392 7.058-4.955 0-9.28-3.912-9.28-9.395 0-5.341 4.122-9.455 9.29-9.455 3.989 0 6.338 2.55 6.338 2.55l2.463-2.558S19.745.332 13.98.332C6.64.332.96 6.548.96 13.263c0 6.58 5.342 12.995 13.207 12.995 6.918 0 11.981-4.754 11.981-11.785 0-1.483-.214-2.34-.214-2.34M35.691 12.85c2.392 0 4.659 1.941 4.659 5.067 0 3.06-2.257 5.055-4.67 5.055-2.65 0-4.741-2.13-4.741-5.08 0-2.886 2.065-5.041 4.752-5.041zm-.048-3.272c-4.863 0-8.349 3.815-8.349 8.264 0 4.515 3.38 8.401 8.406 8.401 4.55 0 8.277-3.488 8.277-8.304 0-5.519-4.336-8.361-8.334-8.361z"/>
        <g transform="translate(45.281 9.53)">
            <mask id="c" fill="#fff">
                <use xlink:href="#b"/>
            </mask>
            <path fill="#848484" d="M8.569 3.322c2.391 0 4.658 1.94 4.658 5.066 0 3.06-2.257 5.055-4.67 5.055-2.65 0-4.741-2.13-4.741-5.08 0-2.886 2.065-5.041 4.753-5.041zM8.52.049C3.656.049.171 3.864.171 8.313c0 4.515 3.381 8.401 8.406 8.401 4.55 0 8.277-3.488 8.277-8.304C16.854 2.89 12.518.05 8.52.05zM26.654 3.324c2.188 0 4.436 1.875 4.436 5.077 0 3.255-2.243 5.049-4.485 5.049-2.38 0-4.594-1.939-4.594-5.018 0-3.199 2.3-5.108 4.643-5.108zM26.33.058c-4.464 0-7.973 3.922-7.973 8.326 0 5.015 4.068 8.341 7.896 8.341 2.367 0 3.626-.942 4.555-2.024v1.643c0 2.875-1.74 4.596-4.365 4.596-2.537 0-3.81-1.893-4.252-2.967l-3.192 1.34c1.133 2.401 3.412 4.907 7.47 4.907 4.439 0 7.822-2.805 7.822-8.688V.559h-3.483V1.97C29.738.812 28.274.058 26.33.058z" mask="url(#c)"/>
        </g>
        <path fill="#848484" d="M95.199 12.771c1.517 0 2.61.81 3.073 1.78l-7.437 3.12c-.32-2.415 1.96-4.9 4.364-4.9zm-.145-3.204c-4.211 0-7.747 3.361-7.747 8.322 0 5.248 3.941 8.36 8.151 8.36 3.514 0 5.67-1.928 6.958-3.656l-2.871-1.917c-.745 1.16-1.99 2.294-4.07 2.294-2.334 0-3.408-1.283-4.072-2.525l11.136-4.637-.578-1.358c-1.076-2.66-3.586-4.883-6.907-4.883zM81.998 25.755h3.658V1.194h-3.658z"/>
    </g>
</svg>
