<svg width="83" height="83" viewBox="0 0 83 83" fill="none" xmlns="http://www.w3.org/2000/svg">
<path d="M41.336 42.7196V55.3444V67.9691L28.6594 68.021L16 68.0556L16.0346 63.611L16.0865 59.1491H19.3205C21.0845 59.1491 22.5026 59.0972 22.4507 59.028C22.4162 58.9416 22.2605 58.8897 22.1222 58.8897C21.4823 58.8897 19.5453 57.8001 18.6114 56.9008C15.1353 53.5976 15.1526 48.1673 18.6633 44.9332C19.9258 43.7572 21.3785 43.0482 23.0042 42.806C23.7651 42.685 27.3796 42.6504 32.7754 42.6677L41.336 42.7196Z" fill="#848484"/>
<path d="M67.3984 48.271C67.7789 49.2741 67.7962 49.4643 67.8481 58.6821L67.9 68.0556H55.1714H42.4602V55.3444V42.6331H46.8702H51.2802L51.2975 46.1438V49.6373L51.7126 48.4613C52.7675 45.3829 55.206 43.3076 58.2844 42.806C62.2447 42.1662 65.9457 44.3798 67.3984 48.271Z" fill="#848484"/>
<path d="M41.1804 22.7275C41.3706 23.6268 41.4225 25.7712 41.4225 32.5679V41.2496H28.7113H16V28.6248V16H20.41H24.8201L24.8373 19.4243L24.8546 22.8312L25.2178 21.7763C25.7539 20.289 26.3765 19.3205 27.4834 18.2828C29.5068 16.3632 32.3603 15.6022 34.9372 16.2594C38.1885 17.0895 40.4886 19.4934 41.1804 22.7275Z" fill="#848484"/>
<path d="M56.97 38.5171C56.1053 39.5374 54.7564 40.4367 53.3901 40.8864C51.9374 41.3879 49.5335 41.3706 48.0808 40.8864C45.2964 39.9179 43.1692 37.4794 42.6504 34.6086C42.5293 33.9514 42.4602 30.3542 42.4602 24.7855V16L55.1368 16.0346L67.7962 16.0865L67.8481 28.6767L67.8827 41.2496H63.3862H58.8897L58.8724 38.0155C58.8551 36.2169 58.8032 35.0063 58.734 35.2831C58.5092 36.1651 57.6964 37.687 56.97 38.5171Z" fill="#848484"/>
</svg>
