<?xml version="1.0" encoding="UTF-8"?>
<svg width="72px" height="67px" viewBox="0 0 72 67" version="1.1" xmlns="http://www.w3.org/2000/svg" xmlns:xlink="http://www.w3.org/1999/xlink">
    <!-- Generator: Sketch 53.2 (72643) - https://sketchapp.com -->
    <title>interview</title>
    <desc>Created with Sketch.</desc>
    <g stroke="none" stroke-width="1" fill="none" fill-rule="evenodd">
        <g transform="translate(-2.000000, -4.000000)" fill="#000000">
            <path d="M47.3879812,38.6647688 L28.2830313,38.6647688 L31.7668125,42.14855 L30.58975,43.3256125 L25.09525,37.833425 L30.58975,32.338925 L31.7668125,33.513675 L28.2844512,36.9997688 L47.3865613,36.9997688 L43.9042,33.513675 L45.0812625,32.338925 L50.5757625,37.833425 L45.0812625,43.3256125 L43.9042,42.14855 L47.3879812,38.6647688 Z M17.855275,70.2072688 L16.190275,70.2072688 L16.190275,49.0016438 C16.190275,48.6501438 16.4099625,48.3379563 16.74065,48.2177063 C19.36765,47.2718938 20.815275,45.2484563 20.815275,42.5243313 L20.815275,31.6856438 C20.815275,26.6073938 17.0389625,22.4772688 12.397775,22.4772688 C7.754275,22.4772688 3.9779625,26.6189563 3.9779625,31.7110813 L3.9779625,42.5497688 C3.9779625,45.2553938 5.4255875,47.2695813 8.0549,48.2200188 C8.3855875,48.3379563 8.605275,48.6501438 8.605275,49.0016438 L8.605275,70.2072688 L6.940275,70.2072688 L6.940275,49.5682063 C3.989525,48.2940188 2.3129625,45.7664563 2.3129625,42.5497688 L2.3129625,31.7110813 C2.3129625,25.7008938 6.8362125,20.8122688 12.397775,20.8122688 C17.957025,20.8122688 22.480275,25.6893313 22.480275,31.6856438 L22.480275,42.5243313 C22.480275,45.7572063 20.8037125,48.2917063 17.855275,49.5682063 L17.855275,70.2072688 Z M12.39685,6.2895375 C9.6681,6.2895375 7.4481,8.5095375 7.4481,11.2382875 C7.4481,13.9670375 9.6681,16.1870375 12.39685,16.1870375 C15.1256,16.1870375 17.3456,13.9670375 17.3456,11.2382875 C17.3456,8.5095375 15.1256,6.2895375 12.39685,6.2895375 Z M12.39685,17.8520375 C8.7500375,17.8520375 5.7831,14.8851 5.7831,11.2382875 C5.7831,7.591475 8.7500375,4.6245375 12.39685,4.6245375 C16.0436625,4.6245375 19.0106,7.591475 19.0106,11.2382875 C19.0106,14.8851 16.0436625,17.8520375 12.39685,17.8520375 Z M68.7314312,70.2072688 L67.0664312,70.2072688 L67.0664312,49.0016438 C67.0664312,48.6501437 67.2861187,48.3379563 67.6168062,48.2177063 C70.2438062,47.2718938 71.6914312,45.2484563 71.6914312,42.5243313 L71.6914312,31.6856438 C71.6914312,26.6073938 67.9151187,22.4772688 63.2739312,22.4772688 C58.6304312,22.4772688 54.8541187,26.6189563 54.8541187,31.7110813 L54.8541187,42.5497688 C54.8541187,45.2553938 56.3017437,47.2695813 58.9310562,48.2200188 C59.2617437,48.3379563 59.4814312,48.6501437 59.4814312,49.0016438 L59.4814312,70.2072688 L57.8164312,70.2072688 L57.8164312,49.5682063 C54.8679937,48.2940188 53.1891187,45.7664563 53.1891187,42.5497688 L53.1891187,31.7110813 C53.1891187,25.7008938 57.7123687,20.8122688 63.2739312,20.8122688 C68.8331812,20.8122688 73.3564312,25.6893313 73.3564312,31.6856438 L73.3564312,42.5243313 C73.3564312,45.7572063 71.6798687,48.2917063 68.7314312,49.5682063 L68.7314312,70.2072688 Z M63.2730063,6.2895375 C60.5442563,6.2895375 58.3242563,8.5095375 58.3242563,11.2382875 C58.3242563,13.9670375 60.5442563,16.1870375 63.2730063,16.1870375 C66.0017563,16.1870375 68.2217563,13.9670375 68.2217563,11.2382875 C68.2217563,8.5095375 66.0017563,6.2895375 63.2730063,6.2895375 Z M63.2730063,17.8520375 C59.6261938,17.8520375 56.6592563,14.8851 56.6592563,11.2382875 C56.6592563,7.591475 59.6261938,4.6245375 63.2730063,4.6245375 C66.9198188,4.6245375 69.8867563,7.591475 69.8867563,11.2382875 C69.8867563,14.8851 66.9198188,17.8520375 63.2730063,17.8520375 Z"></path>
        </g>
    </g>
</svg>