<?xml version="1.0" encoding="utf-8"?>
<!-- Generator: Adobe Illustrator 22.1.0, SVG Export Plug-In . SVG Version: 6.00 Build 0)  -->
<svg version="1.1" id="Layer_1" xmlns="http://www.w3.org/2000/svg" xmlns:xlink="http://www.w3.org/1999/xlink" x="0px" y="0px"
	 viewBox="0 0 28 84" style="enable-background:new 0 0 28 84;" xml:space="preserve">
<style type="text/css">
	.st0{fill:#DC395F;}
	.st1{fill:#FFFFFE;}
</style>
<title>invision-logo-pink</title>
<desc>Created with Sketch.</desc>
<g>
	<g transform="translate(-90.000000, -1901.000000)">
		<g transform="translate(0.000000, 1655.000000)">
			
				<g transform="translate(104.000000, 473.000000) rotate(-90.000000) translate(-104.000000, -473.000000) translate(-122.500000, 459.000000)">
				<g transform="translate(370.000000, 0.000000)">
					<path class="st0" d="M25.8,0H2.6C1.2,0,0,1.1,0,2.5v22.9C0,26.9,1.2,28,2.6,28h23.3c1.4,0,2.6-1.1,2.6-2.5V2.5
						C28.4,1.1,27.3,0,25.8,0"/>
					<path class="st1" d="M10,10c-1.1,0-2-0.9-2-2c0-1.1,0.9-2,2-2c1.1,0,2,0.9,2,2C12,9.1,11.1,10,10,10z M11.5,20.7L11,22.8h2.8
						l1.6-6.8c0.4-1.7,1.2-2.6,2.4-2.6c0.9,0,1.5,0.6,1.5,1.6c0,0.3,0,0.6-0.1,1l-0.8,3.1c-0.1,0.4-0.2,0.9-0.2,1.3
						c0,1.5,0.8,2.6,2.6,2.6c1.5,0,2.7-1,3.3-3.4l-1.1-0.4c-0.6,1.6-1,1.9-1.4,1.9c-0.4,0-0.6-0.3-0.6-0.8c0-0.2,0.1-0.5,0.1-0.8
						l0.8-3c0.2-0.7,0.3-1.3,0.3-1.9c0-2.3-1.3-3.5-2.9-3.5c-1.5,0-3,1.4-3.7,2.9l0.6-2.7h-4.3l-0.6,2.3h2l-1.2,5.2
						c-1,2.3-2.8,2.3-3,2.3c-0.4-0.1-0.6-0.2-0.6-0.7c0-0.3,0.1-0.7,0.2-1.2l1.9-7.9H5.6L5,13.6h2l-1.3,5.5
						c-0.1,0.4-0.2,0.9-0.2,1.3C5.6,22,6.4,23,8.1,23C9.5,23,10.6,22.1,11.5,20.7z"/>
					<path class="st0" d="M54.3,21.7h2.7V10.2h-2.7V21.7z M78.9,10c-1.8,0-2.9,0.9-3.6,2v-1.8h-2.7v11.5h2.7v-6.5
						c0-1.8,1.1-2.9,2.6-2.9c1.6,0,2.5,1,2.5,2.8v6.5H83v-7.3C83,11.7,81.5,10,78.9,10z M64.8,19.7c-2.1,0-3.5-1.7-3.5-3.7
						c0-2,1.4-3.7,3.5-3.7c2.1,0,3.6,1.7,3.6,3.7C68.3,18.1,67,19.7,64.8,19.7z M64.8,10c-3.6,0-6.2,2.7-6.2,6c0,3.3,2.6,6,6.1,6
						c3.6,0,6.2-2.7,6.2-6C71,12.7,68.4,10,64.8,10z M32,18.7l-3.1-8.4H26l4.8,11.6h2.4l4.7-11.6h-2.8L32,18.7z M48.9,14.9
						c-1.4-0.4-2.6-0.8-2.6-1.6v0c0-0.7,0.6-1.2,1.6-1.2c0.5,0,1.1,0.1,1.6,0.3l0,0c0,0,0,0,0,0c0.1,0,0.1,0,0.2,0.1
						c0.4,0.1,1.6,0.3,2.5-1.2C51,10.5,49.4,10,48,10c-2.3,0-4.1,1.3-4.1,3.5v0c0,2.2,1.9,2.9,3.6,3.4c1.4,0.4,2.6,0.7,2.6,1.6v0
						c0,0.8-0.7,1.2-1.8,1.2c-0.8,0-1.6-0.2-2.4-0.6c-0.2-0.1-1.5-0.5-2.5,1c1.4,1.1,3.3,1.7,4.9,1.7c2.4,0,4.3-1.2,4.3-3.6v0
						C52.5,16.2,50.6,15.5,48.9,14.9z M39.2,21.7h2.7V10.2h-2.7V21.7z"/>
				</g>
			</g>
		</g>
	</g>
</g>
</svg>
