<?xml version="1.0" encoding="UTF-8"?>
<svg width="83px" height="28px" viewBox="0 0 83 28" version="1.1" xmlns="http://www.w3.org/2000/svg" xmlns:xlink="http://www.w3.org/1999/xlink">
    <!-- Generator: Sketch 49.3 (51167) - http://www.bohemiancoding.com/sketch -->
    <title>invision-logo-pink</title>
    <desc>Created with Sketch.</desc>
    <defs>
        <polygon id="path-1" points="14.2132295 0 0.00645909091 0 0.00645909091 27.9936364 28.42 27.9936364 28.42 0"></polygon>
    </defs>
    <g stroke="none" stroke-width="1" fill="none" fill-rule="evenodd">
        <g>
            <g>
                <mask id="mask-2" fill="white">
                    <use xlink:href="#path-1"></use>
                </mask>
                <g></g>
                <path d="M25.8436839,0 L2.57631606,0 C1.15348598,0 0,1.13643939 0,2.53824242 L0,25.4617576 C0,26.8635606 1.15348598,28 2.57631606,28 L25.8436839,28 C27.266514,28 28.42,26.8635606 28.42,25.4617576 L28.42,2.53824242 C28.42,1.13643939 27.266514,0 25.8436839,0" fill="#DC395F" mask="url(#mask-2)"></path>
            </g>
            <path d="M54.2581237,21.7388402 L56.9134039,21.7388402 L56.9134039,10.2399875 L54.2581237,10.2399875 L54.2581237,21.7388402 Z M78.8750747,10 C77.0757128,10 76.0009291,10.9365874 75.2547061,12.0253442 L75.2547061,10.2399875 L72.6001615,10.2399875 L72.6001615,21.7388402 L75.2547061,21.7388402 L75.2547061,15.2483312 C75.2547061,13.4626617 76.3299102,12.395703 77.865961,12.395703 C79.445932,12.395703 80.3451401,13.4189612 80.3451401,15.2047351 L80.3451401,21.7388402 L83,21.7388402 L83,14.4210471 C83,11.7423863 81.4860143,10 78.8750747,10 Z M64.833643,19.713496 C62.7708651,19.713496 61.3009047,18.0362954 61.3009047,15.9890488 C61.3009047,13.9640175 62.6611697,12.308302 64.7896178,12.308302 C66.8737253,12.308302 68.3440009,13.9851898 68.3440009,16.0327493 C68.3440009,18.0580935 66.9834207,19.713496 64.833643,19.713496 Z M64.833643,10 C61.2792598,10 58.6460449,12.7219441 58.6460449,16.0327493 C58.6460449,19.320922 61.2568795,22 64.7896178,22 C68.3663813,22 70.9992811,19.2776387 70.9992811,15.9890488 C70.9992811,12.6789737 68.387711,10 64.833643,10 Z M31.9678921,18.6895077 L28.8523956,10.2399875 L26,10.2399875 L30.7613478,21.8255111 L33.1527916,21.8255111 L37.8919692,10.2399875 L35.1055589,10.2399875 L31.9678921,18.6895077 Z M48.9054295,14.9439925 C47.5448492,14.507718 46.2938594,14.1595745 46.2938594,13.3322904 L46.2938594,13.2885899 C46.2938594,12.6134752 46.8863616,12.1342303 47.9175404,12.1342303 C48.4205212,12.1342303 48.9834981,12.2487484 49.5653881,12.4513976 L49.5649678,12.4499374 C49.5649678,12.4499374 49.5707468,12.4527534 49.5816743,12.4577597 C49.6316887,12.4753859 49.6825436,12.495098 49.7332935,12.5140801 C50.1531621,12.6459116 51.2859458,12.8220693 52.2404218,11.3506466 C51.0114971,10.5444305 49.4322616,10.0433876 47.9832106,10.0433876 C45.6798173,10.0433876 43.8587055,11.3717146 43.8587055,13.5500626 L43.8587055,13.593763 C43.8587055,15.793179 45.7674475,16.4900918 47.4787588,16.9693367 C48.8394441,17.3829787 50.0683688,17.6877347 50.0683688,18.5806216 L50.0683688,18.6240092 C50.0683688,19.3865248 49.4098812,19.8656654 48.269007,19.8656654 C47.5103856,19.8656654 46.6796846,19.6669796 45.8519256,19.2797247 C45.6137269,19.1800167 44.3745051,18.7592824 43.3149568,20.2550063 C44.7586491,21.3741135 46.5672573,21.9566124 48.2033369,21.9566124 C50.6161103,21.9566124 52.5035227,20.7592824 52.5035227,18.3410513 L52.5035227,18.2976637 C52.5035227,16.2290363 50.5947807,15.4665207 48.9054295,14.9439925 Z M39.2074734,21.7388402 L41.8623333,21.7388402 L41.8623333,10.2399875 L39.2074734,10.2399875 L39.2074734,21.7388402 Z" fill="#DC395F"></path>
            <path d="M9.99993799,10 C11.0883329,10 12,9.13417244 12,7.99949654 C12,6.86557583 11.0883329,6 9.99993799,6 C8.91166713,6 8,6.86557583 8,7.99949654 C8,9.13417244 8.91166713,10 9.99993799,10" fill="#FFFFFE"></path>
            
        </g>
    </g>
</svg>
