<svg width="84px" height="28px" viewBox="0 0 84 28" version="1.1" xmlns="http://www.w3.org/2000/svg" xmlns:xlink="http://www.w3.org/1999/xlink">
        <g fillRule="nonzero">
            <path d="M26.5,0 L3.3,0 C2,0 0.8,1.1 0.8,2.5 L0.8,25.4 C0.8,26.9 2,28 3.4,28 L26.7,28 C28.1,28 29.3,26.9 29.3,25.5 L29.3,2.5 C29.1,1.1 28,0 26.5,0" fill="#DC395F"></path>
            <path d="M10.8,10 C9.7,10 8.8,9.1 8.8,8 C8.8,6.9 9.7,6 10.8,6 C11.9,6 12.8,6.9 12.8,8 C12.8,9.1 11.9,10 10.8,10 Z M12.2,20.7 L11.7,22.8 L14.5,22.8 L16.1,16 C16.5,14.3 17.3,13.4 18.5,13.4 C19.4,13.4 20,14 20,15 C20,15.3 20,15.6 19.9,16 L19.1,19.1 C19.1,19.5 19,20 19,20.4 C19,21.9 19.8,23 21.6,23 C23.1,23 24.3,22 24.9,19.6 L23.8,19.2 C23.2,20.8 22.8,21.1 22.4,21.1 C22,21.1 21.8,20.8 21.8,20.3 C21.8,20.1 21.9,19.8 21.9,19.5 L22.7,16.5 C22.9,15.8 23,15.2 23,14.6 C23,12.3 21.7,11.1 20.1,11.1 C18.6,11.1 17.1,12.5 16.4,14 L17,11.3 L12.7,11.3 L12,13.6 L14,13.6 L12.8,18.8 C11.8,21.1 10,21.1 9.8,21.1 C9.4,21 9.2,20.9 9.2,20.4 C9.2,20.1 9.3,19.7 9.4,19.2 L11.3,11.3 L6.3,11.3 L5.7,13.6 L7.7,13.6 L6.4,19.1 C6.3,19.5 6.2,20 6.2,20.4 C6.3,22 7.2,23 8.9,23 C10.2,23 11.4,22.1 12.2,20.7 Z" fill="#FFFFFE"></path>
            <path d="M55.3,21.7 L58,21.7 L58,10.2 L55.3,10.2 L55.3,21.7 Z M79.9,10 C78.1,10 77,10.9 76.3,12 L76.3,10.2 L73.6,10.2 L73.6,21.7 L76.3,21.7 L76.3,15.2 C76.3,13.4 77.4,12.3 78.9,12.3 C80.5,12.3 81.4,13.3 81.4,15.1 L81.4,21.6 L84,21.6 L84,14.3 C84,11.7 82.5,10 79.9,10 Z M65.8,19.7 C63.7,19.7 62.3,18 62.3,16 C62.3,14 63.7,12.3 65.8,12.3 C67.9,12.3 69.4,14 69.4,16 C69.3,18.1 68,19.7 65.8,19.7 Z M65.8,10 C62.2,10 59.6,12.7 59.6,16 C59.6,19.3 62.2,22 65.7,22 C69.3,22 71.9,19.3 71.9,16 C72,12.7 69.4,10 65.8,10 Z M33,18.7 L29.9,10.3 L27,10.3 L31.8,21.9 L34.2,21.9 L38.9,10.3 L36.1,10.3 L33,18.7 Z M49.9,14.9 C48.5,14.5 47.3,14.1 47.3,13.3 C47.3,12.6 47.9,12.1 48.9,12.1 C49.4,12.1 50,12.2 50.5,12.4 C50.5,12.4 50.5,12.4 50.5,12.4 C50.6,12.4 50.6,12.4 50.7,12.5 C51.1,12.6 52.3,12.8 53.2,11.3 C52,10.5 50.4,10 49,10 C46.7,10 44.9,11.3 44.9,13.5 C44.9,15.7 46.8,16.4 48.5,16.9 C49.9,17.3 51.1,17.6 51.1,18.5 C51.1,19.3 50.4,19.7 49.3,19.7 C48.5,19.7 47.7,19.5 46.9,19.1 C46.7,19 45.4,18.6 44.4,20.1 C45.8,21.2 47.7,21.8 49.3,21.8 C51.7,21.8 53.6,20.6 53.6,18.2 C53.5,16.2 51.6,15.5 49.9,14.9 Z M40.2,21.7 L42.9,21.7 L42.9,10.2 L40.2,10.2 L40.2,21.7 Z" fill="#DC395F"></path>
        </g>
</svg>
