<svg width="28px" height="84px" viewBox="0 0 28 84" version="1.1" xmlns="http://www.w3.org/2000/svg" xmlns:xlink="http://www.w3.org/1999/xlink">
    <g fill="none" fillRule="evenodd">
        <g transform="translate(14.000000, 42.000000) rotate(-90.000000) translate(-14.000000, -42.000000) translate(-27.500000, 28.000000)">
            <g>
                <path d="M25.8,0 L2.6,0 C1.2,0 0,1.1 0,2.5 L0,25.4 C0,26.9 1.2,28 2.6,28 L25.9,28 C27.3,28 28.5,26.9 28.5,25.5 L28.5,2.5 C28.4,1.1 27.3,0 25.8,0" fill="#DC395F"></path>
                <path d="M10,10 C8.9,10 8,9.1 8,8 C8,6.9 8.9,6 10,6 C11.1,6 12,6.9 12,8 C12,9.1 11.1,10 10,10 Z M11.5,20.7 L11,22.8 L13.8,22.8 L15.4,16 C15.8,14.3 16.6,13.4 17.8,13.4 C18.7,13.4 19.3,14 19.3,15 C19.3,15.3 19.3,15.6 19.2,16 L18.4,19.1 C18.3,19.5 18.2,20 18.2,20.4 C18.2,21.9 19,23 20.8,23 C22.3,23 23.5,22 24.1,19.6 L23,19.2 C22.4,20.8 22,21.1 21.6,21.1 C21.2,21.1 21,20.8 21,20.3 C21,20.1 21.1,19.8 21.1,19.5 L21.9,16.5 C22.1,15.8 22.2,15.2 22.2,14.6 C22.2,12.3 20.9,11.1 19.3,11.1 C17.8,11.1 16.3,12.5 15.6,14 L16.2,11.3 L11.9,11.3 L11.3,13.6 L13.3,13.6 L12.1,18.8 C11.1,21.1 9.3,21.1 9.1,21.1 C8.7,21 8.5,20.9 8.5,20.4 C8.5,20.1 8.6,19.7 8.7,19.2 L10.6,11.3 L5.6,11.3 L5,13.6 L7,13.6 L5.7,19.1 C5.6,19.5 5.5,20 5.5,20.4 C5.6,22 6.4,23 8.1,23 C9.5,23 10.6,22.1 11.5,20.7 Z" fill="#FFFFFE"></path>
                <path d="M54.3,21.7 L57,21.7 L57,10.2 L54.3,10.2 L54.3,21.7 Z M78.9,10 C77.1,10 76,10.9 75.3,12 L75.3,10.2 L72.6,10.2 L72.6,21.7 L75.3,21.7 L75.3,15.2 C75.3,13.4 76.4,12.3 77.9,12.3 C79.5,12.3 80.4,13.3 80.4,15.1 L80.4,21.6 L83,21.6 L83,14.3 C83,11.7 81.5,10 78.9,10 Z M64.8,19.7 C62.7,19.7 61.3,18 61.3,16 C61.3,14 62.7,12.3 64.8,12.3 C66.9,12.3 68.4,14 68.4,16 C68.3,18.1 67,19.7 64.8,19.7 Z M64.8,10 C61.2,10 58.6,12.7 58.6,16 C58.6,19.3 61.2,22 64.7,22 C68.3,22 70.9,19.3 70.9,16 C71,12.7 68.4,10 64.8,10 Z M32,18.7 L28.9,10.3 L26,10.3 L30.8,21.9 L33.2,21.9 L37.9,10.3 L35.1,10.3 L32,18.7 Z M48.9,14.9 C47.5,14.5 46.3,14.1 46.3,13.3 C46.3,12.6 46.9,12.1 47.9,12.1 C48.4,12.1 49,12.2 49.5,12.4 C49.6,12.4 49.6,12.4 49.7,12.5 C50.1,12.6 51.3,12.8 52.2,11.3 C51,10.5 49.4,10 48,10 C45.7,10 43.9,11.3 43.9,13.5 C43.9,15.7 45.8,16.4 47.5,16.9 C48.9,17.3 50.1,17.6 50.1,18.5 C50.1,19.3 49.4,19.7 48.3,19.7 C47.5,19.7 46.7,19.5 45.9,19.1 C45.7,19 44.4,18.6 43.4,20.1 C44.8,21.2 46.7,21.8 48.3,21.8 C50.7,21.8 52.6,20.6 52.6,18.2 C52.5,16.2 50.6,15.5 48.9,14.9 Z M39.2,21.7 L41.9,21.7 L41.9,10.2 L39.2,10.2 L39.2,21.7 Z" fill="#DC395F"></path>
            </g>
        </g>
    </g>
</svg>
