<?xml version="1.0" encoding="UTF-8"?>
<svg width="68px" height="73px" viewBox="0 0 68 73" version="1.1" xmlns="http://www.w3.org/2000/svg" xmlns:xlink="http://www.w3.org/1999/xlink">
    <!-- Generator: Sketch 53.2 (72643) - https://sketchapp.com -->
    <title>judges</title>
    <desc>Created with Sketch.</desc>
    <g stroke="none" stroke-width="1" fill="none" fill-rule="evenodd">
        <g transform="translate(-4.000000, -2.000000)" fill="#000000">
            <path d="M42.6751053,17.2711936 C46.5351195,19.0940327 49.2116187,23.0249203 49.2116187,27.5682375 C49.2116187,31.358425 47.3153687,34.85955 44.2489937,36.9569875 C51.9449937,39.6418 57.1643062,46.879925 57.1643062,55.1979875 L57.1643062,74.833425 L55.4993062,74.833425 L55.4993062,55.1979875 C55.4993062,46.972425 49.9169312,39.905425 41.9203062,38.0114875 C41.5734312,37.9282375 41.3167437,37.63455 41.2843687,37.278425 C41.2496812,36.9223 41.4485562,36.5869875 41.7746187,36.4389875 C45.2803687,34.87805 47.5466187,31.395425 47.5466187,27.5682375 C47.5466187,22.210175 43.1898687,17.853425 37.8318062,17.853425 C32.4760562,17.853425 28.1169937,22.210175 28.1169937,27.5682375 C28.1169937,31.395425 30.3832437,34.87805 33.8913062,36.4389875 C34.2173687,36.5869875 34.4139312,36.9223 34.3792437,37.278425 C34.3468687,37.63455 34.0901812,37.9282375 33.7433062,38.0114875 C25.7489937,39.905425 20.1643062,46.972425 20.1643062,55.1979875 L20.1643062,74.833425 L18.5016187,74.833425 L18.5016187,55.1979875 C18.5016187,46.879925 23.7186187,39.6418 31.4169312,36.9569875 C28.3505562,34.85955 26.4543062,31.358425 26.4543062,27.5682375 C26.4543062,23.0255371 29.1300788,19.0951001 32.9883697,17.2719362 C33.4411179,16.1365226 33.6693062,14.9345515 33.6693062,13.6932375 C33.6693062,8.335175 29.3125562,3.978425 23.9568062,3.978425 C18.6010562,3.978425 14.2419937,8.335175 14.2419937,13.6932375 C14.2419937,17.520425 16.5082437,21.00305 20.0163062,22.5639875 C20.3423687,22.7119875 20.5389312,23.0473 20.5042437,23.403425 C20.4718687,23.75955 20.2151812,24.0532375 19.8683062,24.1364875 C11.8739937,26.030425 6.28930625,33.097425 6.28930625,41.3229875 L6.28930625,60.958425 L4.62430625,60.958425 L4.62430625,41.3229875 C4.62430625,33.004925 9.84361875,25.7668 17.5419312,23.0819875 C14.4755562,20.98455 12.5793062,17.483425 12.5793062,13.6932375 C12.5793062,7.419425 17.6829937,2.313425 23.9568062,2.313425 C30.2306187,2.313425 35.3343062,7.419425 35.3343062,13.6932375 C35.3343062,14.6691485 35.2126414,15.6255221 34.9720634,16.5524523 C35.8861097,16.314884 36.8444679,16.188425 37.8318062,16.188425 C38.8190861,16.188425 39.7773533,16.3147759 40.6913049,16.5521476 C40.4503405,15.6236018 40.3293062,14.6673192 40.3293062,13.6932375 C40.3293062,7.419425 45.4329937,2.313425 51.7068062,2.313425 C57.9829312,2.313425 63.0866187,7.419425 63.0866187,13.6932375 C63.0866187,17.483425 61.1903687,20.98455 58.1239937,23.0819875 C65.8199937,25.7668 71.0393062,33.004925 71.0393062,41.3229875 L71.0393062,60.958425 L69.3743062,60.958425 L69.3743062,41.3229875 C69.3743062,33.097425 63.7919312,26.030425 55.7953062,24.1364875 C55.4484312,24.0532375 55.1917437,23.75955 55.1593687,23.403425 C55.1246812,23.0473 55.3235562,22.7119875 55.6496187,22.5639875 C59.1553687,21.00305 61.4216187,17.520425 61.4216187,13.6932375 C61.4216187,8.335175 57.0648687,3.978425 51.7068062,3.978425 C46.3510562,3.978425 41.9919937,8.335175 41.9919937,13.6932375 C41.9919937,14.9323295 42.2221162,16.1340511 42.6751053,17.2711936 Z"></path>
        </g>
    </g>
</svg>