<svg width="83" height="83" viewBox="0 0 83 83" fill="none" xmlns="http://www.w3.org/2000/svg">
<path d="M25.7171 56.1904C33.606 56.1904 40.0019 49.7842 40.0019 41.8821C40.0019 33.98 33.6063 27.5739 25.7171 27.5739C17.8278 27.5739 11.4323 33.98 11.4323 41.8821C11.4323 49.7842 17.8278 56.1904 25.7171 56.1904Z" fill="#848484"/>
<path d="M29.1953 46.9176H26.2372V35.7185H25.1401V48.0226H26.2372V48.0154H29.1953V46.9176Z" fill="white"/>
<path d="M36.5789 42.3404H29.2127V41.2415H37.6579C37.6691 41.4539 37.6745 41.6668 37.6745 41.8821C37.6745 48.4975 32.3207 53.8599 25.7167 53.8599C19.1127 53.8599 13.7588 48.4975 13.7588 41.8821C13.7588 35.2667 19.1127 29.9043 25.717 29.9043C25.8911 29.9043 26.0649 29.9079 26.2375 29.9155L26.2361 31.0061C26.0632 30.9981 25.8901 30.9941 25.717 30.9941C19.7138 30.9941 14.8468 35.8689 14.8468 41.8821C14.8468 47.8957 19.7135 52.7701 25.717 52.7701C31.5566 52.7701 36.3205 48.1578 36.576 42.3712L36.5789 42.3404Z" fill="white"/>
<path d="M21.2565 39.0336C22.1845 39.0336 22.9368 38.28 22.9368 37.3505C22.9368 36.4209 22.1845 35.6674 21.2565 35.6674C20.3285 35.6674 19.5762 36.4209 19.5762 37.3505C19.5762 38.28 20.3285 39.0336 21.2565 39.0336Z" fill="white"/>
<path fill-rule="evenodd" clip-rule="evenodd" d="M65.1594 34.3879C66.9576 34.3879 68.4643 34.8484 69.6345 35.7566C70.7243 36.6227 71.1709 37.4725 71.3769 39.1029H67.4013C67.1693 37.9808 66.2644 37.2405 65.0606 37.2405C63.1336 37.2405 61.9827 38.972 61.9827 41.8723C61.9827 43.6234 62.4061 44.9743 63.2071 45.7759C63.7211 46.2907 64.3892 46.5633 65.1392 46.5633C68.0912 46.5633 68.0637 43.4161 68.0637 43.4161H65.2036V40.9163H71.4178V48.9047H68.296V47.2018C68.296 47.2018 67.5008 49.2774 64.0439 49.2774C62.4691 49.2774 61.093 48.7317 60.06 47.6974C58.7444 46.3806 58.0197 44.2905 58.0197 41.8136C58.0197 39.4951 58.7053 37.5838 59.9999 36.2862C61.2403 35.0449 63.0243 34.3879 65.1594 34.3879ZM57.302 48.9054H47.0948V34.7606H50.8424V45.8176H57.302V48.9054Z" fill="#848484"/>
</svg>
