<svg xmlns="http://www.w3.org/2000/svg" width="154" height="112" viewBox="0 0 154 112">
    <defs>
        <filter id="a" width="131%" height="166.8%" x="-15.5%" y="-21.9%" filterUnits="objectBoundingBox">
            <feOffset dy="25" in="SourceAlpha" result="shadowOffsetOuter1"/>
            <feGaussianBlur in="shadowOffsetOuter1" result="shadowBlurOuter1" stdDeviation="20"/>
            <feColorMatrix in="shadowBlurOuter1" result="shadowMatrixOuter1" values="0 0 0 0 0.776470588 0 0 0 0 0.776470588 0 0 0 0 0.776470588 0 0 0 0.15 0"/>
            <feMerge>
                <feMergeNode in="shadowMatrixOuter1"/>
                <feMergeNode in="SourceGraphic"/>
            </feMerge>
        </filter>
    </defs>
    <g fill="none" fill-rule="nonzero" filter="url(#a)" transform="translate(25 -73)">
        <path fill="#848484" d="M31.687 122.566c10.22 0 18.507-8.314 18.507-18.569 0-10.254-8.286-18.568-18.507-18.568-10.221 0-18.507 8.314-18.507 18.568 0 10.255 8.286 18.569 18.507 18.569z"/>
        <path fill="#FFF" d="M36.193 110.532h-3.832V95.999H30.94v15.967h1.42v-.01h3.833z"/>
        <path fill="#FFF" d="M45.76 104.592h-9.544v-1.426h10.941c.015.276.022.552.022.831 0 8.585-6.937 15.544-15.492 15.544-8.556 0-15.493-6.959-15.493-15.544s6.937-15.544 15.493-15.544c.226 0 .45.005.674.015l-.002 1.415c-.224-.01-.448-.015-.672-.015-7.778 0-14.083 6.326-14.083 14.13 0 7.803 6.305 14.129 14.083 14.129 7.566 0 13.737-5.986 14.069-13.495l.003-.04z"/>
        <path fill="#FFF" d="M25.908 100.3a2.18 2.18 0 0 0 2.177-2.184 2.18 2.18 0 0 0-2.177-2.184 2.18 2.18 0 0 0-2.177 2.184 2.18 2.18 0 0 0 2.177 2.185z"/>
        <path fill="#848484" d="M59.383 113.112h13.224v-4.008H64.24V94.756h-4.856v18.356zm29.202-17.064c-1.516-1.179-3.468-1.776-5.798-1.776-2.766 0-5.077.852-6.684 2.463-1.678 1.684-2.566 4.165-2.566 7.173 0 3.215.939 5.927 2.644 7.636 1.338 1.342 3.12 2.05 5.16 2.05 4.48 0 5.51-2.693 5.51-2.693v2.21h4.044v-10.367h-8.05v3.244h3.705s.035 4.084-3.79 4.084c-.97 0-1.836-.354-2.502-1.022-1.038-1.04-1.587-2.793-1.587-5.065 0-3.764 1.492-6.011 3.988-6.011 1.56 0 2.732.96 3.033 2.417h5.15c-.267-2.116-.845-3.219-2.257-4.343z"/>
    </g>
</svg>
