<svg xmlns="http://www.w3.org/2000/svg" xmlns:xlink="http://www.w3.org/1999/xlink" width="16" height="16" viewBox="0 0 16 16">
    <defs>
        <path id="a" d="M0 0h1440v800H0z"/>
    </defs>
    <g fill="none" fill-rule="evenodd">
        <use fill="#000" transform="translate(-1142 -487)" xlink:href="#a"/>
        <path fill="#FFF" d="M14.857 0c.31 0 .578.113.804.34.226.225.339.493.339.803v13.714c0 .31-.113.578-.34.804-.225.226-.493.339-.803.339H1.143c-.31 0-.578-.113-.804-.34A1.098 1.098 0 0 1 0 14.858V1.143C0 .833.113.565.34.339.564.113.832 0 1.142 0h13.714zM2.464 13.714h2.393V6.071H2.464v7.643zm1.179-8.678c.38 0 .708-.137.982-.411a1.32 1.32 0 0 0 .41-.964c0-.37-.136-.69-.41-.965a1.34 1.34 0 0 0-.982-.41c-.381 0-.703.137-.964.41a1.35 1.35 0 0 0-.393.965c0 .369.13.69.393.964.261.274.583.41.964.41zm10.071 8.678V9.536c0-1.19-.166-2.06-.5-2.607-.452-.69-1.226-1.036-2.321-1.036-.548 0-1.036.13-1.464.393a1.998 1.998 0 0 0-.786.821h-.036V6.071H6.321v7.643H8.68V9.93c0-.596.083-1.048.25-1.358.238-.404.63-.607 1.178-.607.548 0 .905.226 1.072.679.119.286.178.738.178 1.357v3.714h2.357z"/>
    </g>
</svg>
