<?xml version="1.0" encoding="UTF-8"?>
<svg width="124px" height="124px" viewBox="0 0 124 124" version="1.1" xmlns="http://www.w3.org/2000/svg" xmlns:xlink="http://www.w3.org/1999/xlink">
    <!-- Generator: Sketch 53.2 (72643) - https://sketchapp.com -->
    <title>Medium_black</title>
    <desc>Created with Sketch.</desc>
    <defs>
        <rect id="path-1" x="0" y="0" width="124" height="124"></rect>
    </defs>
    <g stroke="none" stroke-width="1" fill="none" fill-rule="evenodd">
        <g>
            <g>
                <use fill-opacity="0.01" fill="#D8D8D8" fill-rule="evenodd" style="mix-blend-mode: screen;" xlink:href="#path-1"></use>
                <rect stroke-opacity="0" stroke="#979797" stroke-width="1" stroke-linejoin="square" x="0.5" y="0.5" width="123" height="123"></rect>
            </g>
            <g transform="translate(25.000000, 54.000000)" fill="#848484" fill-rule="nonzero">
                <path d="M38.3856964,13.8257601 C38.3856964,14.0897554 38.3856964,14.1497543 38.5637102,14.3117514 L39.5605872,15.2957337 L39.5605872,15.3377329 L35.1399126,15.3377329 L35.1399126,13.4477669 C34.695,14.6934012 33.5182978,15.517116 32.2086196,15.49973 C29.9359776,15.49973 28.2863836,13.6997624 28.2863836,10.387822 C28.2863836,7.28587786 30.066521,5.21591512 32.564647,5.21591512 C33.6719922,5.14543178 34.7024426,5.79032096 35.1339788,6.82388616 L35.1339788,2.65396122 C35.1668196,2.46085867 35.0886608,2.26560942 34.9322298,2.1499703 L33.9828232,1.22598693 L33.9828232,1.18398769 L38.3856964,0.661997084 L38.3856964,13.8257601 Z M35.1399126,13.2257709 L35.1399126,7.00388292 C34.8195472,6.60151486 34.3334074,6.37123668 33.8226108,6.37989416 C32.7485946,6.37989416 31.7101812,7.36387644 31.7101812,10.2858239 C31.7101812,13.0217746 32.6061836,13.9877572 33.7217364,13.9877572 C34.2873524,13.976053 34.8137908,13.6931976 35.1399126,13.2257709 Z M41.3169894,15.3377329 L41.3169894,6.93788412 C41.3452764,6.75030458 41.2783824,6.56091498 41.1389756,6.43389318 L40.1599,5.41391154 L40.1599,5.3719123 L44.5805746,5.3719123 L44.5805746,13.8917589 C44.5805746,14.1557542 44.5805746,14.2157531 44.7585884,14.3777502 L45.7317302,15.3017336 L45.7317302,15.3437328 L41.3169894,15.3377329 Z M41.156777,2.2999676 C41.156777,1.30587294 41.9537716,0.5 42.9369144,0.5 C43.9200572,0.5 44.7170518,1.30587294 44.7170518,2.2999676 C44.7170518,3.29406226 43.9200572,4.0999352 42.9369144,4.0999352 C41.9537716,4.0999352 41.156777,3.29406226 41.156777,2.2999676 L41.156777,2.2999676 Z M56.5074954,13.8077605 C56.5074954,14.0717557 56.5074954,14.1497543 56.685509,14.3117514 L57.682386,15.2957337 L57.682386,15.3377329 L53.2379762,15.3377329 L53.2379762,13.1837717 C52.8332618,14.5457181 51.6002832,15.483791 50.1939412,15.49973 C48.2239226,15.49973 47.1677076,14.0477561 47.1677076,11.2998056 C47.1677076,9.97382946 47.1677076,8.5218556 47.2092442,6.88988498 C47.2417982,6.70720254 47.1736168,6.5210617 47.0312304,6.40389372 L46.052155,5.41391154 L46.052155,5.3719123 L50.4372268,5.3719123 C50.4372268,5.43191122 50.4372268,10.5858185 50.4372268,10.8498137 C50.4372268,12.6497813 50.6983136,13.8497597 51.8138664,13.8497597 C52.4129804,13.811893 52.9528724,13.4712655 53.2498438,12.943776 L53.2498438,6.943884 C53.2781308,6.75630446 53.2112368,6.56691486 53.0718302,6.43989308 L52.0868208,5.41391154 L52.0868208,5.3719123 L56.5074954,5.3719123 L56.5074954,13.8077605 Z M71.5555902,15.3377329 C71.5555902,15.0137387 71.6149282,10.8858131 71.6149282,9.93783012 C71.6149282,8.13786252 71.33604,6.89588488 70.08401,6.89588488 C69.4540372,6.91553006 68.870605,7.2360965 68.5115552,7.75986932 C68.637124,8.3208085 68.696874,8.89475686 68.689569,9.46983854 C68.689569,10.7178161 68.6480324,12.3077875 68.6302312,13.8977588 C68.597677,14.0804413 68.6658586,14.2665821 68.8082448,14.3837501 L69.8051218,15.3077335 L69.8051218,15.3497327 L65.3429106,15.3497327 C65.3429106,15.0497381 65.4022486,10.8978128 65.4022486,9.9498299 C65.4022486,8.11986284 65.1233604,6.90788466 63.8891318,6.90788466 C63.2807038,6.92995574 62.7256286,7.26490032 62.4175516,7.79586868 L62.4175516,13.9157585 C62.4175516,14.1797538 62.4175516,14.2397527 62.5955652,14.4017498 L63.568707,15.3257331 L63.568707,15.3677324 L59.1539662,15.3677324 L59.1539662,6.96788358 C59.1822532,6.78030404 59.1153592,6.59091444 58.9759526,6.46389264 L57.996877,5.41391154 L57.996877,5.3719123 L62.4175516,5.3719123 L62.4175516,7.50787386 C62.827413,6.09763684 64.1337162,5.15028204 65.5861962,5.20991522 C67.0577764,5.20991522 68.0546534,6.03790032 68.4759526,7.60987202 C68.9438576,6.16008528 70.2908118,5.18725758 71.7988758,5.20991522 C73.7688944,5.20991522 74.8844472,6.67988876 74.8844472,9.45783876 C74.8844472,10.7838149 74.8429106,12.2957877 74.8251094,13.8857591 C74.7905128,14.0739396 74.8697928,14.2649166 75.0268582,14.3717503 L76,15.2957337 L76,15.3377329 L71.5555902,15.3377329 Z M16.0212367,14.0297565 L17.3326046,15.2957337 L17.3326046,15.3377329 L10.6808245,15.3377329 L10.6808245,15.2957337 L12.0159275,14.0297565 C12.1583138,13.9125885 12.2264953,13.7264476 12.1939413,13.5437652 L12.1939413,5.4499109 C12.1939413,5.10791706 12.1939413,4.64592538 12.2532792,4.2499325 L7.76733292,15.49973 L7.7139288,15.49973 L3.06777014,5.1499163 C2.9668957,4.89192094 2.93722674,4.87392126 2.87195502,4.6999244 L2.87195502,11.4858023 C2.81633082,11.939972 2.89261552,12.4006942 3.0915053,12.8117784 L4.9606496,15.2957337 L4.9606496,15.3377329 L0,15.3377329 L0,15.2957337 L1.86914428,12.8057785 C2.06656534,12.3963621 2.14280538,11.937993 2.08869456,11.4858023 L2.08869456,3.98593726 C2.11908628,3.61666116 2.00869776,3.24960896 1.78013741,2.95995572 L0.456901936,1.22598693 L0.456901936,1.18398769 L5.20393504,1.18398769 L9.17957526,9.9498299 L12.6805122,1.18398769 L17.3266708,1.18398769 L17.3266708,1.22598693 L16.0212367,2.69596048 C15.8648058,2.81159958 15.786647,3.00684884 15.8194878,3.1999514 L15.8194878,13.5437652 C15.7848913,13.7319458 15.8641713,13.9229228 16.0212367,14.0297565 Z M21.2251718,9.97382946 L21.2251718,10.0158287 C21.2251718,12.5837825 22.5365396,13.6157639 24.0733916,13.6157639 C25.35669,13.6600631 26.5443456,12.9324676 27.0996252,11.7617973 L27.1411618,11.7617973 C26.6071206,14.2997516 25.0524672,15.49973 22.726421,15.49973 C20.2164272,15.49973 17.8488445,13.9697575 17.8488445,10.4238214 C17.8488445,6.69788844 20.222361,5.20991522 22.8450968,5.20991522 C24.9575266,5.20991522 27.2064334,6.21789708 27.2064334,9.45783876 C27.2064334,9.51783768 27.2064334,9.73383378 27.2064334,9.97382946 L21.2251718,9.97382946 Z M21.2251718,9.45783876 L24.150531,9.45783876 C24.150531,9.1938435 24.150531,9.01384674 24.150531,8.93584816 C24.150531,6.29589568 23.610556,5.5939083 22.7976264,5.5939083 C21.8126172,5.5939083 21.2133042,6.6438894 21.2133042,9.45783876 L21.2251718,9.45783876 Z"></path>
            </g>
        </g>
    </g>
</svg>