<svg width="104" height="83" viewBox="0 0 104 83" fill="none" xmlns="http://www.w3.org/2000/svg">
<path fill-rule="evenodd" clip-rule="evenodd" d="M35.16 38.98C35.2828 39.2579 35.2106 39.6227 35.0826 39.8713L34.0901 42.373L34.0815 42.3839L33.7226 39.847C33.6941 39.6038 33.9265 39.4994 34.0627 39.382C34.0564 39.3468 34.0208 39.3481 33.9991 39.3313L33.6634 39.3275L33.6533 39.3162C33.6548 39.0009 33.8068 38.7104 34.0627 38.5578C34.3311 38.3842 34.7087 38.4312 34.9411 38.6534C35.0354 38.7481 35.1144 38.8571 35.16 38.98Z" fill="#848484"/>
<path fill-rule="evenodd" clip-rule="evenodd" d="M32.761 38.8873C32.8416 39.056 32.8886 39.2474 32.8598 39.4594L32.4569 42.3742C32.4587 42.3784 32.4554 42.3822 32.4516 42.3839L32.3475 42.1492L31.336 39.6033C31.2419 39.2751 31.3292 38.9327 31.5412 38.6976C31.7546 38.4531 32.1057 38.3871 32.3848 38.5192C32.5326 38.592 32.6736 38.7241 32.761 38.8873Z" fill="#848484"/>
<path fill-rule="evenodd" clip-rule="evenodd" d="M36.6887 39.794C36.8524 40.0989 36.8161 40.5627 36.6344 40.846C36.521 41.0451 36.3353 41.1445 36.1774 41.2753L33.6592 43.1702H33.6533L33.6816 43.0802L35.0167 39.7758C35.2168 39.3863 35.598 39.1896 36.0025 39.2491C36.2788 39.3047 36.556 39.5019 36.6887 39.794Z" fill="#848484"/>
<path fill-rule="evenodd" clip-rule="evenodd" d="M31.4884 39.7721L32.8685 43.1702H32.8458L30.0646 41.0517C29.7818 40.7878 29.6655 40.3929 29.7617 39.9941C29.8343 39.6953 30.0588 39.4156 30.3251 39.3049C30.7624 39.1271 31.2554 39.3152 31.4884 39.7721Z" fill="#848484"/>
<path fill-rule="evenodd" clip-rule="evenodd" d="M37.5016 42.0699C37.6397 42.3172 37.5853 42.6549 37.3867 42.8647C37.1903 43.0659 36.9276 43.1755 36.6186 43.1687L33.6533 43.1702L36.1377 41.7133C36.3803 41.5816 36.7495 41.558 37.0144 41.6649C37.2184 41.7321 37.4112 41.901 37.5016 42.0699Z" fill="#848484"/>
<path fill-rule="evenodd" clip-rule="evenodd" d="M29.0204 42.0699C28.8819 42.3172 28.9362 42.6549 29.1344 42.8647C29.3308 43.0659 29.5935 43.1755 29.9026 43.1687L32.8683 43.1702L30.3835 41.7133C30.1412 41.5816 29.7721 41.558 29.5076 41.6649C29.3027 41.7321 29.1104 41.901 29.0204 42.0699Z" fill="#848484"/>
<path fill-rule="evenodd" clip-rule="evenodd" d="M7.24811 38.7658C7.24811 38.6721 7.21763 38.5989 6.96362 38.578V38.4524H9.4127V38.578C9.17902 38.5879 9.12822 38.6512 9.12822 38.714C9.12822 38.8291 10.8859 40.7543 11.5976 41.56V38.7658C11.5976 38.6407 11.5159 38.5879 11.3838 38.578V38.4524H13.2436V38.578C12.9896 38.5989 12.9591 38.6721 12.9591 38.7658V43.6426C12.9591 43.7368 12.9896 43.8105 13.2436 43.8314V43.9565H11.3127V43.8314C11.4956 43.8314 11.5464 43.7896 11.5464 43.7163C11.5464 43.5798 11.2928 43.4438 8.60958 40.3567V43.6426C8.60958 43.7368 8.64006 43.8105 8.89453 43.8314V43.9565H6.96362V43.8314C7.21763 43.8105 7.24811 43.7368 7.24811 43.6426V38.7658Z" fill="#848484"/>
<path fill-rule="evenodd" clip-rule="evenodd" d="M15.6922 42.8474H17.2806C17.9351 42.8474 18.1967 42.68 18.1967 42.2196C18.1967 41.7588 17.9351 41.5918 17.2806 41.5918H15.6922V42.8474ZM15.6922 40.5246H16.9629C17.7669 40.5246 17.972 40.4618 17.972 40.0428C17.972 39.6243 17.7669 39.5615 16.9629 39.5615H15.6922V40.5246ZM14.2902 38.7658C14.2902 38.6721 14.2622 38.5989 14.0286 38.578V38.4524H17.5894C18.5985 38.4524 19.3366 38.8709 19.3366 39.9068C19.3366 40.5346 18.9629 40.9222 18.4396 41.0473V41.0682C19.0657 41.257 19.5235 41.6337 19.5235 42.408C19.5235 43.245 18.9629 43.9565 17.6357 43.9565H14.0286V43.8314C14.2622 43.8105 14.2902 43.7368 14.2902 43.6426V38.7658Z" fill="#848484"/>
<path fill-rule="evenodd" clip-rule="evenodd" d="M25.5116 40.4991L25.4095 40.427C25.4197 40.3866 25.4298 40.3457 25.4298 40.2736C25.4298 40.069 24.6475 39.8035 23.7839 39.8035C22.9609 39.8035 21.8936 40.1611 21.8936 41.2044C21.8936 42.2478 22.9609 42.6063 23.7839 42.6063C24.1395 42.6063 25.4912 42.3301 25.4912 42.0335C25.4912 41.9721 25.4501 41.9312 25.4298 41.8796L25.542 41.8084L26.5885 43.4144L26.4666 43.4864C26.4361 43.4144 26.3955 43.4041 26.3244 43.4041C26.1207 43.4041 25.1763 43.9565 23.6619 43.9565C22.0358 43.9565 20.3086 43.0359 20.3086 41.2044C20.3086 39.3735 22.0358 38.4524 23.6619 38.4524C24.4748 38.4524 25.0539 38.5551 25.4603 38.6677C25.857 38.7797 26.0602 38.862 26.1618 38.862C26.2228 38.862 26.2736 38.8313 26.3142 38.7797L26.426 38.8109L25.5116 40.4991Z" fill="#848484"/>
<path fill-rule="evenodd" clip-rule="evenodd" d="M43.5901 38.7623C43.5901 38.6696 43.5591 38.5972 43.3005 38.5765V38.4524H45.4284V38.5765C45.1702 38.5972 45.1392 38.6696 45.1392 38.7623V41.5357C45.1392 43.3565 43.869 43.9565 42.2884 43.9565C40.7083 43.9565 39.4376 43.3565 39.4376 41.5357V38.7623C39.4376 38.6696 39.4071 38.5972 39.1484 38.5765V38.4524H41.2763V38.5765C41.0182 38.5972 40.9872 38.6696 40.9872 38.7623V41.5357C40.9872 42.3323 41.4622 42.653 42.2884 42.653C43.1146 42.653 43.5901 42.3323 43.5901 41.5357V38.7623Z" fill="#848484"/>
<path fill-rule="evenodd" clip-rule="evenodd" d="M46.4979 38.7658C46.4979 38.6721 46.4674 38.5989 46.2134 38.578V38.4524H48.6625V38.578C48.4283 38.5879 48.378 38.6512 48.378 38.714C48.378 38.8291 50.1357 40.7543 50.8469 41.56V38.7658C50.8469 38.6407 50.7656 38.5879 50.6335 38.578V38.4524H52.4933V38.578C52.2393 38.5989 52.2084 38.6721 52.2084 38.7658V43.6426C52.2084 43.7368 52.2393 43.8105 52.4933 43.8314V43.9565H50.5624V43.8314C50.7453 43.8314 50.7961 43.7896 50.7961 43.7163C50.7961 43.5798 50.5421 43.4438 47.8593 40.3567V43.6426C47.8593 43.7368 47.8898 43.8105 48.1438 43.8314V43.9565H46.2134V43.8314C46.4674 43.8105 46.4979 43.7368 46.4979 43.6426V38.7658Z" fill="#848484"/>
<path fill-rule="evenodd" clip-rule="evenodd" d="M54.0632 43.9565V43.8314C54.349 43.8105 54.3838 43.7368 54.3838 43.6426V38.7658C54.3838 38.6721 54.349 38.5989 54.0632 38.578V38.4524H56.4182V38.578C56.1325 38.5989 56.0977 38.6721 56.0977 38.7658V43.6426C56.0977 43.7368 56.1325 43.8105 56.4182 43.8314V43.9565H54.0632Z" fill="#848484"/>
<path fill-rule="evenodd" clip-rule="evenodd" d="M60.1157 43.9565V43.8314C60.2378 43.8105 60.2683 43.7786 60.2683 43.7368C60.2683 43.6426 58.4462 39.415 58.2223 38.8709C58.1308 38.6407 58.0905 38.5879 57.9883 38.578V38.4524H60.075V38.578C59.9121 38.5879 59.8714 38.6303 59.8714 38.703C59.8714 38.7872 60.0241 39.0383 61.2962 41.8848C62.5072 39.122 62.6705 38.8186 62.6705 38.693C62.6705 38.6198 62.64 38.5879 62.5178 38.578V38.4524H64.2682V38.578C64.1868 38.5989 64.1461 38.6198 64.1156 38.714C64.0138 39.0488 62.0696 43.5798 62.0696 43.7263C62.0696 43.7786 62.1205 43.8205 62.2125 43.8205V43.9565H60.1157Z" fill="#848484"/>
<path fill-rule="evenodd" clip-rule="evenodd" d="M68.4856 41.9115H68.3605C68.3298 41.7873 68.2566 41.6917 68.0489 41.6917H66.1172V42.5803H69.4515C69.5657 42.5803 69.6072 42.5325 69.6384 42.2936H69.763V43.9565H69.6384C69.6072 43.7941 69.5657 43.7459 69.4515 43.7459H64.2681V43.6317C64.5277 43.6126 64.5589 43.5452 64.5589 43.4593V39.0061C64.5589 38.9206 64.5277 38.8537 64.2681 38.8346V38.7199H69.4515C69.5657 38.7199 69.6072 38.6721 69.6384 38.4524H69.763V40.1148H69.6384C69.6072 39.8951 69.5657 39.8473 69.4515 39.8473H66.1172V40.6403H68.0489C68.2566 40.6403 68.3298 40.5448 68.3605 40.4206H68.4856V41.9115Z" fill="#848484"/>
<path fill-rule="evenodd" clip-rule="evenodd" d="M73.0165 40.7752H74.6055C75.1634 40.7752 75.3336 40.5037 75.3336 40.1997C75.3336 39.8963 75.1634 39.6243 74.6055 39.6243H73.0165V40.7752ZM73.0165 43.6426C73.0165 43.7368 73.0449 43.8105 73.2813 43.8314V43.9565H71.333V43.8314C71.5694 43.8105 71.5982 43.7368 71.5982 43.6426V38.7658C71.5982 38.6721 71.5694 38.5989 71.333 38.578V38.4524H74.7942C76.194 38.4524 76.7901 38.9965 76.7901 40.1893C76.7901 41.1524 76.2224 41.6651 75.4376 41.9057L76.5533 43.6426C76.6384 43.7786 76.7235 43.8314 76.828 43.8314V43.9565H74.8604V43.8314C74.9932 43.8205 75.0688 43.7682 75.0688 43.6426C75.0688 43.5484 74.0665 42.1045 73.9436 41.8848H73.0165V43.6426Z" fill="#848484"/>
<path fill-rule="evenodd" clip-rule="evenodd" d="M78.3164 41.7675L78.4115 41.8187C78.3925 41.8698 78.3925 41.9414 78.3925 42.0335C78.3925 42.3096 79.41 42.7699 80.3985 42.7699C81.3495 42.7699 81.7768 42.5245 81.7768 42.0739C81.7768 41.317 77.8606 42.1562 77.8606 40.1816C77.8606 39.1587 78.7731 38.4524 80.1704 38.4524C81.4726 38.4524 82.4141 38.8825 82.6703 38.8825C82.7943 38.8825 82.8609 38.8109 82.9274 38.729L83.0319 38.77L82.3761 40.1922L82.262 40.1304V40.0184C82.262 39.7622 81.178 39.4758 80.2845 39.4758C79.4575 39.4758 79.1723 39.7212 79.1723 39.9565C79.1723 40.8674 83.108 39.7519 83.108 42.1051C83.108 42.9848 82.4897 43.9565 80.4271 43.9565C78.8392 43.9565 78.1358 43.4864 77.9172 43.4864C77.8416 43.4864 77.7841 43.5576 77.7271 43.6194L77.613 43.5883L78.3164 41.7675Z" fill="#848484"/>
<path fill-rule="evenodd" clip-rule="evenodd" d="M86.0127 41.9266H87.8375L86.8859 39.4359L86.0127 41.9266ZM85.767 42.7637C85.5119 43.5275 85.453 43.6635 85.453 43.7263C85.453 43.7896 85.4923 43.8314 85.6301 43.8314V43.9565H83.8931V43.8314C84.0304 43.7996 84.0893 43.7577 84.1486 43.5903C84.2365 43.3496 85.895 38.7449 85.895 38.6826C85.895 38.6093 85.7866 38.5879 85.6987 38.578V38.4524H88.2594V38.578C88.1515 38.5879 88.0833 38.6093 88.0833 38.714C88.0833 38.7977 89.29 41.9266 89.8983 43.5175C89.9964 43.7682 90.0553 43.8314 90.173 43.8314V43.9565H88.2398V43.8314C88.3776 43.8205 88.4262 43.7682 88.4262 43.7054C88.4262 43.6635 88.1319 42.8997 88.0926 42.7637H85.767Z" fill="#848484"/>
<path fill-rule="evenodd" clip-rule="evenodd" d="M93.5152 42.4806H96.9393C97.0488 42.4806 97.0886 42.4307 97.1189 42.2014H97.2379V43.9565H97.1189C97.0886 43.7471 97.0488 43.6968 96.9393 43.6968H91.7429V43.5777C91.9918 43.5577 92.0216 43.4875 92.0216 43.3978V38.751C92.0216 38.6618 91.9918 38.592 91.7429 38.572V38.4524H93.7934V38.572C93.5446 38.592 93.5152 38.6618 93.5152 38.751V42.4806Z" fill="#848484"/>
<path fill-rule="evenodd" clip-rule="evenodd" d="M35.7939 36.1657C38.1404 29.6418 44.5233 24.9618 52.0336 24.9618C59.5373 24.9618 65.9163 29.6338 68.269 36.1484C68.408 36.5338 68.5337 36.6201 68.4053 36.1497C66.4665 29.0285 59.8153 23.5233 52.0098 23.5233C44.1112 23.5233 37.4803 28.8909 35.6302 36.1417C35.4881 36.6994 35.5966 36.7132 35.7939 36.1657Z" fill="#848484"/>
<path fill-rule="evenodd" clip-rule="evenodd" d="M35.7939 46.0317C38.1404 52.5552 44.5233 57.2352 52.0336 57.2352C59.5373 57.2352 65.9163 52.5632 68.269 46.0491C68.408 45.6632 68.5337 45.5768 68.4053 46.0477C66.4665 53.1689 59.8153 58.6737 52.0098 58.6737C44.1112 58.6737 37.4803 53.306 35.6302 46.0553C35.4881 45.4976 35.5966 45.4838 35.7939 46.0317Z" fill="#848484"/>
</svg>
