<svg width="195px" height="88px" viewBox="0 0 195 88" version="1.1" xmlns="http://www.w3.org/2000/svg" xmlns:xlink="http://www.w3.org/1999/xlink">
    <g id="Page-6" fill="none" fill-rule="evenodd">
        <g id="Desktop-HD-Copy-28" transform="translate(-924.000000, -2449.000000)" fill="#848484" fill-rule="nonzero">
            <g id="clients" transform="translate(704.000000, 2281.000000)">
                <g id="Group-25" transform="translate(257.000000, 4.907834)">
                    <g id="nbc" transform="translate(0.000000, 174.940092)">
                        <g transform="translate(0.000000, -0.000000)" id="Shape">
                            <path d="M0,13.2605205 L0.724436285,12.5359946 C0.901128062,12.3593028 0.98947395,12.1591119 0.98947395,11.9353322 L0.98947395,0.502925787 L1.16616573,0.502925787 L9.82433187,8.3129714 L9.82433187,2.57030927 C9.82433187,2.34643989 9.73598598,2.14615931 9.5592942,1.96955723 L8.83485792,1.24512094 L8.83485792,1.06842916 L13.4113543,1.06842916 L13.4113543,1.24512094 L12.686918,1.96955723 C12.5102263,2.146249 12.4218804,2.34652958 12.4218804,2.57030927 L12.4218804,13.9142801 L12.2451886,13.9142801 L3.58693276,6.08656532 L3.58693276,11.9352425 C3.58693276,12.1590222 3.67527865,12.3593028 3.85197043,12.5359049 L4.57640671,13.2604308 L4.57640671,13.4371226 L0,13.4371226 L0,13.2605205 Z"></path>
                            <path d="M14.7524897,13.234138 L15.4759749,12.5074611 C15.6524347,12.3302448 15.7406646,12.1294596 15.7406646,11.9050155 L15.7406646,2.51219036 C15.7406646,2.28765637 15.6524347,2.08678121 15.4759749,1.90965484 L14.7524897,1.1830679 L14.7524897,1.00585157 L22.0404587,1.00585157 C23.3110588,1.00585157 24.2845436,1.29533489 24.9609131,1.87421158 C25.6374618,2.45308826 25.9756914,3.22105567 25.9756914,4.17811379 C25.9756914,5.61950324 25.2345602,6.52330651 23.7522083,6.88961356 L23.7522083,6.92505682 C25.5756561,7.24413617 26.4874248,8.25417928 26.4874248,9.95554598 C26.4874248,11.0897305 26.0903454,11.9492746 25.2962763,12.5340885 C24.5022072,13.1189024 23.3933768,13.4113543 21.9698747,13.4113543 L14.7524897,13.4113543 L14.7524897,13.234138 Z M21.6875391,5.9148338 C22.6875376,5.9148338 23.1875369,5.47764022 23.1875369,4.60334302 C23.1875369,4.18980827 23.0610591,3.85903444 22.8081036,3.61093159 C22.555148,3.36282873 22.1816265,3.2387773 21.6875391,3.2387773 L18.564111,3.2387773 L18.564111,5.9148338 L21.6875391,5.9148338 Z M21.6346907,11.1428954 C22.964051,11.1428954 23.628776,10.6170936 23.628776,9.5655801 C23.628776,8.57325862 22.964051,8.07696295 21.6346907,8.07696295 L18.5642006,8.07696295 L18.5642006,11.1428954 L21.6346907,11.1428954 Z"></path>
                            <path d="M29.8356871,11.8334397 C28.6093339,10.6699452 27.9962021,9.11379258 27.9962021,7.16489203 C27.9962021,5.20403006 28.6152596,3.63897388 29.8534642,2.46963355 C31.0916689,1.30029322 32.6599178,0.71553312 34.5584803,0.71553312 C34.9829768,0.71553312 35.5018358,0.753935544 36.1149675,0.830740393 C36.728189,0.907545242 37.1113851,0.945857731 37.2646456,0.945857731 C37.7127552,0.945857731 38.1254901,0.798183771 38.5028502,0.502925787 L38.6797238,0.573794898 L37.6184825,4.77296959 L37.4239216,4.71981776 C37.2942742,4.27095008 37.0023879,3.88116997 36.5484424,3.55047743 C36.0944071,3.21978489 35.4900742,3.05439365 34.7354436,3.05439365 C33.6623509,3.05439365 32.7750202,3.42942435 32.0734517,4.17948576 C31.3718833,4.92954716 31.0210092,5.93061832 31.0210092,7.18269924 C31.0210092,8.3993456 31.3511433,9.38269948 32.0115011,10.1327609 C32.671859,10.8828223 33.5385394,11.257853 34.6116321,11.257853 C35.8615984,11.257853 36.8461646,10.767705 37.5655102,9.787229 L39.2282114,11.7185022 C38.0726076,12.9587117 36.498433,13.5789962 34.505508,13.5789962 C32.6186173,13.5788164 31.0620403,12.9970241 29.8356871,11.8334397 Z"></path>
                            <path d="M42.6641868,12.2758449 C41.7015049,11.4070177 41.2201639,10.1450731 41.2201639,8.4898322 L41.2201639,2.50261194 C41.2201639,2.27950571 41.1321192,2.07990787 40.9560297,1.9039078 L40.234063,1.18194103 L40.234063,1.00585157 L44.988657,1.00585157 L44.988657,1.18194103 L44.2666009,1.9039078 C44.0905114,2.07999725 44.0024667,2.2795951 44.0024667,2.50261194 L44.0024667,8.56026798 C44.0024667,9.45242476 44.2196735,10.1216541 44.6540871,10.5676878 C45.0884113,11.0139002 45.7106238,11.2368277 46.5206353,11.2368277 C47.3189373,11.2368277 47.9323007,11.0109505 48.3608148,10.558928 C48.7893289,10.1069055 49.003586,9.44071526 49.003586,8.56026798 L49.003586,2.50261194 C49.003586,2.27950571 48.9155413,2.07990787 48.7394518,1.9039078 L48.0173957,1.18194103 L48.0173957,1.00585157 L52.8072076,1.00585157 L52.8072076,1.18194103 L52.0852409,1.9039078 C51.9091514,2.07999725 51.8211067,2.2795951 51.8211067,2.50261194 L51.8211067,8.4898322 C51.8211067,10.1451625 51.336816,11.4071071 50.368324,12.2758449 C49.399832,13.1445827 48.1172393,13.5789962 46.5206353,13.5789962 C44.9123218,13.5790856 43.6268688,13.1445827 42.6641868,12.2758449 Z"></path>
                            <path d="M54.1484321,13.2330017 L54.8675645,12.5020365 C55.0429627,12.3237743 55.1306618,12.0504994 55.1306618,11.6820306 L55.1306618,6.58355263 C55.1306618,6.21517438 55.0429627,5.94180895 54.8675645,5.76354682 L54.1484321,5.03267207 L54.1484321,4.85440993 L57.6915639,4.85440993 L57.6915639,6.38746428 C57.8902891,5.90018429 58.2557761,5.49615361 58.7878469,5.17528177 C59.3199176,4.85440993 59.8957934,4.69397401 60.5155632,4.69397401 C61.4276336,4.69397401 62.1351025,4.9910474 62.6379699,5.58528468 C63.1408373,6.17952196 63.392182,7.01147224 63.392182,8.08104505 L63.392182,11.6821211 C63.392182,12.0504994 63.4798811,12.3238648 63.6552792,12.5021269 L64.3745007,13.2330922 L64.3745007,13.4113543 L60.7611206,13.4113543 L60.7611206,8.66931009 C60.7611206,8.15823164 60.6442182,7.75121485 60.4103243,7.44816923 C60.1765195,7.1451236 59.8315104,6.99355554 59.3754752,6.99355554 C58.8375282,6.99355554 58.4341124,7.16294981 58.1651389,7.50164787 C57.8961654,7.84034592 57.7617231,8.27713339 57.7617231,8.81191979 L57.7617231,11.6820306 C57.7617231,12.0504089 57.8494222,12.3237743 58.0248204,12.5020365 L58.7439528,13.2330017 L58.7439528,13.4112638 L54.1483431,13.4112638 L54.1483431,13.2330017 L54.1484321,13.2330017 Z"></path>
                            <path d="M65.2127104,13.0678944 L65.9472351,12.3473169 C66.1264784,12.1715881 66.2159636,11.9021967 66.2159636,11.5389643 L66.2159636,6.51294117 C66.2159636,6.14979798 66.1264784,5.88031736 65.9472351,5.70458853 L65.2127104,4.9841003 L65.2127104,4.80837146 L68.9033402,4.80837146 L68.9033402,11.5390535 C68.9033402,11.9021967 68.9928254,12.1716773 69.1720687,12.3474061 L69.9066844,13.0679836 L69.9066844,13.2437124 L65.2127104,13.2437124 L65.2127104,13.0678944 Z M66.4220343,3.12128544 C66.1055621,2.82843378 65.9472351,2.46520138 65.9472351,2.03176666 C65.9472351,1.59833193 66.1054712,1.23509953 66.4220343,0.942247876 C66.7385066,0.649307015 67.1117255,0.502925787 67.5417821,0.502925787 C67.9718388,0.502925787 68.3449668,0.649396217 68.6615299,0.942247876 C68.9780021,1.23509953 69.1363292,1.59833193 69.1363292,2.03176666 C69.1363292,2.46520138 68.9780931,2.82843378 68.6615299,3.12128544 C68.3449668,3.4141371 67.9718388,3.56060753 67.5417821,3.56060753 C67.1117255,3.56060753 66.7385975,3.4141371 66.4220343,3.12128544 Z"></path>
                            <path d="M71.418934,6.75546781 C71.0179138,5.97672455 70.5697412,5.41036581 70.0743263,5.05630176 L70.0743263,4.86161594 L73.3299099,4.86161594 L75.0816452,8.96789648 L75.1171218,8.96789648 L76.6564466,4.86161594 L79.9652001,4.86161594 L79.9652001,5.05630176 C79.4581094,5.41027597 79.0098469,5.97672455 78.6204128,6.75546781 L75.1171218,13.7466382 L74.9400981,13.7466382 L71.418934,6.75546781 Z"></path>
                            <path d="M81.390876,12.4042492 C80.5521267,11.6211442 80.132842,10.5643022 80.132842,9.23354388 C80.132842,7.8911295 80.5463708,6.79896081 81.3731585,5.95694816 C82.1999462,5.11493551 83.3220858,4.69397401 84.7394876,4.69397401 C86.1097625,4.69397401 87.1373787,5.09144415 87.8224262,5.88629477 C88.5076536,6.68114539 88.8502224,7.74982272 88.8502224,9.09232676 C88.8502224,9.36319464 88.8382608,9.61639917 88.8146974,9.85194035 L82.8615202,9.85194035 C82.9205187,10.299352 83.1390647,10.6762 83.5170685,10.9823049 C83.8948924,11.2884995 84.3969188,11.4416416 85.0229679,11.4416416 C85.8145004,11.4416416 86.422742,11.2061004 86.8480525,10.735018 L88.3186967,12.4661157 C87.5153825,13.2079763 86.3400903,13.5789962 84.7927301,13.5789962 C83.3633668,13.5789962 82.2294454,13.1873541 81.390876,12.4042492 Z M83.3398034,7.14926892 C83.0327596,7.46720917 82.8615202,7.85589246 82.8259952,8.31504983 L86.1569792,8.31504983 C86.1332359,7.83222179 85.9857398,7.43780014 85.7139512,7.13160557 C85.4423425,6.825411 85.0584029,6.67235855 84.5623123,6.67235855 C84.0543501,6.67226889 83.6468471,6.83132867 83.3398034,7.14926892 Z"></path>
                            <path d="M90.1915358,13.2330903 L90.9106868,12.5021175 C91.0861568,12.3238535 91.1737583,12.0505757 91.1737583,11.6821032 L91.1737583,6.58357225 C91.1737583,6.21519017 91.0861568,5.9418219 90.9106868,5.76355792 L90.1915358,5.03267558 L90.1915358,4.8544116 L93.7344985,4.8544116 L93.7344985,6.58357225 C93.9332042,6.0368357 94.2606414,5.58529393 94.7165429,5.22876596 C95.1726224,4.872238 95.6987653,4.69397401 96.2949716,4.69397401 C96.7275483,4.69397401 97.0960264,4.77713371 97.3999607,4.94354359 L96.7158859,7.61768433 C96.3417102,7.28486457 95.9207068,7.11845469 95.453143,7.11845469 C94.9386624,7.11845469 94.5351972,7.29074638 94.2429252,7.63542024 C93.9506533,7.9801846 93.8043838,8.46737916 93.8043838,9.0972754 L93.8043838,11.6821032 C93.8043838,12.0504853 93.8919853,12.3238535 94.0674552,12.5021175 L94.7866062,13.2330903 L94.7866062,13.4113543 L90.1913578,13.4113543 L90.1913578,13.2330903 L90.1915358,13.2330903 Z"></path>
                            <path d="M97.7352446,12.4363828 L98.9664403,10.6434986 C99.7519737,11.2879697 100.695792,11.6102499 101.797985,11.6102499 C102.548433,11.6102499 102.923658,11.3758562 102.923658,10.9071581 C102.923658,10.6844528 102.826883,10.5145687 102.633334,10.3974165 C102.439964,10.280175 102.184904,10.1981774 101.868423,10.1512451 C101.551764,10.1044021 101.194127,10.0456921 100.795513,9.97547218 C99.0718745,9.68254699 98.2100107,8.85632487 98.2100107,7.49698427 C98.2100107,6.52434417 98.5530064,5.82125234 99.2389086,5.38761957 C99.9248107,4.95398679 100.795513,4.73725963 101.850747,4.73725963 C102.261056,4.73725963 102.692077,4.77535864 103.143453,4.85146744 C103.594919,4.92766546 103.896758,4.96576447 104.049151,4.96576447 C104.43607,4.96576447 104.82299,4.81925727 105.209909,4.52633208 L105.38587,4.59664126 L104.559181,7.81337559 L104.383398,7.7606437 C104.031564,7.01070883 103.240049,6.63569678 102.009032,6.63569678 C101.270279,6.63569678 100.900947,6.85251317 100.900947,7.28605672 C100.900947,7.48520659 100.991829,7.64349147 101.173504,7.7606437 C101.355358,7.87779593 101.598633,7.95693837 101.903419,7.99789258 C102.208384,8.03902524 102.554326,8.09461232 102.941245,8.1649215 C103.703388,8.29376219 104.339475,8.55162201 104.849504,8.93841173 C105.359534,9.32511224 105.614415,9.8875857 105.614415,10.6258321 C105.614415,11.5633176 105.259724,12.2898756 104.550432,12.805506 C103.84114,13.3211364 102.865004,13.5789962 101.622113,13.5789962 C99.9572177,13.5790855 98.6614759,13.1980953 97.7352446,12.4363828 Z"></path>
                            <path d="M107.40434,12.8987332 C106.881594,12.4453142 106.620267,11.8478089 106.620267,11.1058587 C106.620267,10.1756189 106.961739,9.48083074 107.644772,9.02158371 C108.327987,8.56224702 109.394193,8.3209675 110.843571,8.29729682 C111.294947,8.28555114 111.603945,8.22969193 111.770203,8.12953985 C111.936642,8.02947744 112.019681,7.8558028 112.019681,7.60842628 C112.019681,7.36113942 111.891957,7.15500727 111.63669,6.99020913 C111.381242,6.82532134 110.99219,6.74292227 110.469445,6.74292227 C109.673341,6.74292227 108.948787,7.03737117 108.295333,7.62617929 L106.905294,6.0010617 C107.784618,5.12964002 109.061586,4.69397401 110.736742,4.69397401 C112.091141,4.69397401 113.086158,4.96484189 113.721612,5.50648798 C114.357247,6.04822373 114.67511,6.87248337 114.67511,7.97953589 L114.67511,11.6182751 C114.67511,11.9832877 114.764119,12.2541556 114.942408,12.430789 L115.672931,13.1550759 L115.672931,13.3317094 L112.073231,13.3317094 L112.073231,12.1835022 C111.859483,12.5957665 111.514755,12.9312804 111.03968,13.1903129 C110.564424,13.4494351 110.012008,13.5789962 109.382343,13.5789962 C108.586511,13.5789066 107.926995,13.3520626 107.40434,12.8987332 Z M111.556546,11.2383786 C111.865363,10.926356 112.019772,10.5524669 112.019772,10.1167112 L112.019772,9.53373112 C111.865363,9.59254916 111.491146,9.6397112 110.897211,9.67503789 C109.828021,9.73385594 109.293425,10.0990479 109.293425,10.7702551 C109.293425,11.0411229 109.382434,11.2648288 109.560723,11.4414623 C109.738831,11.6180957 110.006129,11.7064125 110.362616,11.7064125 C110.849632,11.7065021 111.247548,11.5504908 111.556546,11.2383786 Z"></path>
                            <path d="M116.343499,13.2341957 L117.077947,12.5077556 C117.257193,12.330597 117.34668,12.0590138 117.34668,11.6928261 L117.34668,1.71852818 C117.34668,1.35234049 117.257193,1.08075728 117.077947,0.903508769 L116.343499,0.177158582 L116.343499,0 L120.034109,0 L120.034109,11.6928261 C120.034109,12.0589239 120.123778,12.330597 120.302843,12.5077556 L121.037473,13.2341957 L121.037473,13.4113543 L116.343499,13.4113543 L116.343499,13.2341957 Z"></path>
                        </g>
                    </g>
                </g>
            </g>
        </g>
    </g>
</svg>
