<svg xmlns="http://www.w3.org/2000/svg" xmlns:xlink="http://www.w3.org/1999/xlink" width="182" height="121" viewBox="0 0 182 121">
    <defs>
        <filter id="a" width="131%" height="166.8%" x="-15.5%" y="-21.9%" filterUnits="objectBoundingBox">
            <feOffset dy="25" in="SourceAlpha" result="shadowOffsetOuter1"/>
            <feGaussianBlur in="shadowOffsetOuter1" result="shadowBlurOuter1" stdDeviation="20"/>
            <feColorMatrix in="shadowBlurOuter1" result="shadowMatrixOuter1" values="0 0 0 0 0.776470588 0 0 0 0 0.776470588 0 0 0 0 0.776470588 0 0 0 0.15 0"/>
            <feMerge>
                <feMergeNode in="shadowMatrixOuter1"/>
                <feMergeNode in="SourceGraphic"/>
            </feMerge>
        </filter>
        <path id="b" d="M43.059 45.595H.443V.014H43.06z"/>
    </defs>
    <g fill="none" fill-rule="evenodd" filter="url(#a)" transform="translate(-142 -158)">
        <path fill="#848484" d="M212.504 191.072c.159.361.065.834-.1 1.157l-1.287 3.247-.01.014-.466-3.292c-.036-.316.265-.451.441-.604-.008-.046-.054-.044-.082-.066l-.435-.005-.013-.014c.002-.41.198-.786.53-.984.348-.226.837-.165 1.138.124.122.123.225.264.284.423M209.396 190.952c.104.219.165.467.128.743l-.522 3.782c.002.006-.002.01-.007.013l-.135-.305-1.31-3.304a1.248 1.248 0 0 1 .265-1.175.932.932 0 0 1 1.093-.232c.192.095.374.266.488.478"/>
        <path fill="#848484" d="M214.484 192.129c.212.396.165.997-.07 1.365-.147.258-.388.387-.592.557l-3.263 2.46h-.007l.036-.118 1.73-4.288c.26-.505.753-.76 1.277-.683.358.072.717.328.89.707M207.747 192.1l1.788 4.41h-.03l-3.603-2.749a1.403 1.403 0 0 1-.392-1.372c.094-.388.384-.751.73-.895.566-.23 1.205.014 1.507.606"/>
        <path fill="#848484" d="M215.537 195.082c.18.321.109.76-.148 1.032a1.31 1.31 0 0 1-.996.394l-3.841.002 3.218-1.89c.315-.171.793-.202 1.136-.063.264.087.514.306.631.525M204.55 195.082c-.18.321-.11.76.147 1.032.255.26.595.403.995.394l3.843.002-3.22-1.89a1.443 1.443 0 0 0-1.134-.063 1.18 1.18 0 0 0-.632.525M176.342 190.794c0-.121-.04-.216-.369-.243v-.163h3.173v.163c-.302.013-.368.095-.368.176 0 .15 2.277 2.648 3.199 3.694v-3.627c0-.162-.106-.23-.277-.243v-.163h2.41v.163c-.33.027-.37.122-.37.243v6.33c0 .121.04.217.37.244v.163h-2.502v-.163c.237 0 .303-.054.303-.15 0-.176-.329-.353-3.805-4.359v4.264c0 .122.04.218.369.245v.163h-2.502v-.163c.33-.027.369-.123.369-.245v-6.329M187.282 196.091h2.058c.848 0 1.187-.217 1.187-.814 0-.598-.34-.815-1.187-.815h-2.058v1.63zm0-3.014h1.646c1.042 0 1.307-.082 1.307-.625s-.265-.625-1.307-.625h-1.646v1.25zm-1.817-2.283c0-.121-.036-.216-.339-.243v-.163h4.614c1.307 0 2.263.543 2.263 1.887 0 .815-.484 1.318-1.162 1.48v.027c.811.245 1.404.734 1.404 1.739 0 1.086-.726 2.01-2.445 2.01h-4.674v-.163c.303-.027.34-.123.34-.245v-6.329zM200.003 193.044l-.132-.094a.718.718 0 0 0 .026-.199c0-.265-1.013-.61-2.132-.61-1.066 0-2.449.464-2.449 1.818s1.383 1.82 2.449 1.82c.46 0 2.212-.359 2.212-.744 0-.08-.053-.133-.08-.2l.146-.092 1.356 2.084-.158.094c-.04-.094-.093-.107-.185-.107-.264 0-1.487.717-3.449.717-2.107 0-4.345-1.195-4.345-3.572 0-2.376 2.238-3.571 4.345-3.571 1.053 0 1.803.133 2.33.28.514.145.777.251.909.251.079 0 .145-.04.197-.106l.145.04-1.185 2.19M223.425 190.79c0-.12-.04-.214-.375-.241v-.161h2.757v.16c-.335.028-.375.122-.375.242v3.6c0 2.362-1.646 3.14-3.693 3.14s-3.694-.778-3.694-3.14v-3.6c0-.12-.04-.214-.374-.241v-.161h2.757v.16c-.335.028-.375.122-.375.242v3.6c0 1.033.615 1.449 1.686 1.449 1.07 0 1.686-.416 1.686-1.45v-3.6M227.192 190.794c0-.121-.04-.216-.368-.243v-.163h3.173v.163c-.304.013-.369.095-.369.176 0 .15 2.277 2.648 3.199 3.694v-3.627c0-.162-.105-.23-.277-.243v-.163h2.41v.163c-.33.027-.37.122-.37.243v6.33c0 .121.04.217.37.244v.163h-2.502v-.163c.237 0 .303-.054.303-.15 0-.176-.329-.353-3.805-4.359v4.264c0 .122.04.218.369.245v.163h-2.501v-.163c.329-.027.368-.123.368-.245v-6.329M236.994 197.53v-.162c.37-.027.415-.123.415-.245v-6.329c0-.121-.045-.216-.415-.243v-.163h3.05v.163c-.37.027-.414.122-.414.243v6.33c0 .121.045.217.415.244v.163h-3.051M244.835 197.53v-.162c.158-.027.198-.068.198-.123 0-.122-2.36-5.608-2.65-6.314-.12-.299-.172-.367-.304-.38v-.163h2.703v.163c-.21.013-.263.068-.263.162 0 .11.197.435 1.846 4.13 1.569-3.586 1.78-3.98 1.78-4.143 0-.095-.04-.136-.198-.15v-.162h2.268v.163c-.105.027-.158.054-.198.176-.132.435-2.65 6.315-2.65 6.505 0 .068.065.122.185.122v.177h-2.717M255.68 194.877h-.163c-.04-.161-.135-.285-.404-.285h-2.502v1.153h4.32c.147 0 .201-.062.242-.372h.161v2.158h-.161c-.04-.211-.095-.274-.243-.274h-6.715v-.148c.336-.025.377-.112.377-.224v-5.779c0-.11-.04-.197-.377-.222v-.15h6.715c.148 0 .202-.061.243-.346h.161v2.157h-.161c-.04-.285-.095-.347-.243-.347h-4.32v1.03h2.503c.27 0 .364-.125.404-.286h.162v1.935M261.55 193.402h2.058c.723 0 .943-.352.943-.747 0-.393-.22-.746-.943-.746h-2.059v1.493zm0 3.721c0 .122.036.218.342.245v.163h-2.524v-.163c.306-.027.344-.123.344-.245v-6.329c0-.121-.038-.216-.344-.243v-.163h4.484c1.814 0 2.586.706 2.586 2.254 0 1.25-.735 1.915-1.752 2.227l1.445 2.254c.11.177.22.245.356.245v.163h-2.549v-.163c.172-.014.27-.082.27-.245 0-.122-1.298-1.996-1.458-2.28h-1.2v2.28zM268.415 194.69l.124.066c-.025.067-.025.16-.025.279 0 .358 1.318.956 2.599.956 1.232 0 1.786-.319 1.786-.903 0-.983-5.074.106-5.074-2.456 0-1.328 1.182-2.244 2.992-2.244 1.688 0 2.907.558 3.24.558.16 0 .246-.093.332-.2l.136.054-.85 1.846-.148-.08v-.146c0-.333-1.404-.704-2.562-.704-1.071 0-1.44.318-1.44.624 0 1.182 5.098-.266 5.098 2.788 0 1.142-.8 2.403-3.473 2.403-2.057 0-2.968-.61-3.252-.61-.098 0-.172.092-.246.172l-.148-.04.911-2.363M278.386 194.896h2.365l-1.233-3.232-1.132 3.232zm-.318 1.087c-.33.99-.407 1.167-.407 1.249 0 .082.051.136.23.136v.163h-2.25v-.163c.177-.041.253-.095.33-.313.114-.312 2.263-6.288 2.263-6.369 0-.095-.14-.122-.254-.135v-.163h3.317v.163c-.14.013-.228.04-.228.176 0 .109 1.563 4.17 2.351 6.234.128.325.204.407.356.407v.163h-2.504v-.163c.178-.014.241-.082.241-.163 0-.055-.381-1.046-.432-1.222h-3.013zM288.106 195.615h4.437c.141 0 .193-.064.232-.362h.154v2.278h-.154c-.039-.272-.09-.337-.232-.337h-6.733v-.155c.323-.026.361-.117.361-.233v-6.03c0-.117-.038-.207-.36-.233v-.155h2.656v.155c-.322.026-.36.116-.36.232v4.84"/>
        <g transform="translate(212.586 171)">
            <mask id="c" fill="#fff">
                <use xlink:href="#b"/>
            </mask>
            <path fill="#848484" d="M.74 16.42C3.78 7.954 12.048 1.88 21.778 1.88c9.721 0 17.986 6.064 21.034 14.518.18.5.343.612.176.001C40.478 7.16 31.86.014 21.748.014 11.515.014 2.924 6.98.528 16.389c-.185.724-.044.742.211.031M.74 29.224c3.04 8.465 11.309 14.539 21.039 14.539 9.721 0 17.986-6.063 21.034-14.517.18-.5.343-.613.176-.001-2.511 9.24-11.129 16.385-21.241 16.385-10.233 0-18.824-6.966-21.22-16.376-.185-.723-.044-.741.211-.03" mask="url(#c)"/>
        </g>
    </g>
</svg>
