<svg width="97" height="83" viewBox="0 0 97 83" fill="none" xmlns="http://www.w3.org/2000/svg">
<path d="M41.0811 50.2179C39.7791 50.0794 38.859 49.5884 38.5335 48.8519C37.9639 47.5615 38.9028 46.3403 40.6054 46.1578C41.0936 46.1074 41.2376 46.0697 41.2376 46.0067C41.2376 45.9752 41.1437 45.9312 41.0373 45.9123C40.7806 45.8682 40.1234 45.5535 39.8543 45.3584C39.4161 45.031 39.2221 44.3135 39.4474 43.8665C39.5914 43.5896 39.9732 43.2937 40.5115 43.0419L41.006 42.8027L40.4802 42.5321C39.873 42.211 39.3347 41.7138 39.1094 41.2479C38.9717 40.9773 38.9529 40.8451 38.9529 40.2723C38.9529 39.6617 38.9654 39.5799 39.1407 39.2336C39.51 38.4909 40.3112 37.9181 41.2626 37.7103C42.0889 37.5341 43.2406 37.6789 43.9667 38.0565L44.2233 38.1887L44.4549 38.0314C44.9244 37.7103 45.4752 37.5467 46.1011 37.5404C46.6269 37.5341 46.6832 37.5467 46.8397 37.6915C47.0588 37.8992 47.184 38.1447 47.184 38.3776C47.184 38.6797 47.0087 39.0385 46.8147 39.1581C46.5894 39.2903 46.1324 39.2966 45.9446 39.1644C45.7631 39.0385 45.6192 38.686 45.6192 38.365V38.1132L45.3187 38.151C45.156 38.1698 44.8993 38.2328 44.7554 38.2957L44.4862 38.4027L44.7178 38.6294C44.843 38.7553 45.037 39.0385 45.1434 39.2651C45.325 39.6491 45.3375 39.7183 45.3375 40.3667C45.3375 40.9773 45.3187 41.0969 45.181 41.3738C44.868 42.0222 44.1482 42.6139 43.372 42.8594C43.0716 42.9538 42.7273 42.9979 42.0826 43.023C41.0936 43.0608 40.8871 43.1301 40.7118 43.514C40.5678 43.8162 40.6304 44.1246 40.8933 44.3575C41.1437 44.5778 41.6319 44.6597 43.0528 44.71C44.5989 44.7667 45.0871 44.8359 45.5253 45.0499C46.0323 45.3017 46.4642 45.7423 46.702 46.2522C46.8773 46.6236 46.8961 46.7243 46.8961 47.2908C46.9023 47.8699 46.8835 47.9518 46.702 48.3483C46.2138 49.387 45.0495 50.0416 43.372 50.2242C42.7524 50.2871 41.7196 50.2871 41.0811 50.2179ZM43.8039 49.6388C44.8242 49.3933 45.4314 48.6568 45.4314 47.6748C45.4314 47.0579 45.2436 46.7243 44.7679 46.4851C44.53 46.3655 43.3908 46.2522 42.3893 46.2522C40.8933 46.2522 40.1547 46.6928 39.9857 47.6937C39.8042 48.7953 40.499 49.5129 41.9574 49.7143C42.4018 49.7772 43.4033 49.7332 43.8039 49.6388ZM42.7398 42.3999C43.3533 42.0851 43.6474 41.4116 43.6474 40.3037C43.6474 39.2211 43.3658 38.5538 42.7711 38.2139C42.4206 38.0125 41.8072 38.0125 41.4567 38.2139C41.1312 38.3965 40.837 38.8434 40.7494 39.2966C40.6492 39.7876 40.6555 40.7947 40.7619 41.185C40.9246 41.7956 41.2939 42.318 41.6757 42.4691C41.9574 42.5824 42.4456 42.5509 42.7398 42.3999Z" fill="#848484"/>
<path d="M16.7885 46.2522C14.7229 45.7738 12.9577 44.2002 12.3255 42.2677C12.0752 41.5124 12.0001 41.034 12.0001 40.0835C11.9938 38.044 12.4945 36.6592 13.6901 35.4065C14.9232 34.1098 16.3691 33.5181 18.297 33.5244C19.8556 33.5244 20.8946 33.858 22.0964 34.7456C23.2357 35.5828 23.9492 36.6843 24.3561 38.2139C24.4688 38.6609 24.4875 38.8938 24.4875 39.9576C24.4875 41.034 24.4688 41.2543 24.3436 41.7515C24.0932 42.7398 23.5486 43.7533 22.9039 44.4457C22.2029 45.2073 20.9948 45.9186 19.9557 46.1956C19.1983 46.397 17.5208 46.4285 16.7885 46.2522ZM19.3548 45.9942C20.1122 45.7424 20.7006 45.2703 21.1826 44.5464C21.9525 43.3756 22.3343 41.846 22.3343 39.8946C22.3343 37.2697 21.5581 35.2429 20.1999 34.3175C19.6365 33.9336 19.1796 33.7825 18.466 33.7384C16.3816 33.6188 14.8982 35.1673 14.3473 38.0377C14.1908 38.8434 14.1908 41.0214 14.3411 41.8145C14.5601 42.9287 14.9357 43.9232 15.3739 44.5653C16.2877 45.906 17.8964 46.4851 19.3548 45.9942Z" fill="#848484"/>
<path d="M65.837 46.29C64.7541 45.9752 64.2409 45.1569 64.4036 43.9924C64.5163 43.2056 64.9043 42.6516 65.5991 42.2928C65.8182 42.1858 66.5568 41.9026 67.2454 41.6634C67.9339 41.4242 68.66 41.1535 68.8665 41.0654L69.2358 40.9017L69.2045 40.096C69.1732 39.221 69.0606 38.8434 68.7288 38.4846C68.2156 37.9369 67.2266 37.9243 66.7196 38.472C66.5881 38.6105 66.5756 38.6671 66.6132 38.9315C66.6382 39.0951 66.6758 39.3973 66.6945 39.5924C66.7258 39.9512 66.7258 39.9638 66.4817 40.203C66.0811 40.6059 65.4051 40.6373 65.0546 40.2723C64.9043 40.1086 64.8668 40.0142 64.848 39.6806C64.8167 39.2084 64.9294 38.9189 65.2862 38.5601C65.8683 37.9747 66.6132 37.6914 67.6835 37.6474C69.4424 37.5718 70.2937 37.9621 70.7318 39.0574C70.8758 39.4225 70.8758 39.4225 70.857 42.0662C70.8382 44.6093 70.8445 44.7163 70.9634 44.9114C71.195 45.2828 71.6269 45.4339 71.9587 45.2513C72.1152 45.1695 72.2654 44.7667 72.3155 44.2883L72.353 43.9232H72.5721C72.8225 43.9232 72.8162 43.9232 72.6973 44.5715C72.4845 45.6668 71.9775 46.2207 71.0949 46.2963C70.2561 46.3718 69.7429 46.1326 69.4048 45.4905L69.2045 45.1066L68.9416 45.3584C68.5849 45.7046 68.0591 46.0319 67.5834 46.1955C67.0889 46.3592 66.2376 46.4096 65.837 46.29ZM68.1154 45.4591C68.2969 45.3961 68.5536 45.2262 68.7726 45.0184L69.1357 44.6785L69.167 43.0923C69.1858 42.2173 69.192 41.4871 69.1858 41.4808C69.1545 41.4431 68.2093 41.783 67.7273 42.0096C66.8448 42.4124 66.4066 42.8531 66.2376 43.5077C65.9997 44.389 66.2689 45.2639 66.8385 45.4905C67.0826 45.585 67.7899 45.5724 68.1154 45.4591Z" fill="#848484"/>
<path d="M82.7061 46.2774C82.0927 46.1641 81.3228 45.799 80.8847 45.4087C79.4074 44.0931 79.107 41.1787 80.2587 39.3658C80.7219 38.6356 81.2665 38.1824 82.0802 37.8425C82.4933 37.6726 82.5747 37.66 83.3947 37.66C84.1458 37.66 84.3273 37.6789 84.6841 37.8048C85.9735 38.2517 86.7121 39.3281 86.7622 40.8136L86.7747 41.3109L84.0707 41.3298L81.3604 41.3424V41.6949C81.3604 41.89 81.4042 42.3495 81.4605 42.7146C81.7109 44.4142 82.4182 45.2954 83.6889 45.4968C84.2209 45.5787 84.9094 45.4906 85.3476 45.2702C85.6981 45.1003 86.2114 44.5841 86.4367 44.175C86.5932 43.8917 86.6496 43.8791 86.8561 44.0365L87.0001 44.1498L86.756 44.5275C86.4117 45.0562 86.1551 45.3395 85.7106 45.6542C85.2224 46.0067 84.8281 46.1767 84.2522 46.29C83.6889 46.397 83.3571 46.397 82.7061 46.2774ZM84.9846 40.7947C85.0472 40.7444 84.8531 39.454 84.7404 39.1392C84.4963 38.472 84.0707 38.1258 83.4197 38.0817C82.7437 38.0314 82.099 38.4783 81.7359 39.2336C81.5669 39.5987 81.3604 40.4107 81.3604 40.7444V40.9017L83.1631 40.864C84.1521 40.8388 84.972 40.8136 84.9846 40.7947Z" fill="#848484"/>
<path d="M75.852 46.2333C75.2073 46.0886 74.7253 45.6605 74.4687 45.0185C74.3185 44.6471 74.3185 44.6282 74.2997 41.676L74.2809 38.6986H73.4046H72.5345V38.2894V37.8866L73.4296 37.8677L74.3185 37.8488L74.3372 36.5143L74.3498 35.1862L74.6502 35.1484C74.813 35.1295 75.1635 35.098 75.4326 35.0792L75.9146 35.0351V36.4577V37.8803H77.1665H78.4184V38.2894V38.6986H77.1978H75.9709L75.9897 41.5501L76.0085 44.3953L76.1775 44.6911C76.4091 45.0751 76.7471 45.2451 77.2979 45.2451C77.974 45.2451 78.2118 45.0059 78.3808 44.175C78.4434 43.8476 78.4622 43.8288 78.6562 43.8099C78.8878 43.7847 78.9003 43.8414 78.7689 44.3323C78.3933 45.7675 77.1978 46.5418 75.852 46.2333Z" fill="#848484"/>
<path d="M25.777 45.9438C25.777 45.7738 25.7957 45.7675 26.1901 45.6983C26.4154 45.6605 26.672 45.585 26.7597 45.5283C27.0914 45.308 27.0977 45.2262 27.0789 42.1418L27.0601 39.2903L26.9036 38.9819C26.7284 38.6482 26.3904 38.4216 25.9522 38.3461C25.7457 38.3083 25.7144 38.2831 25.7144 38.1258C25.7144 37.9181 25.6956 37.9181 27.4169 37.811C28.3558 37.7481 28.6125 37.7544 28.6876 37.8173C28.7564 37.874 28.7815 38.0314 28.7815 38.4846V39.07L29.2196 38.6356C29.8205 38.0439 30.5153 37.6914 31.0974 37.6789C31.9737 37.6663 32.5058 38.2391 32.3556 39.0448C32.2554 39.5987 31.8924 39.9261 31.3916 39.9261C30.653 39.9261 30.315 39.4602 30.4965 38.7175C30.5466 38.516 30.5403 38.5098 30.3713 38.5098C30.0646 38.5098 29.5451 38.8056 29.1508 39.1959L28.7815 39.5673V42.2866C28.7815 45.3521 28.7752 45.2891 29.2447 45.4968C29.3886 45.5661 29.7079 45.6479 29.9582 45.692C30.3964 45.7675 30.4089 45.7738 30.4089 45.9438V46.1263H28.0929H25.777V45.9438Z" fill="#848484"/>
<path d="M33.6012 45.9438C33.6012 45.7738 33.62 45.7675 34.0143 45.6983C34.4838 45.6227 34.7091 45.4968 34.7905 45.2702C34.828 45.1758 34.8531 43.9043 34.8531 42.2173C34.8531 39.9323 34.8343 39.284 34.7655 39.1203C34.6277 38.7867 34.2897 38.5349 33.7952 38.409C33.3821 38.302 33.3508 38.2831 33.3508 38.1195C33.3508 37.9117 33.3446 37.918 35.1473 37.811C36.1676 37.7481 36.4304 37.7544 36.5118 37.8173C36.5932 37.8866 36.6057 38.3398 36.6057 41.4494C36.6057 45.2891 36.5995 45.2325 36.9437 45.4528C37.0251 45.5094 37.2692 45.6038 37.4758 45.6605C37.8263 45.7612 37.8576 45.7801 37.8576 45.95V46.1263H35.7294H33.6012V45.9438Z" fill="#848484"/>
<path d="M48.4359 45.95C48.4359 45.7801 48.461 45.7675 48.799 45.7046C49.331 45.6038 49.4812 45.522 49.6064 45.2954C49.7066 45.1066 49.7191 44.8485 49.7379 42.3558C49.7504 40.0519 49.7379 39.5798 49.6565 39.2966C49.5251 38.8308 49.2121 38.5601 48.63 38.409C48.2168 38.302 48.1855 38.2831 48.1855 38.1195C48.1855 37.9117 48.1793 37.918 49.982 37.811C51.0023 37.7481 51.2652 37.7544 51.3465 37.8173C51.4279 37.8866 51.4404 38.3398 51.4404 41.4494C51.4404 45.2891 51.4342 45.2325 51.7784 45.4528C51.8598 45.5094 52.1039 45.6038 52.3105 45.6605C52.661 45.7612 52.6923 45.7801 52.6923 45.95V46.1263H50.5641H48.4359V45.95Z" fill="#848484"/>
<path d="M53.819 45.9438C53.819 45.7801 53.8441 45.7612 54.0882 45.7235C54.6077 45.6416 54.8331 45.5409 54.952 45.3458C55.0647 45.1632 55.0709 44.9681 55.0709 42.2362C55.0709 39.1518 55.0647 39.0637 54.7705 38.7427C54.6202 38.5727 54.2509 38.3965 53.9505 38.3461C53.7189 38.3083 53.6938 38.2894 53.6938 38.1258C53.6938 37.9684 53.7189 37.9495 53.963 37.9181C54.5263 37.8488 56.5669 37.7418 56.6608 37.7733C56.7422 37.8048 56.7609 37.9243 56.7609 38.4468C56.7609 38.793 56.786 39.0763 56.811 39.0763C56.8361 39.0763 56.9988 38.9315 57.1678 38.7552C57.5559 38.3524 58.1818 37.9369 58.6388 37.7796C58.9017 37.6852 59.1583 37.66 59.7404 37.66C60.4853 37.66 60.5041 37.6663 60.9297 37.8803C61.4492 38.151 61.8123 38.5727 62.0188 39.1455C62.1628 39.5358 62.1691 39.6239 62.2004 42.318C62.2379 45.0562 62.2379 45.0877 62.3756 45.2828C62.5196 45.4906 62.8263 45.6416 63.2269 45.7172C63.4334 45.7549 63.4585 45.7864 63.4585 45.9438V46.1263H61.299H59.1395V45.9438C59.1395 45.7675 59.152 45.7612 59.5902 45.6983C59.8406 45.6605 60.1097 45.5787 60.1973 45.5094C60.5103 45.2765 60.5228 45.1066 60.5041 42.3495C60.4853 39.9449 60.479 39.7813 60.3538 39.498C60.116 38.9252 59.7404 38.5916 59.2334 38.4909C59.127 38.472 58.8516 38.4783 58.6137 38.5098C58.0191 38.5853 57.4808 38.8623 57.0739 39.3029L56.7547 39.6554L56.7735 42.3873L56.7922 45.1192L56.98 45.308C57.1678 45.4906 57.7624 45.7486 58.0128 45.7486C58.113 45.7486 58.138 45.7927 58.138 45.9375V46.1263H55.9785H53.819V45.9438Z" fill="#848484"/>
<path d="M35.1284 35.1799C34.4149 34.8462 34.2584 33.9587 34.8092 33.3859C35.2536 32.9138 35.8295 32.876 36.349 33.2663C36.7371 33.5684 36.8435 34.1475 36.5994 34.6574C36.3428 35.1925 35.6605 35.4317 35.1284 35.1799Z" fill="#848484"/>
<path d="M50.0009 35.205C49.7129 35.0728 49.5752 34.9406 49.4313 34.6574C49.0056 33.8202 49.8131 32.8004 50.7082 33.0396C51.0587 33.1341 51.3717 33.3796 51.4843 33.6565C51.6909 34.1538 51.4468 34.9092 51.0024 35.1421C50.7144 35.2931 50.2575 35.3183 50.0009 35.205Z" fill="#848484"/>
</svg>
