<?xml version="1.0" encoding="UTF-8"?>
<svg width="1241px" height="353px" viewBox="0 0 1241 353" version="1.1" xmlns="http://www.w3.org/2000/svg" xmlns:xlink="http://www.w3.org/1999/xlink">
    <!-- Generator: Sketch 52.2 (67145) - http://www.bohemiancoding.com/sketch -->
    <title>Academy_Our_Process V2</title>
    <desc>Created with Sketch.</desc>
    <defs>
        <linearGradient x1="0%" y1="0%" x2="100%" y2="100%" id="linearGradient-1">
            <stop stop-color="#EBEFF5" offset="0%"></stop>
            <stop stop-color="#FAF5F5" offset="100%"></stop>
        </linearGradient>
        <polygon id="path-2" points="0 0 1440 0 1440 650 0 650"></polygon>
        <linearGradient x1="27.5390618%" y1="50%" x2="91.0446588%" y2="50%" id="linearGradient-4">
            <stop stop-color="#A399E7" offset="0%"></stop>
            <stop stop-color="#6B018D" offset="100%"></stop>
        </linearGradient>
        <linearGradient x1="0%" y1="50%" x2="100%" y2="50%" id="linearGradient-5">
            <stop stop-color="#6A63C9" offset="0%"></stop>
            <stop stop-color="#FF0071" offset="100%"></stop>
        </linearGradient>
        <linearGradient x1="100%" y1="50%" x2="0%" y2="50%" id="linearGradient-6">
            <stop stop-color="#F13858" offset="0%"></stop>
            <stop stop-color="#C02A94" offset="100%"></stop>
        </linearGradient>
    </defs>
    <g stroke="none" stroke-width="1" fill="none" fill-rule="evenodd">
        <g transform="translate(-100.000000, -1598.000000)">
            <g transform="translate(0.000000, 1449.000000)">
                <g>
                    <mask id="mask-3" fill="white">
                        <use xlink:href="#path-2"></use>
                    </mask>
                    <use fill="url(#linearGradient-1)" xlink:href="#path-2"></use>
                </g>
            </g>
            <g transform="translate(100.000000, 1598.000000)">
                <g transform="translate(-23.570943, -85.359104)">
                    <g>
                        <rect fill="url(#linearGradient-4)" x="136.18767" y="345.376068" width="332.612202" height="53.8418965"></rect>
                        <rect fill="url(#linearGradient-5)" x="640.474908" y="345.113438" width="368.88527" height="54.3671854"></rect>
                        <g transform="translate(404.325022, 3.629275)">
                            <path d="M237.590331,395.457383 C151.021477,395.457383 80.8435546,325.080092 80.8435546,238.265303 C80.8435546,151.450515 151.021477,81.0732238 237.590331,81.0732238 C324.159185,81.0732238 394.337107,151.450515 394.337107,238.265303 C394.337107,325.080092 324.159185,395.457383 237.590331,395.457383 Z M238.179604,341.090198 C294.481904,341.090198 340.123936,295.318501 340.123936,238.856251 C340.123936,182.394001 294.481904,136.622305 238.179604,136.622305 C181.877305,136.622305 136.235273,182.394001 136.235273,238.856251 C136.235273,295.318501 181.877305,341.090198 238.179604,341.090198 Z" fill=""></path>
                            <rect fill="#6C038F" x="36.9754079" y="341.746793" width="210.828997" height="53.8418965"></rect>
                            <g transform="translate(236.656152, 237.692786) rotate(109.000000) translate(-236.656152, -237.692786) translate(50.656152, 51.164377)">
                                <ellipse transform="translate(185.799730, 186.327570) rotate(-53.000000) translate(-185.799730, -186.327570) " cx="185.79973" cy="186.32757" rx="132.82693" ry="132.723107"></ellipse>
                                <text transform="translate(185.799730, 69.683864) rotate(-180.000000) translate(-185.799730, -69.683864) " font-family="Montserrat-Regular, Montserrat" font-size="14.4044651" font-weight="normal" letter-spacing="1.19164215" fill="#FFFFFF">
                                    <tspan x="110.961983" y="74.6838645">USER FLOWS</tspan>
                                </text>
                            </g>
                            <g transform="translate(237.652432, 238.218184) rotate(95.000000) translate(-237.652432, -238.218184) translate(67.652432, 67.233809)">
                                <path d="M265.990105,243.385795 C226.007168,296.528369 150.708363,307.240634 97.8055157,267.312311 C44.9026686,227.383987 34.4290117,151.935117 74.4119482,98.7925437 C114.394885,45.6499703 189.69369,34.9377045 242.596537,74.8660283 C295.499384,114.794352 305.973041,190.243222 265.990105,243.385795 Z" transform="translate(170.201026, 171.089169) rotate(-227.000000) translate(-170.201026, -171.089169) "></path>
                                <text transform="translate(171.478616, 56.503961) rotate(-180.000000) translate(-171.478616, -56.503961) " font-family="Montserrat-Regular, Montserrat" font-size="14.4044651" font-weight="normal" letter-spacing="1.19164215" fill="#FFFFFF">
                                    <tspan x="96.6408695" y="61.5039614">WIRES</tspan>
                                </text>
                            </g>
                            <g transform="translate(246.775456, 237.645903) rotate(11.000000) translate(-246.775456, -237.645903) translate(71.275456, 71.675732)">
                                <path d="M165.223648,286.248903 C99.0110346,286.333369 45.4035795,232.659121 45.4880455,166.364114 C45.5725115,100.069107 99.3169131,46.2579124 165.529526,46.1734464 C231.742139,46.0889804 285.349594,99.7632288 285.265128,166.058236 C285.180662,232.353242 231.436261,286.164437 165.223648,286.248903 Z" transform="translate(165.376587, 166.211175) rotate(-32.000000) translate(-165.376587, -166.211175) "></path>
                                <text transform="translate(271.244842, 90.223848) rotate(-180.000000) translate(-271.244842, -90.223848) " font-family="Montserrat-Regular, Montserrat" font-size="14.4044651" font-weight="normal" letter-spacing="1.19164215" fill="#FFFFFF">
                                    <tspan x="191.526425" y="95.2238485">DESIG</tspan>
                                    <tspan x="242.642634" y="95.2238485">N</tspan>
                                </text>
                            </g>
                            <g transform="translate(236.952531, 237.522911) rotate(-24.000000) translate(-236.952531, -237.522911) translate(111.452531, 111.666377)">
                                <path d="M125.288113,246.317205 C58.4599348,246.323808 4.29034515,192.307315 4.29694814,125.667991 C4.30355114,59.028667 58.4838464,5.00146846 125.312025,4.99486546 C192.140203,4.98826247 246.309793,59.0047554 246.30319,125.644079 C246.296587,192.283403 192.116291,246.310602 125.288113,246.317205 Z" transform="translate(125.300069, 125.656035) rotate(-268.000000) translate(-125.300069, -125.656035) "></path>
                                <text transform="translate(125.545103, 10.168398) rotate(-180.000000) translate(-125.545103, -10.168398) " font-family="Montserrat-Regular, Montserrat" font-size="14.4044651" font-weight="normal" letter-spacing="1.19164215" fill="#FFFFFF">
                                    <tspan x="50.7073561" y="15.1683979">PROTOTYP</tspan>
                                    <tspan x="140.199679" y="15.1683979">E</tspan>
                                </text>
                            </g>
                            <g transform="translate(240.936412, 236.017996) rotate(-477.000000) translate(-240.936412, -236.017996) translate(70.936412, 65.535042)">
                                <path d="M170.137507,292.271989 C102.812777,292.36177 48.3080818,237.804094 48.3978623,170.414009 C48.4876428,103.023925 103.137901,48.3206858 170.462631,48.2309053 C237.787361,48.1411248 292.292056,102.698801 292.202275,170.088885 C292.112495,237.47897 237.462237,292.182209 170.137507,292.271989 Z" transform="translate(170.300069, 170.251447) rotate(-215.000000) translate(-170.300069, -170.251447) "></path>
                                <text transform="translate(170.300069, 49.412589) rotate(-180.000000) translate(-170.300069, -49.412589) " font-family="Montserrat-Regular, Montserrat" font-size="14.4044651" font-weight="normal" letter-spacing="1.19164215" fill="#FFFFFF">
                                    <tspan x="95.4623224" y="54.4125894">TES</tspan>
                                    <tspan x="126.232879" y="54.4125894">T</tspan>
                                </text>
                            </g>
                            <g transform="translate(238.048786, 238.774925) rotate(163.000000) translate(-238.048786, -238.774925) translate(52.048786, 52.246516)">
                                <path d="M291.35436,266.009698 C335.061665,207.949484 323.335187,125.310256 265.162538,81.4298159 C206.989889,37.5493763 124.399868,49.0443551 80.692562,107.10457 C36.9852564,165.164784 48.7117344,247.804012 106.884384,291.684452 C165.057033,335.564892 247.647054,324.069913 291.35436,266.009698 Z" transform="translate(186.023461, 186.557134) rotate(43.000000) translate(-186.023461, -186.557134) "></path>
                                <text transform="translate(187.371125, 71.259724) rotate(-180.000000) translate(-187.371125, -71.259724) " font-family="Montserrat-Regular, Montserrat" font-size="14.4044651" font-weight="normal" letter-spacing="1.19164215" fill="#FFFFFF">
                                    <tspan x="112.533379" y="76.2597243">REVIE</tspan>
                                    <tspan x="162.396399" y="76.2597243">W</tspan>
                                </text>
                            </g>
                            <text font-family="Montserrat-Regular, Montserrat" font-size="14.4044651" font-weight="normal" letter-spacing="1.19164215" fill="#FFFFFF">
                                <tspan x="10.8688291" y="371.220603">DESIGN LANGUAGE SYSTEM</tspan>
                            </text>
                            <path d="M253.963399,341.680439 L253.963399,391.815279 L270.198178,368.904971 C271.218973,367.464439 271.20979,365.533971 270.175336,364.103215 L253.963399,341.680439 Z M133.198566,237.259701 L84.4810699,225.980428 L103.080271,246.987981 C104.25577,248.315692 106.148311,248.743526 107.780612,248.050554 L133.198566,237.259701 Z M162.839715,166.662146 L130.703236,128.254579 L132.95121,156.26747 C133.09271,158.030752 134.34275,159.507508 136.058453,159.938264 L162.839715,166.662146 Z M266.648977,138.906894 L276.188102,89.692936 L255.893947,109.074385 C254.616932,110.293968 254.257853,112.191131 255.000841,113.793042 L266.648977,138.906894 Z M329.352004,188.660027 L371.283338,161.35214 L343.295912,160.176282 C341.526229,160.101931 339.906631,161.165671 339.271846,162.819259 L329.352004,188.660027 Z M337.862035,267.792948 L383.885714,287.38434 L369.205263,263.454759 C368.278391,261.943929 366.489951,261.194132 364.762758,261.592255 L337.862035,267.792948 Z" stroke="#3E3E3E" stroke-width="1.17854719" style="mix-blend-mode: overlay;"></path>
                        </g>
                        <g transform="translate(0.000000, 10.195360)">
                            <path d="M225.495363,388.891298 C138.926509,388.891298 68.7485864,318.514007 68.7485864,231.699218 C68.7485864,144.88443 138.926509,74.5071389 225.495363,74.5071389 C312.064217,74.5071389 382.242139,144.88443 382.242139,231.699218 C382.242139,318.514007 312.064217,388.891298 225.495363,388.891298 Z M226.084636,334.524113 C282.386936,334.524113 328.028968,288.752416 328.028968,232.290166 C328.028968,175.827917 282.386936,130.05622 226.084636,130.05622 C169.782336,130.05622 124.140304,175.827917 124.140304,232.290166 C124.140304,288.752416 169.782336,334.524113 226.084636,334.524113 Z" fill=""></path>
                            <rect fill="#4302B2" x="25.1423404" y="334.524113" width="200.353022" height="54.3671854"></rect>
                            <g transform="translate(224.743638, 231.340934) rotate(-280.000000) translate(-224.743638, -231.340934) translate(38.743638, 44.812525)">
                                <ellipse transform="translate(185.799730, 186.327570) rotate(-53.000000) translate(-185.799730, -186.327570) " cx="185.79973" cy="186.32757" rx="132.82693" ry="132.723107"></ellipse>
                                <text transform="translate(185.799730, 69.683864) rotate(-180.000000) translate(-185.799730, -69.683864) " font-family="Montserrat-Regular, Montserrat" font-size="14.4044651" font-weight="normal" letter-spacing="1.19164215" fill="#FFFFFF">
                                    <tspan x="110.961983" y="74.6838645">PLA</tspan>
                                    <tspan x="143.230604" y="74.6838645">N</tspan>
                                </text>
                            </g>
                            <g transform="translate(225.866961, 231.962476) rotate(95.000000) translate(-225.866961, -231.962476) translate(55.866961, 60.978101)">
                                <path d="M265.990105,243.385795 C226.007168,296.528369 150.708363,307.240634 97.8055157,267.312311 C44.9026686,227.383987 34.4290117,151.935117 74.4119482,98.7925437 C114.394885,45.6499703 189.69369,34.9377045 242.596537,74.8660283 C295.499384,114.794352 305.973041,190.243222 265.990105,243.385795 Z" transform="translate(170.201026, 171.089169) rotate(-227.000000) translate(-170.201026, -171.089169) "></path>
                                <text transform="translate(171.478616, 56.503961) rotate(-180.000000) translate(-171.478616, -56.503961) " font-family="Montserrat-Regular, Montserrat" font-size="14.4044651" font-weight="normal" letter-spacing="1.19164215" fill="#FFFFFF">
                                    <tspan x="96.6408695" y="61.5039614">SKETC</tspan>
                                    <tspan x="150.53714" y="61.5039614">H</tspan>
                                </text>
                            </g>
                            <g transform="translate(234.989985, 231.390194) rotate(11.000000) translate(-234.989985, -231.390194) translate(59.489985, 65.420023)">
                                <path d="M165.223648,286.248903 C99.0110346,286.333369 45.4035795,232.659121 45.4880455,166.364114 C45.5725115,100.069107 99.3169131,46.2579124 165.529526,46.1734464 C231.742139,46.0889804 285.349594,99.7632288 285.265128,166.058236 C285.180662,232.353242 231.436261,286.164437 165.223648,286.248903 Z" transform="translate(165.376587, 166.211175) rotate(-32.000000) translate(-165.376587, -166.211175) "></path>
                                <text transform="translate(271.244842, 90.223848) rotate(-180.000000) translate(-271.244842, -90.223848) " font-family="Montserrat-Regular, Montserrat" font-size="14.4044651" font-weight="normal" letter-spacing="1.19164215" fill="#FFFFFF">
                                    <tspan x="191.526425" y="95.2238485">DESIG</tspan>
                                    <tspan x="242.642634" y="95.2238485">N</tspan>
                                </text>
                            </g>
                            <g transform="translate(225.167059, 231.267202) rotate(-24.000000) translate(-225.167059, -231.267202) translate(99.667059, 105.410668)">
                                <path d="M125.288113,246.317205 C58.4599348,246.323808 4.29034515,192.307315 4.29694814,125.667991 C4.30355114,59.028667 58.4838464,5.00146846 125.312025,4.99486546 C192.140203,4.98826247 246.309793,59.0047554 246.30319,125.644079 C246.296587,192.283403 192.116291,246.310602 125.288113,246.317205 Z" transform="translate(125.300069, 125.656035) rotate(-268.000000) translate(-125.300069, -125.656035) "></path>
                                <text transform="translate(125.545103, 10.168398) rotate(-180.000000) translate(-125.545103, -10.168398) " font-family="Montserrat-Regular, Montserrat" font-size="14.4044651" font-weight="normal" letter-spacing="1.19164215" fill="#FFFFFF">
                                    <tspan x="50.7073561" y="15.1683979">PROTOTYP</tspan>
                                    <tspan x="140.199679" y="15.1683979">E</tspan>
                                </text>
                            </g>
                            <g transform="translate(229.150941, 229.762288) rotate(-477.000000) translate(-229.150941, -229.762288) translate(59.150941, 59.279333)">
                                <path d="M170.137507,292.271989 C102.812777,292.36177 48.3080818,237.804094 48.3978623,170.414009 C48.4876428,103.023925 103.137901,48.3206858 170.462631,48.2309053 C237.787361,48.1411248 292.292056,102.698801 292.202275,170.088885 C292.112495,237.47897 237.462237,292.182209 170.137507,292.271989 Z" transform="translate(170.300069, 170.251447) rotate(-215.000000) translate(-170.300069, -170.251447) "></path>
                                <text transform="translate(170.300069, 49.412589) rotate(-180.000000) translate(-170.300069, -49.412589) " font-family="Montserrat-Regular, Montserrat" font-size="14.4044651" font-weight="normal" letter-spacing="1.19164215" fill="#FFFFFF">
                                    <tspan x="95.4623224" y="54.4125894">TES</tspan>
                                    <tspan x="126.232879" y="54.4125894">T</tspan>
                                </text>
                            </g>
                            <g transform="translate(226.293560, 232.158361) rotate(169.000000) translate(-226.293560, -232.158361) translate(40.293560, 45.629952)">
                                <path d="M291.35436,266.009698 C335.061665,207.949484 323.335187,125.310256 265.162538,81.4298159 C206.989889,37.5493763 124.399868,49.0443551 80.692562,107.10457 C36.9852564,165.164784 48.7117344,247.804012 106.884384,291.684452 C165.057033,335.564892 247.647054,324.069913 291.35436,266.009698 Z" transform="translate(186.023461, 186.557134) rotate(43.000000) translate(-186.023461, -186.557134) "></path>
                                <text transform="translate(187.371125, 71.259724) rotate(-180.000000) translate(-187.371125, -71.259724) " font-family="Montserrat-Regular, Montserrat" font-size="14.4044651" font-weight="normal" letter-spacing="1.19164215" fill="#FFFFFF">
                                    <tspan x="112.533379" y="76.2597243">VALIDATE</tspan>
                                </text>
                            </g>
                            <text font-family="Montserrat-Regular, Montserrat" font-size="14.4044651" font-weight="normal" letter-spacing="1.19164215" fill="#FFFFFF">
                                <tspan x="130.03304" y="364.654518">RESEARC</tspan>
                                <tspan x="208.553089" y="364.654518">H</tspan>
                            </text>
                            <path d="M242.177927,335.114354 L242.177927,385.249194 L258.412706,362.338887 C259.433501,360.898354 259.424318,358.967886 258.389865,357.53713 L242.177927,335.114354 Z M121.413094,230.693616 L72.6955985,219.414343 L91.2947996,240.421896 C92.470299,241.749607 94.3628395,242.177441 95.9951404,241.484469 L121.413094,230.693616 Z M151.054243,160.096061 L118.917765,121.688494 L121.165739,149.701385 C121.307238,151.464667 122.557279,152.941424 124.272981,153.372179 L151.054243,160.096061 Z M254.863506,132.340809 L264.40263,83.1268511 L244.108476,102.5083 C242.83146,103.727883 242.472382,105.625046 243.21537,107.226957 L254.863506,132.340809 Z M317.566533,182.093942 L359.497867,154.786055 L331.51044,153.610197 C329.740757,153.535846 328.12116,154.599586 327.486375,156.253174 L317.566533,182.093942 Z M326.076563,261.226863 L372.100243,280.818255 L357.419791,256.888674 C356.492919,255.377844 354.704479,254.628048 352.977286,255.02617 L326.076563,261.226863 Z" stroke="#3E3E3E" stroke-width="1.17854719" style="mix-blend-mode: overlay;"></path>
                        </g>
                        <g transform="translate(801.412057, 0.000000)">
                            <rect fill="#EA7164" x="261.637476" y="345.113438" width="200.353022" height="54.3671854"></rect>
                            <path d="M258.101835,399.480623 C171.53298,399.480623 101.355058,329.103332 101.355058,242.288544 C101.355058,155.473755 171.53298,85.0964641 258.101835,85.0964641 C344.670689,85.0964641 414.848611,155.473755 414.848611,242.288544 C414.848611,329.103332 344.670689,399.480623 258.101835,399.480623 Z M258.691108,345.113438 C314.993408,345.113438 360.63544,299.341741 360.63544,242.879491 C360.63544,186.417242 314.993408,140.645545 258.691108,140.645545 C202.388808,140.645545 156.746776,186.417242 156.746776,242.879491 C156.746776,299.341741 202.388808,345.113438 258.691108,345.113438 Z" fill=""></path>
                            <rect fill="url(#linearGradient-6)" x="57.7488123" y="345.113438" width="200.353022" height="54.3671854"></rect>
                            <g transform="translate(257.280556, 241.860509) rotate(-260.000000) translate(-257.280556, -241.860509) translate(71.280556, 55.332100)">
                                <ellipse transform="translate(185.799730, 186.327570) rotate(-53.000000) translate(-185.799730, -186.327570) " cx="185.79973" cy="186.32757" rx="132.82693" ry="132.723107"></ellipse>
                                <text transform="translate(185.856668, 69.673796) rotate(-200.000000) translate(-185.856668, -69.673796) " font-family="Montserrat-Regular, Montserrat" font-size="14.4044651" font-weight="normal" letter-spacing="1.19164215" fill="#FFFFFF">
                                    <tspan x="111.018922" y="74.6737961">PLA</tspan>
                                    <tspan x="143.287543" y="74.6737961">N</tspan>
                                </text>
                            </g>
                            <g transform="translate(267.670588, 241.932618) rotate(43.000000) translate(-267.670588, -241.932618) translate(92.170588, 75.962448)">
                                <path d="M165.223648,286.248903 C99.0110346,286.333369 45.4035795,232.659121 45.4880455,166.364114 C45.5725115,100.069107 99.3169131,46.2579124 165.529526,46.1734464 C231.742139,46.0889804 285.349594,99.7632288 285.265128,166.058236 C285.180662,232.353242 231.436261,286.164437 165.223648,286.248903 Z" transform="translate(165.376587, 166.211175) rotate(-32.000000) translate(-165.376587, -166.211175) "></path>
                                <text transform="translate(271.244842, 90.223848) rotate(-180.000000) translate(-271.244842, -90.223848) " font-family="Montserrat-Regular, Montserrat" font-size="14.4044651" font-weight="normal" letter-spacing="1.19164215" fill="#FFFFFF">
                                    <tspan x="191.526425" y="95.2238485">BUIL</tspan>
                                    <tspan x="230.172296" y="95.2238485">D</tspan>
                                </text>
                            </g>
                            <g transform="translate(261.346395, 240.276676) rotate(-37.000000) translate(-261.346395, -240.276676) translate(116.846395, 94.864744)">
                                <path d="M144.480215,267.234981 C77.0355251,267.273841 22.3923044,212.772133 22.431165,145.502009 C22.4700256,78.2318839 77.1762518,23.6671702 144.620941,23.6283096 C212.065631,23.589449 266.708851,78.0911572 266.669991,145.361282 C266.63113,212.631407 211.924904,267.19612 144.480215,267.234981 Z" transform="translate(144.550578, 145.431645) rotate(-258.000000) translate(-144.550578, -145.431645) "></path>
                                <text transform="translate(144.550578, 24.592787) rotate(-180.000000) translate(-144.550578, -24.592787) " font-family="Montserrat-Regular, Montserrat" font-size="14.4044651" font-weight="normal" letter-spacing="1.19164215" fill="#FFFFFF">
                                    <tspan x="69.7128314" y="29.5927873">TES</tspan>
                                    <tspan x="100.483388" y="29.5927873">T</tspan>
                                </text>
                            </g>
                            <g transform="translate(258.347364, 242.761905) rotate(169.000000) translate(-258.347364, -242.761905) translate(69.347364, 53.224973)">
                                <path d="M295.398466,269.667453 C339.716901,210.818751 327.826488,127.05722 268.840484,82.5808356 C209.85448,38.1044516 126.109685,49.755517 81.7912493,108.604219 C37.4728137,167.45292 49.3632272,251.214452 108.349231,295.690836 C167.335235,340.16722 251.08003,328.516154 295.398466,269.667453 Z" transform="translate(188.594857, 189.135836) rotate(47.000000) translate(-188.594857, -189.135836) "></path>
                                <text transform="translate(189.936712, 73.838324) rotate(182.000000) translate(-189.936712, -73.838324) " font-family="Montserrat-Regular, Montserrat" font-size="14.4044651" font-weight="normal" letter-spacing="1.19164215" fill="#FFFFFF">
                                    <tspan x="115.098965" y="78.8383243">REVIE</tspan>
                                    <tspan x="164.961985" y="78.8383243">W</tspan>
                                </text>
                            </g>
                            <text font-family="Montserrat-Regular, Montserrat" font-size="14.4044651" font-weight="normal" letter-spacing="1.19164215" fill="#FFFFFF">
                                <tspan x="0" y="375.554219">HAND-OF</tspan>
                                <tspan x="81.1848749" y="375.554219">F</tspan>
                            </text>
                            <path d="M158.621875,211.287386 L110.108142,199.157191 L128.339076,220.487253 C129.491192,221.835221 131.375893,222.296026 133.020004,221.631729 L158.621875,211.287386 Z M287.469978,143.24051 L297.009102,94.0265524 L276.714948,113.408001 C275.437932,114.627584 275.078854,116.524747 275.821842,118.126659 L287.469978,143.24051 Z M358.683035,272.126564 L404.706715,291.717957 L390.026263,267.788375 C389.099391,266.277546 387.310951,265.527749 385.583758,265.925872 L358.683035,272.126564 Z" stroke="#3E3E3E" stroke-width="1.17854719" style="mix-blend-mode: overlay;"></path>
                        </g>
                        <text font-family="Montserrat-Regular, Montserrat" font-size="14.4044651" font-weight="normal" letter-spacing="1.19164215" fill="#000000">
                            <tspan x="534.274705" y="429.002136">DETAILED DESIGN SPRINT</tspan>
                        </text>
                        <text font-family="Montserrat-Regular, Montserrat" font-size="14.4044651" font-weight="normal" letter-spacing="1.19164215" fill="#000000">
                            <tspan x="163.687103" y="429.002136">DESIGN SPRINT</tspan>
                        </text>
                        <text font-family="Montserrat-Regular, Montserrat" font-size="14.4044651" font-weight="normal" letter-spacing="1.19164215" fill="#000000">
                            <tspan x="932.36174" y="429.002136">AGILE DEVELOPMENT SPRINT</tspan>
                        </text>
                    </g>
                    <text font-family="Montserrat-Regular, Montserrat" font-size="14.4044651" font-weight="normal" letter-spacing="1.19164215" fill="#FFFFFF">
                        <tspan x="1172.66679" y="376.410253">LAUNCH</tspan>
                    </text>
                </g>
            </g>
        </g>
    </g>
</svg>