<svg xmlns="http://www.w3.org/2000/svg" width="43" height="40" viewBox="0 0 43 40">
    <path fill="#000" fill-rule="evenodd" d="M13.214 27.857c1.072 1.31 1.607 2.857 1.607 4.643 0 2.143-.714 3.929-2.142 5.357C11.25 39.286 9.524 40 7.5 40c-2.143 0-3.929-.714-5.357-2.143C.714 36.43 0 34.643 0 32.5c0-2.143.536-4.88 1.607-8.214L8.571 0h6.25L9.107 25.179c1.667.476 3.036 1.369 4.107 2.678zm27.322 0c1.071 1.31 1.607 2.857 1.607 4.643 0 2.143-.714 3.929-2.143 5.357C38.571 39.286 36.845 40 34.821 40c-2.142 0-3.928-.714-5.357-2.143-1.428-1.428-2.143-3.214-2.143-5.357 0-2.143.536-4.88 1.608-8.214L35.893 0h6.25l-5.714 25.179c1.666.476 3.035 1.369 4.107 2.678z" opacity=".1"/>
</svg>
