<?xml version="1.0" encoding="UTF-8"?>
<svg width="72px" height="72px" viewBox="0 0 72 72" version="1.1" xmlns="http://www.w3.org/2000/svg" xmlns:xlink="http://www.w3.org/1999/xlink">
    <!-- Generator: Sketch 53.2 (72643) - https://sketchapp.com -->
    <title>skills</title>
    <desc>Created with Sketch.</desc>
    <g stroke="none" stroke-width="1" fill="none" fill-rule="evenodd">
        <g transform="translate(0.000000, -2.000000)" fill="#000000">
            <path d="M47.65045,34.6835687 L46.4733875,33.5065062 L68.005075,11.9771312 C68.8907625,11.0914437 69.3763875,9.91438125 69.3763875,8.66331875 C69.3763875,7.41225625 68.8907625,6.23519375 68.005075,5.34950625 C66.2337,3.57813125 63.148825,3.57813125 61.37745,5.34950625 L39.8457625,26.8788812 L38.6710125,25.7041312 L60.2003875,4.17244375 C62.59845,1.77206875 66.7817625,1.77206875 69.1821375,4.17244375 C70.382325,5.37263125 71.0413875,6.96594375 71.0413875,8.66331875 C71.0413875,10.3583812 70.382325,11.9540062 69.1821375,13.1518812 L47.65045,34.6835687 Z"></path>
            <polygon points="43.7481062 30.781225 42.5710437 29.6041625 64.0356687 8.1395375 65.2127313 9.3166"></polygon>
            <path d="M4.890475,71.3706875 L1.9836625,68.463875 L7.6492875,62.229375 L11.1226625,65.70275 L4.890475,71.3706875 Z M11.152725,63.376375 L28.440975,46.088125 L27.2639125,44.913375 L9.9756625,62.201625 L8.211225,60.434875 C8.04935,60.273 7.7996,60.1781875 7.6030375,60.1920625 C7.3741,60.1966875 7.1590375,60.296125 7.0064125,60.4649375 L0.2169125,67.9296875 C-0.0814,68.2580625 -0.07215,68.7645 0.2446625,69.079 L4.27535,73.1096875 C4.437225,73.2715625 4.649975,73.3525 4.862725,73.3525 C5.0639125,73.3525 5.2651,73.283125 5.42235,73.1374375 L12.8871,66.3479375 C13.0559125,66.1953125 13.15535,65.9779375 13.159975,65.7513125 C13.1669125,65.5246875 13.0790375,65.3026875 12.9171625,65.143125 L11.152725,63.376375 Z"></path>
            <path d="M69.0998125,63.69365 L60.7516875,55.3432125 C58.6241875,53.2157125 55.162375,53.2134 53.0325625,55.3432125 C50.9050625,57.4707125 50.9050625,60.932525 53.0325625,63.060025 L61.383,71.4104625 C56.65625,73.1448375 51.282,72.0394625 47.669875,68.425025 C44.07625,64.8290875 42.8945625,59.4270875 44.663625,54.6587125 C44.696,54.5708375 44.7029375,54.4829625 44.70525,54.3950875 C44.70525,54.3812125 44.7121875,54.3719625 44.7121875,54.3580875 C44.7075625,54.14765 44.6243125,53.948775 44.478625,53.79615 C44.474,53.791525 44.4763125,53.7845875 44.4716875,53.7799625 L44.4555,53.763775 C44.4531875,53.763775 44.4531875,53.763775 44.4531875,53.763775 L20.1488125,29.4617125 C20.1465,29.4594 20.1465,29.4594 20.1441875,29.4570875 L20.128,29.4409 C20.123375,29.4385875 20.11875,29.4385875 20.114125,29.436275 C19.9615,29.288275 19.762625,29.2027125 19.549875,29.2004 C19.5383125,29.2004 19.5290625,29.205025 19.5198125,29.205025 C19.429625,29.2073375 19.3394375,29.2165875 19.2515625,29.2489625 C14.480875,31.0157125 9.0811875,29.834025 5.4875625,26.2427125 C1.8754375,22.628275 0.7654375,17.2563375 2.502125,12.5295875 L10.8525625,20.8777125 C11.914,21.943775 13.3130625,22.47565 14.7098125,22.47565 C16.1065625,22.47565 17.505625,21.943775 18.569375,20.8777125 C20.696875,18.7502125 20.696875,15.2884 18.569375,13.1609 L10.2189375,4.8104625 C14.948,3.0760875 20.3199375,4.1860875 23.9320625,7.7959 C27.528,11.3918375 28.707375,16.7984625 26.9383125,21.5668375 C26.903625,21.6547125 26.8966875,21.7425875 26.8966875,21.832775 C26.894375,21.8443375 26.88975,21.8535875 26.88975,21.8674625 C26.8920625,22.0779 26.977625,22.2790875 27.1233125,22.4294 C27.1279375,22.434025 27.125625,22.4409625 27.13025,22.4455875 L27.144125,22.4594625 L27.14875,22.4640875 L51.453125,46.7638375 C51.453125,46.7638375 51.453125,46.76615 51.4554375,46.76615 L51.4693125,46.7823375 C51.4739375,46.78465 51.480875,46.78465 51.4831875,46.7869625 C51.638125,46.9349625 51.8393125,47.0228375 52.0520625,47.0228375 C52.054375,47.0228375 52.0566875,47.02515 52.059,47.02515 C52.063625,47.02515 52.06825,47.020525 52.0751875,47.0182125 C52.165375,47.0182125 52.257875,47.0089625 52.3480625,46.974275 C57.1164375,45.2052125 62.52075,46.3869 66.114375,49.980525 C69.7265,53.59265 70.8365,58.9669 69.0998125,63.69365 M67.2914375,48.8034625 C63.37175,44.8814625 57.54425,43.5379 52.2995,45.2584 L28.651875,21.6154 C30.3746875,16.37065 29.031125,10.54315 25.109125,6.6188375 C20.7084375,2.2204625 13.981375,1.0619 8.3689375,3.7444 C8.2903125,3.7814 8.227875,3.8392125 8.16775,3.8947125 C8.1585,3.9039625 8.1469375,3.8993375 8.14,3.906275 C8.135375,3.9109 8.1376875,3.9178375 8.1330625,3.92015 C7.9896875,4.0704625 7.9110625,4.267025 7.904125,4.4728375 C7.904125,4.4844 7.8995,4.49365 7.8995,4.507525 C7.9018125,4.6254625 7.922625,4.7410875 7.9758125,4.8544 C8.015125,4.9353375 8.070625,4.997775 8.1284375,5.0602125 C8.135375,5.06715 8.1330625,5.0764 8.14,5.0833375 L8.1700625,5.1157125 C8.172375,5.1157125 8.1746875,5.118025 8.1746875,5.1203375 L17.3923125,14.3379625 C18.1045625,15.0502125 18.4976875,16.0029625 18.4976875,17.01815 C18.4976875,18.03565 18.1045625,18.9884 17.3923125,19.7029625 C15.9655,21.1274625 13.4564375,21.1274625 12.0273125,19.7029625 L2.775,10.4483375 C2.76575,10.4414 2.7541875,10.4437125 2.74725,10.436775 C2.6848125,10.3789625 2.6246875,10.3234625 2.5460625,10.2864625 C2.4304375,10.2309625 2.3125,10.21015 2.1945625,10.2078375 C2.1853125,10.2078375 2.178375,10.2124625 2.1668125,10.2124625 C1.9586875,10.2170875 1.762125,10.298025 1.6118125,10.4437125 C1.6071875,10.446025 1.6025625,10.446025 1.5979375,10.4483375 C1.591,10.4575875 1.5933125,10.46915 1.586375,10.4760875 C1.5285625,10.5362125 1.4730625,10.59865 1.4360625,10.677275 C-1.2464375,16.2897125 -0.0901875,23.0190875 4.3105,27.4174625 C7.11325,30.222525 10.891875,31.7233375 14.73525,31.7233375 C16.2638125,31.7233375 17.797,31.4458375 19.290875,30.9579 L42.94775,54.6124625 C41.22725,59.8525875 42.5708125,65.6800875 46.4928125,69.6020875 C49.31175,72.421025 53.08575,73.9079625 56.910625,73.9079625 C59.0543125,73.9079625 61.2165,73.4408375 63.233,72.476525 C63.3139375,72.439525 63.376375,72.3817125 63.4388125,72.3239 C63.44575,72.3169625 63.4573125,72.319275 63.4619375,72.31465 C63.4665625,72.310025 63.46425,72.3054 63.4665625,72.300775 C63.61225,72.1504625 63.6931875,71.9539 63.6978125,71.7480875 C63.6978125,71.736525 63.7024375,71.727275 63.7024375,71.7157125 C63.7024375,71.597775 63.6793125,71.4798375 63.626125,71.366525 C63.5868125,71.2879 63.5313125,71.2254625 63.4735,71.1653375 C63.4665625,71.1584 63.4711875,71.144525 63.4619375,71.1375875 L54.209625,61.8829625 C53.497375,61.1707125 53.10425,60.2179625 53.10425,59.202775 C53.10425,58.185275 53.497375,57.2348375 54.209625,56.520275 C55.6364375,55.095775 58.1455,55.0934625 59.574625,56.520275 L68.8269375,65.7725875 C68.8361875,65.7818375 68.84775,65.7772125 68.857,65.7864625 C68.917125,65.8419625 68.97725,65.899775 69.055875,65.936775 C69.1738125,65.992275 69.2940625,66.0177125 69.4143125,66.0177125 L69.416625,66.0177125 C69.416625,66.0177125 69.416625,66.0154 69.4189375,66.0154 C69.6131875,66.0154 69.786625,65.927525 69.9369375,65.80265 C69.9554375,65.78415 69.9855,65.7934 70.004,65.7725875 C70.0294375,65.7494625 70.0201875,65.7124625 70.041,65.6847125 C70.0803125,65.6338375 70.138125,65.603775 70.165875,65.54365 C72.848375,59.9312125 71.6944375,53.20415 67.2914375,48.8034625"></path>
        </g>
    </g>
</svg>