<?xml version="1.0" encoding="UTF-8"?>
<svg width="124px" height="124px" viewBox="0 0 124 124" version="1.1" xmlns="http://www.w3.org/2000/svg" xmlns:xlink="http://www.w3.org/1999/xlink">
    <!-- Generator: Sketch 53.2 (72643) - https://sketchapp.com -->
    <title>Slack</title>
    <desc>Created with Sketch.</desc>
    <defs>
        <rect id="path-1" x="0" y="0" width="124" height="124"></rect>
    </defs>
    <g stroke="none" stroke-width="1" fill="none" fill-rule="evenodd">
        <g>
            <g>
                <use fill-opacity="0.01" fill="#D8D8D8" fill-rule="evenodd" style="mix-blend-mode: screen;" xlink:href="#path-1"></use>
                <rect stroke-opacity="0" stroke="#979797" stroke-width="1" stroke-linejoin="square" x="0.5" y="0.5" width="123" height="123"></rect>
            </g>
            <g transform="translate(25.000000, 52.000000)" fill="#848484" fill-rule="nonzero">
                <path d="M4.11897638,12.6039685 C4.11897638,13.7627717 3.20192126,14.6993386 2.06725984,14.6993386 C0.932598425,14.6993386 0.0155433071,13.7627717 0.0155433071,12.6039685 C0.0155433071,11.4451654 0.932598425,10.5085984 2.06725984,10.5085984 L4.11897638,10.5085984 L4.11897638,12.6039685 Z"></path>
                <path d="M5.14483465,12.6039685 C5.14483465,11.4451654 6.06188976,10.5085984 7.19655118,10.5085984 C8.3312126,10.5085984 9.24826772,11.4451654 9.24826772,12.6039685 L9.24826772,17.8423937 C9.24826772,19.0011969 8.3312126,19.9377638 7.19655118,19.9377638 C6.06188976,19.9377638 5.14483465,19.0011969 5.14483465,17.8423937 L5.14483465,12.6039685 Z"></path>
                <path d="M7.19655118,4.19074016 C6.06188976,4.19074016 5.14483465,3.25417323 5.14483465,2.09537008 C5.14483465,0.936566929 6.06188976,2.17603713e-14 7.19655118,2.17603713e-14 C8.3312126,2.17603713e-14 9.24826772,0.936566929 9.24826772,2.09537008 L9.24826772,4.19074016 L7.19655118,4.19074016 Z"></path>
                <path d="M7.19655118,5.25429921 C8.3312126,5.25429921 9.24826772,6.19086614 9.24826772,7.34966929 C9.24826772,8.50847244 8.3312126,9.44503937 7.19655118,9.44503937 L2.05171654,9.44503937 C0.917055118,9.44503937 -7.72715225e-14,8.50847244 -7.72715225e-14,7.34966929 C-7.72715225e-14,6.19086614 0.917055118,5.25429921 2.05171654,5.25429921 L7.19655118,5.25429921 Z"></path>
                <path d="M15.4189606,7.34966929 C15.4189606,6.19086614 16.3360157,5.25429921 17.4706772,5.25429921 C18.6053386,5.25429921 19.5223937,6.19086614 19.5223937,7.34966929 C19.5223937,8.50847244 18.6053386,9.44503937 17.4706772,9.44503937 L15.4189606,9.44503937 L15.4189606,7.34966929 Z"></path>
                <path d="M14.3931024,7.34966929 C14.3931024,8.50847244 13.4760472,9.44503937 12.3413858,9.44503937 C11.2067244,9.44503937 10.2896693,8.50847244 10.2896693,7.34966929 L10.2896693,2.09537008 C10.2896693,0.936566929 11.2067244,-9.50350909e-14 12.3413858,-9.50350909e-14 C13.4760472,-9.50350909e-14 14.3931024,0.936566929 14.3931024,2.09537008 L14.3931024,7.34966929 Z"></path>
                <path d="M12.3413858,15.7470236 C13.4760472,15.7470236 14.3931024,16.6835906 14.3931024,17.8423937 C14.3931024,19.0011969 13.4760472,19.9377638 12.3413858,19.9377638 C11.2067244,19.9377638 10.2896693,19.0011969 10.2896693,17.8423937 L10.2896693,15.7470236 L12.3413858,15.7470236 Z"></path>
                <path d="M12.3413858,14.6993386 C11.2067244,14.6993386 10.2896693,13.7627717 10.2896693,12.6039685 C10.2896693,11.4451654 11.2067244,10.5085984 12.3413858,10.5085984 L17.4862205,10.5085984 C18.6208819,10.5085984 19.537937,11.4451654 19.537937,12.6039685 C19.537937,13.7627717 18.6208819,14.6993386 17.4862205,14.6993386 L12.3413858,14.6993386 Z"></path>
                <path d="M23.967893,16.3954101 L24.9189255,14.1075596 C25.9466541,14.9019522 27.3118458,15.3150363 28.6616983,15.3150363 C29.6587485,15.3150363 30.287657,14.91784 30.287657,14.3141017 C30.2723178,12.6299896 24.3206954,13.9486811 24.2746777,9.72251291 C24.2593384,7.5776531 26.1000464,5.92531665 28.707716,5.92531665 C30.2569786,5.92531665 31.8062411,6.32251291 32.9106659,7.22812039 L32.0209904,9.56363441 C31.008601,8.89634469 29.7507839,8.41970918 28.5543237,8.41970918 C27.7413443,8.41970918 27.2044712,8.81690544 27.2044712,9.32531665 C27.2198104,10.9776531 33.2174505,10.0720456 33.2788075,14.1075596 C33.2788075,16.300083 31.4841172,17.8412045 28.9071261,17.8412045 C27.0204004,17.8412045 25.2870671,17.3804568 23.967893,16.3954101"></path>
                <path d="M60.4599284,13.2813914 C59.9844122,14.1393353 59.0947367,14.7271858 58.0670081,14.7271858 C56.548424,14.7271858 55.3212853,13.4561578 55.3212853,11.8832606 C55.3212853,10.3103634 56.548424,9.03933534 58.0670081,9.03933534 C59.0947367,9.03933534 59.9844122,9.62718581 60.4599284,10.4851297 L63.0829373,8.97578394 C62.1012263,7.16456899 60.2145007,5.92531665 58.0670081,5.92531665 C54.8917868,5.92531665 52.3147957,8.59447553 52.3147957,11.8832606 C52.3147957,15.1720456 54.8917868,17.8412045 58.0670081,17.8412045 C60.2298399,17.8412045 62.1012263,16.61784 63.0829373,14.7907372 L60.4599284,13.2813914 Z"></path>
                <rect x="34.5979815" y="0.984195158" width="3.28259587" height="16.6345794"></rect>
                <polygon points="64.3714328 0.984195158 64.3714328 17.6187746 67.6540287 17.6187746 67.6540287 12.6299896 71.5501939 17.6187746 75.7531438 17.6187746 70.7985715 11.6926064 75.3850022 6.16363441 71.3661231 6.16363441 67.6540287 10.7552232 67.6540287 0.984195158"></polygon>
                <path d="M47.6363296,13.3131671 C47.1608134,14.1234475 46.1791025,14.7271858 45.0746777,14.7271858 C43.5560936,14.7271858 42.328955,13.4561578 42.328955,11.8832606 C42.328955,10.3103634 43.5560936,9.03933534 45.0746777,9.03933534 C46.1791025,9.03933534 47.1608134,9.67484936 47.6363296,10.5010176 L47.6363296,13.3131671 Z M47.6363296,6.16363441 L47.6363296,7.5141017 C47.0994564,6.57671852 45.7649432,5.92531665 44.369073,5.92531665 C41.4852971,5.92531665 39.2150907,8.56269983 39.2150907,11.8673727 C39.2150907,15.1720456 41.4852971,17.8412045 44.369073,17.8412045 C45.7649432,17.8412045 47.0994564,17.1898026 47.6363296,16.2524195 L47.6363296,17.6028867 L50.9189255,17.6028867 L50.9189255,6.16363441 L47.6363296,6.16363441 Z"></path>
            </g>
        </g>
    </g>
</svg>