<?xml version="1.0" encoding="UTF-8"?>
<svg width="72px" height="72px" viewBox="0 0 72 72" version="1.1" xmlns="http://www.w3.org/2000/svg" xmlns:xlink="http://www.w3.org/1999/xlink">
    <!-- Generator: Sketch 53.2 (72643) - https://sketchapp.com -->
    <title>storage</title>
    <desc>Created with Sketch.</desc>
    <g stroke="none" stroke-width="1" fill="none" fill-rule="evenodd">
        <g transform="translate(-2.000000, -2.000000)" fill="#000000">
            <path d="M13.1861063,71.6875 L66.5216063,71.6875 C69.3706062,71.6875 71.6877312,69.370375 71.6877312,66.5236875 L71.6877312,15.5423125 L15.5425438,15.5423125 L15.5425438,66.3433125 C15.5425438,68.4615625 14.6221688,70.3925 13.1861063,71.6875 L13.1861063,71.6875 Z M3.98004375,3.9798125 L3.98004375,66.5236875 C3.98004375,68.010625 4.53966875,69.3680625 5.55485625,70.34625 C6.45441875,71.211125 7.64073125,71.682875 8.90798125,71.6875 L8.92648125,71.6875 L8.98198125,71.6875 C9.03285625,71.6875 9.08604375,71.6875 9.13691875,71.6851875 C11.7500438,71.581125 13.8752313,69.185375 13.8752313,66.3433125 L13.8752313,14.7075 C13.8752313,14.2473125 14.2475437,13.875 14.7077313,13.875 L60.1252312,13.875 L60.1252312,8.6048125 L30.8952312,8.6048125 C30.7310438,8.6048125 30.5714812,8.5539375 30.4350437,8.46375 L23.7056688,3.9798125 L3.98004375,3.9798125 Z M8.92879375,73.3548125 C7.21754375,73.3548125 5.62191875,72.7165625 4.40091875,71.5464375 C3.07354375,70.27225 2.31273125,68.44075 2.31273125,66.5236875 L2.31273125,3.145 C2.31273125,2.6848125 2.68504375,2.3125 3.14523125,2.3125 L23.9577312,2.3125 C24.1219187,2.3125 24.2837937,2.3610625 24.4179187,2.4535625 L31.1496062,6.9375 L60.9577312,6.9375 C61.4179187,6.9375 61.7925437,7.3098125 61.7925437,7.77 L61.7925437,13.875 L72.5202312,13.875 C72.9804187,13.875 73.3550437,14.2473125 73.3550437,14.7075 L73.3550437,66.5236875 C73.3550437,70.29075 70.2886687,73.3548125 66.5216062,73.3548125 L8.99123125,73.3548125 L8.92879375,73.3548125 Z"></path>
        </g>
    </g>
</svg>