<?xml version="1.0" encoding="UTF-8"?>
<svg width="138px" height="140px" viewBox="0 0 138 140" version="1.1" xmlns="http://www.w3.org/2000/svg" xmlns:xlink="http://www.w3.org/1999/xlink">
    <!-- Generator: Sketch 53.2 (72643) - https://sketchapp.com -->
    <title>Group 15</title>
    <desc>Created with Sketch.</desc>
    <defs>
        <ellipse id="path-1" cx="50.51875" cy="50.4354839" rx="50.51875" ry="50.4354839"></ellipse>
    </defs>
    <g stroke="none" stroke-width="1" fill="none" fill-rule="evenodd">
        <g transform="translate(1.000000, -20.000000)">
            <path d="M83.0218299,33.6290323 L134.39683,33.6290323" stroke="#000000"></path>
            <path d="M100.14683,64.4032258 L132.68433,64.4032258" stroke="#000000"></path>
            <path d="M96.7218299,90.0483871 L130.97183,90.0483871" stroke="#000000"></path>
            <g transform="translate(0.000000, 20.806452)">
                <mask id="mask-2" fill="white">
                    <use xlink:href="#path-1"></use>
                </mask>
                <g></g>
                <g mask="url(#mask-2)">
                    <g transform="translate(-3.425000, 8.548387)">
                        <path d="M20.8694797,41.9523695 L48.7718618,41.9523695" stroke="#BBBBBB" stroke-dasharray="3.419354838709677"></path>
                        <path d="M71.5067433,14.5627821 L48.7718618,14.5627821 L48.7718618,71.0876455 L71.1044974,71.0876455" stroke="#BBBBBB" stroke-dasharray="3.419354838709677"></path>
                        <polyline stroke="#000000" points="82.2969081 0 71.1044974 0 71.1044974 29.135276 103.786522 29.135276"></polyline>
                        <polyline stroke="#000000" points="0 29.135276 20.8694797 29.135276 20.8694797 58.270552 0 58.270552"></polyline>
                        <polyline stroke="#000000" points="103.786522 54.769463 71.1044974 54.769463 71.1044974 83.904739 82.2969081 83.904739"></polyline>
                    </g>
                </g>
            </g>
            <ellipse stroke="#000000" cx="50.51875" cy="71.2419355" rx="50.51875" ry="50.4354839"></ellipse>
            <path d="M118.443408,79.6710266 C118.466401,51.7932847 95.8856656,29.2125495 68.0079237,29.2355428 C40.1301818,29.2585361 17.512167,51.8765509 17.4891737,79.7542928" stroke="#000000" stroke-width="3" transform="translate(67.966299, 54.494909) rotate(-315.000000) translate(-67.966299, -54.494909) "></path>
            <path d="M85.5813452,107.546364 L137,158.88027" stroke="#000000"></path>
        </g>
    </g>
</svg>