<svg width="83" height="83" viewBox="0 0 83 83" fill="none" xmlns="http://www.w3.org/2000/svg">
<path fill-rule="evenodd" clip-rule="evenodd" d="M39.7897 39.1985C39.7897 39.1985 39.4298 41.1904 38.9107 44.0008C38.6615 45.3759 38.171 48.6198 38.0522 49.4057L38.0521 49.4061L38.0278 49.5664C38.3562 49.6157 39.0028 49.6684 39.1788 49.6626C39.1978 49.6626 39.2233 49.6629 39.2502 49.6633L39.2504 49.6633C39.2805 49.6637 39.3124 49.6642 39.3391 49.6642L39.3386 50.0487C39.2546 50.0556 39.1704 50.059 39.0862 50.0591C38.8218 50.0535 38.5887 50.0418 38.3567 50.03H38.3567H38.3566C38.0421 50.0142 37.7293 49.9984 37.3425 49.9984C37.2375 49.9984 36.8651 50.0156 36.511 50.0319L36.5107 50.0319L36.5105 50.0319C36.2687 50.0431 36.0354 50.0539 35.9018 50.0585C35.8113 50.0625 35.6959 50.0575 35.6172 50.054C35.5766 50.0522 35.5457 50.0508 35.533 50.0514L35.5335 49.6703C35.5493 49.6703 35.5732 49.667 35.5984 49.6635C35.6242 49.66 35.6514 49.6562 35.6725 49.6557C35.9701 49.6422 36.4286 49.596 36.8171 49.5454C36.8253 49.4967 36.8544 49.333 36.8946 49.1061L36.895 49.1038L36.895 49.1036C37.009 48.4607 37.2125 47.313 37.2912 46.8236C37.7037 44.6294 38.9197 37.298 39.0719 36.3091C39.1777 35.4625 39.2786 34.6151 39.3746 33.7673C39.6968 33.7728 40.253 33.7601 40.253 33.7601C40.253 33.7601 41.3291 37.1093 41.5039 37.5996C41.6788 38.0901 44.9674 46.5649 44.9674 46.5649C44.9674 46.5649 46.511 42.9136 47.8866 38.9952L47.9438 38.8323C48.2138 38.0639 48.5486 37.1111 48.7997 36.3298C49.1934 35.1041 49.6265 33.7596 49.6265 33.7596H50.4729C50.4729 33.7596 50.6827 35.2565 50.7571 35.9227C50.973 37.8627 52.3875 45.7449 52.8841 48.3372C53.0076 48.9857 53.1016 49.5473 53.1016 49.5473C53.1722 49.5523 53.3417 49.5681 53.5363 49.5863L53.5366 49.5863C53.7454 49.6058 53.983 49.628 54.1583 49.6424C54.2292 49.6485 54.4192 49.6589 54.4626 49.6589L54.4647 50.0498C54.4647 50.0498 54.3102 50.0575 54.2261 50.0575C53.8609 50.0552 53.3977 50.0382 52.9342 50.0212L52.934 50.0212C52.4347 50.0029 51.935 49.9846 51.5569 49.9846C51.1872 49.9846 50.8256 50.0028 50.4628 50.021H50.4627C50.1891 50.0347 49.9148 50.0485 49.636 50.0545C49.5718 50.0558 49.5073 50.0545 49.4425 50.0532L49.4423 50.0532C49.3956 50.0523 49.3487 50.0514 49.3016 50.0514V49.6652C49.3467 49.6621 49.3919 49.6609 49.437 49.6615C49.6438 49.6516 50.0734 49.613 50.37 49.5863L50.3701 49.5863C50.5278 49.5721 50.648 49.5613 50.6769 49.56C50.6774 49.4182 50.6314 48.9269 50.5631 48.4254L50.5528 48.3474C50.5048 47.9866 50.4301 47.4245 50.3501 46.87C50.1657 45.7105 49.3108 40.9068 49.0566 39.5732C49.0148 39.3546 48.9888 39.2319 48.9888 39.2319C48.9888 39.2319 46.3409 46.0365 45.8067 47.3772C45.7551 47.5087 45.7178 47.6014 45.7053 47.6319C45.1947 48.9234 44.7668 50.0747 44.7668 50.0747L44.0133 50.0699L39.8876 39.446L39.7897 39.1985ZM33.7919 50.0203L33.7921 50.0203C34.162 50.0422 34.5109 50.0628 34.7734 50.0628C34.7973 50.0628 34.8375 50.0596 34.8779 50.0564L34.8779 50.0564C34.9192 50.0532 34.9606 50.0499 34.9845 50.05L34.9851 49.6634H34.9364C34.9281 49.6614 34.8206 49.6557 34.6803 49.6482L34.6802 49.6482L34.6801 49.6482C34.4477 49.6359 34.1254 49.6187 34.0159 49.6059C33.9241 49.6 33.5259 49.5629 33.5219 49.5483C33.52 49.5412 33.519 49.4259 33.519 49.2332V48.4164C33.5203 45.8965 33.5232 38.4132 33.5237 35.5528V34.31C33.6164 34.3034 33.8776 34.2754 34.1222 34.2491L34.1222 34.2491L34.1223 34.2491L34.1224 34.2491C34.29 34.2311 34.4498 34.2139 34.5421 34.2051C34.5468 34.2046 34.6142 34.2003 34.6973 34.1949L34.6976 34.1949L34.6976 34.1949L34.6976 34.1949L34.6978 34.1949C34.7936 34.1888 34.9103 34.1813 34.9763 34.1767L34.9779 33.7736C34.5857 33.7736 34.1302 33.7907 33.6778 33.8076C33.2315 33.8243 32.7883 33.8409 32.4117 33.8409C31.9963 33.8409 31.5306 33.8225 31.0865 33.8049C30.6819 33.7889 30.2953 33.7736 29.9812 33.7736L29.9854 34.1603C30.0352 34.1632 30.1916 34.1771 30.3649 34.1925C30.5856 34.2121 30.8337 34.2341 30.9239 34.239C31.0409 34.2546 31.1997 34.2702 31.3243 34.2825L31.3618 34.2862C31.3618 34.4097 31.3639 35.2641 31.3666 35.6013C31.3896 38.7956 31.375 45.8554 31.3676 48.3531L31.3634 49.5409C31.2927 49.5641 31.1456 49.5746 30.9785 49.5865L30.9006 49.5921C30.847 49.596 30.749 49.6043 30.6358 49.6139L30.6352 49.614L30.6351 49.614L30.6348 49.614L30.6345 49.614C30.392 49.6346 30.0807 49.6609 29.9883 49.6631V50.0498C30.0164 50.0498 30.0559 50.053 30.0958 50.0562L30.0958 50.0562C30.1363 50.0595 30.1771 50.0628 30.2066 50.0628C30.5483 50.0628 30.9561 50.0397 31.3663 50.0165H31.3663H31.3663L31.3665 50.0165H31.3665C31.7816 49.9931 32.199 49.9695 32.553 49.9695C32.9302 49.9695 33.3744 49.9957 33.7919 50.0203ZM20.469 34.8976L21.9108 34.904L21.92 49.5648L21.8904 49.5695C21.6975 49.5857 20.9588 49.6353 20.6587 49.6477C20.5923 49.6498 20.5484 49.6509 20.5415 49.6509L20.5431 50.0458C20.5979 50.0487 20.7434 50.0519 20.7622 50.0514C21.0836 50.0464 21.456 50.03 21.8306 50.0134H21.8307H21.8307L21.8309 50.0134H21.8309C22.2843 49.9934 22.7408 49.9732 23.1136 49.9732C23.4942 49.9732 23.96 49.9952 24.4025 50.016L24.4025 50.016H24.4026C24.7644 50.0331 25.1106 50.0494 25.3819 50.0524C25.4131 50.0527 25.4477 50.0511 25.4816 50.0496C25.5121 50.0482 25.5421 50.0469 25.5689 50.0469V49.6758L25.4941 49.6769C25.3022 49.6769 24.2407 49.6035 24.1304 49.5873C24.1285 49.4939 24.1221 49.2169 24.1163 48.9676C24.1109 48.7329 24.106 48.5227 24.106 48.5137L24.1045 34.9011L25.202 34.8968L28.0661 34.8973L29.0218 34.9106C29.0287 34.9843 29.0774 35.9678 29.0763 35.9946C29.0754 36.0251 29.0819 36.1762 29.0896 36.3533L29.0896 36.3534L29.0896 36.3535C29.0999 36.591 29.1121 36.8754 29.1112 36.9786L29.3382 36.981L29.3205 34.7744L29.3306 33.7813C28.4887 33.8065 26.3439 33.8402 23.0146 33.8402C20.1595 33.8402 17.4078 33.8158 16.6463 33.7787L16.6542 34.675L16.641 36.8564L16.8598 36.8503L16.8812 34.9093C16.8812 34.9093 18.0795 34.8976 18.2346 34.8976H20.469ZM65.77 36.9582L65.9885 36.9577C65.9885 36.7424 65.9833 36.297 65.9775 35.8052C65.9721 35.3471 65.9662 34.8487 65.9637 34.4582C65.9621 34.2867 65.964 34.136 65.9654 34.0186C65.9662 33.9579 65.9668 33.906 65.9668 33.8648C65.9668 33.8441 65.9671 33.8247 65.9674 33.8066C65.9677 33.7906 65.9679 33.7756 65.9679 33.7614C65.9679 33.7614 65.8846 33.7622 65.7322 33.7628C65.4627 33.7641 64.9755 33.7678 64.3517 33.7725C63.7719 33.7768 63.0741 33.782 62.3235 33.7871C62.0194 33.789 61.7363 33.7912 61.4597 33.7934C60.8682 33.7981 60.3069 33.8025 59.6353 33.8025C59.3619 33.8061 59.0456 33.8128 58.7262 33.8196C58.2383 33.8299 57.7429 33.8405 57.3815 33.8402C56.8017 33.8395 56.2862 33.816 55.876 33.7974C55.6128 33.7854 55.393 33.7754 55.2275 33.7747C55.1179 33.774 55.0347 33.7762 54.9729 33.7778C54.9213 33.7791 54.8847 33.7801 54.86 33.7787C54.8621 33.784 54.8632 34.16 54.8632 34.16C54.9225 34.17 54.9825 34.1746 55.0426 34.1738C55.2823 34.1908 55.7305 34.23 55.9573 34.2621C56.0022 34.2716 56.0782 34.2849 56.2922 34.3103C56.2922 34.3342 56.293 34.4261 56.2942 34.5589C56.2972 34.9043 56.3025 35.5262 56.3025 35.9458L56.3047 48.5129C56.3047 48.5195 56.3018 48.6303 56.298 48.7776C56.2905 49.0698 56.2793 49.5056 56.2793 49.5568C55.9009 49.6273 55.1759 49.6703 54.9293 49.6718H54.8555V50.0543C54.869 50.0543 54.901 50.0552 54.9405 50.0563C55.0042 50.0581 55.0874 50.0604 55.1439 50.0604C55.2962 50.0602 55.5396 50.0501 55.8407 50.0376C56.3309 50.0172 56.974 49.9905 57.6255 49.9899C58.0858 49.9889 58.5747 50 59.0765 50.0113C59.3791 50.0182 59.6863 50.0251 59.9949 50.0296C60.5032 50.0371 61.0151 50.0405 61.5154 50.0439C62.01 50.0472 62.4933 50.0505 62.9508 50.0575C64.4672 50.0797 65.6954 50.0808 66.0954 50.0808C66.0954 50.0808 66.142 47.0377 66.142 46.7928L65.9235 46.7955C65.9235 47.0082 65.864 47.6948 65.8411 47.9582C65.8361 48.0159 65.8329 48.0533 65.8324 48.061C65.8293 48.0999 65.8262 48.139 65.8231 48.1781C65.7971 48.5031 65.7715 48.824 65.7507 48.9918C65.7507 48.9918 65.644 49.0011 65.5914 49C65.3849 48.9958 64.8007 49.0172 64.5991 49.0246C64.5578 49.0261 64.5326 49.027 64.5299 49.027L60.9796 49.0302L58.4867 48.9867L58.4692 48.2388L58.4645 42.43C58.5125 42.4282 58.5632 42.4264 58.616 42.4245C59.0523 42.4086 59.633 42.3876 60.0004 42.3876C60.1684 42.3881 60.4457 42.3834 60.7398 42.3784C61.0606 42.3729 61.4014 42.3671 61.6422 42.3674C62.7688 42.369 63.7697 42.3762 63.8499 42.3793C64.0701 42.385 64.2903 42.3936 64.5103 42.4053C64.5134 42.4336 64.5187 42.4709 64.5232 42.5024C64.5269 42.5278 64.53 42.5494 64.5309 42.5596C64.5916 42.9545 64.6417 43.3509 64.6812 43.7485C64.6841 43.7697 64.6865 43.7902 64.6889 43.8103C64.691 43.8276 64.693 43.8446 64.6952 43.8614H64.9516C64.9516 43.8614 64.958 43.7055 64.9548 43.6077C64.9534 43.5099 64.9508 43.3841 64.9478 43.2367C64.9401 42.8687 64.9296 42.366 64.9289 41.826C64.9283 41.5197 64.9374 41.1198 64.9456 40.7631C64.9515 40.5074 64.9568 40.2738 64.9577 40.1126C64.9584 40.0431 64.9534 39.9873 64.95 39.9488C64.9482 39.9294 64.9469 39.9143 64.9469 39.9042L64.7132 39.9093C64.7122 39.9925 64.6931 40.1157 64.6931 40.1157C64.6803 40.315 64.6401 40.5532 64.5968 40.8097C64.5777 40.9231 64.5579 41.0401 64.5397 41.1589C64.5222 41.2079 64.5114 41.275 64.5114 41.275C64.4836 41.2848 63.7501 41.3274 63.6856 41.3269C63.6701 41.3266 63.2818 41.3384 62.968 41.348C62.7571 41.3544 62.5798 41.3598 62.5719 41.3598L58.4661 41.3457L58.4692 34.9403C58.4692 34.9403 58.9907 34.9199 59.136 34.9204C59.3751 34.9204 59.6751 34.9194 60.0125 34.9182C60.51 34.9165 61.0887 34.9145 61.6729 34.9151C63.1096 34.9162 64.5026 34.9246 64.5074 34.9268C64.5111 34.9287 64.5905 34.9308 64.6809 34.9333C64.8027 34.9366 64.9445 34.9405 64.9492 34.9451C64.958 34.9538 65.4909 34.971 65.6221 34.9753C65.6221 34.9753 65.6316 35.0224 65.6372 35.0826C65.6777 35.5357 65.7124 36.0463 65.7378 36.4188C65.7502 36.6012 65.7604 36.7505 65.7679 36.8437L65.77 36.9582Z" fill="#848484"/>
</svg>
