<?xml version="1.0" encoding="UTF-8"?>
<svg width="124px" height="124px" viewBox="0 0 124 124" version="1.1" xmlns="http://www.w3.org/2000/svg" xmlns:xlink="http://www.w3.org/1999/xlink">
    <!-- Generator: Sketch 53.2 (72643) - https://sketchapp.com -->
    <title>Time-2</title>
    <desc>Created with Sketch.</desc>
    <defs>
        <rect id="path-1" x="0" y="0" width="124" height="124"></rect>
    </defs>
    <g stroke="none" stroke-width="1" fill="none" fill-rule="evenodd">
        <g>
            <g>
                <use fill-opacity="0.01" fill="#D8D8D8" fill-rule="evenodd" style="mix-blend-mode: screen;" xlink:href="#path-1"></use>
                <rect stroke-opacity="0" stroke="#979797" stroke-width="1" stroke-linejoin="square" x="0.5" y="0.5" width="123" height="123"></rect>
            </g>
            <g transform="translate(37.000000, 53.000000)" fill="#848484" fill-rule="nonzero">
                <g transform="translate(0.716548, 0.000000)">
                    <path d="M5.26977465,1.1443896 L3.82804135,1.13802894 L1.5936061,1.13802894 C1.43855826,1.13802894 0.240244785,1.14969016 0.240244785,1.14969016 L0.218813257,3.09075302 L0,3.09684866 L0.0132293384,0.915405671 L0.00529173535,0.0190819943 C0.766772452,0.0561858721 3.51847483,0.0805684204 6.37363064,0.0805684204 C9.70292594,0.0805684204 11.8476663,0.0469099026 12.6895814,0.0217322713 L12.6795271,1.01479106 L12.6972544,3.22141168 L12.4702389,3.21902643 C12.4718265,3.03880759 12.4331968,2.30653606 12.4353135,2.23497858 C12.4363718,2.20821078 12.3876879,1.224693 12.3808086,1.15101529 L11.4251212,1.13776391 L8.56096945,1.13723385 L7.46346354,1.1414743 L7.46505106,14.754092 C7.46505106,14.7726439 7.48568883,15.6464402 7.48939304,15.8277192 C7.59972572,15.8438859 8.66124784,15.9172985 8.85307324,15.9172985 L8.9279513,15.9162384 L8.9279513,16.2872772 C8.87106514,16.2872772 8.80015589,16.2933729 8.74088845,16.2928428 C8.13789521,16.2862171 7.16448049,16.2135995 6.47258609,16.2135995 C5.79180434,16.2135995 4.83161896,16.2809166 4.12120349,16.2917827 C4.10241783,16.2923127 3.95689511,16.2891324 3.90212565,16.2862171 L3.90053813,15.8913258 C3.90741738,15.8913258 3.95133879,15.8902657 4.01775006,15.8881455 C4.31779146,15.8756892 5.05651771,15.826129 5.24940147,15.8099623 L5.27903519,15.8051918 L5.26977465,1.1443896 L5.26977465,1.1443896 Z M18.1323958,16.3031789 C17.5735885,16.3031789 16.6234574,16.2098891 15.9119836,16.2098891 C15.2081828,16.2098891 14.2530246,16.3031789 13.5656282,16.3031789 C13.5071545,16.3031789 13.4039656,16.2901925 13.3473441,16.2901925 L13.3473441,15.9035171 C13.4830771,15.9003368 14.0910975,15.844946 14.2596392,15.8324897 C14.4578147,15.8179132 14.6409088,15.8081071 14.7224015,15.7813393 L14.7266349,14.5934852 C14.7340433,12.0958642 14.7485956,5.03605633 14.7255765,1.84167748 C14.7229307,1.50456224 14.720814,0.650112945 14.720814,0.526610037 C14.5919602,0.513888708 14.4120412,0.496661907 14.2829229,0.479435107 C14.1217895,0.470689193 13.4576768,0.407347573 13.3444336,0.40072188 L13.3402002,0.014046468 C13.9990213,0.014046468 14.976934,0.0813635035 15.7706943,0.0813635035 C16.529,0.0813635035 17.5577133,0.014046468 18.3369213,0.014046468 L18.3353338,0.417153598 C18.2117718,0.425634484 17.9112012,0.444451451 17.9011469,0.445511561 C17.6741315,0.467243833 17.0388587,0.539331367 16.8827525,0.55046253 L16.8827525,1.79317741 C16.8822233,4.65362136 16.8793128,12.1369435 16.8779899,14.6568268 L16.8779899,15.4736422 C16.8779899,15.6663173 16.8790482,15.7816044 16.8809004,15.7887601 C16.8848692,15.8033366 17.2830722,15.8404405 17.3748839,15.8462711 C17.5505695,15.8669433 18.2734205,15.8984816 18.2953812,15.9037821 L18.3440652,15.9037821 L18.343536,16.2904575 C18.296175,16.2901925 18.1808151,16.3031789 18.1323958,16.3031789 Z M23.1486963,5.43889843 C23.1486963,5.43889843 22.7888583,7.43084661 22.269739,10.2412003 C21.9945688,11.759544 21.4251781,15.5563308 21.386813,15.806782 C21.7151652,15.8560772 22.3618152,15.9088177 22.5377654,15.9029871 C22.5782472,15.9029871 22.647569,15.9045772 22.698105,15.9045772 L22.6975759,16.2891324 C22.6136109,16.2959875 22.5294034,16.2994356 22.4451601,16.2994685 C21.8223228,16.2864821 21.3735837,16.2387771 20.7015333,16.2387771 C20.5247893,16.2387771 19.5900043,16.2875422 19.2608583,16.2989384 C19.1235378,16.3050341 18.9293311,16.2901925 18.8920244,16.2917827 L18.8925535,15.9106729 C18.9245685,15.9106729 18.9899215,15.8971564 19.0314616,15.8960963 C19.3291217,15.8825799 19.7876506,15.8364651 20.176064,15.7858448 C20.2078144,15.5990003 20.543575,13.7271096 20.6502034,13.0640103 C21.0626942,10.869846 22.278735,3.5383848 22.4308724,2.54956646 C22.5367192,1.70287182 22.6376167,0.855563744 22.7335597,0.00768580326 C23.0558263,0.0132513849 23.6119877,0.000530055397 23.6119877,0.000530055397 C23.6119877,0.000530055397 24.6880621,3.34968508 24.862954,3.83998632 C25.0378458,4.33055259 28.3263947,12.8053433 28.3263947,12.8053433 C28.3263947,12.8053433 29.8699939,9.15405671 31.2455806,5.23562219 C31.5241904,4.44239428 31.8895847,3.40772615 32.1586695,2.57023862 C32.5523746,1.34448551 32.9855031,0 32.9855031,0 L33.8319162,0 C33.8319162,0 34.0417335,1.49687644 34.1160824,2.16315608 C34.3319852,4.10315883 35.7464661,11.9853476 36.2430954,14.5775835 C36.3666574,15.2261063 36.4605857,15.7877 36.4605857,15.7877 C36.6069022,15.7980361 37.1784096,15.855017 37.5173453,15.8828449 C37.5882545,15.8889406 37.7782278,15.8992767 37.8216201,15.8992767 L37.8237368,16.2901925 C37.8237368,16.2901925 37.6692181,16.2978783 37.5850795,16.2978783 C36.8265092,16.2931078 35.6451293,16.2249957 34.9159282,16.2249957 C34.267426,16.2249957 33.6435304,16.2809166 32.9950283,16.294963 C32.884431,16.2970832 32.7733045,16.2917827 32.6605906,16.2917827 L32.6605906,15.9056373 C32.7056767,15.902538 32.7508712,15.9013001 32.796059,15.9019269 C33.1127694,15.8868204 33.9525678,15.8041317 34.0359126,15.8004213 C34.0364418,15.6586315 33.9904037,15.1672702 33.9221403,14.6658378 C33.8750438,14.3117608 33.7951386,13.7067025 33.7091479,13.1103902 C33.524731,11.950894 32.6698511,7.14726698 32.4155832,5.8136476 C32.3737785,5.59499974 32.347849,5.47229192 32.347849,5.47229192 C32.347849,5.47229192 29.6998647,12.2768781 29.165664,13.6176532 C29.1140696,13.7491069 29.0767628,13.8418666 29.0643272,13.8723448 C28.5536748,15.1638248 28.125838,16.3151051 28.125838,16.3151051 L27.3722949,16.3103346 L23.2465934,5.6864343 L23.1486963,5.43889843 L23.1486963,5.43889843 Z M49.3475488,3.19808924 L49.1290002,3.19861929 L49.1268835,3.08412733 C49.104129,2.80054769 49.0565034,1.99804382 48.9961776,1.32301827 C48.9906213,1.26285698 48.9810962,1.21568205 48.9810962,1.21568205 C48.8498611,1.21144161 48.3169834,1.19421481 48.308252,1.1854689 C48.3000498,1.17751806 47.8751235,1.17168746 47.8663921,1.16718198 C47.8616296,1.16506176 46.4685802,1.15658088 45.0318741,1.15552077 C44.0515801,1.15446066 43.0866322,1.16082132 42.4950161,1.16082132 C42.349758,1.16029126 41.8282575,1.1806984 41.8282575,1.1806984 L41.8250825,7.58615284 L45.9309399,7.60019931 C45.9505193,7.60019931 47.0186561,7.56680582 47.0445856,7.56733588 C47.1091448,7.56786593 47.8425793,7.52519647 47.8703609,7.51539045 C47.8703609,7.51539045 47.881209,7.44833844 47.8986717,7.39930832 C47.9582037,7.01183782 48.033611,6.64344932 48.052132,6.3561593 C48.052132,6.3561593 48.0711823,6.23292142 48.0722406,6.14970272 L48.3058707,6.14466719 C48.3058707,6.17461532 48.3177771,6.24829302 48.3167188,6.35297896 C48.3146021,6.73912432 48.2868205,7.54056808 48.2878788,8.06638303 C48.2889372,8.82277209 48.3090458,9.50601349 48.3138083,9.84816425 C48.3169834,9.94595947 48.3106333,10.1017958 48.3106333,10.1017958 L48.0542487,10.1017958 C48.0494862,10.065487 48.0455174,10.0283831 48.0402256,9.98889396 C48.0006964,9.59132084 47.9505834,9.19487501 47.8899403,8.7999797 C47.8878236,8.77718732 47.8748589,8.69688393 47.8693026,8.64573358 C47.6492955,8.63404724 47.4291385,8.62538885 47.208894,8.61976087 C47.1287242,8.61658054 46.1277925,8.60942479 45.001182,8.60783462 C44.5397427,8.60730457 43.7107923,8.62903684 43.3594211,8.62797673 C42.9474595,8.62797673 42.2674715,8.6544795 41.8234949,8.67038116 L41.8282575,14.4792583 L41.8457202,15.2271664 L44.3386567,15.270631 L47.888882,15.2674506 C47.9050218,15.2674506 48.7016925,15.2353823 48.9504041,15.2404178 C49.0030569,15.2414779 49.1096853,15.2322019 49.1096853,15.2322019 C49.132969,15.0442973 49.1623381,14.6642476 49.1914426,14.3014247 C49.1940885,14.2584902 49.2824605,13.2951145 49.2824605,13.0359174 L49.5010092,13.0332671 C49.5010092,13.2781527 49.4544419,16.3212008 49.4544419,16.3212008 C49.0543867,16.3212008 47.8261749,16.3201407 46.3098282,16.2978783 C45.3893308,16.2838319 44.3645862,16.284892 43.3538648,16.2700504 C42.5336458,16.2581242 41.7224228,16.2287061 40.9844903,16.2302963 C39.9327579,16.2313564 38.9029862,16.3002636 38.502931,16.3007936 C38.411384,16.3007936 38.2497215,16.294698 38.2145314,16.294698 L38.2145314,15.912263 L38.2883511,15.912263 C38.534946,15.9106729 39.2599137,15.8677384 39.6382728,15.797241 C39.6382728,15.7201179 39.6636731,14.7729089 39.6636731,14.7532969 L39.6615565,2.18621349 C39.6615565,1.60527277 39.6512376,0.636596532 39.6512376,0.550727558 C39.4371869,0.525284899 39.3612505,0.512033514 39.3162707,0.502492517 C39.0895199,0.470424165 38.6413099,0.431200066 38.4015943,0.414238293 C38.3415065,0.415027823 38.2814692,0.410415518 38.2222044,0.400456853 C38.2222044,0.400456853 38.2211461,0.0243825483 38.2190294,0.0190819943 C38.2732697,0.0222623267 38.3854545,0.0137814403 38.5865404,0.0151065788 C39.0098792,0.0169617727 39.7885581,0.0795083096 40.7405413,0.0805684204 C41.3385074,0.0810984758 42.3031907,0.0519454289 42.9942914,0.0429344872 C43.9798771,0.0429344872 44.7281285,0.03339349 45.6824929,0.0275628807 C47.2406444,0.0169617727 48.5712513,0.00583060937 49.0911643,0.00318033238 C49.2435662,0.00265027699 49.3269111,0.00185519389 49.3269111,0.00185519389 C49.3269111,0.0320683515 49.3258527,0.0662569246 49.3258527,0.105215996 C49.3258527,0.226068627 49.3202964,0.438355813 49.3226777,0.698613013 C49.3279694,1.50827263 49.3475488,2.78226078 49.3475488,3.19808924 L49.3475488,3.19808924 Z"></path>
                </g>
            </g>
        </g>
    </g>
</svg>