<svg xmlns="http://www.w3.org/2000/svg" width="131" height="99" viewBox="0 0 131 99">
    <defs>
        <filter id="a" width="131%" height="166.8%" x="-15.5%" y="-21.9%" filterUnits="objectBoundingBox">
            <feOffset dy="25" in="SourceAlpha" result="shadowOffsetOuter1"/>
            <feGaussianBlur in="shadowOffsetOuter1" result="shadowBlurOuter1" stdDeviation="20"/>
            <feColorMatrix in="shadowBlurOuter1" result="shadowMatrixOuter1" values="0 0 0 0 0.776470588 0 0 0 0 0.776470588 0 0 0 0 0.776470588 0 0 0 0.15 0"/>
            <feMerge>
                <feMergeNode in="shadowMatrixOuter1"/>
                <feMergeNode in="SourceGraphic"/>
            </feMerge>
        </filter>
    </defs>
    <path fill="#848484" fill-rule="nonzero" d="M6.827 1.485L4.96 1.477H2.065c-.201 0-1.754.015-1.754.015L.283 4.011 0 4.019l.017-2.831L.007.025c.986.048 4.551.08 8.25.08 4.314 0 7.092-.044 8.183-.077l-.013 1.289.023 2.864-.294-.004c.002-.233-.048-1.184-.045-1.277a91.507 91.507 0 0 0-.07-1.406l-1.239-.017-3.71-.001-1.423.005.002 17.666.032 1.393a37.43 37.43 0 0 0 1.767.116l.097-.001v.482c-.074 0-.166.007-.243.007-.78-.009-2.042-.103-2.938-.103-.882 0-2.126.087-3.047.101-.024.001-.213-.003-.284-.007l-.002-.512.152-.004a62.33 62.33 0 0 0 1.596-.102l.038-.006-.012-19.026zm16.665 19.672c-.724 0-1.955-.12-2.877-.12-.912 0-2.15.12-3.04.12-.076 0-.21-.017-.283-.017v-.502c.176-.004.964-.076 1.182-.092.257-.019.494-.031.6-.066l.005-1.542c.01-3.24.029-12.403-.001-16.548-.003-.437-.006-1.546-.006-1.707-.167-.016-.4-.038-.568-.06C18.296.61 17.435.528 17.29.52l-.006-.502c.854 0 2.12.088 3.149.088.982 0 2.315-.088 3.325-.088l-.002.523-.563.037c-.294.028-1.117.122-1.32.136v1.613c0 3.712-.004 13.423-.005 16.694v1.06c0 .25 0 .4.003.409.005.018.521.067.64.074.228.027 1.164.068 1.193.075h.063v.502c-.062 0-.212.016-.274.016zM29.99 7.058s-.467 2.585-1.14 6.232c-.356 1.97-1.093 6.898-1.143 7.223.425.064 1.263.132 1.491.125l.208.002v.499a4.032 4.032 0 0 1-.328.013c-.807-.017-1.388-.078-2.259-.078-.229 0-1.44.063-1.866.078-.178.008-.43-.012-.478-.01v-.494c.042 0 .127-.018.18-.02.386-.017.98-.077 1.483-.142.042-.243.477-2.672.615-3.532.534-2.848 2.11-12.362 2.307-13.645.137-1.1.267-2.199.392-3.299C29.87.017 30.59 0 30.59 0s1.394 4.347 1.62 4.983c.227.637 4.488 11.635 4.488 11.635s2-4.738 3.782-9.824c.36-1.029.834-2.372 1.183-3.459L42.734 0h1.097s.272 1.943.369 2.807c.28 2.518 2.112 12.747 2.755 16.11.16.842.282 1.571.282 1.571.19.014.93.088 1.37.124.091.008.337.021.393.021l.003.507s-.2.01-.31.01c-.982-.006-2.512-.094-3.457-.094-.84 0-1.649.072-2.489.09-.143.003-.287-.004-.433-.004v-.5c.058-.005.117-.006.175-.006.41-.02 1.499-.126 1.607-.131 0-.184-.06-.822-.148-1.473-.06-.46-.164-1.244-.276-2.018-.239-1.505-1.346-7.739-1.676-9.47-.054-.283-.087-.442-.087-.442s-3.43 8.83-4.123 10.57l-.131.33c-.662 1.677-1.216 3.17-1.216 3.17l-.976-.006L30.117 7.38l-.126-.32zM63.933 4.15h-.283l-.003-.148c-.03-.368-.091-1.41-.17-2.285-.007-.078-.019-.14-.019-.14-.17-.005-.86-.027-.872-.039-.01-.01-.56-.017-.572-.023-.006-.003-1.811-.014-3.672-.015-1.27-.002-2.52.006-3.287.006-.188 0-.864.026-.864.026l-.004 8.313 5.32.018 1.442-.043c.084.001 1.034-.054 1.07-.067 0 0 .014-.087.037-.15.077-.504.175-.982.199-1.354 0 0 .024-.16.026-.268l.302-.007c0 .039.016.135.014.27-.002.502-.038 1.542-.037 2.224.001.982.027 1.868.034 2.312.004.127-.004.33-.004.33h-.333l-.018-.147a29.24 29.24 0 0 0-.195-1.543c-.002-.03-.02-.134-.026-.2-.285-.015-.57-.027-.856-.034-.104-.004-1.4-.013-2.86-.015-.598-.001-1.672.027-2.127.026-.534 0-1.415.034-1.99.055l.006 7.538.023.97 3.23.057 4.6-.004c.02 0 1.052-.042 1.374-.035.069.001.207-.01.207-.01.03-.245.068-.738.106-1.209.003-.055.118-1.306.118-1.642l.283-.003c0 .317-.06 4.267-.06 4.267-.519 0-2.11-.002-4.075-.03-1.192-.019-2.52-.018-3.83-.037-1.062-.015-2.113-.054-3.069-.051-1.363 0-2.697.09-3.215.091-.119 0-.328-.008-.374-.008v-.496h.096c.32-.002 1.259-.058 1.749-.15 0-.1.033-1.329.033-1.354l-.003-16.309c0-.754-.013-2.01-.013-2.122a5.076 5.076 0 0 1-.434-.063 22.363 22.363 0 0 0-1.185-.114 1.297 1.297 0 0 1-.233-.018s-.001-.488-.004-.495c.07.004.216-.007.476-.005.549.002 1.558.083 2.791.085.775 0 2.024-.038 2.92-.05 1.277 0 2.246-.012 3.483-.02C61.203.023 62.927.009 63.6.006l.305-.003-.001.135c0 .156-.007.432-.004.77.007 1.05.032 2.704.032 3.243z" filter="url(#a)" transform="translate(32.928 14)"/>
</svg>
