<?xml version="1.0" encoding="UTF-8"?>
<svg width="161px" height="198px" viewBox="0 0 161 198" version="1.1" xmlns="http://www.w3.org/2000/svg" xmlns:xlink="http://www.w3.org/1999/xlink">
    <!-- Generator: Sketch 51.1 (57501) - http://www.bohemiancoding.com/sketch -->
    <title>training-icon</title>
    <desc>Created with Sketch.</desc>
    <defs></defs>
    <g stroke="none" stroke-width="1" fill="none" fill-rule="evenodd">
        <g transform="translate(4.000000, 33.000000)" stroke="#000000">
            <path d="M44.0050683,111 C42.1605591,109.11193 41,106.36628 41,103.309963 C41,97.6159855 45.0290585,93 50,93" stroke-width="3"></path>
            <path d="M50,114.999988 C47.7861723,115.004125 45.6492799,113.935687 44,112" stroke-width="0.5"></path>
            <path d="M58.7317916,97.1359908 L58.7317916,103.830364 C58.7317916,109.447014 54.8223865,114 50,114 M58.7317916,63 L58.7317916,97.1359908" stroke-width="3"></path>
            <path d="M59,50 L59,64" stroke-width="0.5"></path>
            <path d="M41.249532,30.0864039 C41.249532,24.5157222 45.4467963,20 50.62491,20 C55.8027358,20 60,24.5157222 60,30.0867137 L60,44.7982085 M41.2535637,103.511212 C39.8405093,104.495177 38.3018863,105.003246 36.7449964,104.999984 C30.8106551,104.999984 26,97.757719 26,88.8237854 C26,86.6231425 26.2920086,84.5248148 26.8207343,82.6124752" stroke-width="3"></path>
            <path d="M35,28.5039912 C35.8692803,28.2010643 36.7713242,28.0330486 37.6810945,28.0046075 C41.5076849,27.8816203 45.1567303,30.2295292 47,34" stroke-width="3.5999999"></path>
            <path d="M28,40 C28.0504722,35.0312518 31.3338874,30.4797832 36,29" stroke-width="0.5"></path>
            <path d="M18.1018165,68 C17.9164514,65.3393857 17.9844489,62.6518032 18.3036911,60.020954 C19.2596353,52.180375 22.4806761,45.219105 26.9814114,41.1815154 C27.5480466,40.6730684 29.1099034,39.3885011 30,39" stroke-width="3"></path>
            <path d="M34,86 C26.1737371,84.4835638 19.8160906,77.4446065 19,69" stroke-width="0.5"></path>
            <path d="M50,42 C46.3689241,42 43.1272223,40.4410833 41,38" stroke-width="3"></path>
            <path d="M59,33 C59,37.9706883 54.5226935,42 49,42" stroke-width="0.5"></path>
            <path d="M33,67.3848671 C35.8621654,64.6530354 39.594613,63 43.6771839,63 C52.691928,63 60,71.0589829 60,81" stroke-width="3"></path>
            <path d="M59,104.776241 C59,110.42261 63.2534134,115 68.5001459,115 C73.7468784,115 78,110.42261 78,104.776241 C78,99.1298721 73.7468784,94.552482 68.5001459,94.552482 M78,30.2234449 C78,24.577076 73.7468784,20 68.5001459,20 C63.2534134,20 59.0002918,24.577076 59.0002918,30.2234449" stroke-width="0.5"></path>
            <path d="M83,106 C88.0315248,105.548685 92,100.350506 92,94.0037303 C92,90.4209355 90.7349607,87.2037057 88.7280773,85" stroke-width="3"></path>
            <path d="M78,105 C79.0672245,105.330459 80.229286,105.50109 81.4051438,105.499995 C81.6052417,105.499995 81.8031646,105.495044 82,105.48558" stroke-width="0.5"></path>
            <path d="M79.8793065,48.9944197 C84.4865342,49.1424427 89.0431896,46.3364905 90.5246455,41.6651664 C92.6018266,35.1138093 87.6088775,28.2001482 80.6578922,28.0041939 C76.6921049,27.8922603 72.9103209,30.0288666 71,33.4604628" stroke-width="3"></path>
            <path d="M101,66 C100.992186,63.9327467 100.890801,61.8708702 100.697025,59.8383635 C99.7410224,49.8279563 96.5197843,40.940201 92.0187735,35.7846723 C91.4521036,35.136079 89.8901512,33.4954532 89,33" stroke-width="0.5"></path>
            <path d="M68,78.3524559 C68.2086853,78.6502878 68.4252057,78.9412928 68.6492827,79.2250966 C72.0783246,83.5691248 77.1396621,86.0716798 82.350681,85.9984358 C87.5497709,85.9261349 92.5429422,83.2868368 95.8697349,78.8657924 C98.5850203,75.2573476 100.031847,70.6511499 99.9994682,66" stroke-width="3"></path>
            <path d="M70,41 C73.6310759,41 76.8727777,39.8308124 79,38" stroke-width="0.5"></path>
            <path d="M60,36 C60,39.3137922 64.0298151,42 69,42" stroke-width="3"></path>
            <path d="M74,63 C65.7156733,63 59,71.0586662 59,81" stroke-width="0.5"></path>
            <path d="M86,67 C83.319363,64.5079457 79.8236402,63 76,63" stroke-width="3"></path>
            <path d="M58.5,132 C74.8519512,132 91.4238281,128.755859 100.252452,112.228673 C109.081077,95.7014865 117,84.0024383 117,66 C117,49.2318584 111.999555,36.6081305 105.70864,22.7771739 C98.5473633,7.03267663 75.9459869,0 58.5,0 C39.1993144,0 16.7410099,8.30716712 11.4266952,26.8073146 C7.70223404,39.7728772 0,51.3243389 0,66 C0,80.7862911 4.86720146,93.9944182 11.5895955,105.440105 C21.4648438,122.253906 39.2973729,132 58.5,132 Z" opacity="0.25" stroke-dasharray="2"></path>
        </g>
    </g>
</svg>