<svg class="svg-animate full" viewBox="0 0 301 377" xmlns="http://www.w3.org/2000/svg">
<g stroke="#6039FF" fill="none" fill-rule="evenodd">
<path d="M224.029 221.158a2.631 2.631 0 0 0 2.638-2.624 2.63 2.63 0 0 0-2.634-2.627 2.631 2.631 0 0 0-2.638 2.624 2.63 2.63 0 0 0 2.634 2.627zM14.754 274.387a2.631 2.631 0 0 0 2.638-2.624 2.631 2.631 0 0 0-2.634-2.628 2.631 2.631 0 0 0-2.638 2.624 2.631 2.631 0 0 0 2.634 2.628zM170.479 221.12a2.631 2.631 0 0 0 2.638-2.624 2.63 2.63 0 0 0-2.634-2.627 2.63 2.63 0 0 0-2.638 2.623 2.631 2.631 0 0 0 2.634 2.628zM116.852 327.53a2.631 2.631 0 0 0 2.638-2.624 2.63 2.63 0 0 0-2.634-2.628 2.632 2.632 0 0 0-2.638 2.624 2.632 2.632 0 0 0 2.634 2.628zM300.418 271.878l-4.788-2.759-.005 5.511zM173.792 324.945l-4.789-2.76-.004 5.512zM120.394 218.458l-4.79-2.758-.003 5.51zM114.497 271.743l4.788 2.759.004-5.511zM14.752 327.263l2.76-4.788-5.51-.004zM227.146 375.615l.004-4.772-4.791-.003-.003 4.77zM65.775 220.806l.003-4.772-4.79-.004-.004 4.773zM172.836 274.226l.003-4.772-4.79-.004-.004 4.772z"></path>
<path d="M157.288 205.333l-.02 26.304 26.405.018.02-26.303zM63.864 159.652a2.63 2.63 0 0 0-2.638 2.624 2.63 2.63 0 0 0 2.634 2.627 2.63 2.63 0 0 0 2.638-2.624 2.63 2.63 0 0 0-2.634-2.627zM224.552 106.423a2.631 2.631 0 0 0-2.638 2.624 2.63 2.63 0 0 0 2.634 2.627 2.63 2.63 0 0 0 2.638-2.623 2.631 2.631 0 0 0-2.634-2.628zM117.413 159.69a2.632 2.632 0 0 0-2.638 2.624 2.631 2.631 0 0 0 2.635 2.627 2.63 2.63 0 0 0 2.638-2.623 2.632 2.632 0 0 0-2.635-2.628zM171.04 53.28a2.631 2.631 0 0 0-2.638 2.625 2.63 2.63 0 0 0 2.634 2.627 2.63 2.63 0 0 0 2.638-2.623 2.631 2.631 0 0 0-2.634-2.628zM63.1 111.332l2.758-4.79-5.51-.002zM116.5.002l-2.759 4.79 5.511.003zM167.5 162.352l4.787 2.759.004-5.511zM173.396 109.067l-4.79-2.758-.003 5.51zM226.984 55.947l-4.788-2.76-.004 5.512zM60.746 53.442l-.003 4.772 4.79.003.004-4.772zM222.118 160.005l-.004 4.772 4.791.004.003-4.773zM115.057 106.585l-.004 4.772 4.79.004.004-4.773z"></path>
<path d="M183.714 175.554l.02-26.303-26.406-.02-.018 26.304z"></path>
<path class="animate-stroke o200" d="M93.463 342.515c-6.672-5.962-10.87-14.632-10.87-24.283 0-17.98 14.574-32.556 32.555-32.556" stroke-width="8"></path>
<path d="M93.463 342.515c-6.672-5.962-10.87-14.632-10.87-24.283 0-17.98 14.574-32.556 32.555-32.556"></path>
<path d="M115.148 350.788a32.438 32.438 0 0 1-21.685-8.272"></path>
<path class="animate-stroke o200" d="M147.703 296.802v21.43c0 17.98-14.576 32.555-32.556 32.555M147.703 187.526v109.276" stroke-width="8"></path>
<path d="M147.703 296.802v21.43c0 17.98-14.576 32.555-32.556 32.555M147.703 187.526v109.276"></path>
<path d="M147.703 144.952v42.574"></path>
<path class="animate-stroke o200" d="M82.592 80.83c0-17.98 14.575-32.555 32.556-32.555 17.98 0 32.555 14.575 32.555 32.556v47.483M82.606 319.188a37.17 37.17 0 0 1-15.656 3.434c-20.607 0-37.312-16.705-37.312-37.312 0-5.076 1.014-9.916 2.85-14.327" stroke-width="8"></path>
<path d="M82.592 80.83c0-17.98 14.575-32.555 32.556-32.555 17.98 0 32.555 14.575 32.555 32.556v47.483M82.606 319.188a37.17 37.17 0 0 1-15.656 3.434c-20.607 0-37.312-16.705-37.312-37.312 0-5.076 1.014-9.916 2.85-14.327"></path>
<path class="animate-stroke o200" d="M62.106 78.877a36.234 36.234 0 0 1 9.725-1.612c13.88-.397 27.116 7.182 33.802 19.353" stroke-width="8"></path>
<path d="M62.106 78.877a36.234 36.234 0 0 1 9.725-1.612c13.88-.397 27.116 7.182 33.802 19.353"></path>
<path d="M35.636 114.491c.167-16.087 11.031-30.823 26.47-35.614"></path>
<path class="animate-stroke o200" d="M74.556 151.712c-16.125.525-32.073-9.427-37.258-25.995a36.223 36.223 0 0 1-1.662-11.226" stroke-width="8"></path>
<path d="M74.556 151.712c-16.125.525-32.073-9.427-37.258-25.995a36.223 36.223 0 0 1-1.662-11.226"></path>
<path class="animate-stroke o200" d="M4.352 206.022a62.834 62.834 0 0 1 .699-18.094c3.31-17.78 14.463-33.566 30.047-42.722 1.962-1.153 7.37-4.066 10.452-4.947" stroke-width="8"></path>
<path d="M4.352 206.022a62.834 62.834 0 0 1 .699-18.094c3.31-17.78 14.463-33.566 30.047-42.722 1.962-1.153 7.37-4.066 10.452-4.947"></path>
<path d="M56.258 261.57c-27.082-4.955-49.082-27.955-51.906-55.548M116.666 238.167c-8.064 10.393-19.417 18.035-32.02 21.758"></path>
<path class="animate-stroke o200" d="M110.072 130.213c-11.778 0-22.293-5.411-29.193-13.884" stroke-width="8"></path>
<path d="M110.072 130.213c-11.778 0-22.293-5.411-29.193-13.884"></path>
<path d="M147.703 92.582c0 20.783-16.849 37.63-37.632 37.63"></path>
<path class="animate-stroke o200" d="M53.7 201.37c9.965-8.625 22.96-13.844 37.174-13.844 31.386 0 56.83 25.444 56.83 56.83" stroke-width="8"></path>
<path d="M53.7 201.37c9.965-8.625 22.96-13.844 37.174-13.844 31.386 0 56.83 25.444 56.83 56.83"></path>
<path d="M148.337 318.232c0 17.98 14.576 32.556 32.556 32.556 17.98 0 32.555-14.576 32.555-32.556 0-17.98-14.575-32.556-32.555-32.556M213.448 80.83c0-17.98-14.575-32.555-32.555-32.555S148.338 62.85 148.338 80.83"></path>
<path class="animate-stroke o200" d="M231.826 322.523c19.33-1.4 34.576-17.525 34.576-37.213 0-11.114-4.86-21.094-12.57-27.93" stroke-width="8"></path>
<path d="M231.826 322.523c19.33-1.4 34.576-17.525 34.576-37.213 0-11.114-4.86-21.094-12.57-27.93"></path>
<path d="M213.435 319.188a37.17 37.17 0 0 0 15.656 3.434c.92 0 1.83-.034 2.735-.099"></path>
<path class="animate-stroke o200" d="M221.485 151.712c16.125.525 32.073-9.427 37.258-25.995 7.27-23.236-10.205-47.757-34.533-48.452-13.88-.397-27.116 7.181-33.802 19.352" stroke-width="8"></path>
<path d="M221.485 151.712c16.125.525 32.073-9.427 37.258-25.995 7.27-23.236-10.205-47.757-34.533-48.452-13.88-.397-27.116 7.181-33.802 19.352"></path>
<path d="M292.038 198.873a62.412 62.412 0 0 0-1.049-10.944c-3.31-17.78-14.463-33.566-30.047-42.723-1.962-1.152-7.37-4.066-10.452-4.946"></path>
<path class="animate-stroke o200" d="M179.374 238.167a61.418 61.418 0 0 0 2.286 2.776c12.073 13.819 29.893 21.78 48.24 21.547 18.305-.23 35.885-8.626 47.598-22.69 9.56-11.479 14.654-26.132 14.54-40.928" stroke-width="8"></path>
<path d="M179.374 238.167a61.418 61.418 0 0 0 2.286 2.776c12.073 13.819 29.893 21.78 48.24 21.547 18.305-.23 35.885-8.626 47.598-22.69 9.56-11.479 14.654-26.132 14.54-40.928"></path>
<path d="M185.969 130.213c11.778 0 22.293-5.411 29.193-13.884"></path>
<path class="animate-stroke o200" d="M148.337 92.582c0 20.783 16.85 37.63 37.632 37.63" stroke-width="8"></path>
<path d="M148.337 92.582c0 20.783 16.85 37.63 37.632 37.63"></path>
<path d="M205.166 187.526c-31.386 0-56.829 25.443-56.829 56.83"></path>
<path class="animate-stroke o200" d="M242.34 201.37c-9.965-8.625-22.96-13.844-37.174-13.844" stroke-width="8"></path>
<path d="M242.34 201.37c-9.965-8.625-22.96-13.844-37.174-13.844"></path>
</g>
</svg>
