<svg xmlns="http://www.w3.org/2000/svg" xmlns:xlink="http://www.w3.org/1999/xlink" width="18" height="15" viewBox="0 0 18 15">
    <defs>
        <path id="a" d="M0 0h1440v800H0z"/>
    </defs>
    <g fill="none" fill-rule="evenodd">
        <use fill="#000" transform="translate(-1104 -488)" xlink:href="#a"/>
        <path fill="#FFF" d="M16.137 3.75c.023.096.035.252.035.469 0 1.73-.41 3.401-1.23 5.012-.844 1.706-2.028 3.065-3.551 4.074C9.727 14.435 7.816 15 5.66 15 3.597 15 1.71 14.435 0 13.305c.258.024.55.036.879.036 1.71 0 3.246-.54 4.605-1.622-.82 0-1.54-.247-2.162-.74A3.765 3.765 0 0 1 2.04 9.124c.234.024.457.036.668.036.328 0 .656-.036.984-.109-.843-.192-1.546-.637-2.109-1.334a3.687 3.687 0 0 1-.844-2.38v-.072c.516.313 1.067.481 1.653.505A4.166 4.166 0 0 1 1.195 4.4a3.71 3.71 0 0 1-.457-1.82c0-.662.176-1.293.528-1.894a10.237 10.237 0 0 0 3.357 2.813A10.02 10.02 0 0 0 8.859 4.65a5.387 5.387 0 0 1-.07-.865c0-.673.164-1.304.492-1.893A3.662 3.662 0 0 1 10.617.505 3.497 3.497 0 0 1 12.445 0c.54 0 1.037.108 1.494.325.457.216.862.504 1.213.865a7.395 7.395 0 0 0 2.356-.902A3.743 3.743 0 0 1 15.89 2.38 7.778 7.778 0 0 0 18 1.767a8.233 8.233 0 0 1-1.863 1.983z"/>
    </g>
</svg>
