<?xml version="1.0" encoding="UTF-8"?>
<svg width="124px" height="124px" viewBox="0 0 124 124" version="1.1" xmlns="http://www.w3.org/2000/svg" xmlns:xlink="http://www.w3.org/1999/xlink">
    <!-- Generator: Sketch 53.2 (72643) - https://sketchapp.com -->
    <title>Uber</title>
    <desc>Created with Sketch.</desc>
    <defs>
        <rect id="path-1" x="0" y="0" width="124" height="124"></rect>
    </defs>
    <g stroke="none" stroke-width="1" fill="none" fill-rule="evenodd">
        <g>
            <g>
                <use fill-opacity="0.01" fill="#D8D8D8" fill-rule="evenodd" style="mix-blend-mode: screen;" xlink:href="#path-1"></use>
                <rect stroke-opacity="0" stroke="#979797" stroke-width="1" stroke-linejoin="square" x="0.5" y="0.5" width="123" height="123"></rect>
            </g>
            <g transform="translate(36.000000, 53.000000)" fill="#848484" fill-rule="nonzero">
                <path d="M3.19492595,12.8553688 C3.42959676,13.4368584 3.75449331,13.9340475 4.16967552,14.3469359 C4.58485773,14.7598803 5.07672583,15.0758817 5.64527982,15.2949962 C6.21389373,15.5141107 6.83211381,15.62364 7.5,15.62364 C8.14985302,15.62364 8.75902657,15.5098593 9.32764047,15.282298 C9.89625437,15.0547367 10.3926158,14.7345398 10.8167846,14.3216513 C11.2409535,13.908707 11.5704032,13.4157693 11.805074,12.8427265 C12.0397449,12.2696837 12.1570503,11.6292898 12.1570503,10.9213772 L12.1570503,0 L15,0 L15,17.6966408 L12.18413,17.6966408 L12.18413,16.0533662 C11.5523701,16.6769222 10.8077381,17.1572735 9.95035387,17.49442 C9.09290975,17.8314547 8.16788619,18 7.17510345,18 C6.16422763,18 5.22111099,17.8356502 4.3456337,17.5070064 C3.47021632,17.1783627 2.71204448,16.7107096 2.07129791,16.1039353 C1.43055134,15.4971611 0.925083476,14.7683271 0.55507405,13.9171538 C0.185004713,13.0660364 0,12.1180321 0,11.0730288 L0,0 L2.84294969,0 L2.84294969,10.9213772 C2.84294969,11.6292898 2.96025514,12.2738791 3.19492595,12.8553688 Z"></path>
                <path d="M19.7545331,0 L19.7545331,6.4466399 C20.3908908,5.8567575 21.1273037,5.38910298 21.9636511,5.04356447 C22.7999984,4.69802596 23.709124,4.52528467 24.6909073,4.52528467 C25.7091401,4.52528467 26.6635863,4.70222142 27.5545475,5.05615086 C28.4454484,5.4100803 29.2181298,5.8904331 29.8727124,6.49720924 C30.5272949,7.10398538 31.0454935,7.82023519 31.4273082,8.64607056 C31.8091228,9.47196186 32,10.3483666 32,11.2753406 C32,12.2022587 31.8091228,13.074468 31.4273082,13.8918564 C31.0454935,14.7093009 30.5272949,15.4214112 29.8727124,16.0280754 C29.2181298,16.6348516 28.4454484,17.1152044 27.5545475,17.4691338 C26.6635863,17.8230632 25.7090798,18 24.6909073,18 C23.7090637,18 22.7954724,17.8272587 21.9500127,17.4817202 C21.104553,17.1362376 20.3636141,16.6685272 19.7272563,16.0786448 L19.7272563,17.6966399 L17,17.6966399 L17,0 L19.7545331,0 Z M20.0681558,13.0197031 C20.3135865,13.5590721 20.6545463,14.0309781 21.0909146,14.4354769 C21.5272828,14.8399756 22.036369,15.1602295 22.6181733,15.3961824 C23.2000378,15.6321354 23.8272832,15.7501119 24.5000302,15.7501119 C25.1546127,15.7501119 25.7727457,15.6321354 26.35455,15.3961824 C26.9363542,15.1602295 27.440854,14.8400316 27.8682306,14.4354769 C28.2954865,14.031034 28.6363859,13.5590721 28.8909291,13.0197031 C29.1454722,12.4803901 29.2727437,11.8989546 29.2727437,11.2753406 C29.2727437,10.6517267 29.1454722,10.0660397 28.8909291,9.5182798 C28.6363859,8.97051986 28.2954865,8.49441848 27.8682306,8.0899197 C27.4409144,7.68547685 26.9364145,7.36941848 26.35455,7.14191239 C25.7726854,6.9144063 25.1545524,6.80056934 24.5000302,6.80056934 C23.845508,6.80056934 23.2273146,6.91435036 22.6455104,7.14191239 C22.0637062,7.36947442 21.55462,7.68547685 21.1181914,8.0899197 C20.6818835,8.49441848 20.3363976,8.97051986 20.0818545,9.5182798 C19.8273114,10.0660397 19.7000398,10.6517267 19.7000398,11.2753406 C19.6999795,11.8989546 19.822725,12.4803901 20.0681558,13.0197031 Z"></path>
                <path d="M33.5414898,8.99053239 C33.902503,8.20709571 34.3990533,7.51753925 35.0308413,6.92180885 C35.6626293,6.32607844 36.4119188,5.85683985 37.2784702,5.51409308 C38.1450216,5.1713463 39.0837756,5 40.0947323,5 C41.0876532,5 42.0083716,5.16322049 42.8568873,5.48960729 C43.7053431,5.81604827 44.4364771,6.26898106 45.0502893,6.84840567 C45.6641016,7.42777611 46.1425563,8.11332383 46.4854739,8.90488632 C46.8285113,9.69650298 47,10.5574599 47,11.4878113 L47,12.2957337 L35.7620352,12.2957337 C35.8523335,12.801701 36.03287,13.2709396 36.3036448,13.7033953 C36.5744796,14.1359053 36.9129032,14.5113178 37.3190954,14.8295788 C37.7252877,15.147894 38.1856468,15.3968147 38.7001729,15.5762868 C39.2146991,15.7558131 39.7607427,15.8456304 40.3384836,15.8456304 C41.981348,15.8456304 43.3082586,15.23354 44.3192152,14.0094134 L46.2960094,15.331429 C45.6099945,16.1638372 44.7615387,16.8167192 43.7505821,17.2900207 C42.7395655,17.7633222 41.6022393,18 40.3385435,18 C39.3094912,18 38.3482076,17.8367253 37.4545727,17.5103385 C36.5609379,17.1839517 35.7846847,16.7269019 35.1257533,16.1392973 C34.4668219,15.5516927 33.9478019,14.8621362 33.5686931,14.0705737 C33.1895844,13.2790112 33.0000001,12.4180001 33.0000001,11.4877029 C32.9998802,10.6063773 33.1804767,9.77396906 33.5414898,8.99053239 Z M37.3461789,8.02345235 C36.5789136,8.60287695 36.0689414,9.37407074 35.8162022,10.3370337 L44.2379648,10.3370337 C44.0032613,9.37407074 43.5022769,8.60287695 42.7350117,8.02345235 C41.9677464,7.44408191 41.0696176,7.1543696 40.0406252,7.1543696 C39.011573,7.1543696 38.1134442,7.44408191 37.3461789,8.02345235 Z"></path>
                <path d="M51.6226162,8.26264766 C51.041568,8.85277835 50.7510138,9.65366601 50.7510138,10.6653666 L50.7510138,18 L48,18 L48,5.10123721 L50.7237122,5.10123721 L50.7237122,6.69461807 C51.0687491,6.17192289 51.5181709,5.75880342 52.0719778,5.45531563 C52.6257846,5.15177188 53.2840366,5 54.0467339,5 L55,5 L55,7.37742363 L53.8560445,7.37742363 C52.9481605,7.37747959 52.2036643,7.67251696 51.6226162,8.26264766 Z"></path>
            </g>
        </g>
    </g>
</svg>