<svg width="83" height="83" viewBox="0 0 83 83" fill="none" xmlns="http://www.w3.org/2000/svg">
<path d="M20.7041 45.427C20.9027 45.9439 21.1777 46.3858 21.5291 46.7528C21.8805 47.1199 22.2967 47.4008 22.778 47.5956C23.2592 47.7903 23.7824 47.8877 24.3477 47.8877C24.8977 47.8877 25.4133 47.7865 25.8946 47.5843C26.3758 47.382 26.7959 47.0974 27.1549 46.7304C27.5139 46.3633 27.7928 45.9251 27.9914 45.4158C28.19 44.9064 28.2893 44.3371 28.2893 43.7079V34H30.6954V49.7303H28.3122V48.2697C27.7775 48.8239 27.1473 49.2509 26.4216 49.5506C25.6959 49.8502 24.913 50 24.0727 50C23.2172 50 22.419 49.8539 21.678 49.5618C20.9371 49.2697 20.2954 48.854 19.7531 48.3146C19.2108 47.7753 18.783 47.1274 18.4698 46.3708C18.1566 45.6143 18 44.7716 18 43.8427V34H20.4062V43.7079C20.4062 44.3371 20.5054 44.9101 20.7041 45.427Z" fill="#848484"/>
<path d="M34.8431 34V39.7303C35.3778 39.206 35.9965 38.7903 36.6993 38.4832C37.402 38.176 38.1659 38.0225 38.9908 38.0225C39.8464 38.0225 40.6484 38.1797 41.397 38.4943C42.1456 38.8089 42.7948 39.2359 43.3448 39.7753C43.8948 40.3146 44.3303 40.9513 44.6511 41.6854C44.9719 42.4195 45.1323 43.1985 45.1323 44.0225C45.1323 44.8464 44.9719 45.6217 44.6511 46.3483C44.3303 47.0749 43.8948 47.7079 43.3448 48.2471C42.7948 48.7865 42.1456 49.2135 41.397 49.5281C40.6484 49.8427 39.8463 49.9999 38.9908 49.9999C38.1658 49.9999 37.3982 49.8464 36.6878 49.5393C35.9774 49.2322 35.3548 48.8164 34.8201 48.2921V49.7303H32.5286V34H34.8431ZM35.1066 45.573C35.3128 46.0525 35.5993 46.4719 35.9659 46.8315C36.3326 47.191 36.7604 47.4757 37.2492 47.6855C37.7381 47.8952 38.2652 48.0001 38.8304 48.0001C39.3805 48.0001 39.8998 47.8952 40.3887 47.6855C40.8776 47.4757 41.3015 47.1911 41.6606 46.8315C42.0196 46.472 42.306 46.0525 42.5199 45.573C42.7338 45.0936 42.8407 44.5768 42.8407 44.0225C42.8407 43.4682 42.7338 42.9476 42.5199 42.4607C42.306 41.9738 42.0196 41.5506 41.6606 41.191C41.3015 40.8315 40.8776 40.5506 40.3887 40.3483C39.8998 40.1461 39.3804 40.0449 38.8304 40.0449C38.2805 40.0449 37.7611 40.1461 37.2722 40.3483C36.7833 40.5506 36.3556 40.8315 35.9889 41.191C35.6223 41.5506 35.332 41.9738 35.1181 42.4607C34.9042 42.9476 34.7973 43.4682 34.7973 44.0225C34.7972 44.5768 34.9004 45.0936 35.1066 45.573Z" fill="#848484"/>
<path d="M46.4382 41.7079C46.7437 40.9888 47.1639 40.3559 47.6986 39.809C48.2332 39.2622 48.8673 38.8315 49.6006 38.5169C50.3339 38.2023 51.1283 38.045 51.9839 38.045C52.8241 38.045 53.6033 38.1949 54.3213 38.4944C55.0393 38.7941 55.658 39.2098 56.1775 39.7417C56.6969 40.2735 57.1018 40.9027 57.392 41.6293C57.6823 42.3559 57.8274 43.1462 57.8274 44.0001V44.7417H48.3173C48.3938 45.2061 48.5465 45.6368 48.7757 46.0338C49.0049 46.4308 49.2913 46.7754 49.635 47.0675C49.9787 47.3597 50.3683 47.5882 50.8037 47.7529C51.2391 47.9177 51.7012 48.0001 52.1901 48.0001C53.5804 48.0001 54.7033 47.4383 55.5588 46.3147L57.2317 47.5281C56.6511 48.2922 55.9331 48.8915 55.0776 49.3259C54.222 49.7603 53.2596 49.9776 52.1902 49.9776C51.3194 49.9776 50.5059 49.8277 49.7496 49.5281C48.9934 49.2285 48.3365 48.809 47.7789 48.2697C47.2213 47.7303 46.7821 47.0974 46.4612 46.3708C46.1404 45.6442 45.98 44.8539 45.98 44C45.9799 43.1911 46.1327 42.427 46.4382 41.7079ZM49.6579 40.8202C49.0086 41.3521 48.5771 42.0599 48.3632 42.9438H55.4901C55.2914 42.0599 54.8675 41.3521 54.2182 40.8202C53.5689 40.2884 52.8089 40.0225 51.9381 40.0225C51.0672 40.0225 50.3072 40.2884 49.6579 40.8202Z" fill="#848484"/>
<path d="M62.1585 41.0787C61.6696 41.603 61.4251 42.3146 61.4251 43.2135V49.7304H59.1106V38.2697H61.4022V39.6854C61.6925 39.221 62.0706 38.854 62.5365 38.5843C63.0025 38.3146 63.5563 38.1797 64.198 38.1797H65V40.2921H64.0375C63.2737 40.2922 62.6473 40.5543 62.1585 41.0787Z" fill="#848484"/>
</svg>
