<svg width="97" height="83" viewBox="0 0 97 83" fill="none" xmlns="http://www.w3.org/2000/svg">
<path d="M92.0095 31L87.0816 41.5422L85.2285 37.5477H83.2244L86.2717 44.0817H87.8915L93.9999 31H92.0095Z" fill="#848484"/>
<path d="M70.8702 50.5745H74.8372V43.313C74.8372 41.652 75.7981 40.4852 77.2257 40.4852C78.5984 40.4852 79.3122 41.4461 79.3122 42.8325V50.5745H83.2792V42.0775C83.2792 39.1949 81.5496 37.1633 78.7494 37.1633C76.9649 37.1633 75.7157 37.932 74.7823 39.3322H74.7V37.5477H70.8564L70.8702 50.5745ZM63.0733 37.1908C58.9278 37.1908 56.155 40.1695 56.155 44.0954C56.155 47.9938 58.9278 51 63.0733 51C67.2188 51 69.9916 47.9938 69.9916 44.0954C70.0054 40.1695 67.2188 37.1908 63.0733 37.1908ZM63.0459 48.0624C61.1653 48.0624 60.1632 46.4839 60.1632 44.0954C60.1632 41.6795 61.1516 40.1283 63.0459 40.1283C64.9264 40.1283 65.9697 41.6795 65.9697 44.0954C65.9834 46.4839 64.9402 48.0624 63.0459 48.0624ZM44.8441 50.5745H55.9903V47.4447H49.6759V47.3624L55.7157 40.595V37.534H44.8441V40.6774H50.9525V40.7598L44.8441 47.582V50.5745ZM39.7514 50.5745H43.7459V37.5477H39.7514V50.5745ZM30.4858 50.5745H34.4666V44.5896C34.4666 41.8716 36.1001 40.6637 38.5846 41.0069H38.667V37.5751C38.4611 37.4928 38.2277 37.4791 37.8571 37.4791C36.306 37.4791 35.2627 38.1929 34.3705 39.7165H34.2881V37.5477H30.4858V50.5745ZM23.1831 48.0762C21.4261 48.0762 20.3554 46.9368 20.1495 45.1798H29.5387C29.5661 42.3795 28.8249 40.1421 27.2737 38.7419C26.1756 37.7261 24.7343 37.1633 22.8949 37.1633C18.969 37.1633 16.2511 40.1421 16.2511 44.0405C16.2511 47.9664 18.8455 50.9588 23.1557 50.9588C24.7892 50.9588 26.0795 50.5196 27.1502 49.792C28.2895 49.0096 29.1131 47.8565 29.3328 46.7172H25.5167C25.1461 47.5683 24.3499 48.0762 23.1831 48.0762ZM22.9772 40.0048C24.3774 40.0048 25.3382 41.048 25.503 42.5717H20.177C20.4927 41.0343 21.33 40.0048 22.9772 40.0048ZM8.31697 50.5745H12.4899L17.0198 37.5477H13.0253L10.4858 45.9211H10.4309L7.89143 37.5477H3.78711L8.31697 50.5745ZM39.7514 32.908H43.7459V36.4495H39.7514V32.908Z" fill="#929292"/>
</svg>
