<svg width="140" height="83" viewBox="0 0 140 83" fill="none" xmlns="http://www.w3.org/2000/svg">
<path d="M23.1572 33.1353H21.1499L20.0673 44.5025L19.1201 33.1353H17L18.669 48.9231H21.1499L22.0521 39.5181L22.9768 48.9231H25.4577L27.1267 33.1353H25.1871L24.2173 44.5025L23.1572 33.1353Z" fill="#848484"/>
<path d="M34.1107 46.5098V35.5486C34.1107 33.8345 33.2762 33 31.5847 33H30.457C28.7429 33 27.9084 33.8345 27.9084 35.5486V46.5098C27.9084 48.2014 28.7429 49.0584 30.457 49.0584H31.5847C33.2762 49.0584 34.1107 48.2014 34.1107 46.5098ZM32.0357 35.6388V46.4196C32.0357 46.9609 31.7651 47.209 31.2238 47.209H30.7953C30.254 47.209 30.0059 46.9609 30.0059 46.4196V35.6388C30.0059 35.0975 30.254 34.8494 30.7953 34.8494H31.2238C31.7651 34.8494 32.0357 35.0975 32.0357 35.6388Z" fill="#848484"/>
<path d="M40.1354 41.4352C40.9023 41.142 41.3308 40.5556 41.3308 39.3377V35.6839C41.3308 33.9698 40.5414 33.1353 38.8047 33.1353H35.354V48.9231H37.4515V42.405H38.3988C38.9852 42.405 39.2784 42.6756 39.2784 43.2846V48.9231H41.3533V43.2395C41.3533 42.2246 40.9925 41.6833 40.1354 41.4352ZM39.2558 35.7967V39.7436C39.2558 40.33 38.9852 40.6007 38.3988 40.6007H37.4515V35.0073H38.4439C38.9852 35.0073 39.2558 35.2554 39.2558 35.7967Z" fill="#848484"/>
<path d="M48.916 48.9231L46.6606 40.9164L48.9836 33.1353H46.8184L44.6758 40.7135V33.1353H42.5783V48.9231H44.6758V41.3224L46.6606 48.9231H48.916Z" fill="#848484"/>
<path d="M51.7905 33.1353H49.693V48.9231H51.7905V33.1353Z" fill="#848484"/>
<path d="M59.3544 48.9231V33.1353H57.4599L57.4824 40.2624L57.5275 43.1042L55.5202 33.1353H53.0844V48.9231H54.9564V41.2773L54.8887 38.0521L57.0764 48.9231H59.3544Z" fill="#848484"/>
<path d="M64.7219 42.2922V46.4196C64.7219 46.9609 64.4738 47.209 63.955 47.209H63.4589C62.9176 47.209 62.6695 46.9609 62.6695 46.4196V35.6388C62.6695 35.0975 62.9176 34.8494 63.4589 34.8494H63.8874C64.4287 34.8494 64.6768 35.0975 64.6768 35.6388V38.7287H66.7517V35.526C66.7517 33.8571 65.9172 33 64.2257 33H63.1206C61.4065 33 60.572 33.8571 60.572 35.5486V46.5098C60.572 48.2014 61.4065 49.0584 63.1206 49.0584H64.2482C65.9398 49.0584 66.7743 48.2014 66.7743 46.5098V40.4654H63.6393V42.2922H64.7219Z" fill="#848484"/>
<path d="M76.2824 33.1353H74.2751L73.1925 44.5025L72.2452 33.1353H70.1251L71.7941 48.9231H74.2751L75.1772 39.5181L76.1019 48.9231H78.5829L80.2519 33.1353H78.3122L77.3424 44.5025L76.2824 33.1353Z" fill="#848484"/>
<path d="M87.2358 46.5098V35.5486C87.2358 33.8345 86.4013 33 84.7098 33H83.5821C81.868 33 81.0335 33.8345 81.0335 35.5486V46.5098C81.0335 48.2014 81.868 49.0584 83.5821 49.0584H84.7098C86.4013 49.0584 87.2358 48.2014 87.2358 46.5098ZM85.1609 35.6388V46.4196C85.1609 46.9609 84.8902 47.209 84.3489 47.209H83.9204C83.3791 47.209 83.131 46.9609 83.131 46.4196V35.6388C83.131 35.0975 83.3791 34.8494 83.9204 34.8494H84.3489C84.8902 34.8494 85.1609 35.0975 85.1609 35.6388Z" fill="#848484"/>
<path d="M93.2606 41.4352C94.0274 41.142 94.4559 40.5556 94.4559 39.3377V35.6839C94.4559 33.9698 93.6665 33.1353 91.9299 33.1353H88.4791V48.9231H90.5767V42.405H91.5239C92.1103 42.405 92.4035 42.6756 92.4035 43.2846V48.9231H94.4785V43.2395C94.4785 42.2246 94.1176 41.6833 93.2606 41.4352ZM92.381 35.7967V39.7436C92.381 40.33 92.1103 40.6007 91.5239 40.6007H90.5767V35.0073H91.569C92.1103 35.0073 92.381 35.2554 92.381 35.7967Z" fill="#848484"/>
<path d="M102.041 48.9231L99.7857 40.9164L102.109 33.1353H99.9436L97.801 40.7135V33.1353H95.7034V48.9231H97.801V41.3224L99.7857 48.9231H102.041Z" fill="#848484"/>
<path d="M104.916 33.1353H102.818V48.9231H104.916V33.1353Z" fill="#848484"/>
<path d="M112.48 48.9231V33.1353H110.585L110.608 40.2624L110.653 43.1042L108.645 33.1353H106.21V48.9231H108.082V41.2773L108.014 38.0521L110.202 48.9231H112.48Z" fill="#848484"/>
<path d="M117.847 42.2922V46.4196C117.847 46.9609 117.599 47.209 117.08 47.209H116.584C116.043 47.209 115.795 46.9609 115.795 46.4196V35.6388C115.795 35.0975 116.043 34.8494 116.584 34.8494H117.013C117.554 34.8494 117.802 35.0975 117.802 35.6388V38.7287H119.877V35.526C119.877 33.8571 119.042 33 117.351 33H116.246C114.532 33 113.697 33.8571 113.697 35.5486V46.5098C113.697 48.2014 114.532 49.0584 116.246 49.0584H117.373C119.065 49.0584 119.899 48.2014 119.899 46.5098V40.4654H116.764V42.2922H117.847Z" fill="#848484"/>
<path fill-rule="evenodd" clip-rule="evenodd" d="M68.6611 40.4653L122.54 40.4654L122.54 42.3448L68.6611 42.3448L68.6611 40.4653Z" fill="#848484"/>
</svg>
