<?xml version="1.0" encoding="UTF-8"?>
<svg width="97px" height="133px" viewBox="0 0 97 133" version="1.1" xmlns="http://www.w3.org/2000/svg" xmlns:xlink="http://www.w3.org/1999/xlink">
    <!-- Generator: Sketch 52.2 (67145) - http://www.bohemiancoding.com/sketch -->
    <title>Group 18</title>
    <desc>Created with Sketch.</desc>
    <g stroke="none" stroke-width="1" fill="none" fill-rule="evenodd">
        <g transform="translate(-574.000000, -400.000000)">
            <g>
                <g>
                    <g>
                        <g>
                            <g transform="translate(206.000000, 400.000000)">
                                <g transform="translate(370.000000, 1.000000)">
                                    <g>
                                        <g>
                                            <g stroke="#000000">
                                                <g>
                                                    <g>
                                                        <g>
                                                            <g>
                                                                <polyline stroke-width="1.27799989" points="15.738806 21.6350412 21.2610914 21.6388637 21.2686567 10.926555"></polyline>
                                                                <path d="M9.78358209,21.6388637 L15.738806,21.6431487" stroke-width="0.5"></path>
                                                                <path d="M0.00421750299,11.7835397 L0,21.6388637 M21.2610637,17.9966787 L21.2686567,0.0264006468 L0.00527292434,0 L0,11.7625584" stroke-width="0.5"></path>
                                                            </g>
                                                        </g>
                                                    </g>
                                                </g>
                                                <g transform="translate(10.634328, 35.133077) scale(-1, -1) translate(-10.634328, -35.133077) translate(0.000000, 24.206522)">
                                                    <g>
                                                        <g>
                                                            <g>
                                                                <polyline stroke-width="1.27799989" points="15.738806 21.6350412 21.2610914 21.6388637 21.2686567 10.926555"></polyline>
                                                                <path d="M9.78358209,21.6388637 L15.738806,21.6431487" stroke-width="0.5"></path>
                                                                <path d="M0.00421750299,11.7835397 L0,21.6388637 M21.2610637,17.9966787 L21.2686567,0.0264006468 L0.00527292434,0 L0,11.7625584" stroke-width="0.5"></path>
                                                            </g>
                                                        </g>
                                                    </g>
                                                </g>
                                                <g transform="translate(83.656716, 95.649381) rotate(-180.000000) translate(-83.656716, -95.649381) translate(73.022388, 84.722826)">
                                                    <g>
                                                        <polyline stroke-width="1.27799989" points="15.738806 21.8492874 21.2610914 21.8531099 21.2686567 11.1408011"></polyline>
                                                        <path d="M9.78358209,21.6388637 L15.738806,21.6431487" stroke-width="0.5"></path>
                                                    </g>
                                                    <path d="M0.00421750299,11.7835397 L0,21.6388637 M21.2610637,17.9966787 L21.2686567,0.0264006468 L0.00527292434,0 L0,11.7625584" stroke-width="0.5" transform="translate(10.634328, 10.819432) scale(-1, 1) translate(-10.634328, -10.819432) "></path>
                                                </g>
                                                <g transform="translate(83.656716, 120.073445) scale(-1, -1) rotate(-180.000000) translate(-83.656716, -120.073445) translate(73.022388, 109.146890)">
                                                    <g>
                                                        <polyline stroke-width="1.27799989" points="15.738806 21.8492874 21.2610914 21.8531099 21.2686567 11.1408011"></polyline>
                                                        <path d="M9.78358209,21.6388637 L15.738806,21.6431487" stroke-width="0.5"></path>
                                                    </g>
                                                    <path d="M0.00421750299,11.7835397 L0,21.6388637 M21.2610637,17.9966787 L21.2686567,0.0264006468 L0.00527292434,0 L0,11.7625584" stroke-width="0.5" transform="translate(10.634328, 10.819432) scale(-1, 1) translate(-10.634328, -10.819432) "></path>
                                                </g>
                                            </g>
                                            <ellipse stroke="#000000" stroke-width="0.702899975" cx="61.6627418" cy="61.9231304" rx="2.11050298" ry="2.11878261"></ellipse>
                                            <path d="M59.2268394,61.2282609 C54.8595645,57.519227 46.8131996,55.66471 35.0877449,55.66471 C23.3622901,55.66471 15.3159253,48.8547717 10.9486503,35.2348951" stroke="#000000" stroke-width="0.702899975" stroke-dasharray="1.405799971055984,3.514500096917146"></path>
                                            <g transform="translate(0.000000, 59.092391)">
                                                <path d="M51.7114484,22.8726487 C51.7114484,11.1622141 42.7085862,0 25.3677688,0 C8.02695145,0 0.102108716,9.92608482 0.102108716,22.8726487 C0.102108716,26.8527994 1.00169943,31.2882082 2.80088086,36.1788752 L6.15064993,35.2790759 C5.337002,26.0423 5.96243584,20.867704 8.02695145,19.755288 C13.0018383,17.0746864 19.8924497,20.8786426 26.3011804,20.8750001 C30.1614156,20.872806 34.5442635,18.9584641 39.4497241,15.1319744 C39.6677283,21.0144844 40.8854625,25.224183 43.1029265,27.7610702 C44.1082112,28.8347386 44.8829613,31.3407405 45.4271769,35.2790759 L49.4323129,36.1788752 C50.9517365,33.9928216 51.7114484,29.5574128 51.7114484,22.8726487 Z"></path>
                                                <path d="M44.3384481,42.3604404 L43.5974887,51.3417317 C42.2437322,63.2202137 33.9625895,71.3323478 25.529902,71.3323478 C25.3287245,71.3323478 25.1275471,71.3275192 24.9265903,71.3183008" stroke="#000000" stroke-width="2.12999994"></path>
                                                <path d="M44.3384481,42.3604404 L43.5974887,51.3417317 C42.2437322,63.2202137 33.9625895,71.3323478 25.529902,71.3323478 C25.3287245,71.3323478 25.1275471,71.3275192 24.9265903,71.3183008" stroke="#000000" stroke-width="2.12999994"></path>
                                                <path d="M40.1472516,21.5094464 C41.65895,27.9837898 45.2208053,28.3283799 45.2208053,34.7956998 L44.6075671,42.1409563 M39.4854837,15.3638903 C39.5134985,18.0176731 39.7647497,20.0722642 40.1472516,21.7289306" stroke="#000000" stroke-width="0.5"></path>
                                                <path d="M5.96473452,29.4108757 C5.8764988,24.4316584 6.38561889,19.202668 10.30152,18.9671615 C15.1052931,18.6783204 30.7523535,25.1070111 39.4854837,14.7054379" stroke="#000000" stroke-width="2.12999994"></path>
                                                <path d="M5.96473452,29.4108757 C5.8764988,24.4316584 6.38561889,19.202668 10.30152,18.9671615 C15.1052931,18.6783204 30.7523535,25.1070111 39.4854837,14.7054379" stroke="#000000" stroke-width="0.5"></path>
                                                <path d="M6.61767883,39.7266306 C6.4409868,37.408878 6.2391476,35.0915644 6.08716158,32.7722754 C6.01370534,31.6540037 5.97686693,30.5309033 5.95591094,29.4108757 M7.7206253,52.8956795 C7.34871175,50.4245075 7.20047574,47.9263389 7.05885742,45.4332185 M24.9265903,71.1128637 C18.2277346,71.0009268 12.580428,65.8981398 9.92651824,60.3581405" stroke="#000000" stroke-width="0.5"></path>
                                                <path d="M6.32936862,35.3722846 C6.32936862,35.3722846 1.91228859,34.6501818 1.62111072,39.7297034 C1.32993286,44.809225 1.58581644,51.7754324 7.500036,51.3397563 M49.8531805,42.3604404 C49.7865625,46.7457337 48.729278,51.2510848 43.8972696,50.901227" stroke="#000000" stroke-width="0.5"></path>
                                                <path d="M45.000216,34.9330969 C45.000216,34.9330969 49.4797228,34.2188954 49.7750919,39.2437655 C49.8293569,40.1653794 49.8648717,41.1499853 49.8496511,42.1409563" stroke="#000000" stroke-width="2.12999994"></path>
                                                <path d="M45.000216,34.9330969 C45.000216,34.9330969 49.4797228,34.2188954 49.7750919,39.2437655 C49.8293569,40.1653794 49.8648717,41.1499853 49.8496511,42.1409563" stroke="#000000" stroke-width="0.5"></path>
                                                <path d="M51.5735564,19.3146049 C52.096353,25.2297027 52.096353,31.5188015 49.1914126,36.8733367 M24.9265903,0.00877936589 C31.8841972,-0.154736324 38.9525399,1.9632857 44.3384481,6.36504027" stroke="#000000" stroke-width="0.5"></path>
                                                <path d="M0,20.1925415 C0.427943231,14.6000855 2.64111562,8.73437164 8.82246882,4.70617908 C13.7868309,1.47098275 19.4246521,0.0368733367 24.9265903,0" stroke="#000000" stroke-width="2.12999994"></path>
                                                <path d="M2.86766083,36.4343684 C2.86766083,36.4343684 -0.570443915,28.6227081 0.0825003961,20.1925415" stroke="#000000" stroke-width="0.5"></path>
                                                <path d="M25.3526715,45.3234764 L25.3526715,38.3150684" stroke="#000000" stroke-width="0.5"></path>
                                                <path d="M16.9306106,31.6794501 C16.760063,31.5812966 16.5498426,31.5811293 16.3791373,31.6790111 C16.2084321,31.776893 16.1031763,31.9579534 16.1030187,32.1539888 C16.102775,32.4570332 16.3494805,32.7028957 16.6540507,32.7031381 C16.958621,32.7033806 17.2057215,32.4579111 17.2059651,32.1548667 C17.2061228,31.9588314 17.1011582,31.7776036 16.9306106,31.6794501 Z" fill="#000000"></path>
                                                <path d="M34.3571648,31.6794501 C34.1866172,31.5812966 33.9763968,31.5811293 33.8056916,31.6790111 C33.6349864,31.776893 33.5297305,31.9579534 33.5295729,32.1539888 C33.5293293,32.4570332 33.7760347,32.7028957 34.080605,32.7031381 C34.3851752,32.7033806 34.6322757,32.4579111 34.6325194,32.1548667 C34.632677,31.9588314 34.5277124,31.7776036 34.3571648,31.6794501 Z" stroke="#000000" stroke-width="0.5"></path>
                                            </g>
                                            <ellipse stroke="#000000" stroke-width="0.702899975" cx="24.7970701" cy="121.015522" rx="2.11050298" ry="2.11878261"></ellipse>
                                            <path d="M26.9402985,120.816574 C47.3234076,120.76137 57.5149622,115.753295 57.5149622,105.792349 C57.5149622,95.8314027 67.1386346,90.7067792 86.3859793,90.4184783" stroke="#000000" stroke-width="0.702899975" stroke-dasharray="1.405799971055984,3.514500096917146"></path>
                                            <g transform="translate(31.194030, 0.711957)">
                                                <path d="M49.167008,42.3604404 L48.4260486,51.3417317 C47.0722921,63.2202137 38.7911494,71.3323478 30.3584619,71.3323478 C30.1572844,71.3323478 29.956107,71.3275192 29.7551502,71.3183008" stroke="#000000" stroke-width="2.12999994"></path>
                                                <path d="M49.167008,42.3604404 L48.4260486,51.3417317 C47.0722921,63.2202137 38.7911494,71.3323478 30.3584619,71.3323478 C30.1572844,71.3323478 29.956107,71.3275192 29.7551502,71.3183008" stroke="#000000" stroke-width="2.12999994"></path>
                                                <path d="M44.9758115,21.5094464 C46.4875099,27.9837898 50.0493652,28.3283799 50.0493652,34.7956998 L49.436127,42.1409563 M44.3140436,15.3638903 C44.3420584,18.0176731 44.5933096,20.0722642 44.9758115,21.7289306" stroke="#000000" stroke-width="0.5"></path>
                                                <path d="M10.7932944,29.4108757 C10.7050587,24.4316584 11.2141788,19.202668 15.1300799,18.9671615 C19.933853,18.6783204 35.5809134,25.1070111 44.3140436,14.7054379" stroke="#000000" stroke-width="2.12999994"></path>
                                                <path d="M10.7932944,29.4108757 C10.7050587,24.4316584 11.2141788,19.202668 15.1300799,18.9671615 C19.933853,18.6783204 35.5809134,25.1070111 44.3140436,14.7054379" stroke="#000000" stroke-width="0.5"></path>
                                                <path d="M11.4462387,39.7266306 C11.2695467,37.408878 11.0677075,35.0915644 10.9157215,32.7722754 C10.8422652,31.6540037 10.8054268,30.5309033 10.7844708,29.4108757 M12.5491852,52.8956795 C12.1772717,50.4245075 12.0290356,47.9263389 11.8874173,45.4332185 M29.7551502,71.1128637 C23.0562945,71.0009268 17.4089879,65.8981398 14.7550781,60.3581405" stroke="#000000" stroke-width="0.5"></path>
                                                <path d="M11.1579285,35.3722846 C11.1579285,35.3722846 6.7408485,34.6501818 6.44967063,39.7297034 C6.15849276,44.809225 6.41437634,51.7754324 12.3285959,51.3397563 M54.6817404,42.3604404 C54.6151224,46.7457337 53.557838,51.2510848 48.7258295,50.901227" stroke="#000000" stroke-width="0.5"></path>
                                                <path d="M49.8287759,34.9330969 C49.8287759,34.9330969 54.3082827,34.2188954 54.6036518,39.2437655 C54.6579168,40.1653794 54.6934316,41.1499853 54.678211,42.1409563" stroke="#000000" stroke-width="2.12999994"></path>
                                                <path d="M49.8287759,34.9330969 C49.8287759,34.9330969 54.3082827,34.2188954 54.6036518,39.2437655 C54.6579168,40.1653794 54.6934316,41.1499853 54.678211,42.1409563" stroke="#000000" stroke-width="0.5"></path>
                                                <path d="M62.9545253,35.4074325 C63.6058761,46.2509561 63.6058761,57.7800963 59.9866195,67.596 M29.7551502,0.0161024461 C38.4236117,-0.283653589 47.2300388,3.59909237 53.9403256,11.6683639" stroke="#000000" stroke-width="0.5"></path>
                                                <path d="M4.8285599,20.1925415 C5.25650313,14.6000855 7.46967552,8.73437164 13.6510287,4.70617908 C18.6153908,1.47098275 24.253212,0.0368733367 29.7551502,0" stroke="#000000" stroke-width="2.12999994"></path>
                                                <path d="M4.8285599,20.1925415 C5.25650313,14.6000855 7.46967552,8.73437164 13.6510287,4.70617908 C18.6153908,1.47098275 24.253212,0.0368733367 29.7551502,0" stroke="#000000" stroke-width="0.5"></path>
                                                <path d="M4.82857852,51.2608696 C4.82857852,51.2608696 -0.347699007,36.3182633 0.635348695,20.1925415" stroke="#000000" stroke-width="0.5" transform="translate(2.669873, 35.726706) scale(-1, 1) translate(-2.669873, -35.726706) "></path>
                                                <path d="M30.1812314,45.3234764 L30.1812314,38.3150684" stroke="#000000" stroke-width="0.5"></path>
                                                <path d="M21.7591705,31.6794501 C21.5886229,31.5812966 21.3784025,31.5811293 21.2076972,31.6790111 C21.036992,31.776893 20.9317362,31.9579534 20.9315786,32.1539888 C20.9313349,32.4570332 21.1780404,32.7028957 21.4826106,32.7031381 C21.7871809,32.7033806 22.0342814,32.4579111 22.034525,32.1548667 C22.0346827,31.9588314 21.9297181,31.7776036 21.7591705,31.6794501 Z" fill="#000000"></path>
                                                <path d="M39.1857247,31.6794501 C39.0151771,31.5812966 38.8049567,31.5811293 38.6342515,31.6790111 C38.4635463,31.776893 38.3582904,31.9579534 38.3581328,32.1539888 C38.3578892,32.4570332 38.6045946,32.7028957 38.9091649,32.7031381 C39.2137351,32.7033806 39.4608356,32.4579111 39.4610793,32.1548667 C39.4612369,31.9588314 39.3562723,31.7776036 39.1857247,31.6794501 Z" stroke="#000000" stroke-width="0.5"></path>
                                            </g>
                                        </g>
                                    </g>
                                </g>
                            </g>
                        </g>
                    </g>
                </g>
            </g>
        </g>
    </g>
</svg>